G04 EAGLE Gerber RS-274X export*
G75*
%MOMM*%
%FSLAX34Y34*%
%LPD*%
%INBottom Copper*%
%IPPOS*%
%AMOC8*
5,1,8,0,0,1.08239X$1,22.5*%
G01*
%ADD10R,1.308000X1.308000*%
%ADD11C,1.308000*%
%ADD12C,1.879600*%
%ADD13R,1.879600X1.879600*%
%ADD14C,1.308000*%
%ADD15C,1.651000*%
%ADD16R,1.651000X1.651000*%
%ADD17R,2.032000X2.032000*%
%ADD18C,2.032000*%
%ADD19C,0.609600*%
%ADD20C,2.000000*%

G36*
X-12735Y989836D02*
X-12735Y989836D01*
X-12769Y989838D01*
X-12958Y989816D01*
X-13149Y989799D01*
X-13182Y989790D01*
X-13216Y989786D01*
X-13399Y989731D01*
X-13583Y989681D01*
X-13614Y989666D01*
X-13647Y989656D01*
X-13818Y989569D01*
X-13990Y989487D01*
X-14018Y989467D01*
X-14049Y989452D01*
X-14201Y989336D01*
X-14356Y989225D01*
X-14380Y989200D01*
X-14407Y989180D01*
X-14536Y989040D01*
X-14670Y988903D01*
X-14689Y988874D01*
X-14713Y988848D01*
X-14815Y988687D01*
X-14922Y988530D01*
X-14936Y988498D01*
X-14954Y988469D01*
X-15027Y988292D01*
X-15104Y988118D01*
X-15112Y988084D01*
X-15125Y988052D01*
X-15165Y987865D01*
X-15211Y987680D01*
X-15213Y987646D01*
X-15220Y987612D01*
X-15239Y987300D01*
X-15239Y274258D01*
X-15237Y274228D01*
X-15238Y274200D01*
X-15223Y274066D01*
X-15214Y273904D01*
X-15204Y273858D01*
X-15199Y273810D01*
X-15188Y273769D01*
X-15186Y273753D01*
X-15161Y273668D01*
X-15153Y273638D01*
X-15112Y273466D01*
X-15093Y273422D01*
X-15081Y273375D01*
X-15057Y273326D01*
X-15056Y273322D01*
X-15045Y273300D01*
X-15005Y273216D01*
X-14934Y273052D01*
X-14908Y273012D01*
X-14887Y272969D01*
X-14784Y272825D01*
X-14686Y272676D01*
X-14653Y272642D01*
X-14625Y272603D01*
X-14498Y272479D01*
X-14376Y272350D01*
X-14337Y272322D01*
X-14303Y272289D01*
X-14155Y272189D01*
X-14012Y272084D01*
X-13969Y272063D01*
X-13930Y272037D01*
X-13767Y271965D01*
X-13608Y271887D01*
X-13562Y271874D01*
X-13518Y271854D01*
X-13345Y271812D01*
X-13174Y271764D01*
X-13127Y271759D01*
X-13080Y271748D01*
X-12903Y271737D01*
X-12726Y271719D01*
X-12679Y271723D01*
X-12631Y271720D01*
X-12454Y271741D01*
X-12277Y271755D01*
X-12231Y271767D01*
X-12184Y271772D01*
X-12013Y271824D01*
X-11842Y271869D01*
X-11799Y271889D01*
X-11753Y271902D01*
X-11594Y271983D01*
X-11433Y272058D01*
X-11394Y272085D01*
X-11351Y272107D01*
X-11210Y272214D01*
X-11064Y272316D01*
X-11031Y272350D01*
X-10993Y272379D01*
X-10872Y272509D01*
X-10747Y272635D01*
X-10720Y272675D01*
X-10688Y272710D01*
X-10592Y272860D01*
X-10491Y273006D01*
X-10477Y273035D01*
X-10474Y273039D01*
X-10466Y273058D01*
X-10465Y273059D01*
X-10446Y273090D01*
X-10422Y273148D01*
X-10354Y273287D01*
X-9284Y275869D01*
X-5256Y279897D01*
X25629Y310782D01*
X26230Y311031D01*
X30424Y312769D01*
X106573Y312769D01*
X106737Y312783D01*
X106901Y312790D01*
X106961Y312803D01*
X107022Y312809D01*
X107181Y312852D01*
X107341Y312888D01*
X107397Y312911D01*
X107456Y312927D01*
X107604Y312998D01*
X107756Y313061D01*
X107808Y313094D01*
X107863Y313121D01*
X107996Y313216D01*
X108135Y313306D01*
X108192Y313357D01*
X108229Y313383D01*
X108271Y313426D01*
X108369Y313512D01*
X113208Y318351D01*
X113313Y318478D01*
X113425Y318598D01*
X113457Y318650D01*
X113496Y318697D01*
X113578Y318839D01*
X113666Y318978D01*
X113690Y319035D01*
X113720Y319088D01*
X113775Y319242D01*
X113837Y319395D01*
X113850Y319454D01*
X113871Y319512D01*
X113897Y319674D01*
X113932Y319835D01*
X113937Y319912D01*
X113944Y319956D01*
X113943Y320017D01*
X113951Y320147D01*
X113951Y332636D01*
X113942Y332740D01*
X113943Y332844D01*
X113922Y332963D01*
X113911Y333085D01*
X113884Y333185D01*
X113866Y333288D01*
X113825Y333402D01*
X113793Y333519D01*
X113748Y333613D01*
X113713Y333711D01*
X113652Y333816D01*
X113599Y333926D01*
X113539Y334010D01*
X113487Y334100D01*
X113408Y334193D01*
X113337Y334292D01*
X113263Y334364D01*
X113195Y334444D01*
X113102Y334521D01*
X113015Y334606D01*
X112928Y334664D01*
X112848Y334730D01*
X112742Y334790D01*
X112642Y334858D01*
X112546Y334900D01*
X112456Y334951D01*
X112341Y334991D01*
X112230Y335040D01*
X112129Y335065D01*
X112030Y335099D01*
X111910Y335118D01*
X111792Y335147D01*
X111689Y335153D01*
X111586Y335169D01*
X111464Y335167D01*
X111343Y335174D01*
X111240Y335162D01*
X111135Y335160D01*
X111016Y335136D01*
X110896Y335122D01*
X110796Y335092D01*
X110694Y335072D01*
X110581Y335027D01*
X110465Y334992D01*
X110372Y334945D01*
X110275Y334907D01*
X110172Y334843D01*
X110063Y334788D01*
X109981Y334725D01*
X109892Y334670D01*
X109801Y334589D01*
X109705Y334516D01*
X109634Y334439D01*
X109557Y334370D01*
X109441Y334229D01*
X109400Y334184D01*
X109385Y334161D01*
X109358Y334129D01*
X108526Y332984D01*
X107516Y331974D01*
X106359Y331133D01*
X105086Y330485D01*
X104139Y330177D01*
X104139Y345440D01*
X104139Y360703D01*
X105086Y360395D01*
X106359Y359747D01*
X107516Y358906D01*
X108526Y357896D01*
X109367Y356739D01*
X110089Y355321D01*
X110153Y355171D01*
X110156Y355167D01*
X110157Y355163D01*
X110279Y354979D01*
X110400Y354794D01*
X110403Y354791D01*
X110406Y354787D01*
X110560Y354626D01*
X110710Y354467D01*
X110713Y354465D01*
X110716Y354461D01*
X110895Y354331D01*
X111072Y354200D01*
X111076Y354198D01*
X111080Y354195D01*
X111277Y354099D01*
X111476Y354001D01*
X111480Y354000D01*
X111484Y353998D01*
X111693Y353939D01*
X111909Y353876D01*
X111913Y353876D01*
X111917Y353875D01*
X112137Y353853D01*
X112357Y353830D01*
X112361Y353831D01*
X112365Y353830D01*
X112588Y353848D01*
X112806Y353864D01*
X112810Y353865D01*
X112814Y353866D01*
X113026Y353921D01*
X113242Y353977D01*
X113246Y353978D01*
X113250Y353980D01*
X113449Y354072D01*
X113651Y354164D01*
X113655Y354167D01*
X113659Y354169D01*
X113837Y354294D01*
X114021Y354421D01*
X114024Y354425D01*
X114027Y354427D01*
X114183Y354584D01*
X114339Y354740D01*
X114342Y354743D01*
X114345Y354746D01*
X114469Y354926D01*
X114596Y355109D01*
X114598Y355113D01*
X114601Y355117D01*
X114738Y355398D01*
X116287Y359138D01*
X119842Y362693D01*
X121289Y363292D01*
X121362Y363330D01*
X121439Y363360D01*
X121561Y363434D01*
X121688Y363501D01*
X121753Y363551D01*
X121823Y363594D01*
X121930Y363689D01*
X122044Y363776D01*
X122099Y363838D01*
X122161Y363892D01*
X122249Y364004D01*
X122346Y364111D01*
X122389Y364181D01*
X122440Y364245D01*
X122508Y364371D01*
X122566Y364465D01*
X122583Y364493D01*
X122614Y364570D01*
X122653Y364642D01*
X122697Y364778D01*
X122750Y364911D01*
X122767Y364992D01*
X122792Y365070D01*
X122812Y365212D01*
X122840Y365352D01*
X122842Y365435D01*
X122853Y365516D01*
X122848Y365660D01*
X122851Y365803D01*
X122838Y365884D01*
X122835Y365966D01*
X122804Y366106D01*
X122782Y366248D01*
X122755Y366326D01*
X122737Y366406D01*
X122682Y366538D01*
X122636Y366673D01*
X122596Y366745D01*
X122564Y366821D01*
X122486Y366942D01*
X122416Y367067D01*
X122364Y367130D01*
X122320Y367200D01*
X122159Y367382D01*
X122153Y367389D01*
X122150Y367392D01*
X122131Y367415D01*
X122123Y367422D01*
X122113Y367434D01*
X107266Y382281D01*
X103238Y386309D01*
X101251Y391104D01*
X101251Y394167D01*
X101240Y394297D01*
X101238Y394427D01*
X101220Y394520D01*
X101211Y394616D01*
X101177Y394741D01*
X101152Y394869D01*
X101118Y394958D01*
X101093Y395050D01*
X101037Y395167D01*
X100990Y395289D01*
X100940Y395371D01*
X100899Y395457D01*
X100824Y395562D01*
X100756Y395674D01*
X100693Y395745D01*
X100637Y395823D01*
X100544Y395914D01*
X100458Y396011D01*
X100383Y396070D01*
X100315Y396137D01*
X100207Y396210D01*
X100105Y396290D01*
X100021Y396335D01*
X99942Y396389D01*
X99823Y396442D01*
X99708Y396503D01*
X99617Y396533D01*
X99530Y396571D01*
X99403Y396602D01*
X99280Y396642D01*
X99185Y396655D01*
X99092Y396678D01*
X98963Y396686D01*
X98834Y396704D01*
X98738Y396700D01*
X98643Y396706D01*
X98514Y396691D01*
X98384Y396685D01*
X98291Y396665D01*
X98196Y396654D01*
X98071Y396616D01*
X97944Y396588D01*
X97856Y396551D01*
X97765Y396523D01*
X97649Y396464D01*
X97529Y396414D01*
X97449Y396362D01*
X97363Y396319D01*
X97260Y396240D01*
X97151Y396170D01*
X97053Y396084D01*
X97005Y396047D01*
X96974Y396014D01*
X96916Y395963D01*
X89992Y389039D01*
X89887Y388912D01*
X89775Y388792D01*
X89743Y388740D01*
X89704Y388693D01*
X89622Y388551D01*
X89534Y388412D01*
X89510Y388355D01*
X89480Y388302D01*
X89425Y388148D01*
X89363Y387995D01*
X89350Y387936D01*
X89329Y387878D01*
X89303Y387716D01*
X89268Y387555D01*
X89263Y387478D01*
X89256Y387434D01*
X89257Y387373D01*
X89249Y387243D01*
X89249Y358244D01*
X89258Y358140D01*
X89257Y358036D01*
X89278Y357917D01*
X89289Y357795D01*
X89316Y357695D01*
X89334Y357592D01*
X89375Y357478D01*
X89407Y357361D01*
X89452Y357267D01*
X89487Y357169D01*
X89548Y357064D01*
X89601Y356954D01*
X89661Y356870D01*
X89713Y356780D01*
X89792Y356687D01*
X89863Y356588D01*
X89937Y356516D01*
X90005Y356436D01*
X90098Y356359D01*
X90185Y356274D01*
X90272Y356216D01*
X90352Y356150D01*
X90458Y356090D01*
X90558Y356022D01*
X90654Y355980D01*
X90744Y355929D01*
X90859Y355889D01*
X90970Y355840D01*
X91071Y355815D01*
X91170Y355781D01*
X91290Y355762D01*
X91408Y355733D01*
X91511Y355727D01*
X91614Y355711D01*
X91736Y355713D01*
X91857Y355706D01*
X91960Y355718D01*
X92065Y355720D01*
X92184Y355744D01*
X92304Y355758D01*
X92404Y355788D01*
X92506Y355808D01*
X92619Y355853D01*
X92735Y355888D01*
X92828Y355935D01*
X92925Y355973D01*
X93028Y356037D01*
X93137Y356092D01*
X93219Y356155D01*
X93308Y356210D01*
X93399Y356291D01*
X93495Y356364D01*
X93566Y356441D01*
X93643Y356510D01*
X93759Y356651D01*
X93800Y356696D01*
X93815Y356719D01*
X93842Y356751D01*
X94674Y357896D01*
X95684Y358906D01*
X96841Y359747D01*
X98114Y360395D01*
X99061Y360703D01*
X99061Y345440D01*
X99061Y330177D01*
X98114Y330485D01*
X96841Y331133D01*
X95684Y331974D01*
X94674Y332984D01*
X93833Y334141D01*
X93111Y335559D01*
X93047Y335709D01*
X93044Y335713D01*
X93043Y335717D01*
X92921Y335901D01*
X92800Y336086D01*
X92797Y336089D01*
X92794Y336093D01*
X92641Y336254D01*
X92490Y336413D01*
X92487Y336415D01*
X92484Y336419D01*
X92305Y336549D01*
X92128Y336680D01*
X92124Y336682D01*
X92120Y336685D01*
X91923Y336781D01*
X91724Y336879D01*
X91720Y336880D01*
X91716Y336882D01*
X91507Y336941D01*
X91291Y337004D01*
X91287Y337004D01*
X91283Y337005D01*
X91063Y337027D01*
X90843Y337050D01*
X90839Y337049D01*
X90835Y337050D01*
X90612Y337032D01*
X90394Y337016D01*
X90390Y337015D01*
X90386Y337014D01*
X90173Y336959D01*
X89958Y336903D01*
X89954Y336902D01*
X89950Y336900D01*
X89751Y336808D01*
X89549Y336716D01*
X89545Y336713D01*
X89541Y336711D01*
X89363Y336586D01*
X89179Y336459D01*
X89176Y336455D01*
X89173Y336453D01*
X89017Y336296D01*
X88861Y336140D01*
X88858Y336137D01*
X88855Y336134D01*
X88730Y335952D01*
X88604Y335771D01*
X88602Y335767D01*
X88599Y335763D01*
X88462Y335482D01*
X86913Y331742D01*
X83358Y328187D01*
X78714Y326263D01*
X73686Y326263D01*
X69042Y328187D01*
X65487Y331742D01*
X65053Y332789D01*
X65053Y332790D01*
X63563Y336386D01*
X63563Y341345D01*
X63553Y341461D01*
X63553Y341578D01*
X63533Y341685D01*
X63523Y341793D01*
X63493Y341906D01*
X63472Y342021D01*
X63421Y342167D01*
X63405Y342228D01*
X63389Y342260D01*
X63370Y342316D01*
X63151Y342844D01*
X63151Y393220D01*
X63144Y393302D01*
X63146Y393384D01*
X63124Y393525D01*
X63111Y393668D01*
X63090Y393748D01*
X63077Y393829D01*
X63031Y393964D01*
X62993Y394103D01*
X62957Y394177D01*
X62931Y394255D01*
X62861Y394380D01*
X62799Y394509D01*
X62752Y394576D01*
X62711Y394648D01*
X62621Y394759D01*
X62537Y394875D01*
X62478Y394933D01*
X62426Y394996D01*
X62317Y395089D01*
X62215Y395189D01*
X62146Y395235D01*
X62084Y395289D01*
X61960Y395361D01*
X61842Y395441D01*
X61766Y395475D01*
X61695Y395516D01*
X61561Y395566D01*
X61430Y395624D01*
X61350Y395643D01*
X61272Y395672D01*
X61131Y395696D01*
X60992Y395730D01*
X60910Y395735D01*
X60829Y395750D01*
X60686Y395749D01*
X60543Y395758D01*
X60461Y395748D01*
X60379Y395748D01*
X60238Y395722D01*
X60096Y395706D01*
X60017Y395682D01*
X59936Y395667D01*
X59702Y395587D01*
X59665Y395576D01*
X59655Y395571D01*
X59640Y395566D01*
X54034Y393243D01*
X47566Y393243D01*
X41621Y395706D01*
X41591Y395718D01*
X37018Y400291D01*
X34543Y406266D01*
X34543Y412734D01*
X37018Y418709D01*
X41591Y423282D01*
X47566Y425757D01*
X50651Y425757D01*
X50815Y425771D01*
X50979Y425778D01*
X51039Y425791D01*
X51100Y425797D01*
X51259Y425840D01*
X51419Y425876D01*
X51475Y425899D01*
X51534Y425915D01*
X51682Y425986D01*
X51834Y426049D01*
X51886Y426082D01*
X51941Y426109D01*
X52074Y426204D01*
X52213Y426294D01*
X52270Y426345D01*
X52307Y426371D01*
X52349Y426414D01*
X52447Y426500D01*
X53411Y427464D01*
X53494Y427564D01*
X53585Y427658D01*
X53638Y427737D01*
X53700Y427810D01*
X53764Y427923D01*
X53837Y428031D01*
X53876Y428118D01*
X53923Y428201D01*
X53967Y428323D01*
X54019Y428442D01*
X54042Y428535D01*
X54074Y428625D01*
X54095Y428754D01*
X54126Y428880D01*
X54132Y428975D01*
X54147Y429069D01*
X54146Y429200D01*
X54154Y429329D01*
X54143Y429424D01*
X54141Y429520D01*
X54116Y429647D01*
X54101Y429777D01*
X54074Y429868D01*
X54056Y429962D01*
X54009Y430083D01*
X53971Y430208D01*
X53928Y430293D01*
X53893Y430382D01*
X53826Y430493D01*
X53799Y430545D01*
X53799Y444040D01*
X53796Y444074D01*
X53798Y444109D01*
X53776Y444298D01*
X53759Y444488D01*
X53754Y444510D01*
X53771Y444580D01*
X53773Y444614D01*
X53780Y444648D01*
X53799Y444960D01*
X53799Y457201D01*
X60612Y457201D01*
X60646Y457204D01*
X60681Y457202D01*
X60871Y457224D01*
X61061Y457241D01*
X61094Y457250D01*
X61128Y457254D01*
X61312Y457309D01*
X61495Y457359D01*
X61526Y457374D01*
X61559Y457384D01*
X61729Y457471D01*
X61902Y457553D01*
X61930Y457573D01*
X61961Y457588D01*
X62113Y457704D01*
X62268Y457815D01*
X62292Y457839D01*
X62319Y457860D01*
X62449Y458001D01*
X62582Y458137D01*
X62601Y458166D01*
X62625Y458192D01*
X62727Y458353D01*
X62834Y458510D01*
X62848Y458542D01*
X62866Y458571D01*
X62939Y458748D01*
X63016Y458922D01*
X63024Y458956D01*
X63037Y458988D01*
X63077Y459175D01*
X63123Y459360D01*
X63125Y459394D01*
X63132Y459428D01*
X63151Y459740D01*
X63151Y501343D01*
X63137Y501507D01*
X63130Y501671D01*
X63117Y501731D01*
X63111Y501792D01*
X63068Y501951D01*
X63032Y502111D01*
X63009Y502167D01*
X62993Y502226D01*
X62922Y502374D01*
X62859Y502526D01*
X62826Y502578D01*
X62799Y502633D01*
X62704Y502766D01*
X62614Y502905D01*
X62563Y502962D01*
X62537Y502999D01*
X62494Y503041D01*
X62408Y503139D01*
X59942Y505605D01*
X59816Y505710D01*
X59695Y505822D01*
X59643Y505854D01*
X59596Y505893D01*
X59454Y505975D01*
X59315Y506063D01*
X59258Y506087D01*
X59205Y506117D01*
X59050Y506172D01*
X58898Y506234D01*
X58839Y506247D01*
X58781Y506268D01*
X58619Y506294D01*
X58458Y506329D01*
X58381Y506334D01*
X58337Y506341D01*
X58276Y506340D01*
X58146Y506348D01*
X53832Y506348D01*
X51591Y507276D01*
X49876Y508992D01*
X48952Y511223D01*
X48902Y511320D01*
X48861Y511420D01*
X48798Y511518D01*
X48743Y511622D01*
X48677Y511708D01*
X48619Y511800D01*
X48540Y511886D01*
X48468Y511978D01*
X48387Y512051D01*
X48314Y512131D01*
X48220Y512202D01*
X48133Y512280D01*
X48042Y512337D01*
X47955Y512403D01*
X47851Y512456D01*
X47751Y512518D01*
X47650Y512558D01*
X47554Y512607D01*
X47442Y512641D01*
X47333Y512685D01*
X47227Y512706D01*
X47123Y512738D01*
X47007Y512751D01*
X46892Y512775D01*
X46783Y512777D01*
X46676Y512790D01*
X46559Y512783D01*
X46442Y512786D01*
X46334Y512769D01*
X46226Y512762D01*
X46113Y512735D01*
X45997Y512717D01*
X45894Y512682D01*
X45789Y512656D01*
X45682Y512608D01*
X45571Y512570D01*
X45476Y512518D01*
X45377Y512474D01*
X45232Y512381D01*
X45178Y512351D01*
X45154Y512332D01*
X45113Y512306D01*
X43958Y511467D01*
X42444Y510695D01*
X40839Y510174D01*
X40839Y520700D01*
X40839Y531226D01*
X42444Y530705D01*
X43958Y529933D01*
X45113Y529094D01*
X45206Y529038D01*
X45294Y528974D01*
X45399Y528923D01*
X45500Y528863D01*
X45601Y528824D01*
X45698Y528777D01*
X45811Y528745D01*
X45921Y528703D01*
X46027Y528683D01*
X46132Y528654D01*
X46248Y528642D01*
X46363Y528621D01*
X46472Y528620D01*
X46580Y528609D01*
X46697Y528618D01*
X46814Y528618D01*
X46921Y528636D01*
X47029Y528644D01*
X47142Y528674D01*
X47257Y528694D01*
X47359Y528731D01*
X47464Y528758D01*
X47570Y528808D01*
X47681Y528848D01*
X47774Y528902D01*
X47873Y528948D01*
X47969Y529015D01*
X48070Y529074D01*
X48153Y529144D01*
X48242Y529206D01*
X48324Y529289D01*
X48414Y529365D01*
X48482Y529448D01*
X48559Y529525D01*
X48625Y529622D01*
X48700Y529712D01*
X48753Y529807D01*
X48815Y529896D01*
X48890Y530050D01*
X48921Y530105D01*
X48931Y530133D01*
X48952Y530177D01*
X49876Y532408D01*
X51591Y534124D01*
X53832Y535052D01*
X72768Y535052D01*
X75447Y533942D01*
X75558Y533907D01*
X75666Y533863D01*
X75773Y533840D01*
X75876Y533807D01*
X75992Y533793D01*
X76107Y533768D01*
X76260Y533758D01*
X76323Y533751D01*
X76359Y533752D01*
X76419Y533749D01*
X145943Y533749D01*
X146107Y533763D01*
X146271Y533770D01*
X146331Y533783D01*
X146392Y533789D01*
X146551Y533832D01*
X146711Y533868D01*
X146767Y533891D01*
X146826Y533907D01*
X146974Y533978D01*
X147126Y534041D01*
X147178Y534074D01*
X147233Y534101D01*
X147366Y534196D01*
X147505Y534286D01*
X147562Y534337D01*
X147599Y534363D01*
X147641Y534406D01*
X147739Y534492D01*
X150691Y537444D01*
X150804Y537580D01*
X150924Y537713D01*
X150949Y537753D01*
X150980Y537790D01*
X151068Y537944D01*
X151162Y538095D01*
X151179Y538139D01*
X151203Y538181D01*
X151263Y538348D01*
X151328Y538513D01*
X151338Y538560D01*
X151354Y538605D01*
X151383Y538780D01*
X151418Y538954D01*
X151420Y539002D01*
X151427Y539049D01*
X151425Y539227D01*
X151429Y539404D01*
X151422Y539451D01*
X151421Y539499D01*
X151387Y539674D01*
X151360Y539849D01*
X151345Y539895D01*
X151336Y539942D01*
X151272Y540107D01*
X151214Y540275D01*
X151191Y540317D01*
X151173Y540362D01*
X151081Y540513D01*
X150995Y540668D01*
X150964Y540705D01*
X150939Y540746D01*
X150822Y540879D01*
X150709Y541017D01*
X150673Y541048D01*
X150641Y541084D01*
X150502Y541194D01*
X150367Y541309D01*
X150326Y541333D01*
X150288Y541363D01*
X150131Y541447D01*
X149978Y541537D01*
X149934Y541553D01*
X149891Y541576D01*
X149722Y541631D01*
X149556Y541692D01*
X149509Y541700D01*
X149463Y541715D01*
X149287Y541739D01*
X149112Y541770D01*
X149064Y541770D01*
X149017Y541776D01*
X148839Y541769D01*
X148662Y541768D01*
X148615Y541760D01*
X148567Y541758D01*
X148394Y541719D01*
X148219Y541688D01*
X148163Y541668D01*
X148128Y541660D01*
X148070Y541636D01*
X147924Y541586D01*
X143489Y539749D01*
X135911Y539749D01*
X128909Y542650D01*
X123550Y548009D01*
X120649Y555011D01*
X120649Y562589D01*
X122741Y567640D01*
X122742Y567641D01*
X123550Y569591D01*
X128909Y574950D01*
X135911Y577851D01*
X143489Y577851D01*
X150491Y574950D01*
X155003Y570438D01*
X155166Y570303D01*
X155327Y570165D01*
X155339Y570158D01*
X155349Y570149D01*
X155533Y570044D01*
X155716Y569937D01*
X155728Y569933D01*
X155740Y569926D01*
X155940Y569855D01*
X156139Y569782D01*
X156152Y569780D01*
X156164Y569775D01*
X156372Y569741D01*
X156582Y569704D01*
X156595Y569704D01*
X156608Y569702D01*
X156820Y569705D01*
X157032Y569705D01*
X157045Y569708D01*
X157058Y569708D01*
X157267Y569748D01*
X157475Y569786D01*
X157490Y569791D01*
X157501Y569793D01*
X157537Y569808D01*
X157771Y569888D01*
X162504Y571849D01*
X167696Y571849D01*
X172491Y569862D01*
X176162Y566191D01*
X177602Y562715D01*
X177616Y562688D01*
X177626Y562659D01*
X177721Y562488D01*
X177811Y562316D01*
X177829Y562292D01*
X177844Y562265D01*
X177967Y562114D01*
X178087Y561960D01*
X178109Y561939D01*
X178128Y561916D01*
X178276Y561788D01*
X178421Y561658D01*
X178447Y561642D01*
X178470Y561622D01*
X178638Y561523D01*
X178803Y561420D01*
X178831Y561409D01*
X178857Y561393D01*
X179040Y561326D01*
X179221Y561253D01*
X179251Y561247D01*
X179280Y561237D01*
X179471Y561202D01*
X179663Y561163D01*
X179693Y561163D01*
X179723Y561157D01*
X179917Y561157D01*
X180113Y561152D01*
X180143Y561157D01*
X180173Y561157D01*
X180364Y561191D01*
X180558Y561221D01*
X180587Y561231D01*
X180616Y561237D01*
X180799Y561304D01*
X180983Y561368D01*
X181010Y561382D01*
X181038Y561393D01*
X181207Y561492D01*
X181377Y561587D01*
X181400Y561606D01*
X181426Y561622D01*
X181575Y561749D01*
X181725Y561872D01*
X181745Y561895D01*
X181768Y561915D01*
X181891Y562067D01*
X182018Y562215D01*
X182033Y562241D01*
X182052Y562264D01*
X182211Y562534D01*
X182733Y563559D01*
X183574Y564716D01*
X184584Y565726D01*
X185741Y566567D01*
X187014Y567215D01*
X187961Y567523D01*
X187961Y558800D01*
X187961Y550077D01*
X187014Y550385D01*
X185741Y551033D01*
X184584Y551874D01*
X183574Y552884D01*
X182742Y554029D01*
X182674Y554107D01*
X182613Y554192D01*
X182526Y554276D01*
X182446Y554368D01*
X182365Y554433D01*
X182291Y554506D01*
X182190Y554574D01*
X182095Y554650D01*
X182004Y554699D01*
X181918Y554758D01*
X181806Y554807D01*
X181700Y554865D01*
X181601Y554898D01*
X181506Y554940D01*
X181388Y554969D01*
X181272Y555007D01*
X181169Y555022D01*
X181068Y555047D01*
X180947Y555054D01*
X180827Y555071D01*
X180723Y555068D01*
X180619Y555074D01*
X180498Y555060D01*
X180377Y555056D01*
X180275Y555034D01*
X180172Y555022D01*
X180055Y554987D01*
X179937Y554962D01*
X179841Y554922D01*
X179741Y554892D01*
X179632Y554837D01*
X179520Y554791D01*
X179432Y554735D01*
X179339Y554688D01*
X179243Y554614D01*
X179140Y554549D01*
X179064Y554478D01*
X178981Y554416D01*
X178898Y554326D01*
X178809Y554244D01*
X178746Y554161D01*
X178675Y554084D01*
X178610Y553982D01*
X178537Y553885D01*
X178490Y553793D01*
X178434Y553705D01*
X178387Y553592D01*
X178332Y553484D01*
X178302Y553385D01*
X178263Y553288D01*
X178237Y553169D01*
X178202Y553053D01*
X178190Y552950D01*
X178168Y552848D01*
X178157Y552666D01*
X178150Y552606D01*
X178151Y552579D01*
X178149Y552536D01*
X178149Y530804D01*
X176162Y526009D01*
X163819Y513666D01*
X163819Y513665D01*
X110312Y460159D01*
X110207Y460032D01*
X110095Y459912D01*
X110063Y459860D01*
X110024Y459813D01*
X109942Y459671D01*
X109854Y459532D01*
X109830Y459475D01*
X109800Y459422D01*
X109745Y459268D01*
X109683Y459115D01*
X109670Y459056D01*
X109649Y458998D01*
X109623Y458836D01*
X109588Y458675D01*
X109583Y458598D01*
X109576Y458554D01*
X109577Y458493D01*
X109569Y458363D01*
X109569Y451653D01*
X109580Y451523D01*
X109582Y451393D01*
X109600Y451299D01*
X109609Y451204D01*
X109643Y451079D01*
X109668Y450951D01*
X109702Y450862D01*
X109727Y450770D01*
X109783Y450653D01*
X109830Y450531D01*
X109880Y450449D01*
X109921Y450363D01*
X109996Y450258D01*
X110064Y450146D01*
X110127Y450075D01*
X110183Y449997D01*
X110276Y449906D01*
X110362Y449809D01*
X110437Y449750D01*
X110505Y449683D01*
X110613Y449610D01*
X110715Y449530D01*
X110799Y449485D01*
X110878Y449431D01*
X110997Y449378D01*
X111112Y449317D01*
X111203Y449287D01*
X111290Y449249D01*
X111417Y449218D01*
X111540Y449178D01*
X111635Y449165D01*
X111728Y449142D01*
X111857Y449134D01*
X111986Y449116D01*
X112082Y449120D01*
X112177Y449114D01*
X112306Y449129D01*
X112436Y449135D01*
X112529Y449155D01*
X112624Y449166D01*
X112749Y449204D01*
X112876Y449232D01*
X112964Y449269D01*
X113055Y449297D01*
X113171Y449356D01*
X113291Y449406D01*
X113372Y449458D01*
X113457Y449501D01*
X113560Y449580D01*
X113669Y449650D01*
X113767Y449736D01*
X113815Y449773D01*
X113846Y449806D01*
X113904Y449857D01*
X157709Y493662D01*
X162504Y495649D01*
X196743Y495649D01*
X196907Y495663D01*
X197071Y495670D01*
X197131Y495683D01*
X197192Y495689D01*
X197351Y495732D01*
X197511Y495768D01*
X197567Y495791D01*
X197626Y495807D01*
X197774Y495878D01*
X197926Y495941D01*
X197978Y495974D01*
X198033Y496001D01*
X198166Y496096D01*
X198305Y496186D01*
X198362Y496237D01*
X198399Y496263D01*
X198441Y496306D01*
X198539Y496392D01*
X227508Y525361D01*
X227613Y525488D01*
X227725Y525608D01*
X227757Y525660D01*
X227796Y525707D01*
X227878Y525849D01*
X227966Y525988D01*
X227990Y526045D01*
X228020Y526098D01*
X228075Y526252D01*
X228137Y526405D01*
X228150Y526464D01*
X228171Y526522D01*
X228197Y526684D01*
X228232Y526845D01*
X228237Y526922D01*
X228244Y526966D01*
X228243Y527027D01*
X228251Y527157D01*
X228251Y547150D01*
X228240Y547280D01*
X228238Y547410D01*
X228220Y547503D01*
X228211Y547598D01*
X228177Y547724D01*
X228152Y547852D01*
X228118Y547941D01*
X228093Y548033D01*
X228037Y548150D01*
X227990Y548272D01*
X227940Y548353D01*
X227899Y548439D01*
X227824Y548545D01*
X227756Y548656D01*
X227693Y548728D01*
X227637Y548806D01*
X227544Y548896D01*
X227458Y548994D01*
X227383Y549053D01*
X227315Y549120D01*
X227207Y549192D01*
X227105Y549273D01*
X227021Y549318D01*
X226942Y549372D01*
X226823Y549424D01*
X226708Y549486D01*
X226617Y549515D01*
X226530Y549554D01*
X226403Y549585D01*
X226280Y549625D01*
X226185Y549638D01*
X226092Y549661D01*
X225963Y549669D01*
X225834Y549686D01*
X225738Y549682D01*
X225643Y549688D01*
X225514Y549673D01*
X225384Y549668D01*
X225291Y549647D01*
X225196Y549636D01*
X225071Y549599D01*
X224944Y549570D01*
X224856Y549534D01*
X224765Y549506D01*
X224649Y549447D01*
X224529Y549397D01*
X224449Y549345D01*
X224363Y549302D01*
X224260Y549223D01*
X224151Y549152D01*
X224053Y549066D01*
X224005Y549030D01*
X223974Y548997D01*
X223916Y548945D01*
X223058Y548087D01*
X218414Y546163D01*
X213386Y546163D01*
X209414Y547809D01*
X208742Y548087D01*
X205187Y551642D01*
X203638Y555382D01*
X203636Y555386D01*
X203635Y555390D01*
X203532Y555584D01*
X203429Y555781D01*
X203427Y555785D01*
X203425Y555788D01*
X203291Y555960D01*
X203154Y556137D01*
X203150Y556140D01*
X203148Y556144D01*
X202983Y556291D01*
X202819Y556439D01*
X202816Y556441D01*
X202813Y556444D01*
X202622Y556562D01*
X202437Y556677D01*
X202433Y556679D01*
X202429Y556681D01*
X202224Y556762D01*
X202019Y556844D01*
X202014Y556844D01*
X202011Y556846D01*
X201795Y556889D01*
X201578Y556934D01*
X201573Y556934D01*
X201569Y556935D01*
X201348Y556939D01*
X201127Y556945D01*
X201123Y556944D01*
X201119Y556944D01*
X200902Y556910D01*
X200682Y556876D01*
X200678Y556874D01*
X200674Y556874D01*
X200466Y556801D01*
X200257Y556729D01*
X200253Y556727D01*
X200249Y556726D01*
X200058Y556619D01*
X199863Y556510D01*
X199860Y556507D01*
X199856Y556505D01*
X199688Y556366D01*
X199515Y556225D01*
X199512Y556221D01*
X199509Y556219D01*
X199365Y556049D01*
X199223Y555882D01*
X199220Y555879D01*
X199218Y555875D01*
X199109Y555688D01*
X198995Y555494D01*
X198994Y555490D01*
X198992Y555486D01*
X198952Y555386D01*
X198267Y554041D01*
X197426Y552884D01*
X196416Y551874D01*
X195259Y551033D01*
X193986Y550385D01*
X193039Y550077D01*
X193039Y558800D01*
X193039Y567523D01*
X193986Y567215D01*
X195259Y566567D01*
X196416Y565726D01*
X197426Y564716D01*
X198267Y563559D01*
X198989Y562141D01*
X199053Y561990D01*
X199056Y561987D01*
X199057Y561983D01*
X199178Y561801D01*
X199300Y561614D01*
X199303Y561611D01*
X199306Y561607D01*
X199462Y561444D01*
X199610Y561287D01*
X199613Y561284D01*
X199616Y561281D01*
X199798Y561148D01*
X199972Y561020D01*
X199976Y561018D01*
X199980Y561015D01*
X200177Y560919D01*
X200376Y560821D01*
X200381Y560820D01*
X200384Y560818D01*
X200592Y560759D01*
X200809Y560696D01*
X200813Y560696D01*
X200817Y560695D01*
X201038Y560673D01*
X201257Y560650D01*
X201261Y560651D01*
X201265Y560650D01*
X201491Y560668D01*
X201706Y560684D01*
X201710Y560685D01*
X201714Y560686D01*
X201926Y560741D01*
X202142Y560797D01*
X202146Y560799D01*
X202150Y560800D01*
X202346Y560890D01*
X202551Y560984D01*
X202555Y560987D01*
X202559Y560989D01*
X202738Y561114D01*
X202921Y561242D01*
X202924Y561245D01*
X202927Y561247D01*
X203084Y561404D01*
X203239Y561560D01*
X203242Y561563D01*
X203245Y561566D01*
X203372Y561750D01*
X203496Y561930D01*
X203498Y561933D01*
X203501Y561937D01*
X203638Y562218D01*
X205187Y565958D01*
X208742Y569513D01*
X213386Y571437D01*
X218414Y571437D01*
X223058Y569513D01*
X223916Y568655D01*
X224016Y568571D01*
X224109Y568480D01*
X224189Y568427D01*
X224262Y568366D01*
X224375Y568301D01*
X224482Y568228D01*
X224570Y568190D01*
X224653Y568142D01*
X224775Y568099D01*
X224894Y568046D01*
X224987Y568023D01*
X225077Y567991D01*
X225205Y567970D01*
X225332Y567939D01*
X225427Y567934D01*
X225521Y567918D01*
X225651Y567920D01*
X225781Y567912D01*
X225876Y567923D01*
X225971Y567924D01*
X226099Y567949D01*
X226228Y567964D01*
X226320Y567992D01*
X226414Y568010D01*
X226535Y568056D01*
X226659Y568094D01*
X226745Y568138D01*
X226834Y568172D01*
X226945Y568239D01*
X227061Y568298D01*
X227137Y568356D01*
X227218Y568406D01*
X227316Y568492D01*
X227419Y568570D01*
X227484Y568641D01*
X227556Y568704D01*
X227636Y568806D01*
X227725Y568902D01*
X227776Y568982D01*
X227835Y569057D01*
X227896Y569172D01*
X227966Y569281D01*
X228003Y569370D01*
X228048Y569454D01*
X228088Y569577D01*
X228137Y569698D01*
X228157Y569791D01*
X228187Y569882D01*
X228205Y570011D01*
X228232Y570138D01*
X228240Y570268D01*
X228248Y570328D01*
X228247Y570373D01*
X228251Y570450D01*
X228251Y704743D01*
X228237Y704907D01*
X228230Y705071D01*
X228217Y705131D01*
X228211Y705192D01*
X228168Y705351D01*
X228132Y705511D01*
X228109Y705567D01*
X228093Y705626D01*
X228022Y705774D01*
X227959Y705926D01*
X227926Y705978D01*
X227899Y706033D01*
X227804Y706166D01*
X227714Y706305D01*
X227663Y706362D01*
X227637Y706399D01*
X227594Y706441D01*
X227508Y706539D01*
X100738Y833309D01*
X98751Y838104D01*
X98751Y940622D01*
X98748Y940657D01*
X98750Y940691D01*
X98728Y940880D01*
X98711Y941071D01*
X98702Y941104D01*
X98698Y941138D01*
X98643Y941321D01*
X98593Y941505D01*
X98578Y941536D01*
X98568Y941569D01*
X98481Y941740D01*
X98399Y941912D01*
X98379Y941940D01*
X98364Y941971D01*
X98248Y942123D01*
X98137Y942278D01*
X98112Y942302D01*
X98092Y942329D01*
X97952Y942458D01*
X97815Y942592D01*
X97786Y942611D01*
X97760Y942635D01*
X97599Y942737D01*
X97442Y942844D01*
X97410Y942858D01*
X97381Y942876D01*
X97204Y942949D01*
X97030Y943026D01*
X96996Y943034D01*
X96964Y943047D01*
X96777Y943087D01*
X96592Y943133D01*
X96558Y943135D01*
X96524Y943142D01*
X96212Y943161D01*
X88939Y943161D01*
X88939Y955100D01*
X88939Y967039D01*
X96133Y967039D01*
X96779Y966866D01*
X97358Y966531D01*
X97543Y966347D01*
X97569Y966324D01*
X97592Y966298D01*
X97742Y966180D01*
X97888Y966058D01*
X97918Y966040D01*
X97945Y966019D01*
X98113Y965929D01*
X98279Y965834D01*
X98312Y965823D01*
X98342Y965806D01*
X98523Y965747D01*
X98703Y965683D01*
X98737Y965678D01*
X98770Y965667D01*
X98959Y965641D01*
X99147Y965610D01*
X99182Y965610D01*
X99216Y965606D01*
X99407Y965614D01*
X99598Y965616D01*
X99632Y965623D01*
X99666Y965624D01*
X99852Y965665D01*
X100040Y965702D01*
X100072Y965714D01*
X100106Y965722D01*
X100282Y965795D01*
X100460Y965864D01*
X100489Y965882D01*
X100521Y965895D01*
X100682Y965999D01*
X100844Y966098D01*
X100870Y966121D01*
X100900Y966140D01*
X101134Y966347D01*
X103023Y968236D01*
X108718Y970595D01*
X114882Y970595D01*
X120577Y968236D01*
X122704Y966108D01*
X122731Y966086D01*
X122754Y966060D01*
X122903Y965942D01*
X123050Y965820D01*
X123080Y965802D01*
X123107Y965781D01*
X123275Y965691D01*
X123441Y965596D01*
X123473Y965585D01*
X123504Y965568D01*
X123685Y965509D01*
X123865Y965445D01*
X123899Y965440D01*
X123932Y965429D01*
X124121Y965403D01*
X124309Y965372D01*
X124344Y965372D01*
X124378Y965368D01*
X124569Y965375D01*
X124759Y965378D01*
X124794Y965385D01*
X124828Y965386D01*
X125014Y965427D01*
X125202Y965464D01*
X125234Y965476D01*
X125268Y965484D01*
X125444Y965557D01*
X125622Y965626D01*
X125651Y965644D01*
X125683Y965657D01*
X125844Y965761D01*
X126006Y965860D01*
X126032Y965883D01*
X126061Y965901D01*
X126296Y966108D01*
X128423Y968236D01*
X134118Y970595D01*
X140282Y970595D01*
X145977Y968236D01*
X148104Y966108D01*
X148131Y966086D01*
X148154Y966060D01*
X148303Y965942D01*
X148450Y965820D01*
X148480Y965802D01*
X148507Y965781D01*
X148675Y965691D01*
X148841Y965596D01*
X148873Y965585D01*
X148904Y965568D01*
X149085Y965509D01*
X149265Y965445D01*
X149299Y965440D01*
X149332Y965429D01*
X149521Y965403D01*
X149709Y965372D01*
X149744Y965372D01*
X149778Y965368D01*
X149969Y965375D01*
X150159Y965378D01*
X150194Y965385D01*
X150228Y965386D01*
X150414Y965427D01*
X150602Y965464D01*
X150634Y965476D01*
X150668Y965484D01*
X150844Y965557D01*
X151022Y965626D01*
X151051Y965644D01*
X151083Y965657D01*
X151244Y965761D01*
X151406Y965860D01*
X151432Y965883D01*
X151461Y965901D01*
X151696Y966108D01*
X153823Y968236D01*
X159518Y970595D01*
X165682Y970595D01*
X171377Y968236D01*
X176019Y963594D01*
X176045Y963572D01*
X176069Y963546D01*
X176218Y963427D01*
X176364Y963305D01*
X176394Y963288D01*
X176422Y963266D01*
X176590Y963176D01*
X176755Y963082D01*
X176788Y963070D01*
X176819Y963054D01*
X177000Y962995D01*
X177180Y962931D01*
X177214Y962925D01*
X177247Y962914D01*
X177436Y962888D01*
X177624Y962857D01*
X177658Y962858D01*
X177693Y962853D01*
X177883Y962861D01*
X178074Y962863D01*
X178108Y962870D01*
X178143Y962871D01*
X178328Y962913D01*
X178516Y962949D01*
X178548Y962961D01*
X178582Y962969D01*
X178758Y963043D01*
X178936Y963111D01*
X178966Y963129D01*
X178998Y963143D01*
X179158Y963246D01*
X179321Y963345D01*
X179347Y963368D01*
X179376Y963387D01*
X179610Y963594D01*
X180222Y964206D01*
X181743Y965311D01*
X183417Y966164D01*
X185204Y966745D01*
X185461Y966785D01*
X185461Y955100D01*
X185461Y943415D01*
X185204Y943455D01*
X183417Y944036D01*
X181743Y944889D01*
X180222Y945994D01*
X179984Y946233D01*
X179884Y946316D01*
X179791Y946407D01*
X179711Y946460D01*
X179638Y946521D01*
X179525Y946586D01*
X179418Y946659D01*
X179330Y946697D01*
X179247Y946745D01*
X179125Y946788D01*
X179006Y946841D01*
X178913Y946864D01*
X178823Y946896D01*
X178695Y946917D01*
X178568Y946948D01*
X178473Y946954D01*
X178379Y946969D01*
X178249Y946967D01*
X178119Y946975D01*
X178024Y946964D01*
X177929Y946963D01*
X177801Y946938D01*
X177672Y946923D01*
X177580Y946896D01*
X177487Y946878D01*
X177365Y946831D01*
X177241Y946793D01*
X177155Y946750D01*
X177066Y946715D01*
X176955Y946648D01*
X176839Y946589D01*
X176763Y946531D01*
X176682Y946481D01*
X176584Y946395D01*
X176481Y946317D01*
X176416Y946246D01*
X176344Y946183D01*
X176264Y946081D01*
X176175Y945986D01*
X176124Y945905D01*
X176065Y945830D01*
X176004Y945716D01*
X175934Y945606D01*
X175897Y945517D01*
X175852Y945433D01*
X175812Y945309D01*
X175763Y945189D01*
X175743Y945096D01*
X175713Y945005D01*
X175695Y944876D01*
X175668Y944749D01*
X175660Y944619D01*
X175652Y944559D01*
X175653Y944514D01*
X175649Y944437D01*
X175649Y923357D01*
X175663Y923193D01*
X175670Y923029D01*
X175683Y922969D01*
X175689Y922908D01*
X175732Y922749D01*
X175768Y922589D01*
X175791Y922533D01*
X175807Y922474D01*
X175878Y922326D01*
X175941Y922174D01*
X175974Y922122D01*
X176001Y922067D01*
X176096Y921934D01*
X176186Y921795D01*
X176237Y921738D01*
X176263Y921701D01*
X176306Y921659D01*
X176392Y921561D01*
X271361Y826592D01*
X271488Y826487D01*
X271608Y826375D01*
X271660Y826343D01*
X271707Y826304D01*
X271849Y826222D01*
X271988Y826134D01*
X272045Y826110D01*
X272098Y826080D01*
X272252Y826025D01*
X272405Y825963D01*
X272464Y825950D01*
X272522Y825929D01*
X272684Y825903D01*
X272845Y825868D01*
X272922Y825863D01*
X272966Y825856D01*
X273027Y825857D01*
X273157Y825849D01*
X279867Y825849D01*
X279997Y825860D01*
X280127Y825862D01*
X280221Y825880D01*
X280316Y825889D01*
X280441Y825923D01*
X280569Y825948D01*
X280658Y825982D01*
X280750Y826007D01*
X280867Y826063D01*
X280989Y826110D01*
X281071Y826160D01*
X281157Y826201D01*
X281262Y826276D01*
X281374Y826344D01*
X281445Y826407D01*
X281523Y826463D01*
X281614Y826556D01*
X281711Y826642D01*
X281770Y826717D01*
X281837Y826785D01*
X281910Y826893D01*
X281990Y826995D01*
X282035Y827079D01*
X282089Y827158D01*
X282142Y827277D01*
X282203Y827392D01*
X282233Y827483D01*
X282271Y827570D01*
X282302Y827697D01*
X282342Y827820D01*
X282355Y827915D01*
X282378Y828008D01*
X282386Y828137D01*
X282404Y828266D01*
X282400Y828362D01*
X282406Y828457D01*
X282391Y828586D01*
X282385Y828716D01*
X282365Y828809D01*
X282354Y828904D01*
X282316Y829029D01*
X282288Y829156D01*
X282251Y829244D01*
X282223Y829335D01*
X282164Y829451D01*
X282114Y829571D01*
X282062Y829652D01*
X282019Y829737D01*
X281940Y829840D01*
X281870Y829949D01*
X281784Y830047D01*
X281747Y830095D01*
X281714Y830126D01*
X281663Y830184D01*
X204838Y907009D01*
X202851Y911804D01*
X202851Y942684D01*
X202837Y942848D01*
X202830Y943012D01*
X202817Y943072D01*
X202811Y943133D01*
X202768Y943291D01*
X202732Y943452D01*
X202709Y943508D01*
X202693Y943567D01*
X202622Y943715D01*
X202559Y943867D01*
X202526Y943919D01*
X202499Y943974D01*
X202404Y944107D01*
X202315Y944245D01*
X202263Y944303D01*
X202237Y944340D01*
X202194Y944382D01*
X202108Y944480D01*
X199981Y946606D01*
X199955Y946628D01*
X199931Y946654D01*
X199782Y946773D01*
X199636Y946895D01*
X199606Y946912D01*
X199578Y946934D01*
X199410Y947024D01*
X199245Y947118D01*
X199212Y947130D01*
X199181Y947146D01*
X199000Y947205D01*
X198820Y947269D01*
X198786Y947275D01*
X198753Y947286D01*
X198564Y947312D01*
X198376Y947343D01*
X198342Y947342D01*
X198307Y947347D01*
X198117Y947339D01*
X197926Y947337D01*
X197892Y947330D01*
X197857Y947329D01*
X197672Y947287D01*
X197484Y947251D01*
X197452Y947239D01*
X197418Y947231D01*
X197242Y947157D01*
X197064Y947089D01*
X197034Y947071D01*
X197002Y947057D01*
X196842Y946954D01*
X196679Y946855D01*
X196653Y946832D01*
X196624Y946813D01*
X196390Y946606D01*
X195778Y945994D01*
X194257Y944889D01*
X192583Y944036D01*
X190796Y943455D01*
X190539Y943415D01*
X190539Y955100D01*
X190539Y966785D01*
X190796Y966745D01*
X192583Y966164D01*
X194257Y965311D01*
X195778Y964206D01*
X196390Y963594D01*
X196416Y963572D01*
X196440Y963546D01*
X196589Y963427D01*
X196735Y963305D01*
X196766Y963288D01*
X196793Y963266D01*
X196960Y963177D01*
X197126Y963082D01*
X197159Y963070D01*
X197189Y963054D01*
X197371Y962995D01*
X197551Y962931D01*
X197585Y962925D01*
X197618Y962914D01*
X197807Y962888D01*
X197995Y962857D01*
X198029Y962858D01*
X198064Y962853D01*
X198255Y962861D01*
X198445Y962863D01*
X198479Y962870D01*
X198514Y962871D01*
X198700Y962913D01*
X198887Y962949D01*
X198919Y962961D01*
X198953Y962969D01*
X199129Y963042D01*
X199307Y963111D01*
X199337Y963129D01*
X199369Y963143D01*
X199528Y963246D01*
X199692Y963345D01*
X199718Y963368D01*
X199747Y963387D01*
X199981Y963594D01*
X204623Y968236D01*
X210318Y970595D01*
X216482Y970595D01*
X222177Y968236D01*
X224304Y966108D01*
X224331Y966086D01*
X224354Y966060D01*
X224503Y965942D01*
X224650Y965820D01*
X224680Y965802D01*
X224707Y965781D01*
X224875Y965691D01*
X225041Y965596D01*
X225073Y965585D01*
X225104Y965568D01*
X225285Y965509D01*
X225465Y965445D01*
X225499Y965440D01*
X225532Y965429D01*
X225721Y965403D01*
X225909Y965372D01*
X225944Y965372D01*
X225978Y965368D01*
X226169Y965375D01*
X226359Y965378D01*
X226394Y965385D01*
X226428Y965386D01*
X226614Y965427D01*
X226802Y965464D01*
X226834Y965476D01*
X226868Y965484D01*
X227044Y965557D01*
X227222Y965626D01*
X227251Y965644D01*
X227283Y965657D01*
X227444Y965761D01*
X227606Y965860D01*
X227632Y965883D01*
X227661Y965901D01*
X227896Y966108D01*
X230023Y968236D01*
X235718Y970595D01*
X241882Y970595D01*
X247577Y968236D01*
X249704Y966108D01*
X249731Y966086D01*
X249754Y966060D01*
X249903Y965942D01*
X250050Y965820D01*
X250080Y965802D01*
X250107Y965781D01*
X250275Y965691D01*
X250441Y965596D01*
X250473Y965585D01*
X250504Y965568D01*
X250685Y965509D01*
X250865Y965445D01*
X250899Y965440D01*
X250932Y965429D01*
X251121Y965403D01*
X251309Y965372D01*
X251344Y965372D01*
X251378Y965368D01*
X251569Y965375D01*
X251759Y965378D01*
X251794Y965385D01*
X251828Y965386D01*
X252014Y965427D01*
X252202Y965464D01*
X252234Y965476D01*
X252268Y965484D01*
X252444Y965557D01*
X252622Y965626D01*
X252651Y965644D01*
X252683Y965657D01*
X252844Y965761D01*
X253006Y965860D01*
X253032Y965883D01*
X253061Y965901D01*
X253296Y966108D01*
X255423Y968236D01*
X261118Y970595D01*
X267282Y970595D01*
X272977Y968236D01*
X275104Y966108D01*
X275131Y966086D01*
X275154Y966060D01*
X275303Y965942D01*
X275450Y965820D01*
X275480Y965802D01*
X275507Y965781D01*
X275675Y965691D01*
X275841Y965596D01*
X275873Y965585D01*
X275904Y965568D01*
X276085Y965509D01*
X276265Y965445D01*
X276299Y965440D01*
X276332Y965429D01*
X276521Y965403D01*
X276709Y965372D01*
X276744Y965372D01*
X276778Y965368D01*
X276969Y965375D01*
X277159Y965378D01*
X277194Y965385D01*
X277228Y965386D01*
X277414Y965427D01*
X277602Y965464D01*
X277634Y965476D01*
X277668Y965484D01*
X277844Y965557D01*
X278022Y965626D01*
X278051Y965644D01*
X278083Y965657D01*
X278244Y965761D01*
X278406Y965860D01*
X278432Y965883D01*
X278461Y965901D01*
X278696Y966108D01*
X280823Y968236D01*
X286518Y970595D01*
X292682Y970595D01*
X298377Y968236D01*
X300504Y966108D01*
X300531Y966086D01*
X300554Y966060D01*
X300703Y965942D01*
X300850Y965820D01*
X300880Y965802D01*
X300907Y965781D01*
X301075Y965691D01*
X301241Y965596D01*
X301273Y965585D01*
X301304Y965568D01*
X301485Y965509D01*
X301665Y965445D01*
X301699Y965440D01*
X301732Y965429D01*
X301921Y965403D01*
X302109Y965372D01*
X302144Y965372D01*
X302178Y965368D01*
X302369Y965375D01*
X302559Y965378D01*
X302594Y965385D01*
X302628Y965386D01*
X302814Y965427D01*
X303002Y965464D01*
X303034Y965476D01*
X303068Y965484D01*
X303244Y965557D01*
X303422Y965626D01*
X303451Y965644D01*
X303483Y965657D01*
X303644Y965761D01*
X303806Y965860D01*
X303832Y965883D01*
X303861Y965901D01*
X304096Y966108D01*
X306223Y968236D01*
X311918Y970595D01*
X318082Y970595D01*
X323777Y968236D01*
X325904Y966108D01*
X325931Y966086D01*
X325954Y966060D01*
X326103Y965942D01*
X326250Y965820D01*
X326280Y965802D01*
X326307Y965781D01*
X326475Y965691D01*
X326641Y965596D01*
X326673Y965585D01*
X326704Y965568D01*
X326885Y965509D01*
X327065Y965445D01*
X327099Y965440D01*
X327132Y965429D01*
X327321Y965403D01*
X327509Y965372D01*
X327544Y965372D01*
X327578Y965368D01*
X327769Y965375D01*
X327959Y965378D01*
X327994Y965385D01*
X328028Y965386D01*
X328214Y965427D01*
X328402Y965464D01*
X328434Y965476D01*
X328468Y965484D01*
X328644Y965557D01*
X328822Y965626D01*
X328851Y965644D01*
X328883Y965657D01*
X329044Y965761D01*
X329206Y965860D01*
X329232Y965883D01*
X329261Y965901D01*
X329496Y966108D01*
X331623Y968236D01*
X337318Y970595D01*
X343482Y970595D01*
X349177Y968236D01*
X351304Y966108D01*
X351331Y966086D01*
X351354Y966060D01*
X351503Y965942D01*
X351650Y965819D01*
X351680Y965802D01*
X351707Y965781D01*
X351876Y965691D01*
X352041Y965596D01*
X352073Y965585D01*
X352104Y965568D01*
X352285Y965509D01*
X352465Y965445D01*
X352499Y965440D01*
X352532Y965429D01*
X352721Y965403D01*
X352909Y965372D01*
X352944Y965372D01*
X352978Y965368D01*
X353169Y965375D01*
X353360Y965378D01*
X353394Y965385D01*
X353428Y965386D01*
X353614Y965427D01*
X353802Y965464D01*
X353834Y965476D01*
X353868Y965484D01*
X354043Y965557D01*
X354222Y965626D01*
X354251Y965644D01*
X354283Y965657D01*
X354443Y965760D01*
X354606Y965860D01*
X354632Y965883D01*
X354661Y965901D01*
X354896Y966108D01*
X357023Y968236D01*
X362718Y970595D01*
X368882Y970595D01*
X374577Y968236D01*
X376704Y966108D01*
X376731Y966086D01*
X376754Y966060D01*
X376903Y965942D01*
X377050Y965820D01*
X377080Y965802D01*
X377107Y965781D01*
X377275Y965691D01*
X377441Y965596D01*
X377473Y965585D01*
X377504Y965568D01*
X377685Y965509D01*
X377865Y965445D01*
X377899Y965440D01*
X377932Y965429D01*
X378121Y965403D01*
X378309Y965372D01*
X378344Y965372D01*
X378378Y965368D01*
X378569Y965375D01*
X378759Y965378D01*
X378794Y965385D01*
X378828Y965386D01*
X379014Y965427D01*
X379202Y965464D01*
X379234Y965476D01*
X379268Y965484D01*
X379444Y965557D01*
X379622Y965626D01*
X379651Y965644D01*
X379683Y965657D01*
X379844Y965761D01*
X380006Y965860D01*
X380032Y965883D01*
X380061Y965901D01*
X380296Y966108D01*
X382423Y968236D01*
X388118Y970595D01*
X394282Y970595D01*
X399977Y968236D01*
X402104Y966108D01*
X402131Y966086D01*
X402154Y966060D01*
X402303Y965942D01*
X402450Y965820D01*
X402480Y965802D01*
X402507Y965781D01*
X402675Y965691D01*
X402841Y965596D01*
X402873Y965585D01*
X402904Y965568D01*
X403085Y965509D01*
X403265Y965445D01*
X403299Y965440D01*
X403332Y965429D01*
X403521Y965403D01*
X403709Y965372D01*
X403744Y965372D01*
X403778Y965368D01*
X403969Y965375D01*
X404159Y965378D01*
X404194Y965385D01*
X404228Y965386D01*
X404414Y965427D01*
X404602Y965464D01*
X404634Y965476D01*
X404668Y965484D01*
X404844Y965557D01*
X405022Y965626D01*
X405051Y965644D01*
X405083Y965657D01*
X405244Y965761D01*
X405406Y965860D01*
X405432Y965883D01*
X405461Y965901D01*
X405696Y966108D01*
X407823Y968236D01*
X413518Y970595D01*
X419682Y970595D01*
X425377Y968236D01*
X427504Y966108D01*
X427531Y966086D01*
X427554Y966060D01*
X427703Y965942D01*
X427850Y965820D01*
X427880Y965802D01*
X427907Y965781D01*
X428075Y965691D01*
X428241Y965596D01*
X428273Y965585D01*
X428304Y965568D01*
X428485Y965509D01*
X428665Y965445D01*
X428699Y965440D01*
X428732Y965429D01*
X428921Y965403D01*
X429109Y965372D01*
X429144Y965372D01*
X429178Y965368D01*
X429369Y965375D01*
X429559Y965378D01*
X429594Y965385D01*
X429628Y965386D01*
X429814Y965427D01*
X430002Y965464D01*
X430034Y965476D01*
X430068Y965484D01*
X430244Y965557D01*
X430422Y965626D01*
X430451Y965644D01*
X430483Y965657D01*
X430644Y965761D01*
X430806Y965860D01*
X430832Y965883D01*
X430861Y965901D01*
X431096Y966108D01*
X433223Y968236D01*
X438918Y970595D01*
X445082Y970595D01*
X450777Y968236D01*
X455419Y963594D01*
X455445Y963572D01*
X455469Y963546D01*
X455618Y963427D01*
X455764Y963305D01*
X455794Y963288D01*
X455822Y963266D01*
X455990Y963176D01*
X456155Y963082D01*
X456188Y963070D01*
X456219Y963054D01*
X456400Y962995D01*
X456580Y962931D01*
X456614Y962925D01*
X456647Y962914D01*
X456836Y962888D01*
X457024Y962857D01*
X457058Y962858D01*
X457093Y962853D01*
X457283Y962861D01*
X457474Y962863D01*
X457508Y962870D01*
X457543Y962871D01*
X457728Y962913D01*
X457916Y962949D01*
X457948Y962961D01*
X457982Y962969D01*
X458158Y963043D01*
X458336Y963111D01*
X458366Y963129D01*
X458398Y963143D01*
X458558Y963246D01*
X458721Y963345D01*
X458747Y963368D01*
X458776Y963387D01*
X459010Y963594D01*
X459622Y964206D01*
X461143Y965311D01*
X462817Y966164D01*
X464604Y966745D01*
X464861Y966785D01*
X464861Y955100D01*
X464864Y955066D01*
X464862Y955031D01*
X464884Y954842D01*
X464900Y954652D01*
X464910Y954618D01*
X464914Y954584D01*
X464969Y954401D01*
X465019Y954217D01*
X465034Y954186D01*
X465044Y954153D01*
X465131Y953982D01*
X465212Y953811D01*
X465233Y953783D01*
X465248Y953752D01*
X465363Y953600D01*
X465475Y953445D01*
X465475Y953444D01*
X465499Y953420D01*
X465520Y953393D01*
X465521Y953393D01*
X465521Y953392D01*
X465661Y953263D01*
X465798Y953130D01*
X465826Y953111D01*
X465852Y953087D01*
X466013Y952985D01*
X466171Y952878D01*
X466202Y952864D01*
X466232Y952845D01*
X466408Y952773D01*
X466583Y952696D01*
X466616Y952688D01*
X466648Y952675D01*
X466835Y952634D01*
X467020Y952589D01*
X467054Y952587D01*
X467088Y952580D01*
X467400Y952561D01*
X479085Y952561D01*
X479045Y952304D01*
X478464Y950517D01*
X477611Y948843D01*
X476506Y947322D01*
X475178Y945994D01*
X473516Y944786D01*
X473397Y944712D01*
X473339Y944659D01*
X473275Y944613D01*
X473172Y944508D01*
X473064Y944409D01*
X473016Y944347D01*
X472961Y944291D01*
X472879Y944169D01*
X472789Y944053D01*
X472753Y943983D01*
X472709Y943918D01*
X472649Y943783D01*
X472582Y943653D01*
X472558Y943578D01*
X472527Y943506D01*
X472492Y943363D01*
X472448Y943223D01*
X472438Y943145D01*
X472420Y943068D01*
X472411Y942922D01*
X472393Y942776D01*
X472397Y942697D01*
X472392Y942619D01*
X472409Y942473D01*
X472417Y942326D01*
X472435Y942250D01*
X472444Y942172D01*
X472487Y942031D01*
X472520Y941888D01*
X472552Y941816D01*
X472575Y941741D01*
X472641Y941610D01*
X472700Y941475D01*
X472743Y941410D01*
X472779Y941339D01*
X472868Y941223D01*
X472949Y941100D01*
X473003Y941043D01*
X473051Y940981D01*
X473159Y940881D01*
X473261Y940775D01*
X473324Y940729D01*
X473382Y940675D01*
X473506Y940597D01*
X473625Y940510D01*
X473695Y940476D01*
X473762Y940434D01*
X473898Y940378D01*
X474030Y940314D01*
X474106Y940293D01*
X474178Y940263D01*
X474322Y940232D01*
X474463Y940192D01*
X474542Y940185D01*
X474619Y940168D01*
X474880Y940152D01*
X474911Y940149D01*
X474919Y940149D01*
X474930Y940149D01*
X536608Y940149D01*
X536724Y940159D01*
X536841Y940159D01*
X536948Y940179D01*
X537056Y940189D01*
X537169Y940219D01*
X537284Y940240D01*
X537430Y940291D01*
X537491Y940307D01*
X537523Y940323D01*
X537579Y940342D01*
X543018Y942595D01*
X549182Y942595D01*
X554877Y940236D01*
X559236Y935877D01*
X561595Y930182D01*
X561595Y924018D01*
X559236Y918323D01*
X554877Y913964D01*
X549182Y911605D01*
X543018Y911605D01*
X537579Y913858D01*
X537468Y913893D01*
X537360Y913937D01*
X537254Y913960D01*
X537150Y913993D01*
X537034Y914007D01*
X536920Y914032D01*
X536766Y914042D01*
X536703Y914049D01*
X536667Y914048D01*
X536608Y914051D01*
X454604Y914051D01*
X449809Y916038D01*
X434966Y930881D01*
X433984Y931863D01*
X433884Y931946D01*
X433791Y932037D01*
X433711Y932090D01*
X433638Y932152D01*
X433525Y932216D01*
X433418Y932289D01*
X433330Y932328D01*
X433247Y932375D01*
X433125Y932419D01*
X433006Y932471D01*
X432913Y932494D01*
X432823Y932526D01*
X432695Y932547D01*
X432568Y932578D01*
X432473Y932584D01*
X432379Y932599D01*
X432249Y932598D01*
X432119Y932606D01*
X432024Y932595D01*
X431929Y932593D01*
X431801Y932569D01*
X431672Y932554D01*
X431580Y932526D01*
X431486Y932508D01*
X431365Y932461D01*
X431241Y932423D01*
X431155Y932380D01*
X431066Y932345D01*
X430955Y932278D01*
X430839Y932219D01*
X430763Y932161D01*
X430682Y932112D01*
X430584Y932026D01*
X430481Y931947D01*
X430416Y931876D01*
X430344Y931813D01*
X430264Y931711D01*
X430175Y931616D01*
X430124Y931535D01*
X430065Y931460D01*
X430003Y931346D01*
X429934Y931236D01*
X429897Y931147D01*
X429852Y931063D01*
X429812Y930940D01*
X429763Y930819D01*
X429743Y930726D01*
X429713Y930635D01*
X429695Y930506D01*
X429668Y930379D01*
X429660Y930249D01*
X429652Y930189D01*
X429653Y930144D01*
X429649Y930067D01*
X429649Y897957D01*
X429663Y897793D01*
X429670Y897629D01*
X429683Y897569D01*
X429689Y897508D01*
X429732Y897349D01*
X429768Y897189D01*
X429791Y897133D01*
X429807Y897074D01*
X429878Y896926D01*
X429941Y896774D01*
X429974Y896722D01*
X430001Y896667D01*
X430096Y896534D01*
X430186Y896395D01*
X430237Y896338D01*
X430263Y896301D01*
X430306Y896259D01*
X430392Y896161D01*
X455562Y870991D01*
X457549Y866196D01*
X457549Y570450D01*
X457560Y570320D01*
X457562Y570190D01*
X457580Y570097D01*
X457589Y570002D01*
X457623Y569876D01*
X457648Y569748D01*
X457682Y569659D01*
X457707Y569567D01*
X457763Y569450D01*
X457810Y569328D01*
X457860Y569247D01*
X457901Y569161D01*
X457976Y569055D01*
X458044Y568944D01*
X458107Y568872D01*
X458163Y568794D01*
X458256Y568704D01*
X458342Y568606D01*
X458417Y568547D01*
X458485Y568480D01*
X458593Y568408D01*
X458695Y568327D01*
X458779Y568282D01*
X458858Y568228D01*
X458977Y568176D01*
X459092Y568114D01*
X459183Y568085D01*
X459270Y568046D01*
X459397Y568015D01*
X459520Y567975D01*
X459615Y567962D01*
X459708Y567939D01*
X459837Y567931D01*
X459966Y567914D01*
X460062Y567918D01*
X460157Y567912D01*
X460286Y567927D01*
X460416Y567932D01*
X460509Y567953D01*
X460604Y567964D01*
X460729Y568001D01*
X460856Y568030D01*
X460944Y568066D01*
X461035Y568094D01*
X461151Y568153D01*
X461271Y568203D01*
X461351Y568255D01*
X461437Y568298D01*
X461540Y568377D01*
X461649Y568448D01*
X461747Y568534D01*
X461795Y568570D01*
X461826Y568603D01*
X461884Y568655D01*
X462742Y569513D01*
X467386Y571437D01*
X472414Y571437D01*
X477058Y569513D01*
X480804Y565767D01*
X480831Y565744D01*
X480854Y565718D01*
X481003Y565600D01*
X481150Y565478D01*
X481180Y565460D01*
X481207Y565439D01*
X481375Y565349D01*
X481541Y565254D01*
X481573Y565243D01*
X481604Y565226D01*
X481785Y565167D01*
X481965Y565103D01*
X481999Y565098D01*
X482032Y565087D01*
X482221Y565061D01*
X482409Y565030D01*
X482444Y565030D01*
X482478Y565026D01*
X482669Y565034D01*
X482860Y565036D01*
X482894Y565043D01*
X482928Y565044D01*
X483114Y565085D01*
X483302Y565122D01*
X483334Y565134D01*
X483368Y565142D01*
X483543Y565215D01*
X483722Y565284D01*
X483751Y565302D01*
X483783Y565315D01*
X483943Y565419D01*
X484106Y565518D01*
X484132Y565541D01*
X484161Y565560D01*
X484396Y565767D01*
X488142Y569513D01*
X492786Y571437D01*
X497814Y571437D01*
X502458Y569513D01*
X504601Y567370D01*
X504665Y567317D01*
X504721Y567257D01*
X504837Y567173D01*
X504947Y567081D01*
X505018Y567040D01*
X505085Y566991D01*
X505213Y566928D01*
X505338Y566857D01*
X505415Y566830D01*
X505489Y566794D01*
X505627Y566755D01*
X505762Y566707D01*
X505843Y566693D01*
X505923Y566671D01*
X506065Y566656D01*
X506206Y566633D01*
X506288Y566634D01*
X506371Y566626D01*
X506513Y566637D01*
X506656Y566639D01*
X506737Y566655D01*
X506819Y566661D01*
X506958Y566698D01*
X507098Y566725D01*
X507175Y566754D01*
X507255Y566775D01*
X507385Y566835D01*
X507518Y566887D01*
X507589Y566930D01*
X507664Y566964D01*
X507781Y567047D01*
X507903Y567121D01*
X507965Y567175D01*
X508032Y567223D01*
X508133Y567324D01*
X508241Y567419D01*
X508292Y567484D01*
X508350Y567542D01*
X508431Y567660D01*
X508520Y567772D01*
X508559Y567845D01*
X508606Y567913D01*
X508714Y568134D01*
X508733Y568169D01*
X508736Y568179D01*
X508743Y568193D01*
X508991Y568794D01*
X510742Y570544D01*
X510817Y570634D01*
X510899Y570717D01*
X510961Y570806D01*
X511031Y570890D01*
X511089Y570991D01*
X511155Y571087D01*
X511223Y571226D01*
X511254Y571280D01*
X511267Y571315D01*
X511293Y571368D01*
X512940Y575345D01*
X529555Y591960D01*
X534351Y593947D01*
X602798Y593947D01*
X607593Y591960D01*
X612115Y587439D01*
X612204Y587364D01*
X612287Y587282D01*
X612377Y587220D01*
X612460Y587150D01*
X612561Y587092D01*
X612658Y587026D01*
X612796Y586958D01*
X612851Y586927D01*
X612885Y586915D01*
X612939Y586889D01*
X618377Y584636D01*
X622736Y580277D01*
X625095Y574582D01*
X625095Y568418D01*
X624922Y568001D01*
X622736Y562723D01*
X618094Y558081D01*
X618072Y558055D01*
X618046Y558031D01*
X617927Y557882D01*
X617805Y557736D01*
X617788Y557706D01*
X617766Y557678D01*
X617676Y557510D01*
X617582Y557345D01*
X617570Y557312D01*
X617554Y557281D01*
X617495Y557100D01*
X617431Y556920D01*
X617425Y556886D01*
X617414Y556853D01*
X617388Y556664D01*
X617357Y556476D01*
X617358Y556442D01*
X617353Y556407D01*
X617361Y556217D01*
X617363Y556026D01*
X617370Y555992D01*
X617371Y555957D01*
X617413Y555772D01*
X617449Y555584D01*
X617461Y555552D01*
X617469Y555518D01*
X617543Y555342D01*
X617611Y555164D01*
X617629Y555134D01*
X617643Y555102D01*
X617746Y554942D01*
X617845Y554779D01*
X617868Y554753D01*
X617887Y554724D01*
X618094Y554490D01*
X618706Y553878D01*
X619811Y552357D01*
X620664Y550683D01*
X621245Y548896D01*
X621285Y548639D01*
X609600Y548639D01*
X597915Y548639D01*
X597955Y548896D01*
X598536Y550683D01*
X599389Y552357D01*
X600494Y553878D01*
X601106Y554490D01*
X601128Y554516D01*
X601154Y554540D01*
X601273Y554689D01*
X601395Y554835D01*
X601412Y554866D01*
X601434Y554893D01*
X601523Y555060D01*
X601618Y555226D01*
X601630Y555259D01*
X601646Y555289D01*
X601705Y555471D01*
X601769Y555651D01*
X601775Y555685D01*
X601786Y555718D01*
X601812Y555907D01*
X601843Y556095D01*
X601842Y556129D01*
X601847Y556164D01*
X601839Y556355D01*
X601837Y556545D01*
X601830Y556579D01*
X601829Y556614D01*
X601787Y556800D01*
X601751Y556987D01*
X601739Y557019D01*
X601731Y557053D01*
X601658Y557229D01*
X601589Y557407D01*
X601571Y557437D01*
X601557Y557469D01*
X601454Y557628D01*
X601355Y557792D01*
X601332Y557818D01*
X601313Y557847D01*
X601106Y558081D01*
X598592Y560595D01*
X598592Y560596D01*
X596464Y562723D01*
X594990Y566282D01*
X594892Y566470D01*
X594796Y566659D01*
X594788Y566669D01*
X594782Y566681D01*
X594651Y566850D01*
X594524Y567017D01*
X594514Y567026D01*
X594506Y567037D01*
X594348Y567179D01*
X594193Y567323D01*
X594181Y567330D01*
X594172Y567338D01*
X594122Y567370D01*
X593993Y567450D01*
X593813Y567564D01*
X593801Y567569D01*
X593789Y567576D01*
X593592Y567655D01*
X593396Y567735D01*
X593391Y567736D01*
X593383Y567738D01*
X593371Y567743D01*
X593163Y567786D01*
X592956Y567830D01*
X592940Y567831D01*
X592930Y567833D01*
X592904Y567834D01*
X592891Y567834D01*
X592644Y567849D01*
X566772Y567849D01*
X566690Y567842D01*
X566608Y567844D01*
X566467Y567822D01*
X566324Y567809D01*
X566244Y567788D01*
X566163Y567775D01*
X566027Y567729D01*
X565889Y567691D01*
X565815Y567656D01*
X565737Y567629D01*
X565612Y567559D01*
X565483Y567497D01*
X565416Y567450D01*
X565344Y567409D01*
X565233Y567319D01*
X565117Y567235D01*
X565059Y567176D01*
X564995Y567124D01*
X564903Y567015D01*
X564803Y566913D01*
X564756Y566844D01*
X564703Y566782D01*
X564631Y566658D01*
X564551Y566540D01*
X564517Y566464D01*
X564476Y566393D01*
X564426Y566259D01*
X564368Y566128D01*
X564349Y566048D01*
X564320Y565970D01*
X564296Y565829D01*
X564262Y565690D01*
X564257Y565608D01*
X564242Y565527D01*
X564243Y565384D01*
X564234Y565241D01*
X564243Y565159D01*
X564244Y565077D01*
X564269Y564936D01*
X564286Y564794D01*
X564310Y564715D01*
X564325Y564634D01*
X564405Y564401D01*
X564416Y564363D01*
X564421Y564353D01*
X564426Y564338D01*
X565151Y562589D01*
X565151Y555011D01*
X562250Y548009D01*
X556891Y542650D01*
X549889Y539749D01*
X542311Y539749D01*
X535309Y542650D01*
X532016Y545942D01*
X531854Y546078D01*
X531692Y546216D01*
X531680Y546223D01*
X531670Y546231D01*
X531487Y546336D01*
X531303Y546444D01*
X531291Y546448D01*
X531279Y546455D01*
X531078Y546526D01*
X530881Y546599D01*
X530868Y546601D01*
X530855Y546606D01*
X530646Y546640D01*
X530437Y546677D01*
X530424Y546677D01*
X530411Y546679D01*
X530199Y546676D01*
X529987Y546675D01*
X529974Y546673D01*
X529961Y546673D01*
X529751Y546632D01*
X529544Y546594D01*
X529529Y546589D01*
X529519Y546587D01*
X529482Y546573D01*
X529248Y546493D01*
X528453Y546163D01*
X524795Y546163D01*
X524679Y546153D01*
X524562Y546153D01*
X524455Y546133D01*
X524347Y546123D01*
X524234Y546093D01*
X524119Y546072D01*
X523973Y546021D01*
X523912Y546005D01*
X523880Y545989D01*
X523824Y545970D01*
X523296Y545751D01*
X518104Y545751D01*
X517576Y545970D01*
X517465Y546005D01*
X517357Y546049D01*
X517251Y546072D01*
X517147Y546105D01*
X517031Y546119D01*
X516917Y546144D01*
X516763Y546154D01*
X516700Y546161D01*
X516664Y546160D01*
X516605Y546163D01*
X512947Y546163D01*
X510706Y547091D01*
X508991Y548807D01*
X508743Y549407D01*
X508705Y549479D01*
X508675Y549556D01*
X508601Y549679D01*
X508534Y549806D01*
X508484Y549871D01*
X508441Y549941D01*
X508346Y550048D01*
X508259Y550162D01*
X508198Y550217D01*
X508143Y550279D01*
X508031Y550367D01*
X507924Y550463D01*
X507854Y550507D01*
X507790Y550558D01*
X507664Y550626D01*
X507542Y550701D01*
X507466Y550732D01*
X507393Y550771D01*
X507257Y550815D01*
X507124Y550868D01*
X507043Y550884D01*
X506965Y550910D01*
X506823Y550929D01*
X506683Y550958D01*
X506600Y550960D01*
X506519Y550971D01*
X506376Y550965D01*
X506233Y550969D01*
X506151Y550956D01*
X506069Y550953D01*
X505929Y550922D01*
X505788Y550900D01*
X505710Y550873D01*
X505629Y550855D01*
X505497Y550800D01*
X505362Y550754D01*
X505290Y550713D01*
X505214Y550682D01*
X505094Y550604D01*
X504969Y550534D01*
X504905Y550482D01*
X504836Y550437D01*
X504651Y550274D01*
X504620Y550249D01*
X504613Y550241D01*
X504601Y550230D01*
X502458Y548087D01*
X497814Y546163D01*
X492786Y546163D01*
X488142Y548087D01*
X484396Y551833D01*
X484369Y551856D01*
X484346Y551882D01*
X484197Y552000D01*
X484050Y552122D01*
X484020Y552140D01*
X483993Y552161D01*
X483825Y552251D01*
X483659Y552346D01*
X483627Y552357D01*
X483596Y552374D01*
X483415Y552433D01*
X483235Y552497D01*
X483201Y552502D01*
X483168Y552513D01*
X482979Y552539D01*
X482791Y552570D01*
X482756Y552570D01*
X482722Y552574D01*
X482531Y552566D01*
X482341Y552564D01*
X482306Y552557D01*
X482272Y552556D01*
X482086Y552515D01*
X481898Y552478D01*
X481866Y552466D01*
X481832Y552458D01*
X481656Y552385D01*
X481478Y552316D01*
X481449Y552298D01*
X481417Y552285D01*
X481256Y552181D01*
X481094Y552082D01*
X481068Y552059D01*
X481039Y552040D01*
X480804Y551833D01*
X477058Y548087D01*
X472414Y546163D01*
X467386Y546163D01*
X462742Y548087D01*
X459287Y551542D01*
X459260Y551564D01*
X459237Y551590D01*
X459087Y551709D01*
X458941Y551831D01*
X458911Y551848D01*
X458884Y551870D01*
X458716Y551960D01*
X458551Y552054D01*
X458518Y552066D01*
X458487Y552082D01*
X458306Y552141D01*
X458126Y552205D01*
X458092Y552211D01*
X458059Y552222D01*
X457870Y552248D01*
X457682Y552279D01*
X457648Y552278D01*
X457613Y552283D01*
X457422Y552275D01*
X457232Y552273D01*
X457198Y552266D01*
X457163Y552265D01*
X456977Y552223D01*
X456790Y552187D01*
X456757Y552175D01*
X456724Y552167D01*
X456548Y552094D01*
X456370Y552025D01*
X456340Y552007D01*
X456308Y551993D01*
X456148Y551890D01*
X455985Y551791D01*
X455959Y551768D01*
X455930Y551749D01*
X455696Y551542D01*
X451892Y547738D01*
X447096Y545751D01*
X441904Y545751D01*
X437108Y547738D01*
X433596Y551251D01*
X433569Y551273D01*
X433546Y551299D01*
X433397Y551417D01*
X433250Y551540D01*
X433220Y551557D01*
X433193Y551578D01*
X433025Y551668D01*
X432859Y551763D01*
X432827Y551775D01*
X432796Y551791D01*
X432615Y551850D01*
X432435Y551914D01*
X432401Y551920D01*
X432368Y551930D01*
X432179Y551956D01*
X431991Y551987D01*
X431956Y551987D01*
X431922Y551992D01*
X431731Y551984D01*
X431541Y551981D01*
X431506Y551975D01*
X431472Y551973D01*
X431286Y551932D01*
X431098Y551896D01*
X431066Y551883D01*
X431032Y551876D01*
X430856Y551802D01*
X430678Y551733D01*
X430649Y551715D01*
X430617Y551702D01*
X430456Y551598D01*
X430294Y551499D01*
X430268Y551477D01*
X430239Y551458D01*
X430004Y551251D01*
X426491Y547738D01*
X421696Y545751D01*
X416504Y545751D01*
X411708Y547738D01*
X408196Y551251D01*
X408169Y551273D01*
X408146Y551299D01*
X407997Y551417D01*
X407850Y551540D01*
X407820Y551557D01*
X407793Y551578D01*
X407625Y551668D01*
X407459Y551763D01*
X407427Y551775D01*
X407396Y551791D01*
X407215Y551850D01*
X407035Y551914D01*
X407001Y551920D01*
X406968Y551930D01*
X406779Y551956D01*
X406591Y551987D01*
X406556Y551987D01*
X406522Y551992D01*
X406331Y551984D01*
X406141Y551981D01*
X406106Y551975D01*
X406072Y551973D01*
X405886Y551932D01*
X405698Y551896D01*
X405666Y551883D01*
X405632Y551876D01*
X405456Y551802D01*
X405278Y551733D01*
X405249Y551715D01*
X405217Y551702D01*
X405056Y551598D01*
X404894Y551499D01*
X404868Y551477D01*
X404839Y551458D01*
X404604Y551251D01*
X401091Y547738D01*
X396296Y545751D01*
X391104Y545751D01*
X386308Y547738D01*
X382796Y551251D01*
X382769Y551273D01*
X382746Y551299D01*
X382597Y551417D01*
X382450Y551540D01*
X382420Y551557D01*
X382393Y551578D01*
X382225Y551668D01*
X382059Y551763D01*
X382027Y551775D01*
X381996Y551791D01*
X381815Y551850D01*
X381635Y551914D01*
X381601Y551920D01*
X381568Y551930D01*
X381379Y551956D01*
X381191Y551987D01*
X381156Y551987D01*
X381122Y551992D01*
X380931Y551984D01*
X380741Y551981D01*
X380706Y551975D01*
X380672Y551973D01*
X380486Y551932D01*
X380298Y551896D01*
X380266Y551883D01*
X380232Y551876D01*
X380056Y551802D01*
X379878Y551733D01*
X379849Y551715D01*
X379817Y551702D01*
X379656Y551598D01*
X379494Y551499D01*
X379468Y551477D01*
X379439Y551458D01*
X379204Y551251D01*
X375691Y547738D01*
X370896Y545751D01*
X365704Y545751D01*
X360908Y547738D01*
X357396Y551251D01*
X357369Y551273D01*
X357346Y551299D01*
X357197Y551417D01*
X357050Y551540D01*
X357020Y551557D01*
X356993Y551578D01*
X356825Y551668D01*
X356659Y551763D01*
X356627Y551775D01*
X356596Y551791D01*
X356415Y551850D01*
X356235Y551914D01*
X356201Y551920D01*
X356168Y551930D01*
X355979Y551956D01*
X355791Y551987D01*
X355756Y551987D01*
X355722Y551992D01*
X355531Y551984D01*
X355341Y551981D01*
X355306Y551975D01*
X355272Y551973D01*
X355086Y551932D01*
X354898Y551896D01*
X354866Y551883D01*
X354832Y551876D01*
X354656Y551802D01*
X354478Y551733D01*
X354449Y551715D01*
X354417Y551702D01*
X354256Y551598D01*
X354094Y551499D01*
X354068Y551477D01*
X354039Y551458D01*
X353804Y551251D01*
X350291Y547738D01*
X345496Y545751D01*
X340304Y545751D01*
X335509Y547738D01*
X331996Y551251D01*
X331969Y551273D01*
X331946Y551299D01*
X331797Y551417D01*
X331650Y551540D01*
X331620Y551557D01*
X331593Y551578D01*
X331425Y551668D01*
X331259Y551763D01*
X331227Y551775D01*
X331196Y551791D01*
X331015Y551850D01*
X330835Y551914D01*
X330801Y551920D01*
X330768Y551930D01*
X330579Y551956D01*
X330391Y551987D01*
X330356Y551987D01*
X330322Y551992D01*
X330131Y551984D01*
X329940Y551981D01*
X329906Y551975D01*
X329872Y551973D01*
X329686Y551932D01*
X329498Y551896D01*
X329466Y551883D01*
X329432Y551876D01*
X329257Y551802D01*
X329078Y551733D01*
X329049Y551715D01*
X329017Y551702D01*
X328857Y551599D01*
X328694Y551499D01*
X328668Y551477D01*
X328639Y551458D01*
X328404Y551251D01*
X324892Y547738D01*
X320096Y545751D01*
X314904Y545751D01*
X310108Y547738D01*
X306304Y551542D01*
X306278Y551564D01*
X306255Y551590D01*
X306105Y551709D01*
X305959Y551831D01*
X305929Y551848D01*
X305902Y551870D01*
X305734Y551960D01*
X305568Y552054D01*
X305535Y552066D01*
X305505Y552082D01*
X305324Y552141D01*
X305144Y552205D01*
X305109Y552211D01*
X305076Y552222D01*
X304887Y552248D01*
X304699Y552279D01*
X304665Y552278D01*
X304630Y552283D01*
X304439Y552275D01*
X304249Y552273D01*
X304215Y552266D01*
X304181Y552265D01*
X303994Y552223D01*
X303807Y552187D01*
X303775Y552175D01*
X303741Y552167D01*
X303565Y552094D01*
X303387Y552025D01*
X303357Y552007D01*
X303326Y551993D01*
X303165Y551890D01*
X303002Y551791D01*
X302976Y551768D01*
X302947Y551749D01*
X302713Y551542D01*
X299258Y548087D01*
X294614Y546163D01*
X289586Y546163D01*
X284942Y548087D01*
X281196Y551833D01*
X281169Y551856D01*
X281146Y551882D01*
X280997Y552000D01*
X280850Y552122D01*
X280820Y552140D01*
X280793Y552161D01*
X280625Y552251D01*
X280459Y552346D01*
X280427Y552357D01*
X280396Y552374D01*
X280215Y552433D01*
X280035Y552497D01*
X280001Y552502D01*
X279968Y552513D01*
X279779Y552539D01*
X279591Y552570D01*
X279556Y552570D01*
X279522Y552574D01*
X279331Y552566D01*
X279141Y552564D01*
X279106Y552557D01*
X279072Y552556D01*
X278886Y552515D01*
X278698Y552478D01*
X278666Y552466D01*
X278632Y552458D01*
X278456Y552385D01*
X278278Y552316D01*
X278249Y552298D01*
X278217Y552285D01*
X278056Y552181D01*
X277894Y552082D01*
X277868Y552059D01*
X277839Y552040D01*
X277604Y551833D01*
X273858Y548087D01*
X269214Y546163D01*
X264186Y546163D01*
X259542Y548087D01*
X258684Y548945D01*
X258584Y549029D01*
X258491Y549120D01*
X258411Y549173D01*
X258338Y549234D01*
X258225Y549299D01*
X258118Y549372D01*
X258030Y549410D01*
X257947Y549458D01*
X257825Y549501D01*
X257706Y549554D01*
X257613Y549577D01*
X257523Y549609D01*
X257395Y549630D01*
X257268Y549661D01*
X257173Y549666D01*
X257079Y549682D01*
X256949Y549680D01*
X256819Y549688D01*
X256724Y549677D01*
X256629Y549676D01*
X256501Y549651D01*
X256372Y549636D01*
X256280Y549608D01*
X256186Y549590D01*
X256065Y549544D01*
X255941Y549506D01*
X255855Y549462D01*
X255766Y549428D01*
X255655Y549361D01*
X255539Y549302D01*
X255463Y549244D01*
X255382Y549194D01*
X255284Y549108D01*
X255181Y549030D01*
X255116Y548959D01*
X255044Y548896D01*
X254964Y548794D01*
X254875Y548698D01*
X254824Y548618D01*
X254765Y548543D01*
X254704Y548428D01*
X254634Y548319D01*
X254597Y548230D01*
X254552Y548146D01*
X254512Y548023D01*
X254463Y547902D01*
X254443Y547809D01*
X254413Y547718D01*
X254395Y547589D01*
X254368Y547462D01*
X254360Y547332D01*
X254352Y547272D01*
X254353Y547227D01*
X254349Y547150D01*
X254349Y518104D01*
X252362Y513309D01*
X210591Y471538D01*
X205796Y469551D01*
X171557Y469551D01*
X171393Y469537D01*
X171229Y469530D01*
X171169Y469517D01*
X171108Y469511D01*
X170949Y469468D01*
X170789Y469432D01*
X170733Y469409D01*
X170674Y469393D01*
X170526Y469322D01*
X170374Y469259D01*
X170322Y469226D01*
X170267Y469199D01*
X170134Y469104D01*
X169995Y469014D01*
X169938Y468963D01*
X169901Y468937D01*
X169859Y468894D01*
X169761Y468808D01*
X150068Y449114D01*
X128709Y427756D01*
X128595Y427619D01*
X128476Y427488D01*
X128451Y427447D01*
X128420Y427410D01*
X128332Y427256D01*
X128238Y427105D01*
X128221Y427061D01*
X128197Y427019D01*
X128138Y426852D01*
X128072Y426687D01*
X128062Y426640D01*
X128046Y426595D01*
X128017Y426420D01*
X127982Y426246D01*
X127980Y426198D01*
X127973Y426151D01*
X127975Y425973D01*
X127971Y425796D01*
X127978Y425748D01*
X127979Y425701D01*
X128013Y425526D01*
X128040Y425351D01*
X128055Y425306D01*
X128064Y425258D01*
X128128Y425092D01*
X128186Y424925D01*
X128209Y424883D01*
X128227Y424838D01*
X128319Y424687D01*
X128405Y424532D01*
X128436Y424495D01*
X128461Y424454D01*
X128578Y424321D01*
X128691Y424183D01*
X128727Y424152D01*
X128759Y424116D01*
X128898Y424006D01*
X129033Y423891D01*
X129074Y423867D01*
X129112Y423837D01*
X129268Y423753D01*
X129422Y423663D01*
X129467Y423647D01*
X129509Y423624D01*
X129677Y423569D01*
X129844Y423508D01*
X129892Y423500D01*
X129937Y423485D01*
X130113Y423461D01*
X130288Y423430D01*
X130336Y423430D01*
X130383Y423424D01*
X130561Y423431D01*
X130738Y423432D01*
X130785Y423440D01*
X130833Y423442D01*
X131006Y423481D01*
X131181Y423512D01*
X131237Y423532D01*
X131272Y423540D01*
X131330Y423564D01*
X131477Y423614D01*
X135911Y425451D01*
X143489Y425451D01*
X150491Y422550D01*
X155319Y417723D01*
X155483Y417586D01*
X155643Y417449D01*
X155654Y417443D01*
X155664Y417434D01*
X155849Y417329D01*
X156031Y417222D01*
X156044Y417217D01*
X156055Y417211D01*
X156254Y417140D01*
X156454Y417067D01*
X156467Y417064D01*
X156479Y417060D01*
X156689Y417025D01*
X156897Y416989D01*
X156910Y416989D01*
X156924Y416986D01*
X157137Y416989D01*
X157348Y416990D01*
X157360Y416992D01*
X157374Y416993D01*
X157583Y417033D01*
X157791Y417071D01*
X157805Y417076D01*
X157816Y417078D01*
X157853Y417092D01*
X158086Y417173D01*
X162586Y419037D01*
X167614Y419037D01*
X172258Y417113D01*
X176004Y413367D01*
X176031Y413344D01*
X176054Y413318D01*
X176203Y413200D01*
X176350Y413078D01*
X176380Y413060D01*
X176407Y413039D01*
X176575Y412949D01*
X176741Y412854D01*
X176773Y412843D01*
X176804Y412826D01*
X176985Y412767D01*
X177165Y412703D01*
X177199Y412698D01*
X177232Y412687D01*
X177421Y412661D01*
X177609Y412630D01*
X177644Y412630D01*
X177678Y412626D01*
X177869Y412634D01*
X178059Y412636D01*
X178094Y412643D01*
X178128Y412644D01*
X178314Y412685D01*
X178502Y412722D01*
X178534Y412734D01*
X178568Y412742D01*
X178744Y412815D01*
X178922Y412884D01*
X178951Y412902D01*
X178983Y412915D01*
X179144Y413019D01*
X179306Y413118D01*
X179332Y413141D01*
X179361Y413160D01*
X179596Y413367D01*
X183342Y417113D01*
X187986Y419037D01*
X193014Y419037D01*
X197658Y417113D01*
X201404Y413367D01*
X201431Y413344D01*
X201454Y413318D01*
X201603Y413200D01*
X201750Y413078D01*
X201780Y413060D01*
X201807Y413039D01*
X201975Y412949D01*
X202141Y412854D01*
X202173Y412843D01*
X202204Y412826D01*
X202385Y412767D01*
X202565Y412703D01*
X202599Y412698D01*
X202632Y412687D01*
X202821Y412661D01*
X203009Y412630D01*
X203044Y412630D01*
X203078Y412626D01*
X203269Y412634D01*
X203459Y412636D01*
X203494Y412643D01*
X203528Y412644D01*
X203714Y412685D01*
X203902Y412722D01*
X203934Y412734D01*
X203968Y412742D01*
X204144Y412815D01*
X204322Y412884D01*
X204351Y412902D01*
X204383Y412915D01*
X204544Y413019D01*
X204706Y413118D01*
X204732Y413141D01*
X204761Y413160D01*
X204996Y413367D01*
X208742Y417113D01*
X213386Y419037D01*
X218414Y419037D01*
X223058Y417113D01*
X226613Y413558D01*
X228162Y409818D01*
X228164Y409814D01*
X228165Y409810D01*
X228268Y409616D01*
X228371Y409419D01*
X228373Y409415D01*
X228375Y409412D01*
X228509Y409240D01*
X228646Y409063D01*
X228650Y409060D01*
X228652Y409056D01*
X228817Y408909D01*
X228981Y408761D01*
X228984Y408759D01*
X228987Y408756D01*
X229178Y408638D01*
X229363Y408523D01*
X229367Y408521D01*
X229371Y408519D01*
X229576Y408438D01*
X229781Y408356D01*
X229786Y408356D01*
X229789Y408354D01*
X230005Y408311D01*
X230222Y408266D01*
X230227Y408266D01*
X230231Y408265D01*
X230452Y408261D01*
X230673Y408255D01*
X230677Y408256D01*
X230681Y408256D01*
X230898Y408290D01*
X231118Y408324D01*
X231122Y408326D01*
X231126Y408326D01*
X231334Y408399D01*
X231543Y408471D01*
X231547Y408473D01*
X231551Y408474D01*
X231742Y408581D01*
X231937Y408690D01*
X231940Y408693D01*
X231944Y408695D01*
X232112Y408834D01*
X232285Y408975D01*
X232288Y408979D01*
X232291Y408981D01*
X232433Y409148D01*
X232577Y409318D01*
X232580Y409321D01*
X232582Y409325D01*
X232691Y409512D01*
X232805Y409706D01*
X232806Y409710D01*
X232808Y409714D01*
X232848Y409814D01*
X233533Y411159D01*
X234374Y412316D01*
X235384Y413326D01*
X236541Y414167D01*
X237814Y414815D01*
X238761Y415123D01*
X238761Y406400D01*
X238761Y397677D01*
X237814Y397985D01*
X236541Y398633D01*
X235384Y399474D01*
X234374Y400484D01*
X233533Y401641D01*
X232811Y403059D01*
X232747Y403210D01*
X232744Y403213D01*
X232743Y403217D01*
X232622Y403399D01*
X232500Y403586D01*
X232497Y403589D01*
X232494Y403593D01*
X232338Y403756D01*
X232190Y403913D01*
X232187Y403916D01*
X232184Y403919D01*
X232002Y404052D01*
X231828Y404180D01*
X231824Y404182D01*
X231820Y404185D01*
X231623Y404281D01*
X231424Y404379D01*
X231419Y404380D01*
X231416Y404382D01*
X231208Y404441D01*
X230991Y404504D01*
X230987Y404504D01*
X230983Y404505D01*
X230762Y404527D01*
X230543Y404550D01*
X230539Y404549D01*
X230535Y404550D01*
X230309Y404532D01*
X230094Y404516D01*
X230090Y404515D01*
X230086Y404514D01*
X229874Y404459D01*
X229658Y404403D01*
X229654Y404401D01*
X229650Y404400D01*
X229454Y404310D01*
X229249Y404216D01*
X229245Y404213D01*
X229241Y404211D01*
X229061Y404085D01*
X228879Y403958D01*
X228876Y403955D01*
X228873Y403953D01*
X228716Y403796D01*
X228561Y403640D01*
X228558Y403637D01*
X228555Y403634D01*
X228428Y403450D01*
X228304Y403270D01*
X228302Y403267D01*
X228299Y403263D01*
X228162Y402982D01*
X226613Y399242D01*
X223058Y395687D01*
X222667Y395525D01*
X222551Y395465D01*
X222432Y395413D01*
X222352Y395361D01*
X222268Y395316D01*
X222165Y395237D01*
X222056Y395165D01*
X221987Y395099D01*
X221912Y395041D01*
X221825Y394944D01*
X221730Y394855D01*
X221674Y394777D01*
X221610Y394706D01*
X221541Y394596D01*
X221465Y394491D01*
X221423Y394405D01*
X221372Y394324D01*
X221324Y394203D01*
X221267Y394087D01*
X221241Y393995D01*
X221205Y393906D01*
X221179Y393778D01*
X221144Y393653D01*
X221134Y393558D01*
X221115Y393465D01*
X221112Y393335D01*
X221099Y393205D01*
X221107Y393110D01*
X221105Y393015D01*
X221124Y392886D01*
X221135Y392756D01*
X221159Y392664D01*
X221173Y392570D01*
X221216Y392447D01*
X221249Y392321D01*
X221289Y392234D01*
X221320Y392144D01*
X221383Y392030D01*
X221438Y391912D01*
X221493Y391834D01*
X221539Y391751D01*
X221622Y391650D01*
X221696Y391543D01*
X221764Y391476D01*
X221824Y391402D01*
X221923Y391318D01*
X222016Y391226D01*
X222094Y391172D01*
X222167Y391110D01*
X222279Y391044D01*
X222386Y390970D01*
X222503Y390913D01*
X222555Y390882D01*
X222597Y390867D01*
X222667Y390833D01*
X224740Y389974D01*
X225831Y389522D01*
X239662Y375691D01*
X241649Y370896D01*
X241649Y358244D01*
X241658Y358140D01*
X241657Y358036D01*
X241678Y357917D01*
X241689Y357795D01*
X241716Y357695D01*
X241734Y357592D01*
X241775Y357478D01*
X241807Y357361D01*
X241852Y357267D01*
X241887Y357169D01*
X241948Y357064D01*
X242001Y356954D01*
X242061Y356870D01*
X242113Y356780D01*
X242192Y356687D01*
X242263Y356588D01*
X242337Y356516D01*
X242405Y356436D01*
X242498Y356359D01*
X242585Y356274D01*
X242672Y356216D01*
X242752Y356150D01*
X242858Y356090D01*
X242958Y356022D01*
X243054Y355980D01*
X243144Y355929D01*
X243259Y355889D01*
X243370Y355840D01*
X243471Y355815D01*
X243570Y355781D01*
X243690Y355762D01*
X243808Y355733D01*
X243911Y355727D01*
X244014Y355711D01*
X244136Y355713D01*
X244257Y355706D01*
X244360Y355718D01*
X244465Y355720D01*
X244584Y355744D01*
X244704Y355758D01*
X244804Y355788D01*
X244906Y355808D01*
X245019Y355853D01*
X245135Y355888D01*
X245228Y355935D01*
X245325Y355973D01*
X245428Y356037D01*
X245537Y356092D01*
X245619Y356155D01*
X245708Y356210D01*
X245799Y356291D01*
X245895Y356364D01*
X245966Y356441D01*
X246043Y356510D01*
X246159Y356651D01*
X246200Y356696D01*
X246215Y356719D01*
X246242Y356751D01*
X247074Y357896D01*
X248084Y358906D01*
X249241Y359747D01*
X250514Y360395D01*
X251461Y360703D01*
X251461Y345440D01*
X251461Y330177D01*
X250514Y330485D01*
X249241Y331133D01*
X248084Y331974D01*
X247074Y332984D01*
X246242Y334129D01*
X246174Y334207D01*
X246113Y334292D01*
X246026Y334376D01*
X245946Y334468D01*
X245865Y334533D01*
X245791Y334606D01*
X245690Y334674D01*
X245595Y334750D01*
X245504Y334799D01*
X245418Y334858D01*
X245307Y334907D01*
X245200Y334965D01*
X245101Y334998D01*
X245006Y335040D01*
X244888Y335069D01*
X244773Y335107D01*
X244669Y335122D01*
X244568Y335147D01*
X244447Y335154D01*
X244327Y335171D01*
X244223Y335168D01*
X244119Y335174D01*
X243998Y335160D01*
X243877Y335156D01*
X243775Y335134D01*
X243672Y335122D01*
X243555Y335087D01*
X243437Y335062D01*
X243340Y335022D01*
X243241Y334992D01*
X243132Y334937D01*
X243020Y334891D01*
X242932Y334835D01*
X242839Y334788D01*
X242743Y334714D01*
X242640Y334649D01*
X242564Y334578D01*
X242481Y334516D01*
X242398Y334426D01*
X242309Y334344D01*
X242246Y334261D01*
X242175Y334184D01*
X242110Y334082D01*
X242037Y333985D01*
X241990Y333893D01*
X241934Y333805D01*
X241887Y333692D01*
X241832Y333584D01*
X241802Y333484D01*
X241763Y333388D01*
X241737Y333269D01*
X241702Y333153D01*
X241690Y333050D01*
X241668Y332948D01*
X241657Y332766D01*
X241650Y332706D01*
X241651Y332679D01*
X241649Y332636D01*
X241649Y302867D01*
X241663Y302704D01*
X241670Y302539D01*
X241683Y302480D01*
X241689Y302419D01*
X241732Y302260D01*
X241768Y302100D01*
X241791Y302043D01*
X241807Y301984D01*
X241878Y301836D01*
X241941Y301684D01*
X241974Y301633D01*
X242001Y301578D01*
X242096Y301444D01*
X242186Y301306D01*
X242231Y301254D01*
X244697Y295302D01*
X244697Y288898D01*
X242246Y282982D01*
X237718Y278454D01*
X231802Y276003D01*
X225398Y276003D01*
X219482Y278454D01*
X219250Y278686D01*
X219187Y278739D01*
X219130Y278798D01*
X219014Y278883D01*
X218905Y278975D01*
X218833Y279015D01*
X218767Y279064D01*
X218638Y279127D01*
X218514Y279198D01*
X218436Y279226D01*
X218362Y279262D01*
X218224Y279301D01*
X218090Y279349D01*
X218008Y279362D01*
X217929Y279385D01*
X217786Y279399D01*
X217645Y279422D01*
X217563Y279421D01*
X217481Y279429D01*
X217338Y279418D01*
X217195Y279416D01*
X217114Y279400D01*
X217032Y279394D01*
X216894Y279358D01*
X216753Y279331D01*
X216676Y279301D01*
X216596Y279280D01*
X216467Y279220D01*
X216333Y279168D01*
X216263Y279126D01*
X216188Y279091D01*
X216071Y279009D01*
X215948Y278934D01*
X215886Y278880D01*
X215819Y278833D01*
X215718Y278731D01*
X215611Y278636D01*
X215560Y278572D01*
X215502Y278513D01*
X215420Y278395D01*
X215331Y278283D01*
X215293Y278211D01*
X215246Y278143D01*
X215138Y277921D01*
X215119Y277886D01*
X215116Y277876D01*
X215109Y277862D01*
X214262Y275818D01*
X180329Y241886D01*
X180329Y241885D01*
X179993Y241550D01*
X179941Y241487D01*
X179881Y241430D01*
X179796Y241314D01*
X179704Y241204D01*
X179664Y241133D01*
X179615Y241066D01*
X179552Y240938D01*
X179481Y240813D01*
X179453Y240736D01*
X179417Y240662D01*
X179378Y240524D01*
X179330Y240389D01*
X179317Y240308D01*
X179294Y240229D01*
X179280Y240086D01*
X179257Y239945D01*
X179258Y239863D01*
X179250Y239780D01*
X179261Y239638D01*
X179263Y239495D01*
X179279Y239414D01*
X179285Y239332D01*
X179321Y239193D01*
X179348Y239053D01*
X179378Y238976D01*
X179399Y238896D01*
X179459Y238766D01*
X179511Y238633D01*
X179553Y238562D01*
X179588Y238487D01*
X179670Y238370D01*
X179745Y238248D01*
X179799Y238186D01*
X179846Y238119D01*
X179948Y238018D01*
X180043Y237910D01*
X180107Y237859D01*
X180166Y237801D01*
X180284Y237720D01*
X180396Y237631D01*
X180468Y237592D01*
X180536Y237545D01*
X180758Y237437D01*
X180793Y237418D01*
X180803Y237415D01*
X180817Y237408D01*
X184958Y235693D01*
X188419Y232232D01*
X188545Y232127D01*
X188666Y232015D01*
X188717Y231983D01*
X188764Y231944D01*
X188906Y231862D01*
X189045Y231774D01*
X189102Y231750D01*
X189155Y231720D01*
X189310Y231665D01*
X189462Y231603D01*
X189475Y231600D01*
X189522Y231590D01*
X189572Y231572D01*
X189579Y231569D01*
X189611Y231564D01*
X189742Y231543D01*
X189832Y231523D01*
X189902Y231508D01*
X189911Y231507D01*
X189979Y231503D01*
X190023Y231496D01*
X190084Y231497D01*
X190214Y231489D01*
X190786Y231489D01*
X190950Y231503D01*
X191114Y231510D01*
X191174Y231523D01*
X191234Y231529D01*
X191393Y231572D01*
X191554Y231608D01*
X191610Y231631D01*
X191669Y231647D01*
X191817Y231718D01*
X191969Y231781D01*
X192020Y231814D01*
X192075Y231841D01*
X192209Y231936D01*
X192347Y232026D01*
X192405Y232077D01*
X192442Y232103D01*
X192484Y232146D01*
X192581Y232232D01*
X196042Y235693D01*
X200686Y237617D01*
X205714Y237617D01*
X210358Y235693D01*
X212288Y233763D01*
X212351Y233710D01*
X212408Y233650D01*
X212455Y233616D01*
X212524Y233566D01*
X212586Y233514D01*
X212634Y233474D01*
X212705Y233433D01*
X212772Y233384D01*
X212900Y233321D01*
X213025Y233250D01*
X213102Y233223D01*
X213176Y233187D01*
X213314Y233148D01*
X213449Y233100D01*
X213530Y233086D01*
X213609Y233064D01*
X213752Y233050D01*
X213893Y233026D01*
X213976Y233027D01*
X214017Y233023D01*
X214057Y233019D01*
X214058Y233019D01*
X214086Y233021D01*
X214200Y233030D01*
X214296Y233032D01*
X214343Y233032D01*
X214424Y233048D01*
X214506Y233054D01*
X214645Y233091D01*
X214785Y233118D01*
X214862Y233148D01*
X214942Y233168D01*
X215072Y233228D01*
X215205Y233280D01*
X215276Y233323D01*
X215351Y233358D01*
X215468Y233440D01*
X215590Y233514D01*
X215652Y233569D01*
X215719Y233616D01*
X215820Y233718D01*
X215928Y233812D01*
X215979Y233877D01*
X216037Y233935D01*
X216118Y234053D01*
X216207Y234165D01*
X216246Y234238D01*
X216293Y234306D01*
X216401Y234527D01*
X216420Y234562D01*
X216423Y234572D01*
X216430Y234587D01*
X217538Y237262D01*
X261798Y281521D01*
X261903Y281648D01*
X262015Y281768D01*
X262047Y281820D01*
X262086Y281867D01*
X262168Y282009D01*
X262256Y282148D01*
X262280Y282205D01*
X262310Y282258D01*
X262365Y282412D01*
X262427Y282565D01*
X262440Y282624D01*
X262461Y282682D01*
X262487Y282844D01*
X262522Y283005D01*
X262527Y283082D01*
X262534Y283126D01*
X262533Y283187D01*
X262541Y283317D01*
X262541Y328917D01*
X262525Y329099D01*
X262515Y329280D01*
X262505Y329322D01*
X262501Y329365D01*
X262453Y329541D01*
X262412Y329718D01*
X262394Y329758D01*
X262383Y329800D01*
X262305Y329964D01*
X262232Y330131D01*
X262208Y330167D01*
X262189Y330206D01*
X262084Y330354D01*
X261983Y330506D01*
X261953Y330537D01*
X261927Y330572D01*
X261797Y330699D01*
X261671Y330830D01*
X261636Y330856D01*
X261605Y330886D01*
X261454Y330988D01*
X261307Y331095D01*
X261268Y331114D01*
X261232Y331139D01*
X261065Y331212D01*
X260902Y331291D01*
X260860Y331303D01*
X260820Y331321D01*
X260643Y331364D01*
X260468Y331413D01*
X260425Y331417D01*
X260382Y331427D01*
X260201Y331439D01*
X260020Y331456D01*
X259976Y331452D01*
X259933Y331455D01*
X259752Y331434D01*
X259571Y331419D01*
X259529Y331408D01*
X259486Y331403D01*
X259311Y331350D01*
X259136Y331304D01*
X259087Y331282D01*
X259055Y331273D01*
X258999Y331244D01*
X258849Y331179D01*
X257486Y330485D01*
X256539Y330177D01*
X256539Y345440D01*
X256539Y360703D01*
X257486Y360395D01*
X258849Y359701D01*
X259018Y359633D01*
X259184Y359559D01*
X259227Y359549D01*
X259267Y359533D01*
X259445Y359496D01*
X259622Y359453D01*
X259665Y359450D01*
X259708Y359441D01*
X259889Y359436D01*
X260071Y359425D01*
X260114Y359430D01*
X260158Y359429D01*
X260337Y359456D01*
X260518Y359477D01*
X260560Y359490D01*
X260603Y359496D01*
X260775Y359555D01*
X260949Y359607D01*
X260988Y359627D01*
X261029Y359641D01*
X261188Y359729D01*
X261351Y359812D01*
X261385Y359838D01*
X261423Y359859D01*
X261564Y359974D01*
X261709Y360084D01*
X261739Y360116D01*
X261773Y360143D01*
X261891Y360281D01*
X262015Y360415D01*
X262038Y360452D01*
X262066Y360484D01*
X262158Y360641D01*
X262256Y360795D01*
X262273Y360835D01*
X262295Y360872D01*
X262358Y361042D01*
X262427Y361211D01*
X262436Y361254D01*
X262452Y361294D01*
X262484Y361473D01*
X262522Y361651D01*
X262525Y361705D01*
X262531Y361738D01*
X262531Y361801D01*
X262541Y361963D01*
X262541Y391053D01*
X262527Y391217D01*
X262520Y391381D01*
X262507Y391441D01*
X262501Y391502D01*
X262458Y391661D01*
X262422Y391821D01*
X262399Y391877D01*
X262383Y391936D01*
X262312Y392084D01*
X262249Y392236D01*
X262216Y392288D01*
X262189Y392343D01*
X262133Y392421D01*
X262132Y392423D01*
X262126Y392432D01*
X262094Y392476D01*
X262004Y392615D01*
X261953Y392672D01*
X261927Y392709D01*
X261884Y392751D01*
X261882Y392753D01*
X261860Y392782D01*
X261841Y392800D01*
X261798Y392849D01*
X255638Y399009D01*
X254198Y402485D01*
X254184Y402512D01*
X254174Y402541D01*
X254079Y402712D01*
X253989Y402884D01*
X253971Y402908D01*
X253956Y402935D01*
X253833Y403086D01*
X253713Y403240D01*
X253691Y403261D01*
X253672Y403284D01*
X253524Y403412D01*
X253379Y403542D01*
X253353Y403558D01*
X253330Y403578D01*
X253162Y403677D01*
X252997Y403780D01*
X252969Y403791D01*
X252943Y403807D01*
X252760Y403874D01*
X252579Y403947D01*
X252549Y403953D01*
X252520Y403963D01*
X252329Y403998D01*
X252137Y404037D01*
X252107Y404037D01*
X252077Y404043D01*
X251883Y404043D01*
X251687Y404048D01*
X251657Y404043D01*
X251627Y404043D01*
X251436Y404009D01*
X251242Y403979D01*
X251213Y403969D01*
X251184Y403963D01*
X251001Y403896D01*
X250817Y403832D01*
X250790Y403818D01*
X250762Y403807D01*
X250593Y403708D01*
X250423Y403613D01*
X250400Y403594D01*
X250374Y403578D01*
X250225Y403451D01*
X250075Y403328D01*
X250055Y403305D01*
X250032Y403285D01*
X249909Y403133D01*
X249782Y402985D01*
X249767Y402959D01*
X249748Y402936D01*
X249589Y402666D01*
X249067Y401641D01*
X248226Y400484D01*
X247216Y399474D01*
X246059Y398633D01*
X244786Y397985D01*
X243839Y397677D01*
X243839Y406400D01*
X243839Y415123D01*
X244786Y414815D01*
X246059Y414167D01*
X247216Y413326D01*
X248226Y412316D01*
X249067Y411159D01*
X249589Y410134D01*
X249605Y410108D01*
X249617Y410080D01*
X249725Y409917D01*
X249828Y409752D01*
X249849Y409730D01*
X249866Y409704D01*
X250001Y409562D01*
X250131Y409419D01*
X250155Y409400D01*
X250176Y409378D01*
X250334Y409263D01*
X250488Y409144D01*
X250515Y409130D01*
X250540Y409112D01*
X250715Y409027D01*
X250888Y408937D01*
X250917Y408928D01*
X250944Y408915D01*
X251132Y408862D01*
X251318Y408804D01*
X251348Y408800D01*
X251377Y408792D01*
X251572Y408772D01*
X251765Y408749D01*
X251795Y408750D01*
X251825Y408747D01*
X252020Y408763D01*
X252214Y408773D01*
X252244Y408780D01*
X252274Y408783D01*
X252462Y408832D01*
X252653Y408877D01*
X252681Y408889D01*
X252710Y408897D01*
X252887Y408978D01*
X253066Y409056D01*
X253091Y409073D01*
X253118Y409086D01*
X253278Y409197D01*
X253440Y409306D01*
X253462Y409327D01*
X253487Y409344D01*
X253625Y409483D01*
X253765Y409617D01*
X253783Y409642D01*
X253805Y409663D01*
X253916Y409824D01*
X254030Y409982D01*
X254043Y410009D01*
X254061Y410034D01*
X254198Y410315D01*
X255638Y413791D01*
X258683Y416837D01*
X258684Y416837D01*
X259309Y417462D01*
X264104Y419449D01*
X269296Y419449D01*
X274092Y417462D01*
X277604Y413949D01*
X277631Y413927D01*
X277654Y413901D01*
X277803Y413783D01*
X277950Y413660D01*
X277980Y413643D01*
X278007Y413622D01*
X278175Y413532D01*
X278341Y413437D01*
X278373Y413425D01*
X278404Y413409D01*
X278585Y413350D01*
X278765Y413286D01*
X278799Y413280D01*
X278832Y413270D01*
X279021Y413244D01*
X279209Y413213D01*
X279244Y413213D01*
X279278Y413208D01*
X279469Y413216D01*
X279659Y413219D01*
X279694Y413225D01*
X279728Y413227D01*
X279914Y413268D01*
X280102Y413304D01*
X280134Y413317D01*
X280168Y413324D01*
X280344Y413398D01*
X280522Y413467D01*
X280551Y413485D01*
X280583Y413498D01*
X280744Y413602D01*
X280906Y413701D01*
X280932Y413723D01*
X280961Y413742D01*
X281196Y413949D01*
X284709Y417462D01*
X289504Y419449D01*
X294696Y419449D01*
X299491Y417462D01*
X303004Y413949D01*
X303031Y413927D01*
X303054Y413901D01*
X303203Y413783D01*
X303350Y413660D01*
X303380Y413643D01*
X303407Y413622D01*
X303575Y413532D01*
X303741Y413437D01*
X303773Y413425D01*
X303804Y413409D01*
X303985Y413350D01*
X304165Y413286D01*
X304199Y413280D01*
X304232Y413270D01*
X304421Y413244D01*
X304609Y413213D01*
X304644Y413213D01*
X304678Y413208D01*
X304869Y413216D01*
X305060Y413219D01*
X305094Y413225D01*
X305128Y413227D01*
X305314Y413268D01*
X305502Y413304D01*
X305534Y413317D01*
X305568Y413324D01*
X305743Y413398D01*
X305922Y413467D01*
X305951Y413485D01*
X305983Y413498D01*
X306143Y413601D01*
X306306Y413701D01*
X306332Y413723D01*
X306361Y413742D01*
X306596Y413949D01*
X310108Y417462D01*
X314904Y419449D01*
X320096Y419449D01*
X324891Y417462D01*
X328404Y413949D01*
X328431Y413927D01*
X328454Y413901D01*
X328603Y413783D01*
X328750Y413660D01*
X328780Y413643D01*
X328807Y413622D01*
X328975Y413532D01*
X329141Y413437D01*
X329173Y413425D01*
X329204Y413409D01*
X329385Y413350D01*
X329565Y413286D01*
X329599Y413280D01*
X329632Y413270D01*
X329821Y413244D01*
X330009Y413213D01*
X330044Y413213D01*
X330078Y413208D01*
X330269Y413216D01*
X330460Y413219D01*
X330494Y413225D01*
X330528Y413227D01*
X330714Y413268D01*
X330902Y413304D01*
X330934Y413317D01*
X330968Y413324D01*
X331143Y413398D01*
X331322Y413467D01*
X331351Y413485D01*
X331383Y413498D01*
X331543Y413601D01*
X331706Y413701D01*
X331732Y413723D01*
X331761Y413742D01*
X331996Y413949D01*
X335508Y417462D01*
X340304Y419449D01*
X345496Y419449D01*
X350291Y417462D01*
X353804Y413949D01*
X353831Y413927D01*
X353854Y413901D01*
X354003Y413783D01*
X354150Y413660D01*
X354180Y413643D01*
X354207Y413622D01*
X354375Y413532D01*
X354541Y413437D01*
X354573Y413425D01*
X354604Y413409D01*
X354785Y413350D01*
X354965Y413286D01*
X354999Y413280D01*
X355032Y413270D01*
X355221Y413244D01*
X355409Y413213D01*
X355444Y413213D01*
X355478Y413208D01*
X355669Y413216D01*
X355860Y413219D01*
X355894Y413225D01*
X355928Y413227D01*
X356114Y413268D01*
X356302Y413304D01*
X356334Y413317D01*
X356368Y413324D01*
X356543Y413398D01*
X356722Y413467D01*
X356751Y413485D01*
X356783Y413498D01*
X356943Y413601D01*
X357106Y413701D01*
X357132Y413723D01*
X357161Y413742D01*
X357396Y413949D01*
X360908Y417462D01*
X365704Y419449D01*
X370896Y419449D01*
X375691Y417462D01*
X379204Y413949D01*
X379231Y413927D01*
X379254Y413901D01*
X379403Y413783D01*
X379550Y413660D01*
X379580Y413643D01*
X379607Y413622D01*
X379775Y413532D01*
X379941Y413437D01*
X379973Y413425D01*
X380004Y413409D01*
X380185Y413350D01*
X380365Y413286D01*
X380399Y413280D01*
X380432Y413270D01*
X380621Y413244D01*
X380809Y413213D01*
X380844Y413213D01*
X380878Y413208D01*
X381069Y413216D01*
X381260Y413219D01*
X381294Y413225D01*
X381328Y413227D01*
X381514Y413268D01*
X381702Y413304D01*
X381734Y413317D01*
X381768Y413324D01*
X381943Y413398D01*
X382122Y413467D01*
X382151Y413485D01*
X382183Y413498D01*
X382343Y413601D01*
X382506Y413701D01*
X382532Y413723D01*
X382561Y413742D01*
X382796Y413949D01*
X386308Y417462D01*
X391104Y419449D01*
X396296Y419449D01*
X401091Y417462D01*
X404604Y413949D01*
X404631Y413927D01*
X404654Y413901D01*
X404803Y413783D01*
X404950Y413660D01*
X404980Y413643D01*
X405007Y413622D01*
X405175Y413532D01*
X405341Y413437D01*
X405373Y413425D01*
X405404Y413409D01*
X405585Y413350D01*
X405765Y413286D01*
X405799Y413280D01*
X405832Y413270D01*
X406021Y413244D01*
X406209Y413213D01*
X406244Y413213D01*
X406278Y413208D01*
X406469Y413216D01*
X406660Y413219D01*
X406694Y413225D01*
X406728Y413227D01*
X406914Y413268D01*
X407102Y413304D01*
X407134Y413317D01*
X407168Y413324D01*
X407343Y413398D01*
X407522Y413467D01*
X407551Y413485D01*
X407583Y413498D01*
X407743Y413601D01*
X407906Y413701D01*
X407932Y413723D01*
X407961Y413742D01*
X408196Y413949D01*
X411708Y417462D01*
X416504Y419449D01*
X421696Y419449D01*
X426491Y417462D01*
X430004Y413949D01*
X430031Y413927D01*
X430054Y413901D01*
X430203Y413783D01*
X430350Y413660D01*
X430380Y413643D01*
X430407Y413622D01*
X430575Y413532D01*
X430741Y413437D01*
X430773Y413425D01*
X430804Y413409D01*
X430985Y413350D01*
X431165Y413286D01*
X431199Y413280D01*
X431232Y413270D01*
X431421Y413244D01*
X431609Y413213D01*
X431644Y413213D01*
X431678Y413208D01*
X431869Y413216D01*
X432060Y413219D01*
X432094Y413225D01*
X432128Y413227D01*
X432314Y413268D01*
X432502Y413304D01*
X432534Y413317D01*
X432568Y413324D01*
X432743Y413398D01*
X432922Y413467D01*
X432951Y413485D01*
X432983Y413498D01*
X433143Y413601D01*
X433306Y413701D01*
X433332Y413723D01*
X433361Y413742D01*
X433596Y413949D01*
X437108Y417462D01*
X441904Y419449D01*
X447096Y419449D01*
X451891Y417462D01*
X455404Y413949D01*
X455431Y413927D01*
X455454Y413901D01*
X455603Y413783D01*
X455750Y413660D01*
X455780Y413643D01*
X455807Y413622D01*
X455975Y413532D01*
X456141Y413437D01*
X456173Y413425D01*
X456204Y413409D01*
X456385Y413350D01*
X456565Y413286D01*
X456599Y413280D01*
X456632Y413270D01*
X456821Y413244D01*
X457009Y413213D01*
X457044Y413213D01*
X457078Y413208D01*
X457269Y413216D01*
X457460Y413219D01*
X457494Y413225D01*
X457528Y413227D01*
X457714Y413268D01*
X457902Y413304D01*
X457934Y413317D01*
X457968Y413324D01*
X458143Y413398D01*
X458322Y413467D01*
X458351Y413485D01*
X458383Y413498D01*
X458543Y413601D01*
X458706Y413701D01*
X458732Y413723D01*
X458761Y413742D01*
X458996Y413949D01*
X462508Y417462D01*
X467304Y419449D01*
X472496Y419449D01*
X477291Y417462D01*
X480804Y413949D01*
X480831Y413927D01*
X480854Y413901D01*
X481003Y413783D01*
X481150Y413660D01*
X481180Y413643D01*
X481207Y413622D01*
X481375Y413532D01*
X481541Y413437D01*
X481573Y413425D01*
X481604Y413409D01*
X481785Y413350D01*
X481965Y413286D01*
X481999Y413280D01*
X482032Y413270D01*
X482221Y413244D01*
X482409Y413213D01*
X482444Y413213D01*
X482478Y413208D01*
X482669Y413216D01*
X482860Y413219D01*
X482894Y413225D01*
X482928Y413227D01*
X483114Y413268D01*
X483302Y413304D01*
X483334Y413317D01*
X483368Y413324D01*
X483543Y413398D01*
X483722Y413467D01*
X483751Y413485D01*
X483783Y413498D01*
X483943Y413601D01*
X484106Y413701D01*
X484132Y413723D01*
X484161Y413742D01*
X484396Y413949D01*
X487908Y417462D01*
X492704Y419449D01*
X497896Y419449D01*
X502692Y417462D01*
X506204Y413949D01*
X506231Y413927D01*
X506254Y413901D01*
X506403Y413783D01*
X506550Y413660D01*
X506580Y413643D01*
X506607Y413622D01*
X506775Y413532D01*
X506941Y413437D01*
X506973Y413425D01*
X507004Y413409D01*
X507185Y413350D01*
X507365Y413286D01*
X507399Y413280D01*
X507432Y413270D01*
X507621Y413244D01*
X507809Y413213D01*
X507844Y413213D01*
X507878Y413208D01*
X508069Y413216D01*
X508259Y413219D01*
X508294Y413225D01*
X508328Y413227D01*
X508514Y413268D01*
X508702Y413304D01*
X508734Y413317D01*
X508768Y413324D01*
X508944Y413398D01*
X509122Y413467D01*
X509151Y413485D01*
X509183Y413498D01*
X509344Y413602D01*
X509506Y413701D01*
X509532Y413723D01*
X509561Y413742D01*
X509796Y413949D01*
X513309Y417462D01*
X518104Y419449D01*
X523296Y419449D01*
X528029Y417488D01*
X528233Y417424D01*
X528433Y417359D01*
X528446Y417357D01*
X528459Y417353D01*
X528670Y417326D01*
X528879Y417298D01*
X528893Y417298D01*
X528906Y417296D01*
X529116Y417307D01*
X529329Y417316D01*
X529342Y417319D01*
X529355Y417319D01*
X529561Y417367D01*
X529769Y417413D01*
X529781Y417419D01*
X529794Y417422D01*
X529989Y417506D01*
X530184Y417587D01*
X530195Y417594D01*
X530207Y417600D01*
X530385Y417717D01*
X530562Y417831D01*
X530574Y417842D01*
X530583Y417848D01*
X530612Y417875D01*
X530797Y418038D01*
X535309Y422550D01*
X542311Y425451D01*
X549889Y425451D01*
X556891Y422550D01*
X562250Y417191D01*
X565151Y410189D01*
X565151Y402611D01*
X562250Y395609D01*
X556891Y390250D01*
X549889Y387349D01*
X542311Y387349D01*
X537877Y389186D01*
X537707Y389239D01*
X537540Y389299D01*
X537493Y389306D01*
X537447Y389321D01*
X537271Y389343D01*
X537095Y389372D01*
X537048Y389371D01*
X537000Y389377D01*
X536823Y389368D01*
X536645Y389366D01*
X536598Y389357D01*
X536551Y389354D01*
X536378Y389314D01*
X536203Y389280D01*
X536158Y389263D01*
X536112Y389252D01*
X535949Y389182D01*
X535783Y389118D01*
X535742Y389093D01*
X535698Y389074D01*
X535550Y388976D01*
X535398Y388884D01*
X535363Y388852D01*
X535323Y388826D01*
X535194Y388704D01*
X535061Y388586D01*
X535031Y388549D01*
X534997Y388515D01*
X534892Y388372D01*
X534782Y388233D01*
X534759Y388191D01*
X534731Y388152D01*
X534653Y387992D01*
X534569Y387836D01*
X534554Y387791D01*
X534533Y387748D01*
X534485Y387576D01*
X534430Y387408D01*
X534429Y387399D01*
X534423Y387360D01*
X534420Y387349D01*
X534410Y387314D01*
X534393Y387138D01*
X534368Y386962D01*
X534370Y386914D01*
X534366Y386866D01*
X534380Y386690D01*
X534387Y386512D01*
X534397Y386465D01*
X534401Y386417D01*
X534446Y386246D01*
X534484Y386072D01*
X534503Y386028D01*
X534515Y385982D01*
X534589Y385821D01*
X534658Y385657D01*
X534684Y385617D01*
X534704Y385573D01*
X534806Y385428D01*
X534902Y385279D01*
X534942Y385234D01*
X534962Y385204D01*
X535007Y385160D01*
X535109Y385044D01*
X550761Y369392D01*
X550888Y369287D01*
X551008Y369175D01*
X551060Y369143D01*
X551107Y369104D01*
X551249Y369022D01*
X551388Y368934D01*
X551445Y368910D01*
X551498Y368880D01*
X551652Y368825D01*
X551805Y368763D01*
X551864Y368750D01*
X551922Y368729D01*
X552084Y368703D01*
X552245Y368668D01*
X552322Y368663D01*
X552366Y368656D01*
X552427Y368657D01*
X552557Y368649D01*
X594144Y368649D01*
X594227Y368656D01*
X594309Y368654D01*
X594450Y368676D01*
X594593Y368689D01*
X594673Y368710D01*
X594754Y368723D01*
X594889Y368769D01*
X595027Y368807D01*
X595102Y368843D01*
X595180Y368869D01*
X595305Y368939D01*
X595434Y369001D01*
X595501Y369048D01*
X595573Y369089D01*
X595684Y369179D01*
X595800Y369263D01*
X595858Y369322D01*
X595921Y369374D01*
X596014Y369483D01*
X596114Y369585D01*
X596160Y369654D01*
X596214Y369716D01*
X596286Y369840D01*
X596366Y369958D01*
X596400Y370034D01*
X596441Y370105D01*
X596490Y370239D01*
X596548Y370370D01*
X596568Y370450D01*
X596596Y370528D01*
X596621Y370669D01*
X596655Y370808D01*
X596660Y370890D01*
X596674Y370971D01*
X596674Y371114D01*
X596683Y371257D01*
X596673Y371339D01*
X596673Y371421D01*
X596647Y371562D01*
X596631Y371704D01*
X596607Y371783D01*
X596592Y371864D01*
X596512Y372097D01*
X596500Y372135D01*
X596496Y372145D01*
X596490Y372160D01*
X594105Y377918D01*
X594105Y384082D01*
X596299Y389377D01*
X596464Y389777D01*
X601106Y394419D01*
X601128Y394445D01*
X601154Y394469D01*
X601273Y394618D01*
X601395Y394764D01*
X601412Y394794D01*
X601434Y394822D01*
X601524Y394990D01*
X601618Y395155D01*
X601630Y395188D01*
X601646Y395219D01*
X601705Y395400D01*
X601769Y395580D01*
X601775Y395614D01*
X601786Y395647D01*
X601812Y395836D01*
X601843Y396024D01*
X601842Y396058D01*
X601847Y396093D01*
X601839Y396283D01*
X601837Y396474D01*
X601830Y396508D01*
X601829Y396543D01*
X601787Y396728D01*
X601751Y396916D01*
X601739Y396948D01*
X601731Y396982D01*
X601657Y397158D01*
X601589Y397336D01*
X601571Y397366D01*
X601557Y397398D01*
X601454Y397558D01*
X601355Y397721D01*
X601332Y397747D01*
X601313Y397776D01*
X601106Y398010D01*
X600494Y398622D01*
X599389Y400143D01*
X598536Y401817D01*
X597955Y403604D01*
X597915Y403861D01*
X609600Y403861D01*
X621285Y403861D01*
X621245Y403604D01*
X620664Y401817D01*
X619811Y400143D01*
X618706Y398622D01*
X618467Y398384D01*
X618384Y398284D01*
X618293Y398191D01*
X618240Y398111D01*
X618179Y398038D01*
X618114Y397925D01*
X618041Y397818D01*
X618003Y397730D01*
X617955Y397647D01*
X617912Y397525D01*
X617859Y397406D01*
X617836Y397313D01*
X617804Y397223D01*
X617783Y397095D01*
X617752Y396968D01*
X617746Y396873D01*
X617731Y396779D01*
X617733Y396649D01*
X617725Y396519D01*
X617736Y396424D01*
X617737Y396329D01*
X617762Y396201D01*
X617777Y396072D01*
X617804Y395980D01*
X617822Y395887D01*
X617869Y395765D01*
X617907Y395641D01*
X617950Y395555D01*
X617985Y395466D01*
X618052Y395355D01*
X618111Y395239D01*
X618169Y395163D01*
X618219Y395082D01*
X618305Y394984D01*
X618383Y394881D01*
X618454Y394816D01*
X618517Y394744D01*
X618619Y394664D01*
X618714Y394575D01*
X618795Y394524D01*
X618870Y394465D01*
X618984Y394404D01*
X619094Y394334D01*
X619183Y394297D01*
X619267Y394252D01*
X619391Y394212D01*
X619511Y394163D01*
X619604Y394143D01*
X619695Y394113D01*
X619824Y394095D01*
X619951Y394068D01*
X620081Y394060D01*
X620141Y394052D01*
X620186Y394053D01*
X620263Y394049D01*
X641243Y394049D01*
X641407Y394063D01*
X641571Y394070D01*
X641631Y394083D01*
X641692Y394089D01*
X641851Y394132D01*
X642011Y394168D01*
X642067Y394191D01*
X642126Y394207D01*
X642274Y394278D01*
X642426Y394341D01*
X642478Y394374D01*
X642533Y394401D01*
X642666Y394496D01*
X642805Y394586D01*
X642862Y394637D01*
X642899Y394663D01*
X642941Y394706D01*
X643039Y394792D01*
X665709Y417462D01*
X670504Y419449D01*
X730143Y419449D01*
X730307Y419463D01*
X730471Y419470D01*
X730531Y419483D01*
X730592Y419489D01*
X730751Y419532D01*
X730911Y419568D01*
X730967Y419591D01*
X731026Y419607D01*
X731174Y419678D01*
X731326Y419741D01*
X731373Y419771D01*
X731378Y419774D01*
X731433Y419801D01*
X731566Y419896D01*
X731694Y419979D01*
X731705Y419986D01*
X731762Y420037D01*
X731799Y420063D01*
X731841Y420106D01*
X731939Y420192D01*
X748176Y436429D01*
X748198Y436456D01*
X748224Y436479D01*
X748342Y436628D01*
X748465Y436775D01*
X748482Y436805D01*
X748503Y436832D01*
X748593Y437000D01*
X748688Y437166D01*
X748700Y437198D01*
X748716Y437229D01*
X748775Y437410D01*
X748839Y437590D01*
X748845Y437624D01*
X748855Y437657D01*
X748881Y437846D01*
X748912Y438034D01*
X748912Y438069D01*
X748917Y438103D01*
X748909Y438294D01*
X748906Y438485D01*
X748900Y438519D01*
X748898Y438553D01*
X748857Y438739D01*
X748821Y438927D01*
X748808Y438959D01*
X748801Y438993D01*
X748727Y439169D01*
X748658Y439347D01*
X748640Y439376D01*
X748627Y439408D01*
X748523Y439568D01*
X748424Y439731D01*
X748402Y439757D01*
X748383Y439786D01*
X748176Y440021D01*
X721685Y466512D01*
X721558Y466617D01*
X721438Y466729D01*
X721386Y466761D01*
X721339Y466800D01*
X721197Y466882D01*
X721058Y466970D01*
X721001Y466994D01*
X720948Y467024D01*
X720794Y467079D01*
X720641Y467141D01*
X720582Y467154D01*
X720524Y467175D01*
X720362Y467201D01*
X720201Y467236D01*
X720124Y467241D01*
X720080Y467248D01*
X720019Y467247D01*
X719889Y467255D01*
X713289Y467255D01*
X711048Y468183D01*
X710132Y469100D01*
X709969Y469236D01*
X709954Y469249D01*
X709937Y469264D01*
X709932Y469268D01*
X709808Y469374D01*
X709797Y469380D01*
X709787Y469389D01*
X709602Y469495D01*
X709419Y469601D01*
X709407Y469606D01*
X709396Y469612D01*
X709195Y469684D01*
X708997Y469756D01*
X708984Y469759D01*
X708971Y469763D01*
X708763Y469798D01*
X708553Y469834D01*
X708540Y469834D01*
X708527Y469837D01*
X708315Y469834D01*
X708103Y469833D01*
X708090Y469831D01*
X708077Y469830D01*
X707868Y469790D01*
X707660Y469752D01*
X707645Y469747D01*
X707635Y469745D01*
X707598Y469731D01*
X707365Y469650D01*
X701582Y467255D01*
X695418Y467255D01*
X689723Y469614D01*
X687596Y471742D01*
X685081Y474256D01*
X685055Y474278D01*
X685031Y474304D01*
X684882Y474423D01*
X684736Y474545D01*
X684706Y474562D01*
X684678Y474584D01*
X684510Y474674D01*
X684345Y474768D01*
X684312Y474780D01*
X684281Y474796D01*
X684100Y474855D01*
X683920Y474919D01*
X683886Y474925D01*
X683853Y474936D01*
X683664Y474962D01*
X683476Y474993D01*
X683442Y474992D01*
X683407Y474997D01*
X683217Y474989D01*
X683026Y474987D01*
X682992Y474980D01*
X682957Y474979D01*
X682772Y474937D01*
X682584Y474901D01*
X682552Y474889D01*
X682518Y474881D01*
X682342Y474807D01*
X682164Y474739D01*
X682134Y474721D01*
X682102Y474707D01*
X681942Y474604D01*
X681779Y474505D01*
X681753Y474482D01*
X681724Y474463D01*
X681490Y474256D01*
X680878Y473644D01*
X679357Y472539D01*
X677683Y471686D01*
X675896Y471105D01*
X675639Y471065D01*
X675639Y482750D01*
X675639Y494435D01*
X675896Y494395D01*
X677683Y493814D01*
X679357Y492961D01*
X680878Y491856D01*
X681116Y491617D01*
X681216Y491534D01*
X681309Y491443D01*
X681389Y491390D01*
X681462Y491329D01*
X681575Y491264D01*
X681682Y491191D01*
X681770Y491153D01*
X681853Y491105D01*
X681975Y491062D01*
X682094Y491009D01*
X682187Y490986D01*
X682277Y490954D01*
X682405Y490933D01*
X682532Y490902D01*
X682627Y490896D01*
X682721Y490881D01*
X682851Y490883D01*
X682981Y490875D01*
X683076Y490886D01*
X683171Y490887D01*
X683299Y490912D01*
X683428Y490927D01*
X683520Y490954D01*
X683613Y490972D01*
X683735Y491019D01*
X683859Y491057D01*
X683945Y491100D01*
X684034Y491135D01*
X684145Y491202D01*
X684261Y491261D01*
X684337Y491319D01*
X684418Y491369D01*
X684516Y491455D01*
X684619Y491533D01*
X684684Y491604D01*
X684756Y491667D01*
X684836Y491769D01*
X684925Y491864D01*
X684976Y491945D01*
X685035Y492020D01*
X685096Y492134D01*
X685166Y492244D01*
X685203Y492333D01*
X685248Y492417D01*
X685288Y492541D01*
X685337Y492661D01*
X685357Y492754D01*
X685387Y492845D01*
X685405Y492974D01*
X685432Y493101D01*
X685440Y493231D01*
X685448Y493291D01*
X685447Y493336D01*
X685451Y493413D01*
X685451Y793643D01*
X685437Y793807D01*
X685430Y793971D01*
X685417Y794031D01*
X685411Y794092D01*
X685368Y794251D01*
X685332Y794411D01*
X685309Y794467D01*
X685293Y794526D01*
X685222Y794674D01*
X685159Y794826D01*
X685126Y794878D01*
X685099Y794933D01*
X685004Y795066D01*
X684914Y795205D01*
X684863Y795262D01*
X684837Y795299D01*
X684794Y795341D01*
X684708Y795439D01*
X633387Y846760D01*
X633260Y846865D01*
X633140Y846977D01*
X633088Y847009D01*
X633041Y847048D01*
X632899Y847130D01*
X632760Y847218D01*
X632703Y847242D01*
X632650Y847272D01*
X632496Y847327D01*
X632343Y847389D01*
X632284Y847402D01*
X632226Y847423D01*
X632064Y847449D01*
X631903Y847484D01*
X631834Y847488D01*
X625882Y849954D01*
X621354Y854482D01*
X618903Y860398D01*
X618903Y866802D01*
X621354Y872718D01*
X625882Y877246D01*
X631798Y879697D01*
X638202Y879697D01*
X644118Y877246D01*
X648646Y872718D01*
X651115Y866758D01*
X651118Y866681D01*
X651131Y866621D01*
X651137Y866560D01*
X651180Y866401D01*
X651216Y866241D01*
X651239Y866185D01*
X651255Y866126D01*
X651326Y865978D01*
X651389Y865826D01*
X651422Y865774D01*
X651449Y865719D01*
X651544Y865586D01*
X651634Y865447D01*
X651685Y865390D01*
X651711Y865353D01*
X651754Y865311D01*
X651840Y865213D01*
X709562Y807491D01*
X711549Y802696D01*
X711549Y500784D01*
X711552Y500749D01*
X711550Y500715D01*
X711572Y500526D01*
X711589Y500335D01*
X711598Y500302D01*
X711602Y500268D01*
X711657Y500085D01*
X711707Y499901D01*
X711722Y499870D01*
X711732Y499837D01*
X711819Y499666D01*
X711901Y499494D01*
X711921Y499466D01*
X711936Y499435D01*
X712052Y499283D01*
X712163Y499128D01*
X712188Y499104D01*
X712208Y499077D01*
X712348Y498948D01*
X712485Y498814D01*
X712514Y498795D01*
X712540Y498771D01*
X712701Y498669D01*
X712858Y498562D01*
X712890Y498548D01*
X712919Y498530D01*
X713096Y498457D01*
X713270Y498380D01*
X713304Y498372D01*
X713336Y498359D01*
X713523Y498319D01*
X713708Y498273D01*
X713742Y498271D01*
X713776Y498264D01*
X714088Y498245D01*
X734511Y498245D01*
X736752Y497317D01*
X738467Y495602D01*
X739395Y493361D01*
X739395Y486761D01*
X739409Y486597D01*
X739416Y486433D01*
X739429Y486373D01*
X739435Y486312D01*
X739478Y486153D01*
X739514Y485993D01*
X739537Y485937D01*
X739553Y485878D01*
X739624Y485730D01*
X739687Y485578D01*
X739720Y485526D01*
X739747Y485471D01*
X739842Y485338D01*
X739932Y485199D01*
X739983Y485142D01*
X740009Y485105D01*
X740052Y485063D01*
X740138Y484965D01*
X757316Y467787D01*
X757416Y467704D01*
X757509Y467613D01*
X757589Y467560D01*
X757662Y467498D01*
X757775Y467434D01*
X757882Y467361D01*
X757970Y467322D01*
X758053Y467275D01*
X758175Y467231D01*
X758294Y467179D01*
X758387Y467156D01*
X758477Y467124D01*
X758606Y467103D01*
X758732Y467072D01*
X758827Y467066D01*
X758921Y467051D01*
X759052Y467052D01*
X759181Y467044D01*
X759276Y467055D01*
X759372Y467057D01*
X759499Y467081D01*
X759628Y467096D01*
X759720Y467124D01*
X759814Y467142D01*
X759935Y467189D01*
X760059Y467227D01*
X760144Y467270D01*
X760234Y467305D01*
X760345Y467372D01*
X760461Y467431D01*
X760537Y467489D01*
X760618Y467538D01*
X760716Y467625D01*
X760819Y467703D01*
X760884Y467773D01*
X760956Y467837D01*
X761036Y467938D01*
X761125Y468034D01*
X761176Y468115D01*
X761235Y468190D01*
X761284Y468280D01*
X761296Y468304D01*
X761366Y468414D01*
X761403Y468502D01*
X761448Y468587D01*
X761488Y468710D01*
X761537Y468831D01*
X761557Y468924D01*
X761587Y469015D01*
X761605Y469144D01*
X761632Y469271D01*
X761640Y469401D01*
X761648Y469461D01*
X761647Y469506D01*
X761651Y469583D01*
X761651Y539643D01*
X761637Y539807D01*
X761630Y539971D01*
X761617Y540031D01*
X761611Y540092D01*
X761568Y540251D01*
X761532Y540411D01*
X761509Y540467D01*
X761493Y540526D01*
X761422Y540674D01*
X761359Y540826D01*
X761326Y540878D01*
X761299Y540933D01*
X761204Y541066D01*
X761114Y541205D01*
X761063Y541262D01*
X761037Y541299D01*
X760994Y541341D01*
X760908Y541439D01*
X725538Y576809D01*
X723551Y581604D01*
X723551Y806343D01*
X723537Y806507D01*
X723530Y806671D01*
X723517Y806731D01*
X723511Y806792D01*
X723468Y806951D01*
X723432Y807111D01*
X723409Y807167D01*
X723393Y807226D01*
X723322Y807374D01*
X723259Y807526D01*
X723226Y807578D01*
X723199Y807633D01*
X723104Y807766D01*
X723014Y807905D01*
X722963Y807962D01*
X722937Y807999D01*
X722894Y808041D01*
X722808Y808139D01*
X619785Y911161D01*
X619696Y911236D01*
X619613Y911318D01*
X619523Y911380D01*
X619440Y911450D01*
X619338Y911508D01*
X619242Y911574D01*
X619103Y911642D01*
X619049Y911673D01*
X619015Y911685D01*
X618961Y911712D01*
X616302Y912813D01*
X613523Y913964D01*
X609164Y918323D01*
X606805Y924018D01*
X606805Y930182D01*
X609164Y935877D01*
X613523Y940236D01*
X619218Y942595D01*
X625382Y942595D01*
X631077Y940236D01*
X635436Y935877D01*
X636791Y932606D01*
X637688Y930439D01*
X637743Y930335D01*
X637788Y930227D01*
X637847Y930136D01*
X637897Y930039D01*
X637969Y929947D01*
X638032Y929849D01*
X638134Y929733D01*
X638173Y929683D01*
X638200Y929659D01*
X638239Y929615D01*
X743634Y824219D01*
X747662Y820191D01*
X749649Y815396D01*
X749649Y590657D01*
X749663Y590493D01*
X749670Y590329D01*
X749683Y590269D01*
X749689Y590208D01*
X749732Y590049D01*
X749768Y589889D01*
X749791Y589833D01*
X749807Y589774D01*
X749878Y589626D01*
X749941Y589474D01*
X749974Y589422D01*
X750001Y589367D01*
X750096Y589234D01*
X750186Y589095D01*
X750237Y589038D01*
X750263Y589001D01*
X750306Y588959D01*
X750392Y588861D01*
X785762Y553491D01*
X787749Y548696D01*
X787749Y441904D01*
X785762Y437109D01*
X743991Y395338D01*
X739196Y393351D01*
X679557Y393351D01*
X679393Y393337D01*
X679229Y393330D01*
X679169Y393317D01*
X679108Y393311D01*
X678949Y393268D01*
X678789Y393232D01*
X678733Y393209D01*
X678674Y393193D01*
X678526Y393122D01*
X678374Y393059D01*
X678322Y393026D01*
X678267Y392999D01*
X678134Y392904D01*
X677995Y392814D01*
X677938Y392763D01*
X677901Y392737D01*
X677859Y392694D01*
X677761Y392608D01*
X661492Y376339D01*
X661387Y376212D01*
X661275Y376092D01*
X661243Y376040D01*
X661204Y375993D01*
X661122Y375851D01*
X661034Y375712D01*
X661010Y375655D01*
X660980Y375602D01*
X660925Y375448D01*
X660863Y375295D01*
X660850Y375236D01*
X660829Y375178D01*
X660803Y375016D01*
X660768Y374855D01*
X660763Y374778D01*
X660756Y374734D01*
X660757Y374673D01*
X660749Y374543D01*
X660749Y327604D01*
X658762Y322809D01*
X616991Y281038D01*
X612196Y279051D01*
X353667Y279051D01*
X353504Y279037D01*
X353339Y279030D01*
X353280Y279017D01*
X353219Y279011D01*
X353060Y278968D01*
X352900Y278932D01*
X352843Y278909D01*
X352784Y278893D01*
X352636Y278822D01*
X352484Y278759D01*
X352433Y278726D01*
X352378Y278699D01*
X352244Y278604D01*
X352106Y278514D01*
X352054Y278469D01*
X346102Y276003D01*
X339698Y276003D01*
X333782Y278454D01*
X329254Y282982D01*
X326803Y288898D01*
X326803Y295302D01*
X329254Y301218D01*
X333782Y305746D01*
X339698Y308197D01*
X346102Y308197D01*
X352062Y305728D01*
X352119Y305675D01*
X352170Y305643D01*
X352217Y305604D01*
X352360Y305522D01*
X352499Y305434D01*
X352555Y305410D01*
X352608Y305380D01*
X352763Y305325D01*
X352915Y305263D01*
X352975Y305250D01*
X353032Y305229D01*
X353195Y305203D01*
X353355Y305168D01*
X353432Y305163D01*
X353477Y305156D01*
X353538Y305157D01*
X353667Y305149D01*
X603143Y305149D01*
X603307Y305163D01*
X603471Y305170D01*
X603531Y305183D01*
X603592Y305189D01*
X603751Y305232D01*
X603911Y305268D01*
X603967Y305291D01*
X604026Y305307D01*
X604174Y305378D01*
X604326Y305441D01*
X604378Y305474D01*
X604433Y305501D01*
X604566Y305596D01*
X604705Y305686D01*
X604762Y305737D01*
X604799Y305763D01*
X604841Y305806D01*
X604939Y305892D01*
X633908Y334861D01*
X634013Y334988D01*
X634125Y335108D01*
X634157Y335160D01*
X634196Y335207D01*
X634278Y335349D01*
X634366Y335488D01*
X634390Y335545D01*
X634420Y335598D01*
X634475Y335752D01*
X634537Y335905D01*
X634550Y335964D01*
X634571Y336022D01*
X634597Y336184D01*
X634632Y336345D01*
X634637Y336422D01*
X634644Y336466D01*
X634643Y336527D01*
X634651Y336657D01*
X634651Y365412D01*
X634648Y365447D01*
X634650Y365481D01*
X634628Y365670D01*
X634611Y365861D01*
X634602Y365894D01*
X634598Y365928D01*
X634543Y366111D01*
X634493Y366295D01*
X634478Y366326D01*
X634468Y366359D01*
X634381Y366530D01*
X634299Y366702D01*
X634279Y366730D01*
X634264Y366761D01*
X634148Y366913D01*
X634037Y367068D01*
X634012Y367092D01*
X633992Y367119D01*
X633852Y367248D01*
X633715Y367382D01*
X633686Y367401D01*
X633660Y367425D01*
X633499Y367527D01*
X633342Y367634D01*
X633310Y367648D01*
X633281Y367666D01*
X633104Y367739D01*
X632930Y367816D01*
X632896Y367824D01*
X632864Y367837D01*
X632677Y367877D01*
X632492Y367923D01*
X632458Y367925D01*
X632424Y367932D01*
X632112Y367951D01*
X625056Y367951D01*
X624973Y367944D01*
X624891Y367946D01*
X624750Y367924D01*
X624607Y367911D01*
X624527Y367890D01*
X624446Y367877D01*
X624311Y367831D01*
X624173Y367793D01*
X624098Y367757D01*
X624020Y367731D01*
X623895Y367661D01*
X623766Y367599D01*
X623699Y367552D01*
X623627Y367511D01*
X623516Y367421D01*
X623400Y367337D01*
X623342Y367278D01*
X623279Y367226D01*
X623186Y367117D01*
X623086Y367015D01*
X623040Y366946D01*
X622986Y366884D01*
X622914Y366760D01*
X622834Y366642D01*
X622800Y366566D01*
X622759Y366495D01*
X622710Y366361D01*
X622652Y366230D01*
X622632Y366150D01*
X622604Y366072D01*
X622579Y365931D01*
X622545Y365792D01*
X622540Y365710D01*
X622526Y365629D01*
X622526Y365486D01*
X622517Y365343D01*
X622527Y365261D01*
X622527Y365179D01*
X622553Y365038D01*
X622569Y364896D01*
X622593Y364817D01*
X622608Y364736D01*
X622688Y364503D01*
X622700Y364465D01*
X622704Y364455D01*
X622710Y364440D01*
X625095Y358682D01*
X625095Y352518D01*
X622736Y346823D01*
X618377Y342464D01*
X612682Y340105D01*
X606518Y340105D01*
X601079Y342358D01*
X600968Y342393D01*
X600860Y342437D01*
X600753Y342460D01*
X600650Y342493D01*
X600534Y342507D01*
X600420Y342532D01*
X600266Y342542D01*
X600203Y342549D01*
X600167Y342548D01*
X600108Y342551D01*
X543504Y342551D01*
X538709Y344538D01*
X534681Y348566D01*
X512684Y370563D01*
X512584Y370646D01*
X512491Y370737D01*
X512411Y370790D01*
X512338Y370852D01*
X512225Y370916D01*
X512118Y370989D01*
X512030Y371028D01*
X511947Y371075D01*
X511825Y371119D01*
X511706Y371171D01*
X511613Y371194D01*
X511523Y371226D01*
X511394Y371247D01*
X511268Y371278D01*
X511173Y371284D01*
X511079Y371299D01*
X510948Y371298D01*
X510819Y371306D01*
X510724Y371295D01*
X510628Y371293D01*
X510501Y371269D01*
X510372Y371254D01*
X510280Y371226D01*
X510186Y371208D01*
X510065Y371161D01*
X509941Y371123D01*
X509856Y371080D01*
X509766Y371045D01*
X509655Y370978D01*
X509539Y370919D01*
X509463Y370861D01*
X509382Y370812D01*
X509284Y370725D01*
X509181Y370647D01*
X509116Y370577D01*
X509044Y370513D01*
X508964Y370411D01*
X508875Y370316D01*
X508824Y370235D01*
X508765Y370160D01*
X508704Y370046D01*
X508634Y369936D01*
X508597Y369848D01*
X508552Y369763D01*
X508512Y369640D01*
X508463Y369519D01*
X508443Y369426D01*
X508413Y369335D01*
X508395Y369206D01*
X508368Y369079D01*
X508360Y368949D01*
X508352Y368889D01*
X508353Y368844D01*
X508349Y368767D01*
X508349Y352392D01*
X508359Y352276D01*
X508359Y352159D01*
X508379Y352052D01*
X508389Y351944D01*
X508419Y351831D01*
X508440Y351716D01*
X508491Y351570D01*
X508507Y351510D01*
X508523Y351477D01*
X508542Y351421D01*
X510795Y345982D01*
X510795Y339818D01*
X508436Y334123D01*
X504077Y329764D01*
X498382Y327405D01*
X492218Y327405D01*
X486523Y329764D01*
X484396Y331892D01*
X484369Y331914D01*
X484346Y331940D01*
X484197Y332058D01*
X484050Y332180D01*
X484020Y332198D01*
X483993Y332219D01*
X483825Y332309D01*
X483659Y332404D01*
X483627Y332415D01*
X483596Y332432D01*
X483415Y332491D01*
X483235Y332555D01*
X483201Y332560D01*
X483168Y332571D01*
X482979Y332597D01*
X482791Y332628D01*
X482756Y332628D01*
X482722Y332632D01*
X482531Y332625D01*
X482341Y332622D01*
X482306Y332615D01*
X482272Y332614D01*
X482086Y332573D01*
X481898Y332536D01*
X481866Y332524D01*
X481832Y332516D01*
X481656Y332443D01*
X481478Y332374D01*
X481449Y332356D01*
X481417Y332343D01*
X481256Y332239D01*
X481094Y332140D01*
X481068Y332117D01*
X481039Y332099D01*
X480804Y331892D01*
X478677Y329764D01*
X472982Y327405D01*
X466818Y327405D01*
X461123Y329764D01*
X458996Y331892D01*
X458969Y331914D01*
X458946Y331940D01*
X458797Y332058D01*
X458650Y332180D01*
X458620Y332198D01*
X458593Y332219D01*
X458425Y332309D01*
X458259Y332404D01*
X458227Y332415D01*
X458196Y332432D01*
X458015Y332491D01*
X457835Y332555D01*
X457801Y332560D01*
X457768Y332571D01*
X457579Y332597D01*
X457391Y332628D01*
X457356Y332628D01*
X457322Y332632D01*
X457131Y332625D01*
X456941Y332622D01*
X456906Y332615D01*
X456872Y332614D01*
X456686Y332573D01*
X456498Y332536D01*
X456466Y332524D01*
X456432Y332516D01*
X456256Y332443D01*
X456078Y332374D01*
X456049Y332356D01*
X456017Y332343D01*
X455856Y332239D01*
X455694Y332140D01*
X455668Y332117D01*
X455639Y332099D01*
X455404Y331892D01*
X453277Y329764D01*
X447582Y327405D01*
X441418Y327405D01*
X435723Y329764D01*
X433596Y331892D01*
X433569Y331914D01*
X433546Y331940D01*
X433397Y332058D01*
X433250Y332180D01*
X433220Y332198D01*
X433193Y332219D01*
X433025Y332309D01*
X432859Y332404D01*
X432827Y332415D01*
X432796Y332432D01*
X432615Y332491D01*
X432435Y332555D01*
X432401Y332560D01*
X432368Y332571D01*
X432179Y332597D01*
X431991Y332628D01*
X431956Y332628D01*
X431922Y332632D01*
X431731Y332625D01*
X431541Y332622D01*
X431506Y332615D01*
X431472Y332614D01*
X431286Y332573D01*
X431098Y332536D01*
X431066Y332524D01*
X431032Y332516D01*
X430856Y332443D01*
X430678Y332374D01*
X430649Y332356D01*
X430617Y332343D01*
X430456Y332239D01*
X430294Y332140D01*
X430268Y332117D01*
X430239Y332099D01*
X430004Y331892D01*
X427877Y329764D01*
X422182Y327405D01*
X416018Y327405D01*
X410323Y329764D01*
X408196Y331892D01*
X408169Y331914D01*
X408146Y331940D01*
X407997Y332058D01*
X407850Y332180D01*
X407820Y332198D01*
X407793Y332219D01*
X407625Y332309D01*
X407459Y332404D01*
X407427Y332415D01*
X407396Y332432D01*
X407215Y332491D01*
X407035Y332555D01*
X407001Y332560D01*
X406968Y332571D01*
X406779Y332597D01*
X406591Y332628D01*
X406556Y332628D01*
X406522Y332632D01*
X406331Y332625D01*
X406141Y332622D01*
X406106Y332615D01*
X406072Y332614D01*
X405886Y332573D01*
X405698Y332536D01*
X405666Y332524D01*
X405632Y332516D01*
X405456Y332443D01*
X405278Y332374D01*
X405249Y332356D01*
X405217Y332343D01*
X405056Y332239D01*
X404894Y332140D01*
X404868Y332117D01*
X404839Y332099D01*
X404604Y331892D01*
X402477Y329764D01*
X396782Y327405D01*
X390618Y327405D01*
X384923Y329764D01*
X382796Y331892D01*
X382769Y331914D01*
X382746Y331940D01*
X382597Y332058D01*
X382450Y332180D01*
X382420Y332198D01*
X382393Y332219D01*
X382225Y332309D01*
X382059Y332404D01*
X382027Y332415D01*
X381996Y332432D01*
X381815Y332491D01*
X381635Y332555D01*
X381601Y332560D01*
X381568Y332571D01*
X381379Y332597D01*
X381191Y332628D01*
X381156Y332628D01*
X381122Y332632D01*
X380931Y332625D01*
X380741Y332622D01*
X380706Y332615D01*
X380672Y332614D01*
X380486Y332573D01*
X380298Y332536D01*
X380266Y332524D01*
X380232Y332516D01*
X380056Y332443D01*
X379878Y332374D01*
X379849Y332356D01*
X379817Y332343D01*
X379656Y332239D01*
X379494Y332140D01*
X379468Y332117D01*
X379439Y332099D01*
X379204Y331892D01*
X377077Y329764D01*
X371382Y327405D01*
X365218Y327405D01*
X359523Y329764D01*
X357396Y331892D01*
X357369Y331914D01*
X357346Y331940D01*
X357197Y332058D01*
X357050Y332180D01*
X357020Y332198D01*
X356993Y332219D01*
X356825Y332309D01*
X356659Y332404D01*
X356627Y332415D01*
X356596Y332432D01*
X356415Y332491D01*
X356235Y332555D01*
X356201Y332560D01*
X356168Y332571D01*
X355979Y332597D01*
X355791Y332628D01*
X355756Y332628D01*
X355722Y332632D01*
X355531Y332625D01*
X355341Y332622D01*
X355306Y332615D01*
X355272Y332614D01*
X355086Y332573D01*
X354898Y332536D01*
X354866Y332524D01*
X354832Y332516D01*
X354656Y332443D01*
X354478Y332374D01*
X354449Y332356D01*
X354417Y332343D01*
X354256Y332239D01*
X354094Y332140D01*
X354068Y332117D01*
X354039Y332099D01*
X353804Y331892D01*
X351677Y329764D01*
X345982Y327405D01*
X339818Y327405D01*
X334123Y329764D01*
X331996Y331892D01*
X331969Y331914D01*
X331946Y331940D01*
X331797Y332058D01*
X331650Y332180D01*
X331620Y332198D01*
X331593Y332219D01*
X331425Y332309D01*
X331259Y332404D01*
X331227Y332415D01*
X331196Y332432D01*
X331015Y332491D01*
X330835Y332555D01*
X330801Y332560D01*
X330768Y332571D01*
X330579Y332597D01*
X330391Y332628D01*
X330356Y332628D01*
X330322Y332632D01*
X330131Y332625D01*
X329941Y332622D01*
X329906Y332615D01*
X329872Y332614D01*
X329686Y332573D01*
X329498Y332536D01*
X329466Y332524D01*
X329432Y332516D01*
X329256Y332443D01*
X329078Y332374D01*
X329049Y332356D01*
X329017Y332343D01*
X328856Y332239D01*
X328694Y332140D01*
X328668Y332117D01*
X328639Y332099D01*
X328404Y331892D01*
X326277Y329764D01*
X320582Y327405D01*
X314418Y327405D01*
X308660Y329790D01*
X308581Y329815D01*
X308506Y329848D01*
X308367Y329882D01*
X308230Y329925D01*
X308148Y329936D01*
X308068Y329955D01*
X307926Y329964D01*
X307783Y329982D01*
X307701Y329978D01*
X307619Y329983D01*
X307477Y329966D01*
X307334Y329959D01*
X307254Y329940D01*
X307172Y329931D01*
X307034Y329889D01*
X306895Y329857D01*
X306820Y329824D01*
X306741Y329800D01*
X306613Y329735D01*
X306482Y329679D01*
X306413Y329633D01*
X306339Y329596D01*
X306225Y329510D01*
X306106Y329431D01*
X306046Y329374D01*
X305981Y329324D01*
X305884Y329219D01*
X305780Y329120D01*
X305731Y329053D01*
X305675Y328993D01*
X305598Y328872D01*
X305514Y328757D01*
X305478Y328683D01*
X305434Y328613D01*
X305379Y328481D01*
X305316Y328352D01*
X305294Y328273D01*
X305263Y328197D01*
X305233Y328056D01*
X305193Y327919D01*
X305185Y327837D01*
X305168Y327756D01*
X305153Y327510D01*
X305149Y327471D01*
X305150Y327460D01*
X305149Y327444D01*
X305149Y253944D01*
X303162Y249149D01*
X299134Y245121D01*
X267380Y213367D01*
X267275Y213240D01*
X267163Y213120D01*
X267131Y213068D01*
X267092Y213021D01*
X267010Y212879D01*
X266922Y212740D01*
X266898Y212683D01*
X266868Y212630D01*
X266813Y212476D01*
X266751Y212323D01*
X266738Y212264D01*
X266717Y212206D01*
X266691Y212044D01*
X266656Y211883D01*
X266651Y211806D01*
X266644Y211762D01*
X266645Y211701D01*
X266637Y211571D01*
X266637Y209386D01*
X264713Y204742D01*
X261158Y201187D01*
X256514Y199263D01*
X251486Y199263D01*
X246842Y201187D01*
X243096Y204933D01*
X243069Y204956D01*
X243046Y204982D01*
X242897Y205100D01*
X242750Y205222D01*
X242720Y205240D01*
X242693Y205261D01*
X242525Y205351D01*
X242359Y205446D01*
X242327Y205457D01*
X242296Y205474D01*
X242115Y205533D01*
X241935Y205597D01*
X241901Y205602D01*
X241868Y205613D01*
X241679Y205639D01*
X241491Y205670D01*
X241456Y205670D01*
X241422Y205674D01*
X241231Y205666D01*
X241040Y205664D01*
X241006Y205657D01*
X240972Y205656D01*
X240786Y205615D01*
X240598Y205578D01*
X240566Y205566D01*
X240532Y205558D01*
X240357Y205485D01*
X240178Y205416D01*
X240149Y205398D01*
X240117Y205385D01*
X239957Y205281D01*
X239794Y205182D01*
X239768Y205159D01*
X239739Y205140D01*
X239504Y204933D01*
X235758Y201187D01*
X231114Y199263D01*
X226086Y199263D01*
X221442Y201187D01*
X217696Y204933D01*
X217669Y204956D01*
X217646Y204982D01*
X217497Y205100D01*
X217350Y205222D01*
X217320Y205240D01*
X217293Y205261D01*
X217125Y205351D01*
X216959Y205446D01*
X216927Y205457D01*
X216896Y205474D01*
X216715Y205533D01*
X216535Y205597D01*
X216501Y205602D01*
X216468Y205613D01*
X216279Y205639D01*
X216091Y205670D01*
X216056Y205670D01*
X216022Y205674D01*
X215831Y205666D01*
X215640Y205664D01*
X215606Y205657D01*
X215572Y205656D01*
X215386Y205615D01*
X215198Y205578D01*
X215166Y205566D01*
X215132Y205558D01*
X214957Y205485D01*
X214778Y205416D01*
X214749Y205398D01*
X214717Y205385D01*
X214557Y205281D01*
X214394Y205182D01*
X214368Y205159D01*
X214339Y205140D01*
X214104Y204933D01*
X210358Y201187D01*
X205714Y199263D01*
X200686Y199263D01*
X196042Y201187D01*
X192581Y204648D01*
X192456Y204753D01*
X192334Y204865D01*
X192283Y204897D01*
X192245Y204929D01*
X192236Y204936D01*
X192157Y204982D01*
X192094Y205018D01*
X191955Y205106D01*
X191898Y205130D01*
X191845Y205160D01*
X191690Y205215D01*
X191538Y205277D01*
X191525Y205280D01*
X191478Y205290D01*
X191441Y205303D01*
X191421Y205311D01*
X191389Y205316D01*
X191258Y205337D01*
X191169Y205357D01*
X191098Y205372D01*
X191089Y205373D01*
X191021Y205377D01*
X190977Y205384D01*
X190916Y205383D01*
X190786Y205391D01*
X190214Y205391D01*
X190050Y205377D01*
X189886Y205370D01*
X189826Y205357D01*
X189766Y205351D01*
X189607Y205308D01*
X189446Y205272D01*
X189390Y205249D01*
X189331Y205233D01*
X189183Y205162D01*
X189175Y205159D01*
X189031Y205099D01*
X188979Y205066D01*
X188925Y205039D01*
X188791Y204944D01*
X188653Y204854D01*
X188595Y204803D01*
X188558Y204777D01*
X188516Y204734D01*
X188419Y204648D01*
X184958Y201187D01*
X179919Y199100D01*
X179846Y199062D01*
X179769Y199032D01*
X179647Y198958D01*
X179520Y198891D01*
X179455Y198841D01*
X179385Y198798D01*
X179277Y198703D01*
X179164Y198616D01*
X179109Y198554D01*
X179047Y198500D01*
X178959Y198388D01*
X178862Y198281D01*
X178819Y198211D01*
X178768Y198147D01*
X178700Y198021D01*
X178624Y197899D01*
X178594Y197823D01*
X178555Y197750D01*
X178511Y197614D01*
X178458Y197481D01*
X178441Y197400D01*
X178416Y197322D01*
X178396Y197180D01*
X178368Y197040D01*
X178366Y196957D01*
X178354Y196876D01*
X178360Y196732D01*
X178357Y196589D01*
X178369Y196508D01*
X178373Y196426D01*
X178404Y196286D01*
X178426Y196145D01*
X178453Y196067D01*
X178470Y195986D01*
X178526Y195854D01*
X178572Y195719D01*
X178612Y195647D01*
X178644Y195571D01*
X178722Y195450D01*
X178791Y195325D01*
X178844Y195262D01*
X178888Y195193D01*
X179052Y195007D01*
X179077Y194977D01*
X179085Y194970D01*
X179095Y194958D01*
X197534Y176519D01*
X201562Y172491D01*
X203549Y167696D01*
X203549Y136492D01*
X203559Y136376D01*
X203559Y136259D01*
X203579Y136152D01*
X203589Y136044D01*
X203619Y135931D01*
X203640Y135816D01*
X203691Y135670D01*
X203707Y135610D01*
X203723Y135577D01*
X203742Y135521D01*
X205995Y130082D01*
X205995Y123918D01*
X203636Y118223D01*
X199277Y113864D01*
X193582Y111505D01*
X187418Y111505D01*
X181723Y113864D01*
X179596Y115992D01*
X179569Y116014D01*
X179546Y116040D01*
X179397Y116158D01*
X179250Y116281D01*
X179220Y116298D01*
X179193Y116319D01*
X179024Y116409D01*
X178859Y116504D01*
X178827Y116515D01*
X178796Y116532D01*
X178615Y116591D01*
X178435Y116655D01*
X178401Y116660D01*
X178368Y116671D01*
X178179Y116697D01*
X177991Y116728D01*
X177956Y116728D01*
X177922Y116732D01*
X177731Y116725D01*
X177540Y116722D01*
X177506Y116715D01*
X177472Y116714D01*
X177286Y116673D01*
X177098Y116636D01*
X177066Y116624D01*
X177032Y116616D01*
X176857Y116543D01*
X176678Y116474D01*
X176649Y116456D01*
X176617Y116443D01*
X176457Y116340D01*
X176294Y116240D01*
X176268Y116217D01*
X176239Y116199D01*
X176004Y115992D01*
X173877Y113864D01*
X168182Y111505D01*
X162018Y111505D01*
X156323Y113864D01*
X154196Y115992D01*
X154169Y116014D01*
X154146Y116040D01*
X153997Y116158D01*
X153850Y116281D01*
X153820Y116298D01*
X153793Y116319D01*
X153624Y116409D01*
X153459Y116504D01*
X153427Y116515D01*
X153396Y116532D01*
X153215Y116591D01*
X153035Y116655D01*
X153001Y116660D01*
X152968Y116671D01*
X152779Y116697D01*
X152591Y116728D01*
X152556Y116728D01*
X152522Y116732D01*
X152331Y116725D01*
X152140Y116722D01*
X152106Y116715D01*
X152072Y116714D01*
X151886Y116673D01*
X151698Y116636D01*
X151666Y116624D01*
X151632Y116616D01*
X151457Y116543D01*
X151278Y116474D01*
X151249Y116456D01*
X151217Y116443D01*
X151057Y116340D01*
X150894Y116240D01*
X150868Y116217D01*
X150839Y116199D01*
X150604Y115992D01*
X148477Y113864D01*
X142782Y111505D01*
X136618Y111505D01*
X130923Y113864D01*
X128796Y115992D01*
X128769Y116014D01*
X128746Y116040D01*
X128597Y116158D01*
X128450Y116281D01*
X128420Y116298D01*
X128393Y116319D01*
X128224Y116409D01*
X128059Y116504D01*
X128027Y116515D01*
X127996Y116532D01*
X127815Y116591D01*
X127635Y116655D01*
X127601Y116660D01*
X127568Y116671D01*
X127379Y116697D01*
X127191Y116728D01*
X127156Y116728D01*
X127122Y116732D01*
X126931Y116725D01*
X126740Y116722D01*
X126706Y116715D01*
X126672Y116714D01*
X126486Y116673D01*
X126298Y116636D01*
X126266Y116624D01*
X126232Y116616D01*
X126057Y116543D01*
X125878Y116474D01*
X125849Y116456D01*
X125817Y116443D01*
X125657Y116340D01*
X125494Y116240D01*
X125468Y116217D01*
X125439Y116199D01*
X125204Y115992D01*
X123077Y113864D01*
X117382Y111505D01*
X111218Y111505D01*
X105779Y113758D01*
X105668Y113793D01*
X105560Y113837D01*
X105454Y113860D01*
X105350Y113893D01*
X105234Y113907D01*
X105120Y113932D01*
X104966Y113942D01*
X104903Y113949D01*
X104867Y113948D01*
X104808Y113951D01*
X50744Y113951D01*
X45949Y115938D01*
X41921Y119966D01*
X-5256Y167143D01*
X-9284Y171171D01*
X-10354Y173753D01*
X-10436Y173911D01*
X-10513Y174071D01*
X-10540Y174110D01*
X-10563Y174152D01*
X-10671Y174293D01*
X-10775Y174437D01*
X-10809Y174471D01*
X-10838Y174508D01*
X-10970Y174627D01*
X-11097Y174751D01*
X-11137Y174778D01*
X-11173Y174810D01*
X-11323Y174904D01*
X-11470Y175003D01*
X-11514Y175023D01*
X-11555Y175048D01*
X-11720Y175114D01*
X-11882Y175186D01*
X-11929Y175197D01*
X-11973Y175215D01*
X-12147Y175250D01*
X-12320Y175292D01*
X-12367Y175295D01*
X-12414Y175305D01*
X-12592Y175309D01*
X-12769Y175320D01*
X-12817Y175314D01*
X-12864Y175316D01*
X-13039Y175288D01*
X-13216Y175268D01*
X-13262Y175254D01*
X-13309Y175247D01*
X-13477Y175189D01*
X-13647Y175138D01*
X-13690Y175116D01*
X-13735Y175100D01*
X-13890Y175014D01*
X-14049Y174933D01*
X-14087Y174904D01*
X-14128Y174881D01*
X-14266Y174768D01*
X-14407Y174661D01*
X-14440Y174626D01*
X-14477Y174596D01*
X-14592Y174461D01*
X-14713Y174330D01*
X-14738Y174290D01*
X-14769Y174253D01*
X-14859Y174100D01*
X-14954Y173950D01*
X-14973Y173906D01*
X-14997Y173865D01*
X-15058Y173698D01*
X-15125Y173534D01*
X-15135Y173487D01*
X-15152Y173442D01*
X-15183Y173267D01*
X-15220Y173094D01*
X-15224Y173034D01*
X-15230Y172999D01*
X-15230Y172936D01*
X-15239Y172782D01*
X-15239Y101600D01*
X-15236Y101566D01*
X-15238Y101531D01*
X-15216Y101342D01*
X-15199Y101152D01*
X-15190Y101118D01*
X-15186Y101084D01*
X-15131Y100901D01*
X-15081Y100717D01*
X-15066Y100686D01*
X-15056Y100653D01*
X-14969Y100482D01*
X-14887Y100311D01*
X-14867Y100282D01*
X-14852Y100251D01*
X-14736Y100099D01*
X-14625Y99944D01*
X-14600Y99920D01*
X-14580Y99893D01*
X-14440Y99764D01*
X-14303Y99630D01*
X-14274Y99611D01*
X-14248Y99588D01*
X-14087Y99485D01*
X-13930Y99378D01*
X-13898Y99364D01*
X-13869Y99346D01*
X-13692Y99273D01*
X-13518Y99196D01*
X-13484Y99188D01*
X-13452Y99175D01*
X-13265Y99135D01*
X-13080Y99089D01*
X-13046Y99087D01*
X-13012Y99080D01*
X-12700Y99061D01*
X812600Y99061D01*
X812635Y99064D01*
X812669Y99062D01*
X812858Y99084D01*
X813049Y99101D01*
X813082Y99110D01*
X813116Y99114D01*
X813299Y99169D01*
X813483Y99219D01*
X813514Y99234D01*
X813547Y99244D01*
X813718Y99331D01*
X813890Y99413D01*
X813918Y99433D01*
X813949Y99448D01*
X814101Y99564D01*
X814256Y99675D01*
X814280Y99700D01*
X814307Y99720D01*
X814436Y99860D01*
X814570Y99997D01*
X814589Y100026D01*
X814613Y100052D01*
X814715Y100213D01*
X814822Y100370D01*
X814836Y100402D01*
X814854Y100431D01*
X814927Y100608D01*
X815004Y100782D01*
X815012Y100816D01*
X815025Y100848D01*
X815065Y101035D01*
X815111Y101220D01*
X815113Y101254D01*
X815120Y101288D01*
X815139Y101600D01*
X815139Y987300D01*
X815136Y987335D01*
X815138Y987369D01*
X815116Y987558D01*
X815099Y987749D01*
X815090Y987782D01*
X815086Y987816D01*
X815031Y987999D01*
X814981Y988183D01*
X814966Y988214D01*
X814956Y988247D01*
X814869Y988418D01*
X814787Y988590D01*
X814767Y988618D01*
X814752Y988649D01*
X814636Y988801D01*
X814525Y988956D01*
X814500Y988980D01*
X814480Y989007D01*
X814340Y989136D01*
X814203Y989270D01*
X814174Y989289D01*
X814148Y989313D01*
X813987Y989415D01*
X813830Y989522D01*
X813798Y989536D01*
X813769Y989554D01*
X813592Y989627D01*
X813418Y989704D01*
X813384Y989712D01*
X813352Y989725D01*
X813165Y989765D01*
X812980Y989811D01*
X812946Y989813D01*
X812912Y989820D01*
X812600Y989839D01*
X-12700Y989839D01*
X-12735Y989836D01*
G37*
G36*
X279469Y565034D02*
X279469Y565034D01*
X279660Y565036D01*
X279694Y565043D01*
X279728Y565044D01*
X279914Y565085D01*
X280102Y565122D01*
X280134Y565134D01*
X280168Y565142D01*
X280343Y565215D01*
X280522Y565284D01*
X280551Y565302D01*
X280583Y565315D01*
X280743Y565419D01*
X280906Y565518D01*
X280932Y565541D01*
X280961Y565560D01*
X281196Y565767D01*
X284942Y569513D01*
X289586Y571437D01*
X294614Y571437D01*
X299258Y569513D01*
X300116Y568655D01*
X300216Y568571D01*
X300309Y568480D01*
X300389Y568427D01*
X300462Y568366D01*
X300575Y568301D01*
X300682Y568228D01*
X300770Y568190D01*
X300853Y568142D01*
X300975Y568099D01*
X301094Y568046D01*
X301187Y568023D01*
X301277Y567991D01*
X301405Y567970D01*
X301532Y567939D01*
X301627Y567934D01*
X301721Y567918D01*
X301851Y567920D01*
X301981Y567912D01*
X302076Y567923D01*
X302171Y567924D01*
X302299Y567949D01*
X302428Y567964D01*
X302520Y567992D01*
X302614Y568010D01*
X302735Y568056D01*
X302859Y568094D01*
X302945Y568138D01*
X303034Y568172D01*
X303145Y568239D01*
X303261Y568298D01*
X303337Y568356D01*
X303418Y568406D01*
X303516Y568492D01*
X303619Y568570D01*
X303684Y568641D01*
X303756Y568704D01*
X303836Y568806D01*
X303925Y568902D01*
X303976Y568982D01*
X304035Y569057D01*
X304096Y569172D01*
X304166Y569281D01*
X304203Y569370D01*
X304248Y569454D01*
X304288Y569577D01*
X304337Y569698D01*
X304357Y569791D01*
X304387Y569882D01*
X304405Y570011D01*
X304432Y570138D01*
X304440Y570268D01*
X304448Y570328D01*
X304447Y570373D01*
X304451Y570450D01*
X304451Y780943D01*
X304437Y781107D01*
X304430Y781271D01*
X304417Y781331D01*
X304411Y781392D01*
X304368Y781551D01*
X304332Y781711D01*
X304309Y781767D01*
X304293Y781826D01*
X304222Y781974D01*
X304159Y782126D01*
X304126Y782178D01*
X304099Y782233D01*
X304004Y782366D01*
X303914Y782505D01*
X303863Y782562D01*
X303837Y782599D01*
X303794Y782641D01*
X303708Y782739D01*
X287439Y799008D01*
X287312Y799113D01*
X287192Y799225D01*
X287140Y799257D01*
X287093Y799296D01*
X286951Y799378D01*
X286812Y799466D01*
X286755Y799490D01*
X286702Y799520D01*
X286548Y799575D01*
X286395Y799637D01*
X286336Y799650D01*
X286278Y799671D01*
X286116Y799697D01*
X285955Y799732D01*
X285878Y799737D01*
X285834Y799744D01*
X285773Y799743D01*
X285643Y799751D01*
X264104Y799751D01*
X259309Y801738D01*
X157084Y903963D01*
X156984Y904046D01*
X156891Y904137D01*
X156811Y904190D01*
X156738Y904252D01*
X156625Y904316D01*
X156518Y904389D01*
X156430Y904428D01*
X156347Y904475D01*
X156225Y904519D01*
X156106Y904571D01*
X156013Y904594D01*
X155923Y904626D01*
X155794Y904647D01*
X155668Y904678D01*
X155573Y904684D01*
X155479Y904699D01*
X155348Y904698D01*
X155219Y904706D01*
X155124Y904695D01*
X155028Y904693D01*
X154901Y904669D01*
X154772Y904654D01*
X154680Y904626D01*
X154586Y904608D01*
X154465Y904561D01*
X154341Y904523D01*
X154256Y904480D01*
X154166Y904445D01*
X154055Y904378D01*
X153939Y904319D01*
X153863Y904261D01*
X153782Y904212D01*
X153684Y904125D01*
X153581Y904047D01*
X153516Y903977D01*
X153444Y903913D01*
X153364Y903812D01*
X153275Y903716D01*
X153224Y903635D01*
X153165Y903560D01*
X153104Y903446D01*
X153034Y903336D01*
X152997Y903248D01*
X152952Y903163D01*
X152912Y903040D01*
X152863Y902919D01*
X152843Y902826D01*
X152813Y902735D01*
X152795Y902606D01*
X152768Y902479D01*
X152760Y902349D01*
X152752Y902289D01*
X152753Y902244D01*
X152749Y902167D01*
X152749Y895457D01*
X152763Y895293D01*
X152770Y895129D01*
X152783Y895069D01*
X152789Y895008D01*
X152832Y894849D01*
X152868Y894689D01*
X152891Y894633D01*
X152907Y894574D01*
X152978Y894426D01*
X153041Y894274D01*
X153074Y894222D01*
X153101Y894167D01*
X153196Y894034D01*
X153286Y893895D01*
X153337Y893838D01*
X153363Y893801D01*
X153406Y893759D01*
X153492Y893661D01*
X166713Y880440D01*
X166840Y880335D01*
X166960Y880223D01*
X167012Y880191D01*
X167059Y880152D01*
X167201Y880070D01*
X167340Y879982D01*
X167397Y879958D01*
X167450Y879928D01*
X167604Y879873D01*
X167757Y879811D01*
X167816Y879798D01*
X167874Y879777D01*
X168036Y879751D01*
X168197Y879716D01*
X168266Y879712D01*
X174218Y877246D01*
X178746Y872718D01*
X181197Y866802D01*
X181197Y860398D01*
X178746Y854482D01*
X174218Y849954D01*
X168302Y847503D01*
X161898Y847503D01*
X155982Y849954D01*
X151454Y854482D01*
X148985Y860442D01*
X148982Y860519D01*
X148969Y860579D01*
X148963Y860640D01*
X148920Y860799D01*
X148884Y860959D01*
X148861Y861015D01*
X148845Y861074D01*
X148774Y861222D01*
X148711Y861374D01*
X148678Y861426D01*
X148651Y861481D01*
X148556Y861614D01*
X148466Y861753D01*
X148415Y861810D01*
X148389Y861847D01*
X148346Y861889D01*
X148260Y861987D01*
X129184Y881063D01*
X129084Y881146D01*
X128991Y881237D01*
X128911Y881290D01*
X128838Y881352D01*
X128725Y881416D01*
X128618Y881489D01*
X128530Y881528D01*
X128447Y881575D01*
X128325Y881619D01*
X128206Y881671D01*
X128113Y881694D01*
X128023Y881726D01*
X127894Y881747D01*
X127768Y881778D01*
X127673Y881784D01*
X127579Y881799D01*
X127448Y881798D01*
X127319Y881806D01*
X127224Y881795D01*
X127128Y881793D01*
X127001Y881769D01*
X126872Y881754D01*
X126780Y881726D01*
X126686Y881708D01*
X126565Y881661D01*
X126441Y881623D01*
X126356Y881580D01*
X126266Y881545D01*
X126155Y881478D01*
X126039Y881419D01*
X125963Y881361D01*
X125882Y881312D01*
X125784Y881225D01*
X125681Y881147D01*
X125616Y881077D01*
X125544Y881013D01*
X125464Y880911D01*
X125375Y880816D01*
X125324Y880735D01*
X125265Y880660D01*
X125204Y880546D01*
X125134Y880436D01*
X125097Y880348D01*
X125052Y880263D01*
X125012Y880140D01*
X124963Y880019D01*
X124943Y879926D01*
X124913Y879835D01*
X124895Y879706D01*
X124868Y879579D01*
X124860Y879449D01*
X124852Y879389D01*
X124853Y879344D01*
X124849Y879267D01*
X124849Y847157D01*
X124863Y846993D01*
X124870Y846829D01*
X124883Y846769D01*
X124889Y846708D01*
X124932Y846549D01*
X124968Y846389D01*
X124991Y846333D01*
X125007Y846274D01*
X125078Y846126D01*
X125141Y845974D01*
X125174Y845922D01*
X125201Y845867D01*
X125296Y845734D01*
X125386Y845595D01*
X125437Y845538D01*
X125463Y845501D01*
X125506Y845459D01*
X125592Y845361D01*
X252362Y718591D01*
X254349Y713796D01*
X254349Y570450D01*
X254360Y570320D01*
X254362Y570190D01*
X254380Y570097D01*
X254389Y570002D01*
X254423Y569876D01*
X254448Y569748D01*
X254482Y569659D01*
X254507Y569567D01*
X254563Y569450D01*
X254610Y569328D01*
X254660Y569247D01*
X254701Y569161D01*
X254776Y569055D01*
X254844Y568944D01*
X254907Y568872D01*
X254963Y568794D01*
X255056Y568704D01*
X255142Y568606D01*
X255217Y568547D01*
X255285Y568480D01*
X255393Y568408D01*
X255495Y568327D01*
X255579Y568282D01*
X255658Y568228D01*
X255777Y568176D01*
X255892Y568114D01*
X255983Y568085D01*
X256070Y568046D01*
X256197Y568015D01*
X256320Y567975D01*
X256415Y567962D01*
X256508Y567939D01*
X256637Y567931D01*
X256766Y567914D01*
X256862Y567918D01*
X256957Y567912D01*
X257086Y567927D01*
X257216Y567932D01*
X257309Y567953D01*
X257404Y567964D01*
X257529Y568001D01*
X257656Y568030D01*
X257744Y568066D01*
X257835Y568094D01*
X257951Y568153D01*
X258071Y568203D01*
X258151Y568255D01*
X258237Y568298D01*
X258340Y568377D01*
X258449Y568448D01*
X258547Y568534D01*
X258595Y568570D01*
X258626Y568603D01*
X258684Y568655D01*
X259542Y569513D01*
X264186Y571437D01*
X269214Y571437D01*
X273858Y569513D01*
X277604Y565767D01*
X277631Y565744D01*
X277654Y565718D01*
X277803Y565600D01*
X277950Y565478D01*
X277980Y565460D01*
X278007Y565439D01*
X278175Y565349D01*
X278341Y565254D01*
X278373Y565243D01*
X278404Y565226D01*
X278585Y565167D01*
X278765Y565103D01*
X278799Y565098D01*
X278832Y565087D01*
X279021Y565061D01*
X279209Y565030D01*
X279244Y565030D01*
X279278Y565026D01*
X279469Y565034D01*
G37*
G36*
X327476Y847905D02*
X327476Y847905D01*
X327571Y847907D01*
X327699Y847931D01*
X327828Y847946D01*
X327920Y847974D01*
X328014Y847992D01*
X328135Y848039D01*
X328259Y848077D01*
X328345Y848120D01*
X328434Y848155D01*
X328545Y848222D01*
X328661Y848281D01*
X328737Y848339D01*
X328818Y848388D01*
X328916Y848474D01*
X329019Y848553D01*
X329084Y848624D01*
X329156Y848687D01*
X329236Y848789D01*
X329325Y848884D01*
X329376Y848965D01*
X329435Y849040D01*
X329497Y849154D01*
X329566Y849264D01*
X329603Y849353D01*
X329648Y849437D01*
X329688Y849560D01*
X329737Y849681D01*
X329757Y849774D01*
X329787Y849865D01*
X329805Y849994D01*
X329832Y850121D01*
X329840Y850251D01*
X329848Y850311D01*
X329847Y850356D01*
X329851Y850433D01*
X329851Y941908D01*
X329840Y942038D01*
X329838Y942168D01*
X329820Y942261D01*
X329811Y942357D01*
X329777Y942482D01*
X329752Y942610D01*
X329718Y942699D01*
X329693Y942791D01*
X329637Y942908D01*
X329590Y943030D01*
X329540Y943112D01*
X329499Y943198D01*
X329424Y943303D01*
X329356Y943414D01*
X329293Y943486D01*
X329237Y943564D01*
X329144Y943654D01*
X329058Y943752D01*
X328983Y943811D01*
X328915Y943878D01*
X328807Y943951D01*
X328705Y944031D01*
X328621Y944076D01*
X328542Y944130D01*
X328423Y944182D01*
X328308Y944244D01*
X328217Y944273D01*
X328130Y944312D01*
X328003Y944343D01*
X327880Y944383D01*
X327785Y944396D01*
X327692Y944419D01*
X327563Y944427D01*
X327434Y944444D01*
X327338Y944441D01*
X327243Y944446D01*
X327114Y944431D01*
X326984Y944426D01*
X326891Y944405D01*
X326796Y944394D01*
X326671Y944357D01*
X326544Y944329D01*
X326456Y944292D01*
X326365Y944264D01*
X326249Y944205D01*
X326129Y944155D01*
X326049Y944103D01*
X325963Y944060D01*
X325860Y943981D01*
X325751Y943911D01*
X325653Y943825D01*
X325605Y943788D01*
X325574Y943755D01*
X325516Y943704D01*
X323777Y941964D01*
X318082Y939605D01*
X311918Y939605D01*
X306223Y941964D01*
X304096Y944092D01*
X304069Y944114D01*
X304046Y944140D01*
X303897Y944258D01*
X303750Y944381D01*
X303720Y944398D01*
X303693Y944419D01*
X303524Y944509D01*
X303359Y944604D01*
X303327Y944615D01*
X303296Y944632D01*
X303115Y944691D01*
X302935Y944755D01*
X302901Y944760D01*
X302868Y944771D01*
X302679Y944797D01*
X302491Y944828D01*
X302456Y944828D01*
X302422Y944832D01*
X302231Y944825D01*
X302040Y944822D01*
X302006Y944815D01*
X301972Y944814D01*
X301786Y944773D01*
X301598Y944736D01*
X301566Y944724D01*
X301532Y944716D01*
X301357Y944643D01*
X301178Y944574D01*
X301149Y944556D01*
X301117Y944543D01*
X300957Y944440D01*
X300794Y944340D01*
X300768Y944317D01*
X300739Y944299D01*
X300504Y944092D01*
X298377Y941964D01*
X292682Y939605D01*
X286518Y939605D01*
X280823Y941964D01*
X278696Y944092D01*
X278669Y944114D01*
X278646Y944140D01*
X278497Y944258D01*
X278350Y944381D01*
X278320Y944398D01*
X278293Y944419D01*
X278124Y944509D01*
X277959Y944604D01*
X277927Y944615D01*
X277896Y944632D01*
X277715Y944691D01*
X277535Y944755D01*
X277501Y944760D01*
X277468Y944771D01*
X277279Y944797D01*
X277091Y944828D01*
X277056Y944828D01*
X277022Y944832D01*
X276831Y944825D01*
X276640Y944822D01*
X276606Y944815D01*
X276572Y944814D01*
X276386Y944773D01*
X276198Y944736D01*
X276166Y944724D01*
X276132Y944716D01*
X275957Y944643D01*
X275778Y944574D01*
X275749Y944556D01*
X275717Y944543D01*
X275557Y944440D01*
X275394Y944340D01*
X275368Y944317D01*
X275339Y944299D01*
X275104Y944092D01*
X272977Y941964D01*
X267282Y939605D01*
X261118Y939605D01*
X255423Y941964D01*
X253296Y944092D01*
X253269Y944114D01*
X253246Y944140D01*
X253097Y944258D01*
X252950Y944381D01*
X252920Y944398D01*
X252893Y944419D01*
X252724Y944509D01*
X252559Y944604D01*
X252527Y944615D01*
X252496Y944632D01*
X252315Y944691D01*
X252135Y944755D01*
X252101Y944760D01*
X252068Y944771D01*
X251879Y944797D01*
X251691Y944828D01*
X251656Y944828D01*
X251622Y944832D01*
X251431Y944825D01*
X251240Y944822D01*
X251206Y944815D01*
X251172Y944814D01*
X250986Y944773D01*
X250798Y944736D01*
X250766Y944724D01*
X250732Y944716D01*
X250557Y944643D01*
X250378Y944574D01*
X250349Y944556D01*
X250317Y944543D01*
X250157Y944440D01*
X249994Y944340D01*
X249968Y944317D01*
X249939Y944299D01*
X249704Y944092D01*
X247577Y941964D01*
X241882Y939605D01*
X235718Y939605D01*
X232460Y940955D01*
X232381Y940980D01*
X232306Y941013D01*
X232167Y941047D01*
X232030Y941090D01*
X231948Y941100D01*
X231868Y941119D01*
X231726Y941128D01*
X231583Y941146D01*
X231501Y941142D01*
X231419Y941147D01*
X231277Y941131D01*
X231134Y941123D01*
X231054Y941105D01*
X230972Y941095D01*
X230834Y941054D01*
X230695Y941021D01*
X230620Y940989D01*
X230541Y940965D01*
X230413Y940900D01*
X230282Y940843D01*
X230213Y940798D01*
X230139Y940760D01*
X230025Y940674D01*
X229906Y940595D01*
X229846Y940538D01*
X229781Y940488D01*
X229684Y940383D01*
X229580Y940284D01*
X229531Y940218D01*
X229475Y940157D01*
X229398Y940036D01*
X229314Y939921D01*
X229278Y939847D01*
X229234Y939778D01*
X229179Y939645D01*
X229116Y939516D01*
X229094Y939437D01*
X229063Y939361D01*
X229033Y939221D01*
X228993Y939083D01*
X228985Y939001D01*
X228968Y938921D01*
X228953Y938675D01*
X228949Y938635D01*
X228950Y938625D01*
X228949Y938609D01*
X228949Y920857D01*
X228963Y920693D01*
X228970Y920529D01*
X228983Y920469D01*
X228989Y920408D01*
X229032Y920249D01*
X229068Y920089D01*
X229091Y920033D01*
X229107Y919974D01*
X229178Y919826D01*
X229241Y919674D01*
X229274Y919622D01*
X229301Y919567D01*
X229396Y919434D01*
X229486Y919295D01*
X229537Y919238D01*
X229563Y919201D01*
X229606Y919159D01*
X229692Y919061D01*
X296761Y851992D01*
X296888Y851887D01*
X297008Y851775D01*
X297060Y851743D01*
X297107Y851704D01*
X297249Y851622D01*
X297388Y851534D01*
X297445Y851510D01*
X297498Y851480D01*
X297652Y851425D01*
X297805Y851363D01*
X297864Y851350D01*
X297922Y851329D01*
X298084Y851303D01*
X298245Y851268D01*
X298322Y851263D01*
X298366Y851256D01*
X298427Y851257D01*
X298557Y851249D01*
X320096Y851249D01*
X324891Y849262D01*
X325516Y848637D01*
X325616Y848554D01*
X325709Y848463D01*
X325789Y848410D01*
X325862Y848348D01*
X325975Y848284D01*
X326082Y848211D01*
X326170Y848172D01*
X326253Y848125D01*
X326375Y848081D01*
X326494Y848029D01*
X326587Y848006D01*
X326677Y847974D01*
X326805Y847953D01*
X326932Y847922D01*
X327027Y847916D01*
X327121Y847901D01*
X327251Y847902D01*
X327381Y847894D01*
X327476Y847905D01*
G37*
%LPC*%
G36*
X28219Y930939D02*
X28219Y930939D01*
X22074Y932586D01*
X16565Y935767D01*
X12067Y940265D01*
X8886Y945774D01*
X7239Y951919D01*
X7239Y958281D01*
X8886Y964426D01*
X12067Y969935D01*
X16565Y974433D01*
X22074Y977614D01*
X28219Y979261D01*
X34581Y979261D01*
X40726Y977614D01*
X46235Y974433D01*
X50733Y969935D01*
X53914Y964426D01*
X55561Y958281D01*
X55561Y951919D01*
X53914Y945774D01*
X50733Y940265D01*
X46235Y935767D01*
X40726Y932586D01*
X34581Y930939D01*
X28219Y930939D01*
G37*
%LPD*%
%LPC*%
G36*
X778219Y930939D02*
X778219Y930939D01*
X772074Y932586D01*
X766565Y935767D01*
X762067Y940265D01*
X758886Y945774D01*
X757239Y951919D01*
X757239Y958281D01*
X758886Y964426D01*
X762067Y969935D01*
X766565Y974433D01*
X772074Y977614D01*
X778219Y979261D01*
X784581Y979261D01*
X790726Y977614D01*
X796235Y974433D01*
X800733Y969935D01*
X803914Y964426D01*
X805561Y958281D01*
X805561Y951919D01*
X803914Y945774D01*
X800733Y940265D01*
X796235Y935767D01*
X790726Y932586D01*
X784581Y930939D01*
X778219Y930939D01*
G37*
%LPD*%
%LPC*%
G36*
X28219Y620939D02*
X28219Y620939D01*
X22074Y622586D01*
X16565Y625767D01*
X12067Y630265D01*
X8886Y635774D01*
X7239Y641919D01*
X7239Y648281D01*
X8886Y654426D01*
X12067Y659935D01*
X16565Y664433D01*
X22074Y667614D01*
X28219Y669261D01*
X34581Y669261D01*
X40726Y667614D01*
X46235Y664433D01*
X50733Y659935D01*
X53914Y654426D01*
X55561Y648281D01*
X55561Y641919D01*
X53914Y635774D01*
X50733Y630265D01*
X46235Y625767D01*
X40726Y622586D01*
X34581Y620939D01*
X28219Y620939D01*
G37*
%LPD*%
%LPC*%
G36*
X778219Y620939D02*
X778219Y620939D01*
X772074Y622586D01*
X766565Y625767D01*
X762067Y630265D01*
X758886Y635774D01*
X757239Y641919D01*
X757239Y648281D01*
X758886Y654426D01*
X762067Y659935D01*
X766565Y664433D01*
X772074Y667614D01*
X778219Y669261D01*
X784581Y669261D01*
X790726Y667614D01*
X796235Y664433D01*
X800733Y659935D01*
X803914Y654426D01*
X805561Y648281D01*
X805561Y641919D01*
X803914Y635774D01*
X800733Y630265D01*
X796235Y625767D01*
X790726Y622586D01*
X784581Y620939D01*
X778219Y620939D01*
G37*
%LPD*%
G36*
X91986Y479609D02*
X91986Y479609D01*
X92116Y479615D01*
X92209Y479635D01*
X92304Y479646D01*
X92429Y479684D01*
X92556Y479712D01*
X92644Y479749D01*
X92735Y479777D01*
X92851Y479836D01*
X92971Y479886D01*
X93052Y479938D01*
X93137Y479981D01*
X93240Y480060D01*
X93349Y480130D01*
X93447Y480216D01*
X93495Y480253D01*
X93526Y480286D01*
X93584Y480337D01*
X116563Y503316D01*
X116646Y503416D01*
X116737Y503509D01*
X116790Y503589D01*
X116852Y503662D01*
X116916Y503775D01*
X116989Y503882D01*
X117028Y503970D01*
X117075Y504053D01*
X117119Y504175D01*
X117171Y504294D01*
X117194Y504387D01*
X117226Y504477D01*
X117247Y504606D01*
X117278Y504732D01*
X117284Y504827D01*
X117299Y504921D01*
X117298Y505052D01*
X117306Y505181D01*
X117295Y505276D01*
X117293Y505372D01*
X117269Y505499D01*
X117254Y505628D01*
X117226Y505720D01*
X117208Y505814D01*
X117161Y505935D01*
X117123Y506059D01*
X117080Y506144D01*
X117045Y506234D01*
X116978Y506345D01*
X116919Y506461D01*
X116861Y506537D01*
X116812Y506618D01*
X116725Y506716D01*
X116647Y506819D01*
X116577Y506884D01*
X116513Y506956D01*
X116412Y507036D01*
X116316Y507125D01*
X116235Y507176D01*
X116160Y507235D01*
X116046Y507296D01*
X115936Y507366D01*
X115848Y507403D01*
X115763Y507448D01*
X115640Y507488D01*
X115519Y507537D01*
X115426Y507557D01*
X115335Y507587D01*
X115206Y507605D01*
X115079Y507632D01*
X114949Y507640D01*
X114889Y507648D01*
X114844Y507647D01*
X114767Y507651D01*
X91788Y507651D01*
X91753Y507648D01*
X91719Y507650D01*
X91530Y507628D01*
X91339Y507611D01*
X91306Y507602D01*
X91272Y507598D01*
X91089Y507543D01*
X90905Y507493D01*
X90874Y507478D01*
X90841Y507468D01*
X90670Y507381D01*
X90498Y507299D01*
X90470Y507279D01*
X90439Y507264D01*
X90287Y507148D01*
X90132Y507037D01*
X90108Y507012D01*
X90081Y506992D01*
X89952Y506852D01*
X89818Y506715D01*
X89799Y506686D01*
X89775Y506660D01*
X89673Y506499D01*
X89566Y506342D01*
X89552Y506310D01*
X89534Y506281D01*
X89461Y506104D01*
X89384Y505930D01*
X89376Y505896D01*
X89363Y505864D01*
X89323Y505677D01*
X89277Y505492D01*
X89275Y505458D01*
X89268Y505424D01*
X89249Y505112D01*
X89249Y482133D01*
X89260Y482003D01*
X89262Y481873D01*
X89280Y481779D01*
X89289Y481684D01*
X89323Y481559D01*
X89348Y481431D01*
X89382Y481342D01*
X89407Y481250D01*
X89463Y481133D01*
X89510Y481011D01*
X89560Y480929D01*
X89601Y480843D01*
X89676Y480738D01*
X89744Y480626D01*
X89807Y480555D01*
X89863Y480477D01*
X89956Y480386D01*
X90042Y480289D01*
X90117Y480230D01*
X90185Y480163D01*
X90293Y480090D01*
X90395Y480010D01*
X90479Y479965D01*
X90558Y479911D01*
X90677Y479858D01*
X90792Y479797D01*
X90883Y479767D01*
X90970Y479729D01*
X91097Y479698D01*
X91220Y479658D01*
X91315Y479645D01*
X91408Y479622D01*
X91537Y479614D01*
X91666Y479596D01*
X91762Y479600D01*
X91857Y479594D01*
X91986Y479609D01*
G37*
G36*
X327476Y797105D02*
X327476Y797105D01*
X327571Y797107D01*
X327699Y797131D01*
X327828Y797146D01*
X327920Y797174D01*
X328014Y797192D01*
X328135Y797239D01*
X328259Y797277D01*
X328345Y797320D01*
X328434Y797355D01*
X328545Y797422D01*
X328661Y797481D01*
X328737Y797539D01*
X328818Y797588D01*
X328916Y797674D01*
X329019Y797753D01*
X329084Y797824D01*
X329156Y797887D01*
X329236Y797989D01*
X329325Y798084D01*
X329376Y798165D01*
X329435Y798240D01*
X329497Y798354D01*
X329566Y798464D01*
X329603Y798553D01*
X329648Y798637D01*
X329688Y798760D01*
X329737Y798881D01*
X329757Y798974D01*
X329787Y799065D01*
X329805Y799194D01*
X329832Y799321D01*
X329840Y799451D01*
X329848Y799511D01*
X329847Y799556D01*
X329851Y799633D01*
X329851Y806343D01*
X329837Y806507D01*
X329830Y806671D01*
X329817Y806731D01*
X329811Y806792D01*
X329768Y806951D01*
X329732Y807111D01*
X329709Y807167D01*
X329693Y807226D01*
X329622Y807374D01*
X329559Y807526D01*
X329526Y807578D01*
X329499Y807633D01*
X329404Y807766D01*
X329314Y807905D01*
X329263Y807962D01*
X329237Y807999D01*
X329194Y808041D01*
X329108Y808139D01*
X312839Y824408D01*
X312712Y824513D01*
X312592Y824625D01*
X312540Y824657D01*
X312493Y824696D01*
X312351Y824778D01*
X312212Y824866D01*
X312155Y824890D01*
X312102Y824920D01*
X311948Y824975D01*
X311795Y825037D01*
X311736Y825050D01*
X311678Y825071D01*
X311516Y825097D01*
X311355Y825132D01*
X311278Y825137D01*
X311234Y825144D01*
X311173Y825143D01*
X311043Y825151D01*
X304333Y825151D01*
X304203Y825140D01*
X304073Y825138D01*
X303979Y825120D01*
X303884Y825111D01*
X303759Y825077D01*
X303631Y825052D01*
X303542Y825018D01*
X303450Y824993D01*
X303333Y824937D01*
X303211Y824890D01*
X303129Y824840D01*
X303043Y824799D01*
X302938Y824724D01*
X302826Y824656D01*
X302755Y824593D01*
X302677Y824537D01*
X302586Y824444D01*
X302489Y824358D01*
X302430Y824283D01*
X302363Y824215D01*
X302290Y824107D01*
X302210Y824005D01*
X302165Y823921D01*
X302111Y823842D01*
X302058Y823723D01*
X301997Y823608D01*
X301967Y823517D01*
X301929Y823430D01*
X301898Y823303D01*
X301858Y823180D01*
X301845Y823085D01*
X301822Y822992D01*
X301814Y822863D01*
X301796Y822734D01*
X301800Y822638D01*
X301794Y822543D01*
X301809Y822414D01*
X301815Y822284D01*
X301835Y822191D01*
X301846Y822096D01*
X301884Y821971D01*
X301912Y821844D01*
X301949Y821756D01*
X301977Y821665D01*
X302036Y821549D01*
X302086Y821429D01*
X302138Y821348D01*
X302181Y821263D01*
X302260Y821160D01*
X302330Y821051D01*
X302416Y820953D01*
X302453Y820905D01*
X302486Y820874D01*
X302537Y820816D01*
X324534Y798819D01*
X325516Y797837D01*
X325616Y797754D01*
X325709Y797663D01*
X325789Y797610D01*
X325862Y797548D01*
X325975Y797484D01*
X326082Y797411D01*
X326170Y797372D01*
X326253Y797325D01*
X326375Y797281D01*
X326494Y797229D01*
X326587Y797206D01*
X326677Y797174D01*
X326805Y797153D01*
X326932Y797122D01*
X327027Y797116D01*
X327121Y797101D01*
X327251Y797102D01*
X327381Y797094D01*
X327476Y797105D01*
G37*
G36*
X36106Y252279D02*
X36106Y252279D01*
X36236Y252285D01*
X36329Y252305D01*
X36424Y252316D01*
X36549Y252354D01*
X36676Y252382D01*
X36764Y252419D01*
X36855Y252447D01*
X36971Y252506D01*
X37091Y252556D01*
X37172Y252608D01*
X37257Y252651D01*
X37360Y252730D01*
X37469Y252800D01*
X37567Y252886D01*
X37615Y252923D01*
X37646Y252956D01*
X37704Y253007D01*
X50523Y265826D01*
X50606Y265926D01*
X50697Y266019D01*
X50750Y266099D01*
X50812Y266172D01*
X50876Y266285D01*
X50949Y266392D01*
X50988Y266480D01*
X51035Y266563D01*
X51079Y266685D01*
X51131Y266804D01*
X51154Y266897D01*
X51186Y266987D01*
X51207Y267116D01*
X51238Y267242D01*
X51244Y267337D01*
X51259Y267431D01*
X51258Y267562D01*
X51266Y267691D01*
X51255Y267786D01*
X51253Y267882D01*
X51229Y268009D01*
X51214Y268138D01*
X51186Y268230D01*
X51168Y268324D01*
X51121Y268445D01*
X51083Y268569D01*
X51040Y268654D01*
X51005Y268744D01*
X50938Y268855D01*
X50879Y268971D01*
X50821Y269047D01*
X50772Y269128D01*
X50685Y269226D01*
X50607Y269329D01*
X50537Y269394D01*
X50473Y269466D01*
X50372Y269546D01*
X50276Y269635D01*
X50195Y269686D01*
X50120Y269745D01*
X50006Y269806D01*
X49896Y269876D01*
X49808Y269913D01*
X49723Y269958D01*
X49600Y269998D01*
X49479Y270047D01*
X49386Y270067D01*
X49295Y270097D01*
X49166Y270115D01*
X49039Y270142D01*
X48909Y270150D01*
X48849Y270158D01*
X48804Y270157D01*
X48727Y270161D01*
X48367Y270161D01*
X48203Y270147D01*
X48039Y270140D01*
X47979Y270127D01*
X47918Y270121D01*
X47759Y270078D01*
X47599Y270042D01*
X47543Y270019D01*
X47484Y270003D01*
X47336Y269932D01*
X47184Y269869D01*
X47132Y269836D01*
X47077Y269809D01*
X46944Y269714D01*
X46805Y269624D01*
X46748Y269573D01*
X46711Y269547D01*
X46669Y269504D01*
X46571Y269418D01*
X34112Y256959D01*
X34007Y256832D01*
X33895Y256712D01*
X33863Y256660D01*
X33824Y256613D01*
X33742Y256471D01*
X33654Y256332D01*
X33630Y256275D01*
X33600Y256222D01*
X33545Y256068D01*
X33483Y255915D01*
X33470Y255856D01*
X33449Y255798D01*
X33423Y255636D01*
X33388Y255475D01*
X33383Y255398D01*
X33376Y255354D01*
X33377Y255293D01*
X33369Y255163D01*
X33369Y254803D01*
X33380Y254673D01*
X33382Y254543D01*
X33400Y254449D01*
X33409Y254354D01*
X33443Y254229D01*
X33468Y254101D01*
X33502Y254012D01*
X33527Y253920D01*
X33583Y253803D01*
X33630Y253681D01*
X33680Y253599D01*
X33721Y253513D01*
X33796Y253408D01*
X33864Y253296D01*
X33927Y253225D01*
X33983Y253147D01*
X34076Y253056D01*
X34162Y252959D01*
X34237Y252900D01*
X34305Y252833D01*
X34413Y252760D01*
X34515Y252680D01*
X34599Y252635D01*
X34678Y252581D01*
X34797Y252528D01*
X34912Y252467D01*
X35003Y252437D01*
X35090Y252399D01*
X35217Y252368D01*
X35340Y252328D01*
X35435Y252315D01*
X35528Y252292D01*
X35657Y252284D01*
X35786Y252266D01*
X35882Y252270D01*
X35977Y252264D01*
X36106Y252279D01*
G37*
%LPC*%
G36*
X38099Y447499D02*
X38099Y447499D01*
X38099Y454995D01*
X38272Y455641D01*
X38607Y456220D01*
X39080Y456693D01*
X39659Y457028D01*
X40305Y457201D01*
X47801Y457201D01*
X47801Y447499D01*
X38099Y447499D01*
G37*
%LPD*%
%LPC*%
G36*
X40305Y431799D02*
X40305Y431799D01*
X39659Y431972D01*
X39080Y432307D01*
X38607Y432780D01*
X38272Y433359D01*
X38099Y434005D01*
X38099Y441501D01*
X47801Y441501D01*
X47801Y431799D01*
X40305Y431799D01*
G37*
%LPD*%
G36*
X153727Y279763D02*
X153727Y279763D01*
X153891Y279770D01*
X153951Y279783D01*
X154012Y279789D01*
X154171Y279832D01*
X154331Y279868D01*
X154387Y279891D01*
X154446Y279907D01*
X154594Y279978D01*
X154746Y280041D01*
X154798Y280074D01*
X154853Y280101D01*
X154986Y280196D01*
X155125Y280286D01*
X155182Y280337D01*
X155219Y280363D01*
X155261Y280406D01*
X155359Y280492D01*
X164008Y289141D01*
X164113Y289268D01*
X164225Y289388D01*
X164257Y289440D01*
X164296Y289487D01*
X164378Y289629D01*
X164466Y289768D01*
X164490Y289825D01*
X164520Y289878D01*
X164575Y290032D01*
X164637Y290185D01*
X164650Y290244D01*
X164671Y290302D01*
X164697Y290464D01*
X164732Y290625D01*
X164737Y290702D01*
X164744Y290746D01*
X164743Y290807D01*
X164751Y290937D01*
X164751Y291297D01*
X164740Y291427D01*
X164738Y291557D01*
X164720Y291651D01*
X164711Y291746D01*
X164677Y291871D01*
X164652Y291999D01*
X164618Y292088D01*
X164593Y292180D01*
X164537Y292297D01*
X164490Y292419D01*
X164440Y292501D01*
X164399Y292587D01*
X164324Y292692D01*
X164256Y292804D01*
X164193Y292875D01*
X164137Y292953D01*
X164044Y293044D01*
X163958Y293141D01*
X163883Y293200D01*
X163815Y293267D01*
X163707Y293340D01*
X163605Y293420D01*
X163521Y293465D01*
X163442Y293519D01*
X163323Y293572D01*
X163208Y293633D01*
X163117Y293663D01*
X163030Y293701D01*
X162903Y293732D01*
X162780Y293772D01*
X162685Y293785D01*
X162592Y293808D01*
X162463Y293816D01*
X162334Y293834D01*
X162238Y293830D01*
X162143Y293836D01*
X162014Y293821D01*
X161884Y293815D01*
X161791Y293795D01*
X161696Y293784D01*
X161571Y293746D01*
X161444Y293718D01*
X161356Y293681D01*
X161265Y293653D01*
X161149Y293594D01*
X161029Y293544D01*
X160948Y293492D01*
X160863Y293449D01*
X160760Y293370D01*
X160651Y293300D01*
X160553Y293214D01*
X160505Y293177D01*
X160474Y293144D01*
X160416Y293093D01*
X151407Y284084D01*
X151324Y283984D01*
X151233Y283891D01*
X151180Y283811D01*
X151118Y283738D01*
X151054Y283625D01*
X150981Y283518D01*
X150942Y283430D01*
X150895Y283347D01*
X150851Y283225D01*
X150799Y283106D01*
X150776Y283013D01*
X150744Y282923D01*
X150723Y282794D01*
X150692Y282668D01*
X150686Y282573D01*
X150671Y282479D01*
X150672Y282348D01*
X150664Y282219D01*
X150675Y282124D01*
X150677Y282028D01*
X150701Y281901D01*
X150716Y281772D01*
X150744Y281680D01*
X150762Y281586D01*
X150809Y281465D01*
X150847Y281341D01*
X150890Y281256D01*
X150925Y281166D01*
X150992Y281055D01*
X151051Y280939D01*
X151109Y280863D01*
X151158Y280782D01*
X151245Y280684D01*
X151323Y280581D01*
X151393Y280516D01*
X151457Y280444D01*
X151558Y280364D01*
X151654Y280275D01*
X151735Y280224D01*
X151810Y280165D01*
X151924Y280104D01*
X152034Y280034D01*
X152122Y279997D01*
X152207Y279952D01*
X152330Y279912D01*
X152451Y279863D01*
X152544Y279843D01*
X152635Y279813D01*
X152764Y279795D01*
X152891Y279768D01*
X153021Y279760D01*
X153081Y279752D01*
X153126Y279753D01*
X153203Y279749D01*
X153563Y279749D01*
X153727Y279763D01*
G37*
%LPC*%
G36*
X74461Y957639D02*
X74461Y957639D01*
X74461Y964833D01*
X74634Y965479D01*
X74969Y966058D01*
X75442Y966531D01*
X76021Y966866D01*
X76667Y967039D01*
X83861Y967039D01*
X83861Y957639D01*
X74461Y957639D01*
G37*
%LPD*%
%LPC*%
G36*
X76667Y943161D02*
X76667Y943161D01*
X76021Y943334D01*
X75442Y943669D01*
X74969Y944142D01*
X74634Y944721D01*
X74461Y945367D01*
X74461Y952561D01*
X83861Y952561D01*
X83861Y943161D01*
X76667Y943161D01*
G37*
%LPD*%
G36*
X181520Y391520D02*
X181520Y391520D01*
X181649Y391522D01*
X181743Y391540D01*
X181838Y391549D01*
X181964Y391583D01*
X182092Y391608D01*
X182181Y391642D01*
X182273Y391667D01*
X182390Y391723D01*
X182512Y391770D01*
X182593Y391820D01*
X182679Y391861D01*
X182785Y391936D01*
X182896Y392004D01*
X182968Y392067D01*
X183046Y392123D01*
X183136Y392216D01*
X183234Y392302D01*
X183293Y392377D01*
X183360Y392445D01*
X183432Y392553D01*
X183513Y392655D01*
X183558Y392739D01*
X183612Y392818D01*
X183664Y392937D01*
X183726Y393052D01*
X183755Y393143D01*
X183794Y393230D01*
X183825Y393357D01*
X183865Y393480D01*
X183878Y393575D01*
X183901Y393668D01*
X183909Y393797D01*
X183926Y393926D01*
X183922Y394022D01*
X183928Y394117D01*
X183913Y394246D01*
X183908Y394376D01*
X183887Y394469D01*
X183876Y394564D01*
X183838Y394689D01*
X183810Y394816D01*
X183774Y394904D01*
X183746Y394995D01*
X183687Y395111D01*
X183637Y395231D01*
X183585Y395311D01*
X183542Y395397D01*
X183463Y395500D01*
X183392Y395609D01*
X183306Y395707D01*
X183270Y395755D01*
X183237Y395786D01*
X183185Y395844D01*
X179595Y399433D01*
X179569Y399456D01*
X179546Y399482D01*
X179397Y399600D01*
X179250Y399722D01*
X179220Y399740D01*
X179193Y399761D01*
X179025Y399851D01*
X178859Y399946D01*
X178827Y399957D01*
X178796Y399974D01*
X178615Y400033D01*
X178435Y400097D01*
X178401Y400102D01*
X178368Y400113D01*
X178179Y400139D01*
X177991Y400170D01*
X177956Y400170D01*
X177922Y400174D01*
X177731Y400166D01*
X177540Y400164D01*
X177507Y400157D01*
X177472Y400156D01*
X177286Y400115D01*
X177098Y400078D01*
X177066Y400066D01*
X177032Y400058D01*
X176856Y399985D01*
X176678Y399916D01*
X176649Y399898D01*
X176617Y399885D01*
X176456Y399781D01*
X176294Y399682D01*
X176268Y399659D01*
X176239Y399640D01*
X176004Y399433D01*
X172415Y395844D01*
X172331Y395744D01*
X172240Y395651D01*
X172187Y395571D01*
X172126Y395498D01*
X172061Y395385D01*
X171988Y395278D01*
X171950Y395190D01*
X171902Y395107D01*
X171859Y394985D01*
X171806Y394866D01*
X171783Y394773D01*
X171751Y394683D01*
X171730Y394554D01*
X171699Y394428D01*
X171694Y394333D01*
X171678Y394239D01*
X171680Y394108D01*
X171672Y393979D01*
X171683Y393884D01*
X171684Y393788D01*
X171709Y393661D01*
X171724Y393532D01*
X171751Y393440D01*
X171770Y393346D01*
X171816Y393225D01*
X171854Y393101D01*
X171897Y393016D01*
X171932Y392926D01*
X172000Y392815D01*
X172058Y392699D01*
X172116Y392623D01*
X172166Y392542D01*
X172252Y392444D01*
X172330Y392341D01*
X172401Y392276D01*
X172464Y392204D01*
X172566Y392124D01*
X172662Y392035D01*
X172742Y391984D01*
X172817Y391925D01*
X172932Y391864D01*
X173041Y391794D01*
X173130Y391757D01*
X173214Y391712D01*
X173338Y391672D01*
X173458Y391623D01*
X173551Y391603D01*
X173642Y391573D01*
X173771Y391555D01*
X173898Y391528D01*
X174028Y391520D01*
X174088Y391512D01*
X174133Y391513D01*
X174210Y391509D01*
X181390Y391509D01*
X181520Y391520D01*
G37*
G36*
X206920Y391520D02*
X206920Y391520D01*
X207049Y391522D01*
X207143Y391540D01*
X207238Y391549D01*
X207364Y391583D01*
X207492Y391608D01*
X207581Y391642D01*
X207673Y391667D01*
X207790Y391723D01*
X207912Y391770D01*
X207993Y391820D01*
X208079Y391861D01*
X208185Y391936D01*
X208296Y392004D01*
X208368Y392067D01*
X208446Y392123D01*
X208536Y392216D01*
X208634Y392302D01*
X208693Y392377D01*
X208760Y392445D01*
X208832Y392553D01*
X208913Y392655D01*
X208958Y392739D01*
X209012Y392818D01*
X209064Y392937D01*
X209126Y393052D01*
X209155Y393143D01*
X209194Y393230D01*
X209225Y393357D01*
X209265Y393480D01*
X209278Y393575D01*
X209301Y393668D01*
X209309Y393797D01*
X209326Y393926D01*
X209322Y394022D01*
X209328Y394117D01*
X209313Y394246D01*
X209308Y394376D01*
X209287Y394469D01*
X209276Y394564D01*
X209238Y394689D01*
X209210Y394816D01*
X209174Y394904D01*
X209146Y394995D01*
X209087Y395111D01*
X209037Y395231D01*
X208985Y395311D01*
X208942Y395397D01*
X208863Y395500D01*
X208792Y395609D01*
X208706Y395707D01*
X208670Y395755D01*
X208637Y395786D01*
X208585Y395844D01*
X204995Y399433D01*
X204969Y399456D01*
X204946Y399482D01*
X204797Y399600D01*
X204650Y399722D01*
X204620Y399740D01*
X204593Y399761D01*
X204425Y399851D01*
X204259Y399946D01*
X204227Y399957D01*
X204196Y399974D01*
X204015Y400033D01*
X203835Y400097D01*
X203801Y400102D01*
X203768Y400113D01*
X203579Y400139D01*
X203391Y400170D01*
X203356Y400170D01*
X203322Y400174D01*
X203131Y400166D01*
X202940Y400164D01*
X202907Y400157D01*
X202872Y400156D01*
X202686Y400115D01*
X202498Y400078D01*
X202466Y400066D01*
X202432Y400058D01*
X202256Y399985D01*
X202078Y399916D01*
X202049Y399898D01*
X202017Y399885D01*
X201856Y399781D01*
X201694Y399682D01*
X201668Y399659D01*
X201639Y399640D01*
X201404Y399433D01*
X197815Y395844D01*
X197731Y395744D01*
X197640Y395651D01*
X197587Y395571D01*
X197526Y395498D01*
X197461Y395385D01*
X197388Y395278D01*
X197350Y395190D01*
X197302Y395107D01*
X197259Y394985D01*
X197206Y394866D01*
X197183Y394773D01*
X197151Y394683D01*
X197130Y394554D01*
X197099Y394428D01*
X197094Y394333D01*
X197078Y394239D01*
X197080Y394108D01*
X197072Y393979D01*
X197083Y393884D01*
X197084Y393788D01*
X197109Y393661D01*
X197124Y393532D01*
X197151Y393440D01*
X197170Y393346D01*
X197216Y393225D01*
X197254Y393101D01*
X197297Y393016D01*
X197332Y392926D01*
X197400Y392815D01*
X197458Y392699D01*
X197516Y392623D01*
X197566Y392542D01*
X197652Y392444D01*
X197730Y392341D01*
X197801Y392276D01*
X197864Y392204D01*
X197966Y392124D01*
X198062Y392035D01*
X198142Y391984D01*
X198217Y391925D01*
X198332Y391864D01*
X198441Y391794D01*
X198530Y391757D01*
X198614Y391712D01*
X198738Y391672D01*
X198858Y391623D01*
X198951Y391603D01*
X199042Y391573D01*
X199171Y391555D01*
X199298Y391528D01*
X199428Y391520D01*
X199488Y391512D01*
X199533Y391513D01*
X199610Y391509D01*
X206790Y391509D01*
X206920Y391520D01*
G37*
%LPC*%
G36*
X469939Y957639D02*
X469939Y957639D01*
X469939Y966785D01*
X470196Y966745D01*
X471983Y966164D01*
X473657Y965311D01*
X475178Y964206D01*
X476506Y962878D01*
X477611Y961357D01*
X478464Y959683D01*
X479045Y957896D01*
X479085Y957639D01*
X469939Y957639D01*
G37*
%LPD*%
%LPC*%
G36*
X612139Y408939D02*
X612139Y408939D01*
X612139Y418085D01*
X612396Y418045D01*
X614183Y417464D01*
X615857Y416611D01*
X617378Y415506D01*
X618706Y414178D01*
X619811Y412657D01*
X620664Y410983D01*
X621245Y409196D01*
X621285Y408939D01*
X612139Y408939D01*
G37*
%LPD*%
%LPC*%
G36*
X612139Y543561D02*
X612139Y543561D01*
X621285Y543561D01*
X621245Y543304D01*
X620664Y541517D01*
X619811Y539843D01*
X618706Y538322D01*
X617378Y536994D01*
X615857Y535889D01*
X614183Y535036D01*
X612396Y534455D01*
X612139Y534415D01*
X612139Y543561D01*
G37*
%LPD*%
%LPC*%
G36*
X661415Y485289D02*
X661415Y485289D01*
X661455Y485546D01*
X662036Y487333D01*
X662889Y489007D01*
X663994Y490528D01*
X665322Y491856D01*
X666843Y492961D01*
X668517Y493814D01*
X670304Y494395D01*
X670561Y494435D01*
X670561Y485289D01*
X661415Y485289D01*
G37*
%LPD*%
%LPC*%
G36*
X597915Y408939D02*
X597915Y408939D01*
X597955Y409196D01*
X598536Y410983D01*
X599389Y412657D01*
X600494Y414178D01*
X601822Y415506D01*
X603343Y416611D01*
X605017Y417464D01*
X606804Y418045D01*
X607061Y418085D01*
X607061Y408939D01*
X597915Y408939D01*
G37*
%LPD*%
%LPC*%
G36*
X606804Y534455D02*
X606804Y534455D01*
X605017Y535036D01*
X603343Y535889D01*
X601822Y536994D01*
X600494Y538322D01*
X599389Y539843D01*
X598536Y541517D01*
X597955Y543304D01*
X597915Y543561D01*
X607061Y543561D01*
X607061Y534415D01*
X606804Y534455D01*
G37*
%LPD*%
%LPC*%
G36*
X670304Y471105D02*
X670304Y471105D01*
X668517Y471686D01*
X666843Y472539D01*
X665322Y473644D01*
X663994Y474972D01*
X662889Y476493D01*
X662036Y478167D01*
X661455Y479954D01*
X661415Y480211D01*
X670561Y480211D01*
X670561Y471065D01*
X670304Y471105D01*
G37*
%LPD*%
G36*
X190569Y358214D02*
X190569Y358214D01*
X190760Y358216D01*
X190793Y358223D01*
X190828Y358224D01*
X191014Y358265D01*
X191202Y358302D01*
X191234Y358314D01*
X191268Y358322D01*
X191444Y358395D01*
X191622Y358464D01*
X191651Y358482D01*
X191683Y358495D01*
X191844Y358599D01*
X192006Y358698D01*
X192032Y358721D01*
X192061Y358740D01*
X192296Y358947D01*
X194425Y361076D01*
X194509Y361176D01*
X194600Y361269D01*
X194653Y361349D01*
X194714Y361422D01*
X194779Y361535D01*
X194852Y361642D01*
X194890Y361730D01*
X194938Y361813D01*
X194981Y361935D01*
X195034Y362054D01*
X195057Y362147D01*
X195089Y362237D01*
X195110Y362366D01*
X195141Y362492D01*
X195146Y362587D01*
X195162Y362681D01*
X195160Y362812D01*
X195168Y362941D01*
X195157Y363036D01*
X195156Y363132D01*
X195131Y363259D01*
X195116Y363388D01*
X195089Y363480D01*
X195070Y363574D01*
X195024Y363695D01*
X194986Y363819D01*
X194943Y363904D01*
X194908Y363994D01*
X194840Y364105D01*
X194782Y364221D01*
X194724Y364297D01*
X194674Y364378D01*
X194588Y364476D01*
X194510Y364579D01*
X194439Y364644D01*
X194376Y364716D01*
X194274Y364796D01*
X194178Y364885D01*
X194098Y364936D01*
X194023Y364995D01*
X193908Y365056D01*
X193799Y365126D01*
X193710Y365163D01*
X193626Y365208D01*
X193502Y365248D01*
X193382Y365297D01*
X193289Y365317D01*
X193198Y365347D01*
X193069Y365365D01*
X192942Y365392D01*
X192812Y365400D01*
X192752Y365408D01*
X192707Y365407D01*
X192630Y365411D01*
X188370Y365411D01*
X188240Y365400D01*
X188111Y365398D01*
X188017Y365380D01*
X187922Y365371D01*
X187796Y365337D01*
X187668Y365312D01*
X187579Y365278D01*
X187487Y365253D01*
X187370Y365197D01*
X187248Y365150D01*
X187167Y365100D01*
X187081Y365059D01*
X186975Y364984D01*
X186864Y364916D01*
X186792Y364853D01*
X186714Y364797D01*
X186624Y364704D01*
X186526Y364618D01*
X186467Y364543D01*
X186400Y364475D01*
X186328Y364367D01*
X186247Y364265D01*
X186202Y364181D01*
X186148Y364102D01*
X186096Y363983D01*
X186034Y363868D01*
X186005Y363777D01*
X185966Y363690D01*
X185935Y363563D01*
X185895Y363440D01*
X185882Y363345D01*
X185859Y363252D01*
X185851Y363123D01*
X185834Y362994D01*
X185838Y362898D01*
X185832Y362803D01*
X185847Y362674D01*
X185852Y362544D01*
X185873Y362451D01*
X185884Y362356D01*
X185922Y362231D01*
X185950Y362104D01*
X185986Y362016D01*
X186014Y361925D01*
X186073Y361809D01*
X186123Y361689D01*
X186175Y361609D01*
X186218Y361523D01*
X186297Y361420D01*
X186368Y361311D01*
X186454Y361213D01*
X186490Y361165D01*
X186523Y361134D01*
X186575Y361076D01*
X188705Y358947D01*
X188731Y358924D01*
X188754Y358898D01*
X188903Y358780D01*
X189050Y358658D01*
X189080Y358640D01*
X189107Y358619D01*
X189275Y358529D01*
X189441Y358434D01*
X189473Y358423D01*
X189504Y358406D01*
X189685Y358347D01*
X189865Y358283D01*
X189899Y358278D01*
X189932Y358267D01*
X190121Y358241D01*
X190309Y358210D01*
X190344Y358210D01*
X190378Y358206D01*
X190569Y358214D01*
G37*
G36*
X165169Y358214D02*
X165169Y358214D01*
X165360Y358216D01*
X165393Y358223D01*
X165428Y358224D01*
X165614Y358265D01*
X165802Y358302D01*
X165834Y358314D01*
X165868Y358322D01*
X166044Y358395D01*
X166222Y358464D01*
X166251Y358482D01*
X166283Y358495D01*
X166444Y358599D01*
X166606Y358698D01*
X166632Y358721D01*
X166661Y358740D01*
X166896Y358947D01*
X169025Y361076D01*
X169109Y361176D01*
X169200Y361269D01*
X169253Y361349D01*
X169314Y361422D01*
X169379Y361535D01*
X169452Y361642D01*
X169490Y361730D01*
X169538Y361813D01*
X169581Y361935D01*
X169634Y362054D01*
X169657Y362147D01*
X169689Y362237D01*
X169710Y362366D01*
X169741Y362492D01*
X169746Y362587D01*
X169762Y362681D01*
X169760Y362812D01*
X169768Y362941D01*
X169757Y363036D01*
X169756Y363132D01*
X169731Y363259D01*
X169716Y363388D01*
X169689Y363480D01*
X169670Y363574D01*
X169624Y363695D01*
X169586Y363819D01*
X169543Y363904D01*
X169508Y363994D01*
X169440Y364105D01*
X169382Y364221D01*
X169324Y364297D01*
X169274Y364378D01*
X169188Y364476D01*
X169110Y364579D01*
X169039Y364644D01*
X168976Y364716D01*
X168874Y364796D01*
X168778Y364885D01*
X168698Y364936D01*
X168623Y364995D01*
X168508Y365056D01*
X168399Y365126D01*
X168310Y365163D01*
X168226Y365208D01*
X168102Y365248D01*
X167982Y365297D01*
X167889Y365317D01*
X167798Y365347D01*
X167669Y365365D01*
X167542Y365392D01*
X167412Y365400D01*
X167352Y365408D01*
X167307Y365407D01*
X167230Y365411D01*
X162970Y365411D01*
X162840Y365400D01*
X162711Y365398D01*
X162617Y365380D01*
X162522Y365371D01*
X162396Y365337D01*
X162268Y365312D01*
X162179Y365278D01*
X162087Y365253D01*
X161970Y365197D01*
X161848Y365150D01*
X161767Y365100D01*
X161681Y365059D01*
X161575Y364984D01*
X161464Y364916D01*
X161392Y364853D01*
X161314Y364797D01*
X161224Y364704D01*
X161126Y364618D01*
X161067Y364543D01*
X161000Y364475D01*
X160928Y364367D01*
X160847Y364265D01*
X160802Y364181D01*
X160748Y364102D01*
X160696Y363983D01*
X160634Y363868D01*
X160605Y363777D01*
X160566Y363690D01*
X160535Y363563D01*
X160495Y363440D01*
X160482Y363345D01*
X160459Y363252D01*
X160451Y363123D01*
X160434Y362994D01*
X160438Y362898D01*
X160432Y362803D01*
X160447Y362674D01*
X160452Y362544D01*
X160473Y362451D01*
X160484Y362356D01*
X160522Y362231D01*
X160550Y362104D01*
X160586Y362016D01*
X160614Y361925D01*
X160673Y361809D01*
X160723Y361689D01*
X160775Y361609D01*
X160818Y361523D01*
X160897Y361420D01*
X160968Y361311D01*
X161054Y361213D01*
X161090Y361165D01*
X161123Y361134D01*
X161175Y361076D01*
X163305Y358947D01*
X163331Y358924D01*
X163354Y358898D01*
X163503Y358780D01*
X163650Y358658D01*
X163680Y358640D01*
X163707Y358619D01*
X163875Y358529D01*
X164041Y358434D01*
X164073Y358423D01*
X164104Y358406D01*
X164285Y358347D01*
X164465Y358283D01*
X164499Y358278D01*
X164532Y358267D01*
X164721Y358241D01*
X164909Y358210D01*
X164944Y358210D01*
X164978Y358206D01*
X165169Y358214D01*
G37*
G36*
X139769Y358214D02*
X139769Y358214D01*
X139960Y358216D01*
X139993Y358223D01*
X140028Y358224D01*
X140214Y358265D01*
X140402Y358302D01*
X140434Y358314D01*
X140468Y358322D01*
X140644Y358395D01*
X140822Y358464D01*
X140851Y358482D01*
X140883Y358495D01*
X141044Y358599D01*
X141206Y358698D01*
X141232Y358721D01*
X141261Y358740D01*
X141496Y358947D01*
X143625Y361076D01*
X143709Y361176D01*
X143800Y361269D01*
X143853Y361349D01*
X143914Y361422D01*
X143979Y361535D01*
X144052Y361642D01*
X144090Y361730D01*
X144138Y361813D01*
X144181Y361935D01*
X144234Y362054D01*
X144257Y362147D01*
X144289Y362237D01*
X144310Y362366D01*
X144341Y362492D01*
X144346Y362587D01*
X144362Y362681D01*
X144360Y362812D01*
X144368Y362941D01*
X144357Y363036D01*
X144356Y363132D01*
X144331Y363259D01*
X144316Y363388D01*
X144289Y363480D01*
X144270Y363574D01*
X144224Y363695D01*
X144186Y363819D01*
X144143Y363904D01*
X144108Y363994D01*
X144040Y364105D01*
X143982Y364221D01*
X143924Y364297D01*
X143874Y364378D01*
X143788Y364476D01*
X143710Y364579D01*
X143639Y364644D01*
X143576Y364716D01*
X143474Y364796D01*
X143378Y364885D01*
X143298Y364936D01*
X143223Y364995D01*
X143108Y365056D01*
X142999Y365126D01*
X142910Y365163D01*
X142826Y365208D01*
X142702Y365248D01*
X142582Y365297D01*
X142489Y365317D01*
X142398Y365347D01*
X142269Y365365D01*
X142142Y365392D01*
X142012Y365400D01*
X141952Y365408D01*
X141907Y365407D01*
X141830Y365411D01*
X137570Y365411D01*
X137440Y365400D01*
X137311Y365398D01*
X137217Y365380D01*
X137122Y365371D01*
X136996Y365337D01*
X136868Y365312D01*
X136779Y365278D01*
X136687Y365253D01*
X136570Y365197D01*
X136448Y365150D01*
X136367Y365100D01*
X136281Y365059D01*
X136175Y364984D01*
X136064Y364916D01*
X135992Y364853D01*
X135914Y364797D01*
X135824Y364704D01*
X135726Y364618D01*
X135667Y364543D01*
X135600Y364475D01*
X135528Y364367D01*
X135447Y364265D01*
X135402Y364181D01*
X135348Y364102D01*
X135296Y363983D01*
X135234Y363868D01*
X135205Y363777D01*
X135166Y363690D01*
X135135Y363563D01*
X135095Y363440D01*
X135082Y363345D01*
X135059Y363252D01*
X135051Y363123D01*
X135034Y362994D01*
X135038Y362898D01*
X135032Y362803D01*
X135047Y362674D01*
X135052Y362544D01*
X135073Y362451D01*
X135084Y362356D01*
X135122Y362231D01*
X135150Y362104D01*
X135186Y362016D01*
X135214Y361925D01*
X135273Y361809D01*
X135323Y361689D01*
X135375Y361609D01*
X135418Y361523D01*
X135497Y361420D01*
X135568Y361311D01*
X135654Y361213D01*
X135690Y361165D01*
X135723Y361134D01*
X135775Y361076D01*
X137905Y358947D01*
X137931Y358924D01*
X137954Y358898D01*
X138103Y358780D01*
X138250Y358658D01*
X138280Y358640D01*
X138307Y358619D01*
X138475Y358529D01*
X138641Y358434D01*
X138673Y358423D01*
X138704Y358406D01*
X138885Y358347D01*
X139065Y358283D01*
X139099Y358278D01*
X139132Y358267D01*
X139321Y358241D01*
X139509Y358210D01*
X139544Y358210D01*
X139578Y358206D01*
X139769Y358214D01*
G37*
%LPC*%
G36*
X27774Y523239D02*
X27774Y523239D01*
X28295Y524844D01*
X29067Y526358D01*
X30065Y527733D01*
X31267Y528935D01*
X32642Y529933D01*
X34156Y530705D01*
X35761Y531226D01*
X35761Y523239D01*
X27774Y523239D01*
G37*
%LPD*%
%LPC*%
G36*
X34156Y510695D02*
X34156Y510695D01*
X32642Y511467D01*
X31267Y512465D01*
X30065Y513667D01*
X29067Y515042D01*
X28295Y516556D01*
X27774Y518161D01*
X35761Y518161D01*
X35761Y510174D01*
X34156Y510695D01*
G37*
%LPD*%
D10*
X520700Y558800D03*
D11*
X495300Y558800D03*
X469900Y558800D03*
X444500Y558800D03*
X419100Y558800D03*
X393700Y558800D03*
X368300Y558800D03*
X342900Y558800D03*
X317500Y558800D03*
X292100Y558800D03*
X266700Y558800D03*
X241300Y558800D03*
X215900Y558800D03*
X190500Y558800D03*
X165100Y558800D03*
X165100Y406400D03*
X190500Y406400D03*
X215900Y406400D03*
X241300Y406400D03*
X266700Y406400D03*
X292100Y406400D03*
X317500Y406400D03*
X342900Y406400D03*
X368300Y406400D03*
X393700Y406400D03*
X419100Y406400D03*
X444500Y406400D03*
X469900Y406400D03*
X495300Y406400D03*
X520700Y406400D03*
D12*
X495300Y342900D03*
X469900Y342900D03*
X444500Y342900D03*
X419100Y342900D03*
X393700Y342900D03*
X368300Y342900D03*
X342900Y342900D03*
X317500Y342900D03*
D13*
X86400Y955100D03*
D12*
X111800Y955100D03*
X137200Y955100D03*
X162600Y955100D03*
X188000Y955100D03*
X213400Y955100D03*
X238800Y955100D03*
X264200Y955100D03*
X289600Y955100D03*
X315000Y955100D03*
X340400Y955100D03*
X365800Y955100D03*
X391200Y955100D03*
X416600Y955100D03*
X442000Y955100D03*
X467400Y955100D03*
X622300Y927100D03*
X546100Y927100D03*
X609600Y406400D03*
X609600Y381000D03*
X609600Y355600D03*
X609600Y546100D03*
X609600Y571500D03*
D14*
X76200Y224980D02*
X76200Y211900D01*
X101600Y211900D02*
X101600Y224980D01*
X127000Y224980D02*
X127000Y211900D01*
X152400Y211900D02*
X152400Y224980D01*
X177800Y224980D02*
X177800Y211900D01*
X203200Y211900D02*
X203200Y224980D01*
X228600Y224980D02*
X228600Y211900D01*
X254000Y211900D02*
X254000Y224980D01*
X254000Y338900D02*
X254000Y351980D01*
X228600Y351980D02*
X228600Y338900D01*
X203200Y338900D02*
X203200Y351980D01*
X177800Y351980D02*
X177800Y338900D01*
X152400Y338900D02*
X152400Y351980D01*
X127000Y351980D02*
X127000Y338900D01*
X101600Y338900D02*
X101600Y351980D01*
X76200Y351980D02*
X76200Y338900D01*
D12*
X114300Y127000D03*
X139700Y127000D03*
X165100Y127000D03*
X190500Y127000D03*
D13*
X723900Y482750D03*
D12*
X698500Y482750D03*
X673100Y482750D03*
D15*
X38300Y520700D03*
D16*
X63300Y520700D03*
D17*
X50800Y444500D03*
D18*
X50800Y409500D03*
D19*
X38100Y520500D02*
X38300Y520700D01*
X38100Y520500D02*
X38100Y495300D01*
X50800Y482600D01*
X50800Y444500D01*
X101600Y345440D02*
X101600Y326390D01*
X91440Y316230D01*
X44450Y316230D01*
X19558Y341122D01*
X19558Y438658D02*
X25400Y444500D01*
X50800Y444500D01*
X19558Y438658D02*
X19558Y341122D01*
X241300Y393700D02*
X254000Y381000D01*
X241300Y393700D02*
X241300Y406400D01*
X254000Y381000D02*
X254000Y345440D01*
X38300Y520700D02*
X38300Y559000D01*
X63500Y584200D02*
X177800Y584200D01*
X190500Y571500D01*
X190500Y558800D01*
X63500Y584200D02*
X38300Y559000D01*
X188000Y955100D02*
X188000Y967700D01*
X177800Y977900D01*
X101600Y977900D01*
X86400Y962700D01*
X86400Y955100D01*
X177800Y711200D02*
X177800Y584200D01*
X76200Y944900D02*
X86400Y955100D01*
X76200Y812800D02*
X177800Y711200D01*
X76200Y812800D02*
X76200Y944900D01*
X467400Y955100D02*
X467400Y967700D01*
X457200Y977900D01*
X177800Y977900D01*
X467400Y955100D02*
X556200Y955100D01*
X571500Y444500D02*
X609600Y406400D01*
X254000Y444500D02*
X241300Y431800D01*
X241300Y406400D01*
X254000Y444500D02*
X571500Y444500D01*
X609600Y482600D01*
X609600Y520700D01*
X609600Y546100D01*
X596900Y914400D02*
X556200Y955100D01*
X596900Y914400D02*
X596900Y762000D01*
X647700Y711200D01*
X647700Y533400D01*
X635000Y520700D01*
X609600Y520700D01*
X635150Y520700D02*
X673100Y482750D01*
X635150Y520700D02*
X635000Y520700D01*
X495300Y406400D02*
X495300Y342900D01*
X469900Y342900D02*
X469900Y406400D01*
X444500Y406400D02*
X444500Y342900D01*
X419100Y342900D02*
X419100Y406400D01*
X393700Y406400D02*
X393700Y342900D01*
X368300Y342900D02*
X368300Y406400D01*
X342900Y406400D02*
X342900Y342900D01*
X317500Y342900D02*
X317500Y406400D01*
X228600Y229870D02*
X228600Y218440D01*
X275590Y397510D02*
X266700Y406400D01*
X275590Y397510D02*
X275590Y276860D01*
X228600Y229870D01*
X254000Y218440D02*
X292100Y256540D01*
X292100Y406400D01*
X203200Y218440D02*
X177800Y218440D01*
X127000Y313690D02*
X127000Y345440D01*
X127000Y313690D02*
X113030Y299720D01*
X1778Y178562D02*
X53340Y127000D01*
X114300Y127000D01*
X113030Y299720D02*
X33020Y299720D01*
X1778Y268478D01*
X1778Y178562D01*
X152400Y303530D02*
X152400Y345440D01*
X152400Y303530D02*
X132080Y283210D01*
X41910Y283210D02*
X20320Y261620D01*
X20320Y187960D02*
X53340Y154940D01*
X129540Y154940D02*
X139700Y144780D01*
X139700Y127000D01*
X132080Y283210D02*
X41910Y283210D01*
X20320Y261620D02*
X20320Y187960D01*
X53340Y154940D02*
X129540Y154940D01*
X177800Y284480D02*
X177800Y345440D01*
X160020Y266700D02*
X69850Y266700D01*
X66040Y171450D02*
X148590Y171450D01*
X165100Y154940D01*
X165100Y127000D01*
X160020Y266700D02*
X177800Y284480D01*
X69850Y266700D02*
X38100Y234950D01*
X38100Y199390D01*
X66040Y171450D01*
X203200Y283210D02*
X203200Y345440D01*
X165100Y190500D02*
X190500Y165100D01*
X190500Y127000D01*
X168910Y248920D02*
X203200Y283210D01*
X168910Y248920D02*
X74930Y248920D01*
X55880Y229870D01*
X55880Y207010D01*
X72390Y190500D01*
X165100Y190500D01*
X111800Y840700D02*
X111800Y955100D01*
X111800Y840700D02*
X241300Y711200D01*
X241300Y558800D01*
X228600Y368300D02*
X228600Y345440D01*
X228600Y368300D02*
X218440Y378460D01*
X129540Y378460D01*
X114300Y393700D01*
X165100Y482600D02*
X203200Y482600D01*
X241300Y520700D01*
X241300Y558800D01*
X114300Y431800D02*
X114300Y393700D01*
X114300Y431800D02*
X165100Y482600D01*
X647700Y381000D02*
X673100Y406400D01*
X647700Y381000D02*
X609600Y381000D01*
X736600Y812800D02*
X622300Y927100D01*
X736600Y584200D02*
X774700Y546100D01*
X774700Y444500D01*
X736600Y406400D01*
X673100Y406400D01*
X736600Y584200D02*
X736600Y812800D01*
X723900Y482750D02*
X762150Y444500D01*
X774700Y444500D01*
X228600Y345440D02*
X228600Y292100D01*
X647700Y330200D02*
X647700Y381000D01*
X647700Y330200D02*
X609600Y292100D01*
X342900Y292100D01*
D20*
X228600Y292100D03*
X342900Y292100D03*
D19*
X165100Y533400D02*
X165100Y558800D01*
X165100Y533400D02*
X152400Y520700D01*
X63300Y520700D01*
X53900Y409500D02*
X50800Y409500D01*
X53900Y409500D02*
X76200Y431800D01*
X76200Y507800D02*
X63300Y520700D01*
X76200Y507800D02*
X76200Y431800D01*
X96520Y414020D02*
X96520Y464820D01*
X96520Y414020D02*
X76200Y393700D01*
X76200Y345440D01*
X96520Y464820D02*
X152400Y520700D01*
X520700Y406400D02*
X520700Y381000D01*
X546100Y355600D01*
X609600Y355600D01*
X520700Y558800D02*
X524002Y562102D01*
X524002Y567953D01*
X536947Y580898D01*
X600202Y580898D02*
X609600Y571500D01*
X600202Y580898D02*
X536947Y580898D01*
X546100Y927100D02*
X457200Y927100D01*
X442000Y942300D01*
X442000Y955100D01*
X635000Y863600D02*
X698500Y800100D01*
X698500Y482750D01*
D20*
X635000Y863600D03*
D19*
X139700Y952600D02*
X137200Y955100D01*
X139700Y952600D02*
X139700Y889000D01*
X165100Y863600D01*
D20*
X165100Y863600D03*
D19*
X416600Y891500D02*
X416600Y955100D01*
X444500Y863600D02*
X444500Y558800D01*
X444500Y863600D02*
X416600Y891500D01*
X393700Y952600D02*
X391200Y955100D01*
X393700Y876300D02*
X419100Y850900D01*
X419100Y558800D01*
X393700Y876300D02*
X393700Y952600D01*
X368300Y952600D02*
X365800Y955100D01*
X368300Y952600D02*
X368300Y863600D01*
X393700Y838200D01*
X393700Y558800D01*
X342900Y952600D02*
X340400Y955100D01*
X342900Y952600D02*
X342900Y850900D01*
X368300Y825500D01*
X368300Y558800D01*
X162600Y916900D02*
X162600Y955100D01*
X266700Y812800D02*
X292100Y812800D01*
X317500Y787400D01*
X317500Y558800D01*
X266700Y812800D02*
X162600Y916900D01*
X213400Y955100D02*
X215900Y952600D01*
X292100Y838200D02*
X317500Y838200D01*
X342900Y812800D01*
X342900Y558800D01*
X215900Y914400D02*
X215900Y952600D01*
X215900Y914400D02*
X292100Y838200D01*
M02*
