G04 EAGLE Gerber RS-274X export*
G75*
%MOMM*%
%FSLAX34Y34*%
%LPD*%
%INTop Copper*%
%IPPOS*%
%AMOC8*
5,1,8,0,0,1.08239X$1,22.5*%
G01*
%ADD10R,1.308000X1.308000*%
%ADD11C,1.308000*%
%ADD12C,1.879600*%
%ADD13R,1.879600X1.879600*%
%ADD14C,1.308000*%
%ADD15C,1.651000*%
%ADD16R,1.651000X1.651000*%
%ADD17R,2.032000X2.032000*%
%ADD18C,2.032000*%
%ADD19C,2.000000*%
%ADD20C,0.609600*%


D10*
X520700Y558800D03*
D11*
X495300Y558800D03*
X469900Y558800D03*
X444500Y558800D03*
X419100Y558800D03*
X393700Y558800D03*
X368300Y558800D03*
X342900Y558800D03*
X317500Y558800D03*
X292100Y558800D03*
X266700Y558800D03*
X241300Y558800D03*
X215900Y558800D03*
X190500Y558800D03*
X165100Y558800D03*
X165100Y406400D03*
X190500Y406400D03*
X215900Y406400D03*
X241300Y406400D03*
X266700Y406400D03*
X292100Y406400D03*
X317500Y406400D03*
X342900Y406400D03*
X368300Y406400D03*
X393700Y406400D03*
X419100Y406400D03*
X444500Y406400D03*
X469900Y406400D03*
X495300Y406400D03*
X520700Y406400D03*
D12*
X495300Y342900D03*
X469900Y342900D03*
X444500Y342900D03*
X419100Y342900D03*
X393700Y342900D03*
X368300Y342900D03*
X342900Y342900D03*
X317500Y342900D03*
D13*
X86400Y955100D03*
D12*
X111800Y955100D03*
X137200Y955100D03*
X162600Y955100D03*
X188000Y955100D03*
X213400Y955100D03*
X238800Y955100D03*
X264200Y955100D03*
X289600Y955100D03*
X315000Y955100D03*
X340400Y955100D03*
X365800Y955100D03*
X391200Y955100D03*
X416600Y955100D03*
X442000Y955100D03*
X467400Y955100D03*
X622300Y927100D03*
X546100Y927100D03*
X609600Y406400D03*
X609600Y381000D03*
X609600Y355600D03*
X609600Y546100D03*
X609600Y571500D03*
D14*
X76200Y224980D02*
X76200Y211900D01*
X101600Y211900D02*
X101600Y224980D01*
X127000Y224980D02*
X127000Y211900D01*
X152400Y211900D02*
X152400Y224980D01*
X177800Y224980D02*
X177800Y211900D01*
X203200Y211900D02*
X203200Y224980D01*
X228600Y224980D02*
X228600Y211900D01*
X254000Y211900D02*
X254000Y224980D01*
X254000Y338900D02*
X254000Y351980D01*
X228600Y351980D02*
X228600Y338900D01*
X203200Y338900D02*
X203200Y351980D01*
X177800Y351980D02*
X177800Y338900D01*
X152400Y338900D02*
X152400Y351980D01*
X127000Y351980D02*
X127000Y338900D01*
X101600Y338900D02*
X101600Y351980D01*
X76200Y351980D02*
X76200Y338900D01*
D12*
X114300Y127000D03*
X139700Y127000D03*
X165100Y127000D03*
X190500Y127000D03*
D13*
X723900Y482750D03*
D12*
X698500Y482750D03*
X673100Y482750D03*
D15*
X38300Y520700D03*
D16*
X63300Y520700D03*
D17*
X50800Y444500D03*
D18*
X50800Y409500D03*
D19*
X228600Y292100D03*
X342900Y292100D03*
D20*
X228600Y292100D01*
D19*
X635000Y863600D03*
X165100Y863600D03*
D20*
X635000Y863600D01*
M02*
