G04 EAGLE Gerber RS-274X export*
G75*
%MOMM*%
%FSLAX34Y34*%
%LPD*%
%IN*%
%IPPOS*%
%AMOC8*
5,1,8,0,0,1.08239X$1,22.5*%
G01*
%ADD10C,0.254000*%


D10*
X-25400Y88900D02*
X825300Y88900D01*
X825300Y1000000D01*
X-25400Y1000000D01*
X-25400Y88900D01*
X537210Y559188D02*
X537278Y559961D01*
X537412Y560726D01*
X537613Y561476D01*
X537879Y562205D01*
X538207Y562909D01*
X538595Y563581D01*
X539040Y564217D01*
X539539Y564812D01*
X540088Y565361D01*
X540683Y565860D01*
X541319Y566305D01*
X541991Y566693D01*
X542695Y567021D01*
X543424Y567287D01*
X544174Y567488D01*
X544939Y567622D01*
X545712Y567690D01*
X546488Y567690D01*
X547261Y567622D01*
X548026Y567488D01*
X548776Y567287D01*
X549505Y567021D01*
X550209Y566693D01*
X550881Y566305D01*
X551517Y565860D01*
X552112Y565361D01*
X552661Y564812D01*
X553160Y564217D01*
X553605Y563581D01*
X553993Y562909D01*
X554321Y562205D01*
X554587Y561476D01*
X554788Y560726D01*
X554922Y559961D01*
X554990Y559188D01*
X554990Y558412D01*
X554922Y557639D01*
X554788Y556874D01*
X554587Y556124D01*
X554321Y555395D01*
X553993Y554691D01*
X553605Y554019D01*
X553160Y553383D01*
X552661Y552788D01*
X552112Y552239D01*
X551517Y551740D01*
X550881Y551295D01*
X550209Y550907D01*
X549505Y550579D01*
X548776Y550313D01*
X548026Y550112D01*
X547261Y549978D01*
X546488Y549910D01*
X545712Y549910D01*
X544939Y549978D01*
X544174Y550112D01*
X543424Y550313D01*
X542695Y550579D01*
X541991Y550907D01*
X541319Y551295D01*
X540683Y551740D01*
X540088Y552239D01*
X539539Y552788D01*
X539040Y553383D01*
X538595Y554019D01*
X538207Y554691D01*
X537879Y555395D01*
X537613Y556124D01*
X537412Y556874D01*
X537278Y557639D01*
X537210Y558412D01*
X537210Y559188D01*
X537210Y406788D02*
X537278Y407561D01*
X537412Y408326D01*
X537613Y409076D01*
X537879Y409805D01*
X538207Y410509D01*
X538595Y411181D01*
X539040Y411817D01*
X539539Y412412D01*
X540088Y412961D01*
X540683Y413460D01*
X541319Y413905D01*
X541991Y414293D01*
X542695Y414621D01*
X543424Y414887D01*
X544174Y415088D01*
X544939Y415222D01*
X545712Y415290D01*
X546488Y415290D01*
X547261Y415222D01*
X548026Y415088D01*
X548776Y414887D01*
X549505Y414621D01*
X550209Y414293D01*
X550881Y413905D01*
X551517Y413460D01*
X552112Y412961D01*
X552661Y412412D01*
X553160Y411817D01*
X553605Y411181D01*
X553993Y410509D01*
X554321Y409805D01*
X554587Y409076D01*
X554788Y408326D01*
X554922Y407561D01*
X554990Y406788D01*
X554990Y406012D01*
X554922Y405239D01*
X554788Y404474D01*
X554587Y403724D01*
X554321Y402995D01*
X553993Y402291D01*
X553605Y401619D01*
X553160Y400983D01*
X552661Y400388D01*
X552112Y399839D01*
X551517Y399340D01*
X550881Y398895D01*
X550209Y398507D01*
X549505Y398179D01*
X548776Y397913D01*
X548026Y397712D01*
X547261Y397578D01*
X546488Y397510D01*
X545712Y397510D01*
X544939Y397578D01*
X544174Y397712D01*
X543424Y397913D01*
X542695Y398179D01*
X541991Y398507D01*
X541319Y398895D01*
X540683Y399340D01*
X540088Y399839D01*
X539539Y400388D01*
X539040Y400983D01*
X538595Y401619D01*
X538207Y402291D01*
X537879Y402995D01*
X537613Y403724D01*
X537412Y404474D01*
X537278Y405239D01*
X537210Y406012D01*
X537210Y406788D01*
X130810Y406788D02*
X130878Y407561D01*
X131012Y408326D01*
X131213Y409076D01*
X131479Y409805D01*
X131807Y410509D01*
X132195Y411181D01*
X132640Y411817D01*
X133139Y412412D01*
X133688Y412961D01*
X134283Y413460D01*
X134919Y413905D01*
X135591Y414293D01*
X136295Y414621D01*
X137024Y414887D01*
X137774Y415088D01*
X138539Y415222D01*
X139312Y415290D01*
X140088Y415290D01*
X140861Y415222D01*
X141626Y415088D01*
X142376Y414887D01*
X143105Y414621D01*
X143809Y414293D01*
X144481Y413905D01*
X145117Y413460D01*
X145712Y412961D01*
X146261Y412412D01*
X146760Y411817D01*
X147205Y411181D01*
X147593Y410509D01*
X147921Y409805D01*
X148187Y409076D01*
X148388Y408326D01*
X148522Y407561D01*
X148590Y406788D01*
X148590Y406012D01*
X148522Y405239D01*
X148388Y404474D01*
X148187Y403724D01*
X147921Y402995D01*
X147593Y402291D01*
X147205Y401619D01*
X146760Y400983D01*
X146261Y400388D01*
X145712Y399839D01*
X145117Y399340D01*
X144481Y398895D01*
X143809Y398507D01*
X143105Y398179D01*
X142376Y397913D01*
X141626Y397712D01*
X140861Y397578D01*
X140088Y397510D01*
X139312Y397510D01*
X138539Y397578D01*
X137774Y397712D01*
X137024Y397913D01*
X136295Y398179D01*
X135591Y398507D01*
X134919Y398895D01*
X134283Y399340D01*
X133688Y399839D01*
X133139Y400388D01*
X132640Y400983D01*
X132195Y401619D01*
X131807Y402291D01*
X131479Y402995D01*
X131213Y403724D01*
X131012Y404474D01*
X130878Y405239D01*
X130810Y406012D01*
X130810Y406788D01*
X130810Y559188D02*
X130878Y559961D01*
X131012Y560726D01*
X131213Y561476D01*
X131479Y562205D01*
X131807Y562909D01*
X132195Y563581D01*
X132640Y564217D01*
X133139Y564812D01*
X133688Y565361D01*
X134283Y565860D01*
X134919Y566305D01*
X135591Y566693D01*
X136295Y567021D01*
X137024Y567287D01*
X137774Y567488D01*
X138539Y567622D01*
X139312Y567690D01*
X140088Y567690D01*
X140861Y567622D01*
X141626Y567488D01*
X142376Y567287D01*
X143105Y567021D01*
X143809Y566693D01*
X144481Y566305D01*
X145117Y565860D01*
X145712Y565361D01*
X146261Y564812D01*
X146760Y564217D01*
X147205Y563581D01*
X147593Y562909D01*
X147921Y562205D01*
X148187Y561476D01*
X148388Y560726D01*
X148522Y559961D01*
X148590Y559188D01*
X148590Y558412D01*
X148522Y557639D01*
X148388Y556874D01*
X148187Y556124D01*
X147921Y555395D01*
X147593Y554691D01*
X147205Y554019D01*
X146760Y553383D01*
X146261Y552788D01*
X145712Y552239D01*
X145117Y551740D01*
X144481Y551295D01*
X143809Y550907D01*
X143105Y550579D01*
X142376Y550313D01*
X141626Y550112D01*
X140861Y549978D01*
X140088Y549910D01*
X139312Y549910D01*
X138539Y549978D01*
X137774Y550112D01*
X137024Y550313D01*
X136295Y550579D01*
X135591Y550907D01*
X134919Y551295D01*
X134283Y551740D01*
X133688Y552239D01*
X133139Y552788D01*
X132640Y553383D01*
X132195Y554019D01*
X131807Y554691D01*
X131479Y555395D01*
X131213Y556124D01*
X131012Y556874D01*
X130878Y557639D01*
X130810Y558412D01*
X130810Y559188D01*
X45400Y954600D02*
X45329Y953603D01*
X45186Y952613D01*
X44974Y951636D01*
X44692Y950676D01*
X44343Y949739D01*
X43927Y948829D01*
X43448Y947952D01*
X42907Y947110D01*
X42308Y946310D01*
X41653Y945554D01*
X40946Y944847D01*
X40190Y944192D01*
X39390Y943593D01*
X38548Y943052D01*
X37671Y942573D01*
X36761Y942157D01*
X35824Y941808D01*
X34865Y941526D01*
X33887Y941314D01*
X32898Y941171D01*
X31900Y941100D01*
X30900Y941100D01*
X29903Y941171D01*
X28913Y941314D01*
X27936Y941526D01*
X26976Y941808D01*
X26039Y942157D01*
X25129Y942573D01*
X24252Y943052D01*
X23410Y943593D01*
X22610Y944192D01*
X21854Y944847D01*
X21147Y945554D01*
X20492Y946310D01*
X19893Y947110D01*
X19352Y947952D01*
X18873Y948829D01*
X18457Y949739D01*
X18108Y950676D01*
X17826Y951636D01*
X17614Y952613D01*
X17471Y953603D01*
X17400Y954600D01*
X17400Y955600D01*
X17471Y956598D01*
X17614Y957587D01*
X17826Y958565D01*
X18108Y959524D01*
X18457Y960461D01*
X18873Y961371D01*
X19352Y962248D01*
X19893Y963090D01*
X20492Y963890D01*
X21147Y964646D01*
X21854Y965353D01*
X22610Y966008D01*
X23410Y966607D01*
X24252Y967148D01*
X25129Y967627D01*
X26039Y968043D01*
X26976Y968392D01*
X27936Y968674D01*
X28913Y968886D01*
X29903Y969029D01*
X30900Y969100D01*
X31900Y969100D01*
X32898Y969029D01*
X33887Y968886D01*
X34865Y968674D01*
X35824Y968392D01*
X36761Y968043D01*
X37671Y967627D01*
X38548Y967148D01*
X39390Y966607D01*
X40190Y966008D01*
X40946Y965353D01*
X41653Y964646D01*
X42308Y963890D01*
X42907Y963090D01*
X43448Y962248D01*
X43927Y961371D01*
X44343Y960461D01*
X44692Y959524D01*
X44974Y958565D01*
X45186Y957587D01*
X45329Y956598D01*
X45400Y955600D01*
X45400Y954600D01*
X45400Y644600D02*
X45329Y643603D01*
X45186Y642613D01*
X44974Y641636D01*
X44692Y640676D01*
X44343Y639739D01*
X43927Y638829D01*
X43448Y637952D01*
X42907Y637110D01*
X42308Y636310D01*
X41653Y635554D01*
X40946Y634847D01*
X40190Y634192D01*
X39390Y633593D01*
X38548Y633052D01*
X37671Y632573D01*
X36761Y632157D01*
X35824Y631808D01*
X34865Y631526D01*
X33887Y631314D01*
X32898Y631171D01*
X31900Y631100D01*
X30900Y631100D01*
X29903Y631171D01*
X28913Y631314D01*
X27936Y631526D01*
X26976Y631808D01*
X26039Y632157D01*
X25129Y632573D01*
X24252Y633052D01*
X23410Y633593D01*
X22610Y634192D01*
X21854Y634847D01*
X21147Y635554D01*
X20492Y636310D01*
X19893Y637110D01*
X19352Y637952D01*
X18873Y638829D01*
X18457Y639739D01*
X18108Y640676D01*
X17826Y641636D01*
X17614Y642613D01*
X17471Y643603D01*
X17400Y644600D01*
X17400Y645600D01*
X17471Y646598D01*
X17614Y647587D01*
X17826Y648565D01*
X18108Y649524D01*
X18457Y650461D01*
X18873Y651371D01*
X19352Y652248D01*
X19893Y653090D01*
X20492Y653890D01*
X21147Y654646D01*
X21854Y655353D01*
X22610Y656008D01*
X23410Y656607D01*
X24252Y657148D01*
X25129Y657627D01*
X26039Y658043D01*
X26976Y658392D01*
X27936Y658674D01*
X28913Y658886D01*
X29903Y659029D01*
X30900Y659100D01*
X31900Y659100D01*
X32898Y659029D01*
X33887Y658886D01*
X34865Y658674D01*
X35824Y658392D01*
X36761Y658043D01*
X37671Y657627D01*
X38548Y657148D01*
X39390Y656607D01*
X40190Y656008D01*
X40946Y655353D01*
X41653Y654646D01*
X42308Y653890D01*
X42907Y653090D01*
X43448Y652248D01*
X43927Y651371D01*
X44343Y650461D01*
X44692Y649524D01*
X44974Y648565D01*
X45186Y647587D01*
X45329Y646598D01*
X45400Y645600D01*
X45400Y644600D01*
X795400Y954600D02*
X795329Y953603D01*
X795186Y952613D01*
X794974Y951636D01*
X794692Y950676D01*
X794343Y949739D01*
X793927Y948829D01*
X793448Y947952D01*
X792907Y947110D01*
X792308Y946310D01*
X791653Y945554D01*
X790946Y944847D01*
X790190Y944192D01*
X789390Y943593D01*
X788548Y943052D01*
X787671Y942573D01*
X786761Y942157D01*
X785824Y941808D01*
X784865Y941526D01*
X783887Y941314D01*
X782898Y941171D01*
X781900Y941100D01*
X780900Y941100D01*
X779903Y941171D01*
X778913Y941314D01*
X777936Y941526D01*
X776976Y941808D01*
X776039Y942157D01*
X775129Y942573D01*
X774252Y943052D01*
X773410Y943593D01*
X772610Y944192D01*
X771854Y944847D01*
X771147Y945554D01*
X770492Y946310D01*
X769893Y947110D01*
X769352Y947952D01*
X768873Y948829D01*
X768457Y949739D01*
X768108Y950676D01*
X767826Y951636D01*
X767614Y952613D01*
X767471Y953603D01*
X767400Y954600D01*
X767400Y955600D01*
X767471Y956598D01*
X767614Y957587D01*
X767826Y958565D01*
X768108Y959524D01*
X768457Y960461D01*
X768873Y961371D01*
X769352Y962248D01*
X769893Y963090D01*
X770492Y963890D01*
X771147Y964646D01*
X771854Y965353D01*
X772610Y966008D01*
X773410Y966607D01*
X774252Y967148D01*
X775129Y967627D01*
X776039Y968043D01*
X776976Y968392D01*
X777936Y968674D01*
X778913Y968886D01*
X779903Y969029D01*
X780900Y969100D01*
X781900Y969100D01*
X782898Y969029D01*
X783887Y968886D01*
X784865Y968674D01*
X785824Y968392D01*
X786761Y968043D01*
X787671Y967627D01*
X788548Y967148D01*
X789390Y966607D01*
X790190Y966008D01*
X790946Y965353D01*
X791653Y964646D01*
X792308Y963890D01*
X792907Y963090D01*
X793448Y962248D01*
X793927Y961371D01*
X794343Y960461D01*
X794692Y959524D01*
X794974Y958565D01*
X795186Y957587D01*
X795329Y956598D01*
X795400Y955600D01*
X795400Y954600D01*
X795400Y644600D02*
X795329Y643603D01*
X795186Y642613D01*
X794974Y641636D01*
X794692Y640676D01*
X794343Y639739D01*
X793927Y638829D01*
X793448Y637952D01*
X792907Y637110D01*
X792308Y636310D01*
X791653Y635554D01*
X790946Y634847D01*
X790190Y634192D01*
X789390Y633593D01*
X788548Y633052D01*
X787671Y632573D01*
X786761Y632157D01*
X785824Y631808D01*
X784865Y631526D01*
X783887Y631314D01*
X782898Y631171D01*
X781900Y631100D01*
X780900Y631100D01*
X779903Y631171D01*
X778913Y631314D01*
X777936Y631526D01*
X776976Y631808D01*
X776039Y632157D01*
X775129Y632573D01*
X774252Y633052D01*
X773410Y633593D01*
X772610Y634192D01*
X771854Y634847D01*
X771147Y635554D01*
X770492Y636310D01*
X769893Y637110D01*
X769352Y637952D01*
X768873Y638829D01*
X768457Y639739D01*
X768108Y640676D01*
X767826Y641636D01*
X767614Y642613D01*
X767471Y643603D01*
X767400Y644600D01*
X767400Y645600D01*
X767471Y646598D01*
X767614Y647587D01*
X767826Y648565D01*
X768108Y649524D01*
X768457Y650461D01*
X768873Y651371D01*
X769352Y652248D01*
X769893Y653090D01*
X770492Y653890D01*
X771147Y654646D01*
X771854Y655353D01*
X772610Y656008D01*
X773410Y656607D01*
X774252Y657148D01*
X775129Y657627D01*
X776039Y658043D01*
X776976Y658392D01*
X777936Y658674D01*
X778913Y658886D01*
X779903Y659029D01*
X780900Y659100D01*
X781900Y659100D01*
X782898Y659029D01*
X783887Y658886D01*
X784865Y658674D01*
X785824Y658392D01*
X786761Y658043D01*
X787671Y657627D01*
X788548Y657148D01*
X789390Y656607D01*
X790190Y656008D01*
X790946Y655353D01*
X791653Y654646D01*
X792308Y653890D01*
X792907Y653090D01*
X793448Y652248D01*
X793927Y651371D01*
X794343Y650461D01*
X794692Y649524D01*
X794974Y648565D01*
X795186Y647587D01*
X795329Y646598D01*
X795400Y645600D01*
X795400Y644600D01*
M02*
