G04 EAGLE Gerber RS-274X export*
G75*
%MOMM*%
%FSLAX34Y34*%
%LPD*%
%INSilkscreen Top*%
%IPPOS*%
%AMOC8*
5,1,8,0,0,1.08239X$1,22.5*%
G01*
%ADD10C,0.127000*%
%ADD11C,0.076200*%
%ADD12C,0.050800*%
%ADD13C,0.101600*%
%ADD14C,0.203200*%
%ADD15C,0.406400*%


D10*
X558800Y393700D02*
X127000Y393700D01*
X127000Y444500D01*
X127000Y520700D01*
X127000Y571500D01*
X558800Y571500D01*
X558800Y457200D01*
X558800Y393700D01*
X558800Y457200D02*
X571500Y457200D01*
X571500Y508000D01*
X508000Y508000D02*
X508000Y457200D01*
X558800Y457200D01*
X571500Y508000D02*
X508000Y508000D01*
X299539Y482600D02*
X299544Y483041D01*
X299561Y483481D01*
X299588Y483921D01*
X299625Y484360D01*
X299674Y484799D01*
X299733Y485235D01*
X299803Y485671D01*
X299884Y486104D01*
X299975Y486535D01*
X300077Y486964D01*
X300190Y487390D01*
X300312Y487814D01*
X300446Y488234D01*
X300589Y488651D01*
X300743Y489064D01*
X300906Y489473D01*
X301080Y489879D01*
X301263Y490279D01*
X301457Y490675D01*
X301660Y491067D01*
X301872Y491453D01*
X302094Y491834D01*
X302326Y492209D01*
X302566Y492579D01*
X302815Y492942D01*
X303074Y493299D01*
X303341Y493650D01*
X303616Y493994D01*
X303900Y494332D01*
X304192Y494662D01*
X304492Y494985D01*
X304800Y495300D01*
X305115Y495608D01*
X305438Y495908D01*
X305768Y496200D01*
X306106Y496484D01*
X306450Y496759D01*
X306801Y497026D01*
X307158Y497285D01*
X307521Y497534D01*
X307891Y497774D01*
X308266Y498006D01*
X308647Y498228D01*
X309033Y498440D01*
X309425Y498643D01*
X309821Y498837D01*
X310221Y499020D01*
X310627Y499194D01*
X311036Y499357D01*
X311449Y499511D01*
X311866Y499654D01*
X312286Y499788D01*
X312710Y499910D01*
X313136Y500023D01*
X313565Y500125D01*
X313996Y500216D01*
X314429Y500297D01*
X314865Y500367D01*
X315301Y500426D01*
X315740Y500475D01*
X316179Y500512D01*
X316619Y500539D01*
X317059Y500556D01*
X317500Y500561D01*
X317941Y500556D01*
X318381Y500539D01*
X318821Y500512D01*
X319260Y500475D01*
X319699Y500426D01*
X320135Y500367D01*
X320571Y500297D01*
X321004Y500216D01*
X321435Y500125D01*
X321864Y500023D01*
X322290Y499910D01*
X322714Y499788D01*
X323134Y499654D01*
X323551Y499511D01*
X323964Y499357D01*
X324373Y499194D01*
X324779Y499020D01*
X325179Y498837D01*
X325575Y498643D01*
X325967Y498440D01*
X326353Y498228D01*
X326734Y498006D01*
X327109Y497774D01*
X327479Y497534D01*
X327842Y497285D01*
X328199Y497026D01*
X328550Y496759D01*
X328894Y496484D01*
X329232Y496200D01*
X329562Y495908D01*
X329885Y495608D01*
X330200Y495300D01*
X330508Y494985D01*
X330808Y494662D01*
X331100Y494332D01*
X331384Y493994D01*
X331659Y493650D01*
X331926Y493299D01*
X332185Y492942D01*
X332434Y492579D01*
X332674Y492209D01*
X332906Y491834D01*
X333128Y491453D01*
X333340Y491067D01*
X333543Y490675D01*
X333737Y490279D01*
X333920Y489879D01*
X334094Y489473D01*
X334257Y489064D01*
X334411Y488651D01*
X334554Y488234D01*
X334688Y487814D01*
X334810Y487390D01*
X334923Y486964D01*
X335025Y486535D01*
X335116Y486104D01*
X335197Y485671D01*
X335267Y485235D01*
X335326Y484799D01*
X335375Y484360D01*
X335412Y483921D01*
X335439Y483481D01*
X335456Y483041D01*
X335461Y482600D01*
X335456Y482159D01*
X335439Y481719D01*
X335412Y481279D01*
X335375Y480840D01*
X335326Y480401D01*
X335267Y479965D01*
X335197Y479529D01*
X335116Y479096D01*
X335025Y478665D01*
X334923Y478236D01*
X334810Y477810D01*
X334688Y477386D01*
X334554Y476966D01*
X334411Y476549D01*
X334257Y476136D01*
X334094Y475727D01*
X333920Y475321D01*
X333737Y474921D01*
X333543Y474525D01*
X333340Y474133D01*
X333128Y473747D01*
X332906Y473366D01*
X332674Y472991D01*
X332434Y472621D01*
X332185Y472258D01*
X331926Y471901D01*
X331659Y471550D01*
X331384Y471206D01*
X331100Y470868D01*
X330808Y470538D01*
X330508Y470215D01*
X330200Y469900D01*
X329885Y469592D01*
X329562Y469292D01*
X329232Y469000D01*
X328894Y468716D01*
X328550Y468441D01*
X328199Y468174D01*
X327842Y467915D01*
X327479Y467666D01*
X327109Y467426D01*
X326734Y467194D01*
X326353Y466972D01*
X325967Y466760D01*
X325575Y466557D01*
X325179Y466363D01*
X324779Y466180D01*
X324373Y466006D01*
X323964Y465843D01*
X323551Y465689D01*
X323134Y465546D01*
X322714Y465412D01*
X322290Y465290D01*
X321864Y465177D01*
X321435Y465075D01*
X321004Y464984D01*
X320571Y464903D01*
X320135Y464833D01*
X319699Y464774D01*
X319260Y464725D01*
X318821Y464688D01*
X318381Y464661D01*
X317941Y464644D01*
X317500Y464639D01*
X317059Y464644D01*
X316619Y464661D01*
X316179Y464688D01*
X315740Y464725D01*
X315301Y464774D01*
X314865Y464833D01*
X314429Y464903D01*
X313996Y464984D01*
X313565Y465075D01*
X313136Y465177D01*
X312710Y465290D01*
X312286Y465412D01*
X311866Y465546D01*
X311449Y465689D01*
X311036Y465843D01*
X310627Y466006D01*
X310221Y466180D01*
X309821Y466363D01*
X309425Y466557D01*
X309033Y466760D01*
X308647Y466972D01*
X308266Y467194D01*
X307891Y467426D01*
X307521Y467666D01*
X307158Y467915D01*
X306801Y468174D01*
X306450Y468441D01*
X306106Y468716D01*
X305768Y469000D01*
X305438Y469292D01*
X305115Y469592D01*
X304800Y469900D01*
X304492Y470215D01*
X304192Y470538D01*
X303900Y470868D01*
X303616Y471206D01*
X303341Y471550D01*
X303074Y471901D01*
X302815Y472258D01*
X302566Y472621D01*
X302326Y472991D01*
X302094Y473366D01*
X301872Y473747D01*
X301660Y474133D01*
X301457Y474525D01*
X301263Y474921D01*
X301080Y475321D01*
X300906Y475727D01*
X300743Y476136D01*
X300589Y476549D01*
X300446Y476966D01*
X300312Y477386D01*
X300190Y477810D01*
X300077Y478236D01*
X299975Y478665D01*
X299884Y479096D01*
X299803Y479529D01*
X299733Y479965D01*
X299674Y480401D01*
X299625Y480840D01*
X299588Y481279D01*
X299561Y481719D01*
X299544Y482159D01*
X299539Y482600D01*
D11*
X287147Y466889D02*
X279781Y466889D01*
X279781Y468935D01*
X279783Y469024D01*
X279789Y469113D01*
X279799Y469202D01*
X279812Y469290D01*
X279829Y469378D01*
X279851Y469465D01*
X279876Y469550D01*
X279904Y469635D01*
X279937Y469718D01*
X279973Y469800D01*
X280012Y469880D01*
X280055Y469958D01*
X280101Y470034D01*
X280151Y470109D01*
X280204Y470181D01*
X280260Y470250D01*
X280319Y470317D01*
X280380Y470382D01*
X280445Y470443D01*
X280512Y470502D01*
X280581Y470558D01*
X280653Y470611D01*
X280728Y470661D01*
X280804Y470707D01*
X280882Y470750D01*
X280962Y470789D01*
X281044Y470825D01*
X281127Y470858D01*
X281212Y470886D01*
X281297Y470911D01*
X281384Y470933D01*
X281472Y470950D01*
X281560Y470963D01*
X281649Y470973D01*
X281738Y470979D01*
X281827Y470981D01*
X281916Y470979D01*
X282005Y470973D01*
X282094Y470963D01*
X282182Y470950D01*
X282270Y470933D01*
X282357Y470911D01*
X282442Y470886D01*
X282527Y470858D01*
X282610Y470825D01*
X282692Y470789D01*
X282772Y470750D01*
X282850Y470707D01*
X282926Y470661D01*
X283001Y470611D01*
X283073Y470558D01*
X283142Y470502D01*
X283209Y470443D01*
X283274Y470382D01*
X283335Y470317D01*
X283394Y470250D01*
X283450Y470181D01*
X283503Y470109D01*
X283553Y470034D01*
X283599Y469958D01*
X283642Y469880D01*
X283681Y469800D01*
X283717Y469718D01*
X283750Y469635D01*
X283778Y469550D01*
X283803Y469465D01*
X283825Y469378D01*
X283842Y469290D01*
X283855Y469202D01*
X283865Y469113D01*
X283871Y469024D01*
X283873Y468935D01*
X283873Y466889D01*
X283873Y469344D02*
X287147Y470981D01*
X287147Y475302D02*
X287147Y477348D01*
X287147Y475302D02*
X287145Y475233D01*
X287139Y475165D01*
X287130Y475096D01*
X287116Y475029D01*
X287099Y474962D01*
X287078Y474896D01*
X287054Y474832D01*
X287025Y474769D01*
X286994Y474708D01*
X286959Y474649D01*
X286921Y474591D01*
X286879Y474536D01*
X286835Y474484D01*
X286787Y474434D01*
X286737Y474386D01*
X286685Y474342D01*
X286630Y474301D01*
X286572Y474262D01*
X286513Y474227D01*
X286452Y474196D01*
X286389Y474167D01*
X286325Y474143D01*
X286259Y474122D01*
X286192Y474105D01*
X286125Y474091D01*
X286057Y474082D01*
X285988Y474076D01*
X285919Y474074D01*
X285919Y474075D02*
X283873Y474075D01*
X283873Y474074D02*
X283794Y474076D01*
X283715Y474082D01*
X283636Y474091D01*
X283558Y474104D01*
X283481Y474122D01*
X283405Y474142D01*
X283330Y474167D01*
X283256Y474195D01*
X283183Y474226D01*
X283112Y474262D01*
X283043Y474300D01*
X282976Y474342D01*
X282911Y474387D01*
X282848Y474435D01*
X282787Y474486D01*
X282730Y474540D01*
X282674Y474596D01*
X282622Y474655D01*
X282572Y474717D01*
X282526Y474781D01*
X282482Y474847D01*
X282442Y474915D01*
X282406Y474985D01*
X282372Y475057D01*
X282342Y475131D01*
X282316Y475205D01*
X282293Y475281D01*
X282275Y475358D01*
X282259Y475435D01*
X282248Y475514D01*
X282240Y475592D01*
X282236Y475671D01*
X282236Y475751D01*
X282240Y475830D01*
X282248Y475908D01*
X282259Y475987D01*
X282275Y476064D01*
X282293Y476141D01*
X282316Y476217D01*
X282342Y476291D01*
X282372Y476365D01*
X282406Y476437D01*
X282442Y476507D01*
X282482Y476575D01*
X282526Y476641D01*
X282572Y476705D01*
X282622Y476767D01*
X282674Y476826D01*
X282730Y476882D01*
X282787Y476936D01*
X282848Y476987D01*
X282911Y477035D01*
X282976Y477080D01*
X283043Y477122D01*
X283112Y477160D01*
X283183Y477196D01*
X283256Y477227D01*
X283330Y477255D01*
X283405Y477280D01*
X283481Y477300D01*
X283558Y477318D01*
X283636Y477331D01*
X283715Y477340D01*
X283794Y477346D01*
X283873Y477348D01*
X284692Y477348D01*
X284692Y474075D01*
X284282Y481028D02*
X285101Y483074D01*
X284282Y481028D02*
X284257Y480969D01*
X284228Y480912D01*
X284195Y480857D01*
X284159Y480804D01*
X284121Y480753D01*
X284079Y480705D01*
X284034Y480659D01*
X283987Y480616D01*
X283937Y480576D01*
X283885Y480539D01*
X283830Y480505D01*
X283774Y480474D01*
X283716Y480447D01*
X283656Y480424D01*
X283596Y480404D01*
X283534Y480388D01*
X283471Y480375D01*
X283407Y480367D01*
X283344Y480362D01*
X283280Y480361D01*
X283216Y480364D01*
X283152Y480371D01*
X283089Y480382D01*
X283027Y480396D01*
X282965Y480414D01*
X282905Y480436D01*
X282846Y480461D01*
X282789Y480490D01*
X282734Y480523D01*
X282681Y480558D01*
X282630Y480597D01*
X282581Y480639D01*
X282535Y480683D01*
X282492Y480731D01*
X282452Y480780D01*
X282415Y480833D01*
X282381Y480887D01*
X282350Y480943D01*
X282323Y481001D01*
X282299Y481060D01*
X282280Y481121D01*
X282263Y481183D01*
X282251Y481246D01*
X282242Y481309D01*
X282237Y481373D01*
X282236Y481437D01*
X282240Y481573D01*
X282248Y481708D01*
X282260Y481844D01*
X282276Y481978D01*
X282296Y482113D01*
X282319Y482246D01*
X282347Y482379D01*
X282378Y482511D01*
X282413Y482642D01*
X282452Y482772D01*
X282495Y482901D01*
X282542Y483028D01*
X282592Y483154D01*
X282646Y483279D01*
X285101Y483074D02*
X285126Y483133D01*
X285155Y483190D01*
X285188Y483245D01*
X285224Y483298D01*
X285262Y483349D01*
X285304Y483397D01*
X285349Y483443D01*
X285396Y483486D01*
X285446Y483526D01*
X285498Y483563D01*
X285553Y483597D01*
X285609Y483628D01*
X285667Y483655D01*
X285727Y483678D01*
X285787Y483698D01*
X285849Y483714D01*
X285912Y483727D01*
X285976Y483735D01*
X286039Y483740D01*
X286103Y483741D01*
X286167Y483738D01*
X286231Y483731D01*
X286294Y483720D01*
X286356Y483706D01*
X286418Y483688D01*
X286478Y483666D01*
X286537Y483641D01*
X286594Y483612D01*
X286649Y483579D01*
X286702Y483544D01*
X286753Y483505D01*
X286802Y483463D01*
X286848Y483419D01*
X286891Y483371D01*
X286931Y483322D01*
X286968Y483269D01*
X287002Y483215D01*
X287033Y483159D01*
X287060Y483101D01*
X287084Y483042D01*
X287103Y482981D01*
X287120Y482919D01*
X287132Y482856D01*
X287141Y482793D01*
X287146Y482729D01*
X287147Y482665D01*
X287143Y482501D01*
X287135Y482337D01*
X287123Y482173D01*
X287107Y482010D01*
X287087Y481847D01*
X287064Y481684D01*
X287036Y481523D01*
X287005Y481361D01*
X286970Y481201D01*
X286931Y481042D01*
X286888Y480883D01*
X286842Y480726D01*
X286792Y480569D01*
X286738Y480414D01*
X287147Y487982D02*
X287147Y490028D01*
X287147Y487982D02*
X287145Y487913D01*
X287139Y487845D01*
X287130Y487776D01*
X287116Y487709D01*
X287099Y487642D01*
X287078Y487576D01*
X287054Y487512D01*
X287025Y487449D01*
X286994Y487388D01*
X286959Y487329D01*
X286921Y487271D01*
X286879Y487216D01*
X286835Y487164D01*
X286787Y487114D01*
X286737Y487066D01*
X286685Y487022D01*
X286630Y486981D01*
X286572Y486942D01*
X286513Y486907D01*
X286452Y486876D01*
X286389Y486847D01*
X286325Y486823D01*
X286259Y486802D01*
X286192Y486785D01*
X286125Y486771D01*
X286057Y486762D01*
X285988Y486756D01*
X285919Y486754D01*
X283873Y486754D01*
X283794Y486756D01*
X283715Y486762D01*
X283636Y486771D01*
X283558Y486784D01*
X283481Y486802D01*
X283405Y486822D01*
X283330Y486847D01*
X283256Y486875D01*
X283183Y486906D01*
X283112Y486942D01*
X283043Y486980D01*
X282976Y487022D01*
X282911Y487067D01*
X282848Y487115D01*
X282787Y487166D01*
X282730Y487220D01*
X282674Y487276D01*
X282622Y487335D01*
X282572Y487397D01*
X282526Y487461D01*
X282482Y487527D01*
X282442Y487595D01*
X282406Y487665D01*
X282372Y487737D01*
X282342Y487811D01*
X282316Y487885D01*
X282293Y487961D01*
X282275Y488038D01*
X282259Y488115D01*
X282248Y488194D01*
X282240Y488272D01*
X282236Y488351D01*
X282236Y488431D01*
X282240Y488510D01*
X282248Y488588D01*
X282259Y488667D01*
X282275Y488744D01*
X282293Y488821D01*
X282316Y488897D01*
X282342Y488971D01*
X282372Y489045D01*
X282406Y489117D01*
X282442Y489187D01*
X282482Y489255D01*
X282526Y489321D01*
X282572Y489385D01*
X282622Y489447D01*
X282674Y489506D01*
X282730Y489562D01*
X282787Y489616D01*
X282848Y489667D01*
X282911Y489715D01*
X282976Y489760D01*
X283043Y489802D01*
X283112Y489840D01*
X283183Y489876D01*
X283256Y489907D01*
X283330Y489935D01*
X283405Y489960D01*
X283481Y489980D01*
X283558Y489998D01*
X283636Y490011D01*
X283715Y490020D01*
X283794Y490026D01*
X283873Y490028D01*
X284692Y490028D01*
X284692Y486754D01*
X282236Y492464D02*
X282236Y494919D01*
X279781Y493282D02*
X285919Y493282D01*
X285988Y493284D01*
X286056Y493290D01*
X286125Y493299D01*
X286192Y493313D01*
X286259Y493330D01*
X286325Y493351D01*
X286389Y493375D01*
X286452Y493404D01*
X286513Y493435D01*
X286572Y493470D01*
X286630Y493508D01*
X286685Y493550D01*
X286737Y493594D01*
X286787Y493642D01*
X286835Y493692D01*
X286879Y493744D01*
X286921Y493799D01*
X286959Y493857D01*
X286994Y493916D01*
X287025Y493977D01*
X287054Y494040D01*
X287078Y494104D01*
X287099Y494170D01*
X287116Y494237D01*
X287130Y494304D01*
X287139Y494373D01*
X287145Y494441D01*
X287147Y494510D01*
X287147Y494919D01*
X515098Y543631D02*
X517708Y545719D01*
X517708Y536321D01*
X515098Y536321D02*
X520319Y536321D01*
D12*
X495554Y450342D02*
X495554Y444754D01*
X497417Y447238D02*
X495554Y450342D01*
X497417Y447238D02*
X499279Y450342D01*
X499279Y444754D01*
X501806Y444754D02*
X501806Y448479D01*
X501651Y450032D02*
X501651Y450342D01*
X501961Y450342D01*
X501961Y450032D01*
X501651Y450032D01*
X504222Y448479D02*
X504222Y444754D01*
X504222Y448479D02*
X505774Y448479D01*
X505832Y448477D01*
X505891Y448472D01*
X505948Y448463D01*
X506006Y448450D01*
X506062Y448433D01*
X506117Y448414D01*
X506170Y448390D01*
X506223Y448364D01*
X506273Y448334D01*
X506321Y448301D01*
X506367Y448265D01*
X506411Y448227D01*
X506453Y448185D01*
X506491Y448141D01*
X506527Y448095D01*
X506560Y448047D01*
X506590Y447997D01*
X506616Y447944D01*
X506640Y447891D01*
X506659Y447836D01*
X506676Y447780D01*
X506689Y447722D01*
X506698Y447665D01*
X506703Y447606D01*
X506705Y447548D01*
X506705Y444754D01*
X509121Y444754D02*
X509121Y448479D01*
X508966Y450032D02*
X508966Y450342D01*
X509276Y450342D01*
X509276Y450032D01*
X508966Y450032D01*
X511464Y446927D02*
X515190Y446927D01*
X517893Y447858D02*
X519445Y447858D01*
X519522Y447856D01*
X519600Y447850D01*
X519676Y447841D01*
X519753Y447827D01*
X519828Y447810D01*
X519902Y447789D01*
X519976Y447764D01*
X520048Y447736D01*
X520118Y447704D01*
X520187Y447669D01*
X520254Y447630D01*
X520319Y447588D01*
X520382Y447543D01*
X520443Y447495D01*
X520501Y447444D01*
X520556Y447390D01*
X520609Y447333D01*
X520658Y447274D01*
X520705Y447212D01*
X520749Y447148D01*
X520789Y447082D01*
X520826Y447014D01*
X520860Y446944D01*
X520890Y446873D01*
X520916Y446800D01*
X520939Y446726D01*
X520958Y446651D01*
X520973Y446576D01*
X520985Y446499D01*
X520993Y446422D01*
X520997Y446345D01*
X520997Y446267D01*
X520993Y446190D01*
X520985Y446113D01*
X520973Y446036D01*
X520958Y445961D01*
X520939Y445886D01*
X520916Y445812D01*
X520890Y445739D01*
X520860Y445668D01*
X520826Y445598D01*
X520789Y445530D01*
X520749Y445464D01*
X520705Y445400D01*
X520658Y445338D01*
X520609Y445279D01*
X520556Y445222D01*
X520501Y445168D01*
X520443Y445117D01*
X520382Y445069D01*
X520319Y445024D01*
X520254Y444982D01*
X520187Y444943D01*
X520118Y444908D01*
X520048Y444876D01*
X519976Y444848D01*
X519902Y444823D01*
X519828Y444802D01*
X519753Y444785D01*
X519676Y444771D01*
X519600Y444762D01*
X519522Y444756D01*
X519445Y444754D01*
X517893Y444754D01*
X517893Y450342D01*
X519445Y450342D01*
X519515Y450340D01*
X519584Y450334D01*
X519653Y450324D01*
X519721Y450311D01*
X519789Y450293D01*
X519855Y450272D01*
X519920Y450247D01*
X519984Y450219D01*
X520046Y450187D01*
X520106Y450152D01*
X520164Y450113D01*
X520219Y450071D01*
X520273Y450026D01*
X520323Y449978D01*
X520371Y449928D01*
X520416Y449874D01*
X520458Y449819D01*
X520497Y449761D01*
X520532Y449701D01*
X520564Y449639D01*
X520592Y449575D01*
X520617Y449510D01*
X520638Y449444D01*
X520656Y449376D01*
X520669Y449308D01*
X520679Y449239D01*
X520685Y449170D01*
X520687Y449100D01*
X520685Y449030D01*
X520679Y448961D01*
X520669Y448892D01*
X520656Y448824D01*
X520638Y448756D01*
X520617Y448690D01*
X520592Y448625D01*
X520564Y448561D01*
X520532Y448499D01*
X520497Y448439D01*
X520458Y448381D01*
X520416Y448326D01*
X520371Y448272D01*
X520323Y448222D01*
X520273Y448174D01*
X520219Y448129D01*
X520164Y448087D01*
X520106Y448048D01*
X520046Y448013D01*
X519984Y447981D01*
X519920Y447953D01*
X519855Y447928D01*
X519789Y447907D01*
X519721Y447889D01*
X519653Y447876D01*
X519584Y447866D01*
X519515Y447860D01*
X519445Y447858D01*
X526222Y446306D02*
X526222Y450342D01*
X526222Y446306D02*
X526224Y446229D01*
X526230Y446151D01*
X526239Y446075D01*
X526253Y445998D01*
X526270Y445923D01*
X526291Y445849D01*
X526316Y445775D01*
X526344Y445703D01*
X526376Y445633D01*
X526411Y445564D01*
X526450Y445497D01*
X526492Y445432D01*
X526537Y445369D01*
X526585Y445308D01*
X526636Y445250D01*
X526690Y445195D01*
X526747Y445142D01*
X526806Y445093D01*
X526868Y445046D01*
X526932Y445002D01*
X526998Y444962D01*
X527066Y444925D01*
X527136Y444891D01*
X527207Y444861D01*
X527280Y444835D01*
X527354Y444812D01*
X527429Y444793D01*
X527504Y444778D01*
X527581Y444766D01*
X527658Y444758D01*
X527735Y444754D01*
X527813Y444754D01*
X527890Y444758D01*
X527967Y444766D01*
X528044Y444778D01*
X528119Y444793D01*
X528194Y444812D01*
X528268Y444835D01*
X528341Y444861D01*
X528412Y444891D01*
X528482Y444925D01*
X528550Y444962D01*
X528616Y445002D01*
X528680Y445046D01*
X528742Y445093D01*
X528801Y445142D01*
X528858Y445195D01*
X528912Y445250D01*
X528963Y445308D01*
X529011Y445369D01*
X529056Y445432D01*
X529098Y445497D01*
X529137Y445564D01*
X529172Y445633D01*
X529204Y445703D01*
X529232Y445775D01*
X529257Y445849D01*
X529278Y445923D01*
X529295Y445998D01*
X529309Y446075D01*
X529318Y446151D01*
X529324Y446229D01*
X529326Y446306D01*
X529327Y446306D02*
X529327Y450342D01*
X534813Y445996D02*
X534811Y445926D01*
X534805Y445857D01*
X534795Y445788D01*
X534782Y445720D01*
X534764Y445652D01*
X534743Y445586D01*
X534718Y445521D01*
X534690Y445457D01*
X534658Y445395D01*
X534623Y445335D01*
X534584Y445277D01*
X534542Y445222D01*
X534497Y445168D01*
X534449Y445118D01*
X534399Y445070D01*
X534345Y445025D01*
X534290Y444983D01*
X534232Y444944D01*
X534172Y444909D01*
X534110Y444877D01*
X534046Y444849D01*
X533981Y444824D01*
X533915Y444803D01*
X533847Y444785D01*
X533779Y444772D01*
X533710Y444762D01*
X533641Y444756D01*
X533571Y444754D01*
X533472Y444756D01*
X533374Y444761D01*
X533276Y444771D01*
X533178Y444784D01*
X533081Y444800D01*
X532984Y444820D01*
X532889Y444844D01*
X532794Y444872D01*
X532700Y444903D01*
X532608Y444937D01*
X532517Y444975D01*
X532427Y445016D01*
X532339Y445061D01*
X532253Y445109D01*
X532169Y445160D01*
X532087Y445214D01*
X532006Y445272D01*
X531928Y445332D01*
X531853Y445395D01*
X531779Y445461D01*
X531709Y445530D01*
X531864Y449100D02*
X531866Y449170D01*
X531872Y449239D01*
X531882Y449308D01*
X531895Y449376D01*
X531913Y449444D01*
X531934Y449510D01*
X531959Y449575D01*
X531987Y449639D01*
X532019Y449701D01*
X532054Y449761D01*
X532093Y449819D01*
X532135Y449874D01*
X532180Y449928D01*
X532228Y449978D01*
X532278Y450026D01*
X532332Y450071D01*
X532387Y450113D01*
X532445Y450152D01*
X532505Y450187D01*
X532567Y450219D01*
X532631Y450247D01*
X532696Y450272D01*
X532762Y450293D01*
X532830Y450311D01*
X532898Y450324D01*
X532967Y450334D01*
X533036Y450340D01*
X533106Y450342D01*
X533200Y450340D01*
X533293Y450334D01*
X533386Y450325D01*
X533479Y450312D01*
X533571Y450295D01*
X533662Y450275D01*
X533753Y450250D01*
X533842Y450223D01*
X533930Y450191D01*
X534017Y450156D01*
X534103Y450118D01*
X534186Y450076D01*
X534268Y450031D01*
X534349Y449983D01*
X534427Y449931D01*
X534503Y449876D01*
X532485Y448014D02*
X532426Y448050D01*
X532370Y448090D01*
X532316Y448133D01*
X532264Y448178D01*
X532215Y448227D01*
X532169Y448278D01*
X532126Y448331D01*
X532085Y448387D01*
X532048Y448445D01*
X532013Y448505D01*
X531983Y448566D01*
X531955Y448629D01*
X531931Y448694D01*
X531911Y448760D01*
X531894Y448827D01*
X531881Y448894D01*
X531872Y448962D01*
X531866Y449031D01*
X531864Y449100D01*
X534192Y447082D02*
X534251Y447046D01*
X534307Y447006D01*
X534361Y446963D01*
X534413Y446918D01*
X534462Y446869D01*
X534508Y446818D01*
X534551Y446765D01*
X534592Y446709D01*
X534629Y446651D01*
X534664Y446591D01*
X534694Y446530D01*
X534722Y446467D01*
X534746Y446402D01*
X534766Y446336D01*
X534783Y446269D01*
X534796Y446202D01*
X534805Y446134D01*
X534811Y446065D01*
X534813Y445996D01*
X534192Y447082D02*
X532485Y448014D01*
X537278Y447858D02*
X538830Y447858D01*
X538907Y447856D01*
X538985Y447850D01*
X539061Y447841D01*
X539138Y447827D01*
X539213Y447810D01*
X539287Y447789D01*
X539361Y447764D01*
X539433Y447736D01*
X539503Y447704D01*
X539572Y447669D01*
X539639Y447630D01*
X539704Y447588D01*
X539767Y447543D01*
X539828Y447495D01*
X539886Y447444D01*
X539941Y447390D01*
X539994Y447333D01*
X540043Y447274D01*
X540090Y447212D01*
X540134Y447148D01*
X540174Y447082D01*
X540211Y447014D01*
X540245Y446944D01*
X540275Y446873D01*
X540301Y446800D01*
X540324Y446726D01*
X540343Y446651D01*
X540358Y446576D01*
X540370Y446499D01*
X540378Y446422D01*
X540382Y446345D01*
X540382Y446267D01*
X540378Y446190D01*
X540370Y446113D01*
X540358Y446036D01*
X540343Y445961D01*
X540324Y445886D01*
X540301Y445812D01*
X540275Y445739D01*
X540245Y445668D01*
X540211Y445598D01*
X540174Y445530D01*
X540134Y445464D01*
X540090Y445400D01*
X540043Y445338D01*
X539994Y445279D01*
X539941Y445222D01*
X539886Y445168D01*
X539828Y445117D01*
X539767Y445069D01*
X539704Y445024D01*
X539639Y444982D01*
X539572Y444943D01*
X539503Y444908D01*
X539433Y444876D01*
X539361Y444848D01*
X539287Y444823D01*
X539213Y444802D01*
X539138Y444785D01*
X539061Y444771D01*
X538985Y444762D01*
X538907Y444756D01*
X538830Y444754D01*
X537278Y444754D01*
X537278Y450342D01*
X538830Y450342D01*
X538900Y450340D01*
X538969Y450334D01*
X539038Y450324D01*
X539106Y450311D01*
X539174Y450293D01*
X539240Y450272D01*
X539305Y450247D01*
X539369Y450219D01*
X539431Y450187D01*
X539491Y450152D01*
X539549Y450113D01*
X539604Y450071D01*
X539658Y450026D01*
X539708Y449978D01*
X539756Y449928D01*
X539801Y449874D01*
X539843Y449819D01*
X539882Y449761D01*
X539917Y449701D01*
X539949Y449639D01*
X539977Y449575D01*
X540002Y449510D01*
X540023Y449444D01*
X540041Y449376D01*
X540054Y449308D01*
X540064Y449239D01*
X540070Y449170D01*
X540072Y449100D01*
X540070Y449030D01*
X540064Y448961D01*
X540054Y448892D01*
X540041Y448824D01*
X540023Y448756D01*
X540002Y448690D01*
X539977Y448625D01*
X539949Y448561D01*
X539917Y448499D01*
X539882Y448439D01*
X539843Y448381D01*
X539801Y448326D01*
X539756Y448272D01*
X539708Y448222D01*
X539658Y448174D01*
X539604Y448129D01*
X539549Y448087D01*
X539491Y448048D01*
X539431Y448013D01*
X539369Y447981D01*
X539305Y447953D01*
X539240Y447928D01*
X539174Y447907D01*
X539106Y447889D01*
X539038Y447876D01*
X538969Y447866D01*
X538900Y447860D01*
X538830Y447858D01*
D10*
X177800Y444500D02*
X127000Y444500D01*
X177800Y444500D02*
X177800Y520700D01*
X127000Y520700D01*
X131700Y508000D02*
X131702Y508196D01*
X131710Y508393D01*
X131722Y508589D01*
X131739Y508784D01*
X131760Y508979D01*
X131787Y509174D01*
X131818Y509368D01*
X131854Y509561D01*
X131894Y509753D01*
X131940Y509944D01*
X131990Y510134D01*
X132044Y510322D01*
X132104Y510509D01*
X132168Y510695D01*
X132236Y510879D01*
X132309Y511061D01*
X132386Y511242D01*
X132468Y511420D01*
X132554Y511597D01*
X132645Y511771D01*
X132739Y511943D01*
X132838Y512113D01*
X132941Y512280D01*
X133048Y512445D01*
X133159Y512606D01*
X133274Y512766D01*
X133393Y512922D01*
X133516Y513075D01*
X133642Y513225D01*
X133772Y513372D01*
X133906Y513516D01*
X134043Y513657D01*
X134184Y513794D01*
X134328Y513928D01*
X134475Y514058D01*
X134625Y514184D01*
X134778Y514307D01*
X134934Y514426D01*
X135094Y514541D01*
X135255Y514652D01*
X135420Y514759D01*
X135587Y514862D01*
X135757Y514961D01*
X135929Y515055D01*
X136103Y515146D01*
X136280Y515232D01*
X136458Y515314D01*
X136639Y515391D01*
X136821Y515464D01*
X137005Y515532D01*
X137191Y515596D01*
X137378Y515656D01*
X137566Y515710D01*
X137756Y515760D01*
X137947Y515806D01*
X138139Y515846D01*
X138332Y515882D01*
X138526Y515913D01*
X138721Y515940D01*
X138916Y515961D01*
X139111Y515978D01*
X139307Y515990D01*
X139504Y515998D01*
X139700Y516000D01*
X139896Y515998D01*
X140093Y515990D01*
X140289Y515978D01*
X140484Y515961D01*
X140679Y515940D01*
X140874Y515913D01*
X141068Y515882D01*
X141261Y515846D01*
X141453Y515806D01*
X141644Y515760D01*
X141834Y515710D01*
X142022Y515656D01*
X142209Y515596D01*
X142395Y515532D01*
X142579Y515464D01*
X142761Y515391D01*
X142942Y515314D01*
X143120Y515232D01*
X143297Y515146D01*
X143471Y515055D01*
X143643Y514961D01*
X143813Y514862D01*
X143980Y514759D01*
X144145Y514652D01*
X144306Y514541D01*
X144466Y514426D01*
X144622Y514307D01*
X144775Y514184D01*
X144925Y514058D01*
X145072Y513928D01*
X145216Y513794D01*
X145357Y513657D01*
X145494Y513516D01*
X145628Y513372D01*
X145758Y513225D01*
X145884Y513075D01*
X146007Y512922D01*
X146126Y512766D01*
X146241Y512606D01*
X146352Y512445D01*
X146459Y512280D01*
X146562Y512113D01*
X146661Y511943D01*
X146755Y511771D01*
X146846Y511597D01*
X146932Y511420D01*
X147014Y511242D01*
X147091Y511061D01*
X147164Y510879D01*
X147232Y510695D01*
X147296Y510509D01*
X147356Y510322D01*
X147410Y510134D01*
X147460Y509944D01*
X147506Y509753D01*
X147546Y509561D01*
X147582Y509368D01*
X147613Y509174D01*
X147640Y508979D01*
X147661Y508784D01*
X147678Y508589D01*
X147690Y508393D01*
X147698Y508196D01*
X147700Y508000D01*
X147698Y507804D01*
X147690Y507607D01*
X147678Y507411D01*
X147661Y507216D01*
X147640Y507021D01*
X147613Y506826D01*
X147582Y506632D01*
X147546Y506439D01*
X147506Y506247D01*
X147460Y506056D01*
X147410Y505866D01*
X147356Y505678D01*
X147296Y505491D01*
X147232Y505305D01*
X147164Y505121D01*
X147091Y504939D01*
X147014Y504758D01*
X146932Y504580D01*
X146846Y504403D01*
X146755Y504229D01*
X146661Y504057D01*
X146562Y503887D01*
X146459Y503720D01*
X146352Y503555D01*
X146241Y503394D01*
X146126Y503234D01*
X146007Y503078D01*
X145884Y502925D01*
X145758Y502775D01*
X145628Y502628D01*
X145494Y502484D01*
X145357Y502343D01*
X145216Y502206D01*
X145072Y502072D01*
X144925Y501942D01*
X144775Y501816D01*
X144622Y501693D01*
X144466Y501574D01*
X144306Y501459D01*
X144145Y501348D01*
X143980Y501241D01*
X143813Y501138D01*
X143643Y501039D01*
X143471Y500945D01*
X143297Y500854D01*
X143120Y500768D01*
X142942Y500686D01*
X142761Y500609D01*
X142579Y500536D01*
X142395Y500468D01*
X142209Y500404D01*
X142022Y500344D01*
X141834Y500290D01*
X141644Y500240D01*
X141453Y500194D01*
X141261Y500154D01*
X141068Y500118D01*
X140874Y500087D01*
X140679Y500060D01*
X140484Y500039D01*
X140289Y500022D01*
X140093Y500010D01*
X139896Y500002D01*
X139700Y500000D01*
X139504Y500002D01*
X139307Y500010D01*
X139111Y500022D01*
X138916Y500039D01*
X138721Y500060D01*
X138526Y500087D01*
X138332Y500118D01*
X138139Y500154D01*
X137947Y500194D01*
X137756Y500240D01*
X137566Y500290D01*
X137378Y500344D01*
X137191Y500404D01*
X137005Y500468D01*
X136821Y500536D01*
X136639Y500609D01*
X136458Y500686D01*
X136280Y500768D01*
X136103Y500854D01*
X135929Y500945D01*
X135757Y501039D01*
X135587Y501138D01*
X135420Y501241D01*
X135255Y501348D01*
X135094Y501459D01*
X134934Y501574D01*
X134778Y501693D01*
X134625Y501816D01*
X134475Y501942D01*
X134328Y502072D01*
X134184Y502206D01*
X134043Y502343D01*
X133906Y502484D01*
X133772Y502628D01*
X133642Y502775D01*
X133516Y502925D01*
X133393Y503078D01*
X133274Y503234D01*
X133159Y503394D01*
X133048Y503555D01*
X132941Y503720D01*
X132838Y503887D01*
X132739Y504057D01*
X132645Y504229D01*
X132554Y504403D01*
X132468Y504580D01*
X132386Y504758D01*
X132309Y504939D01*
X132236Y505121D01*
X132168Y505305D01*
X132104Y505491D01*
X132044Y505678D01*
X131990Y505866D01*
X131940Y506056D01*
X131894Y506247D01*
X131854Y506439D01*
X131818Y506632D01*
X131787Y506826D01*
X131760Y507021D01*
X131739Y507216D01*
X131722Y507411D01*
X131710Y507607D01*
X131702Y507804D01*
X131700Y508000D01*
X131700Y482600D02*
X131702Y482796D01*
X131710Y482993D01*
X131722Y483189D01*
X131739Y483384D01*
X131760Y483579D01*
X131787Y483774D01*
X131818Y483968D01*
X131854Y484161D01*
X131894Y484353D01*
X131940Y484544D01*
X131990Y484734D01*
X132044Y484922D01*
X132104Y485109D01*
X132168Y485295D01*
X132236Y485479D01*
X132309Y485661D01*
X132386Y485842D01*
X132468Y486020D01*
X132554Y486197D01*
X132645Y486371D01*
X132739Y486543D01*
X132838Y486713D01*
X132941Y486880D01*
X133048Y487045D01*
X133159Y487206D01*
X133274Y487366D01*
X133393Y487522D01*
X133516Y487675D01*
X133642Y487825D01*
X133772Y487972D01*
X133906Y488116D01*
X134043Y488257D01*
X134184Y488394D01*
X134328Y488528D01*
X134475Y488658D01*
X134625Y488784D01*
X134778Y488907D01*
X134934Y489026D01*
X135094Y489141D01*
X135255Y489252D01*
X135420Y489359D01*
X135587Y489462D01*
X135757Y489561D01*
X135929Y489655D01*
X136103Y489746D01*
X136280Y489832D01*
X136458Y489914D01*
X136639Y489991D01*
X136821Y490064D01*
X137005Y490132D01*
X137191Y490196D01*
X137378Y490256D01*
X137566Y490310D01*
X137756Y490360D01*
X137947Y490406D01*
X138139Y490446D01*
X138332Y490482D01*
X138526Y490513D01*
X138721Y490540D01*
X138916Y490561D01*
X139111Y490578D01*
X139307Y490590D01*
X139504Y490598D01*
X139700Y490600D01*
X139896Y490598D01*
X140093Y490590D01*
X140289Y490578D01*
X140484Y490561D01*
X140679Y490540D01*
X140874Y490513D01*
X141068Y490482D01*
X141261Y490446D01*
X141453Y490406D01*
X141644Y490360D01*
X141834Y490310D01*
X142022Y490256D01*
X142209Y490196D01*
X142395Y490132D01*
X142579Y490064D01*
X142761Y489991D01*
X142942Y489914D01*
X143120Y489832D01*
X143297Y489746D01*
X143471Y489655D01*
X143643Y489561D01*
X143813Y489462D01*
X143980Y489359D01*
X144145Y489252D01*
X144306Y489141D01*
X144466Y489026D01*
X144622Y488907D01*
X144775Y488784D01*
X144925Y488658D01*
X145072Y488528D01*
X145216Y488394D01*
X145357Y488257D01*
X145494Y488116D01*
X145628Y487972D01*
X145758Y487825D01*
X145884Y487675D01*
X146007Y487522D01*
X146126Y487366D01*
X146241Y487206D01*
X146352Y487045D01*
X146459Y486880D01*
X146562Y486713D01*
X146661Y486543D01*
X146755Y486371D01*
X146846Y486197D01*
X146932Y486020D01*
X147014Y485842D01*
X147091Y485661D01*
X147164Y485479D01*
X147232Y485295D01*
X147296Y485109D01*
X147356Y484922D01*
X147410Y484734D01*
X147460Y484544D01*
X147506Y484353D01*
X147546Y484161D01*
X147582Y483968D01*
X147613Y483774D01*
X147640Y483579D01*
X147661Y483384D01*
X147678Y483189D01*
X147690Y482993D01*
X147698Y482796D01*
X147700Y482600D01*
X147698Y482404D01*
X147690Y482207D01*
X147678Y482011D01*
X147661Y481816D01*
X147640Y481621D01*
X147613Y481426D01*
X147582Y481232D01*
X147546Y481039D01*
X147506Y480847D01*
X147460Y480656D01*
X147410Y480466D01*
X147356Y480278D01*
X147296Y480091D01*
X147232Y479905D01*
X147164Y479721D01*
X147091Y479539D01*
X147014Y479358D01*
X146932Y479180D01*
X146846Y479003D01*
X146755Y478829D01*
X146661Y478657D01*
X146562Y478487D01*
X146459Y478320D01*
X146352Y478155D01*
X146241Y477994D01*
X146126Y477834D01*
X146007Y477678D01*
X145884Y477525D01*
X145758Y477375D01*
X145628Y477228D01*
X145494Y477084D01*
X145357Y476943D01*
X145216Y476806D01*
X145072Y476672D01*
X144925Y476542D01*
X144775Y476416D01*
X144622Y476293D01*
X144466Y476174D01*
X144306Y476059D01*
X144145Y475948D01*
X143980Y475841D01*
X143813Y475738D01*
X143643Y475639D01*
X143471Y475545D01*
X143297Y475454D01*
X143120Y475368D01*
X142942Y475286D01*
X142761Y475209D01*
X142579Y475136D01*
X142395Y475068D01*
X142209Y475004D01*
X142022Y474944D01*
X141834Y474890D01*
X141644Y474840D01*
X141453Y474794D01*
X141261Y474754D01*
X141068Y474718D01*
X140874Y474687D01*
X140679Y474660D01*
X140484Y474639D01*
X140289Y474622D01*
X140093Y474610D01*
X139896Y474602D01*
X139700Y474600D01*
X139504Y474602D01*
X139307Y474610D01*
X139111Y474622D01*
X138916Y474639D01*
X138721Y474660D01*
X138526Y474687D01*
X138332Y474718D01*
X138139Y474754D01*
X137947Y474794D01*
X137756Y474840D01*
X137566Y474890D01*
X137378Y474944D01*
X137191Y475004D01*
X137005Y475068D01*
X136821Y475136D01*
X136639Y475209D01*
X136458Y475286D01*
X136280Y475368D01*
X136103Y475454D01*
X135929Y475545D01*
X135757Y475639D01*
X135587Y475738D01*
X135420Y475841D01*
X135255Y475948D01*
X135094Y476059D01*
X134934Y476174D01*
X134778Y476293D01*
X134625Y476416D01*
X134475Y476542D01*
X134328Y476672D01*
X134184Y476806D01*
X134043Y476943D01*
X133906Y477084D01*
X133772Y477228D01*
X133642Y477375D01*
X133516Y477525D01*
X133393Y477678D01*
X133274Y477834D01*
X133159Y477994D01*
X133048Y478155D01*
X132941Y478320D01*
X132838Y478487D01*
X132739Y478657D01*
X132645Y478829D01*
X132554Y479003D01*
X132468Y479180D01*
X132386Y479358D01*
X132309Y479539D01*
X132236Y479721D01*
X132168Y479905D01*
X132104Y480091D01*
X132044Y480278D01*
X131990Y480466D01*
X131940Y480656D01*
X131894Y480847D01*
X131854Y481039D01*
X131818Y481232D01*
X131787Y481426D01*
X131760Y481621D01*
X131739Y481816D01*
X131722Y482011D01*
X131710Y482207D01*
X131702Y482404D01*
X131700Y482600D01*
X131700Y457200D02*
X131702Y457396D01*
X131710Y457593D01*
X131722Y457789D01*
X131739Y457984D01*
X131760Y458179D01*
X131787Y458374D01*
X131818Y458568D01*
X131854Y458761D01*
X131894Y458953D01*
X131940Y459144D01*
X131990Y459334D01*
X132044Y459522D01*
X132104Y459709D01*
X132168Y459895D01*
X132236Y460079D01*
X132309Y460261D01*
X132386Y460442D01*
X132468Y460620D01*
X132554Y460797D01*
X132645Y460971D01*
X132739Y461143D01*
X132838Y461313D01*
X132941Y461480D01*
X133048Y461645D01*
X133159Y461806D01*
X133274Y461966D01*
X133393Y462122D01*
X133516Y462275D01*
X133642Y462425D01*
X133772Y462572D01*
X133906Y462716D01*
X134043Y462857D01*
X134184Y462994D01*
X134328Y463128D01*
X134475Y463258D01*
X134625Y463384D01*
X134778Y463507D01*
X134934Y463626D01*
X135094Y463741D01*
X135255Y463852D01*
X135420Y463959D01*
X135587Y464062D01*
X135757Y464161D01*
X135929Y464255D01*
X136103Y464346D01*
X136280Y464432D01*
X136458Y464514D01*
X136639Y464591D01*
X136821Y464664D01*
X137005Y464732D01*
X137191Y464796D01*
X137378Y464856D01*
X137566Y464910D01*
X137756Y464960D01*
X137947Y465006D01*
X138139Y465046D01*
X138332Y465082D01*
X138526Y465113D01*
X138721Y465140D01*
X138916Y465161D01*
X139111Y465178D01*
X139307Y465190D01*
X139504Y465198D01*
X139700Y465200D01*
X139896Y465198D01*
X140093Y465190D01*
X140289Y465178D01*
X140484Y465161D01*
X140679Y465140D01*
X140874Y465113D01*
X141068Y465082D01*
X141261Y465046D01*
X141453Y465006D01*
X141644Y464960D01*
X141834Y464910D01*
X142022Y464856D01*
X142209Y464796D01*
X142395Y464732D01*
X142579Y464664D01*
X142761Y464591D01*
X142942Y464514D01*
X143120Y464432D01*
X143297Y464346D01*
X143471Y464255D01*
X143643Y464161D01*
X143813Y464062D01*
X143980Y463959D01*
X144145Y463852D01*
X144306Y463741D01*
X144466Y463626D01*
X144622Y463507D01*
X144775Y463384D01*
X144925Y463258D01*
X145072Y463128D01*
X145216Y462994D01*
X145357Y462857D01*
X145494Y462716D01*
X145628Y462572D01*
X145758Y462425D01*
X145884Y462275D01*
X146007Y462122D01*
X146126Y461966D01*
X146241Y461806D01*
X146352Y461645D01*
X146459Y461480D01*
X146562Y461313D01*
X146661Y461143D01*
X146755Y460971D01*
X146846Y460797D01*
X146932Y460620D01*
X147014Y460442D01*
X147091Y460261D01*
X147164Y460079D01*
X147232Y459895D01*
X147296Y459709D01*
X147356Y459522D01*
X147410Y459334D01*
X147460Y459144D01*
X147506Y458953D01*
X147546Y458761D01*
X147582Y458568D01*
X147613Y458374D01*
X147640Y458179D01*
X147661Y457984D01*
X147678Y457789D01*
X147690Y457593D01*
X147698Y457396D01*
X147700Y457200D01*
X147698Y457004D01*
X147690Y456807D01*
X147678Y456611D01*
X147661Y456416D01*
X147640Y456221D01*
X147613Y456026D01*
X147582Y455832D01*
X147546Y455639D01*
X147506Y455447D01*
X147460Y455256D01*
X147410Y455066D01*
X147356Y454878D01*
X147296Y454691D01*
X147232Y454505D01*
X147164Y454321D01*
X147091Y454139D01*
X147014Y453958D01*
X146932Y453780D01*
X146846Y453603D01*
X146755Y453429D01*
X146661Y453257D01*
X146562Y453087D01*
X146459Y452920D01*
X146352Y452755D01*
X146241Y452594D01*
X146126Y452434D01*
X146007Y452278D01*
X145884Y452125D01*
X145758Y451975D01*
X145628Y451828D01*
X145494Y451684D01*
X145357Y451543D01*
X145216Y451406D01*
X145072Y451272D01*
X144925Y451142D01*
X144775Y451016D01*
X144622Y450893D01*
X144466Y450774D01*
X144306Y450659D01*
X144145Y450548D01*
X143980Y450441D01*
X143813Y450338D01*
X143643Y450239D01*
X143471Y450145D01*
X143297Y450054D01*
X143120Y449968D01*
X142942Y449886D01*
X142761Y449809D01*
X142579Y449736D01*
X142395Y449668D01*
X142209Y449604D01*
X142022Y449544D01*
X141834Y449490D01*
X141644Y449440D01*
X141453Y449394D01*
X141261Y449354D01*
X141068Y449318D01*
X140874Y449287D01*
X140679Y449260D01*
X140484Y449239D01*
X140289Y449222D01*
X140093Y449210D01*
X139896Y449202D01*
X139700Y449200D01*
X139504Y449202D01*
X139307Y449210D01*
X139111Y449222D01*
X138916Y449239D01*
X138721Y449260D01*
X138526Y449287D01*
X138332Y449318D01*
X138139Y449354D01*
X137947Y449394D01*
X137756Y449440D01*
X137566Y449490D01*
X137378Y449544D01*
X137191Y449604D01*
X137005Y449668D01*
X136821Y449736D01*
X136639Y449809D01*
X136458Y449886D01*
X136280Y449968D01*
X136103Y450054D01*
X135929Y450145D01*
X135757Y450239D01*
X135587Y450338D01*
X135420Y450441D01*
X135255Y450548D01*
X135094Y450659D01*
X134934Y450774D01*
X134778Y450893D01*
X134625Y451016D01*
X134475Y451142D01*
X134328Y451272D01*
X134184Y451406D01*
X134043Y451543D01*
X133906Y451684D01*
X133772Y451828D01*
X133642Y451975D01*
X133516Y452125D01*
X133393Y452278D01*
X133274Y452434D01*
X133159Y452594D01*
X133048Y452755D01*
X132941Y452920D01*
X132838Y453087D01*
X132739Y453257D01*
X132645Y453429D01*
X132554Y453603D01*
X132468Y453780D01*
X132386Y453958D01*
X132309Y454139D01*
X132236Y454321D01*
X132168Y454505D01*
X132104Y454691D01*
X132044Y454878D01*
X131990Y455066D01*
X131940Y455256D01*
X131894Y455447D01*
X131854Y455639D01*
X131818Y455832D01*
X131787Y456026D01*
X131760Y456221D01*
X131739Y456416D01*
X131722Y456611D01*
X131710Y456807D01*
X131702Y457004D01*
X131700Y457200D01*
X157100Y457200D02*
X157102Y457396D01*
X157110Y457593D01*
X157122Y457789D01*
X157139Y457984D01*
X157160Y458179D01*
X157187Y458374D01*
X157218Y458568D01*
X157254Y458761D01*
X157294Y458953D01*
X157340Y459144D01*
X157390Y459334D01*
X157444Y459522D01*
X157504Y459709D01*
X157568Y459895D01*
X157636Y460079D01*
X157709Y460261D01*
X157786Y460442D01*
X157868Y460620D01*
X157954Y460797D01*
X158045Y460971D01*
X158139Y461143D01*
X158238Y461313D01*
X158341Y461480D01*
X158448Y461645D01*
X158559Y461806D01*
X158674Y461966D01*
X158793Y462122D01*
X158916Y462275D01*
X159042Y462425D01*
X159172Y462572D01*
X159306Y462716D01*
X159443Y462857D01*
X159584Y462994D01*
X159728Y463128D01*
X159875Y463258D01*
X160025Y463384D01*
X160178Y463507D01*
X160334Y463626D01*
X160494Y463741D01*
X160655Y463852D01*
X160820Y463959D01*
X160987Y464062D01*
X161157Y464161D01*
X161329Y464255D01*
X161503Y464346D01*
X161680Y464432D01*
X161858Y464514D01*
X162039Y464591D01*
X162221Y464664D01*
X162405Y464732D01*
X162591Y464796D01*
X162778Y464856D01*
X162966Y464910D01*
X163156Y464960D01*
X163347Y465006D01*
X163539Y465046D01*
X163732Y465082D01*
X163926Y465113D01*
X164121Y465140D01*
X164316Y465161D01*
X164511Y465178D01*
X164707Y465190D01*
X164904Y465198D01*
X165100Y465200D01*
X165296Y465198D01*
X165493Y465190D01*
X165689Y465178D01*
X165884Y465161D01*
X166079Y465140D01*
X166274Y465113D01*
X166468Y465082D01*
X166661Y465046D01*
X166853Y465006D01*
X167044Y464960D01*
X167234Y464910D01*
X167422Y464856D01*
X167609Y464796D01*
X167795Y464732D01*
X167979Y464664D01*
X168161Y464591D01*
X168342Y464514D01*
X168520Y464432D01*
X168697Y464346D01*
X168871Y464255D01*
X169043Y464161D01*
X169213Y464062D01*
X169380Y463959D01*
X169545Y463852D01*
X169706Y463741D01*
X169866Y463626D01*
X170022Y463507D01*
X170175Y463384D01*
X170325Y463258D01*
X170472Y463128D01*
X170616Y462994D01*
X170757Y462857D01*
X170894Y462716D01*
X171028Y462572D01*
X171158Y462425D01*
X171284Y462275D01*
X171407Y462122D01*
X171526Y461966D01*
X171641Y461806D01*
X171752Y461645D01*
X171859Y461480D01*
X171962Y461313D01*
X172061Y461143D01*
X172155Y460971D01*
X172246Y460797D01*
X172332Y460620D01*
X172414Y460442D01*
X172491Y460261D01*
X172564Y460079D01*
X172632Y459895D01*
X172696Y459709D01*
X172756Y459522D01*
X172810Y459334D01*
X172860Y459144D01*
X172906Y458953D01*
X172946Y458761D01*
X172982Y458568D01*
X173013Y458374D01*
X173040Y458179D01*
X173061Y457984D01*
X173078Y457789D01*
X173090Y457593D01*
X173098Y457396D01*
X173100Y457200D01*
X173098Y457004D01*
X173090Y456807D01*
X173078Y456611D01*
X173061Y456416D01*
X173040Y456221D01*
X173013Y456026D01*
X172982Y455832D01*
X172946Y455639D01*
X172906Y455447D01*
X172860Y455256D01*
X172810Y455066D01*
X172756Y454878D01*
X172696Y454691D01*
X172632Y454505D01*
X172564Y454321D01*
X172491Y454139D01*
X172414Y453958D01*
X172332Y453780D01*
X172246Y453603D01*
X172155Y453429D01*
X172061Y453257D01*
X171962Y453087D01*
X171859Y452920D01*
X171752Y452755D01*
X171641Y452594D01*
X171526Y452434D01*
X171407Y452278D01*
X171284Y452125D01*
X171158Y451975D01*
X171028Y451828D01*
X170894Y451684D01*
X170757Y451543D01*
X170616Y451406D01*
X170472Y451272D01*
X170325Y451142D01*
X170175Y451016D01*
X170022Y450893D01*
X169866Y450774D01*
X169706Y450659D01*
X169545Y450548D01*
X169380Y450441D01*
X169213Y450338D01*
X169043Y450239D01*
X168871Y450145D01*
X168697Y450054D01*
X168520Y449968D01*
X168342Y449886D01*
X168161Y449809D01*
X167979Y449736D01*
X167795Y449668D01*
X167609Y449604D01*
X167422Y449544D01*
X167234Y449490D01*
X167044Y449440D01*
X166853Y449394D01*
X166661Y449354D01*
X166468Y449318D01*
X166274Y449287D01*
X166079Y449260D01*
X165884Y449239D01*
X165689Y449222D01*
X165493Y449210D01*
X165296Y449202D01*
X165100Y449200D01*
X164904Y449202D01*
X164707Y449210D01*
X164511Y449222D01*
X164316Y449239D01*
X164121Y449260D01*
X163926Y449287D01*
X163732Y449318D01*
X163539Y449354D01*
X163347Y449394D01*
X163156Y449440D01*
X162966Y449490D01*
X162778Y449544D01*
X162591Y449604D01*
X162405Y449668D01*
X162221Y449736D01*
X162039Y449809D01*
X161858Y449886D01*
X161680Y449968D01*
X161503Y450054D01*
X161329Y450145D01*
X161157Y450239D01*
X160987Y450338D01*
X160820Y450441D01*
X160655Y450548D01*
X160494Y450659D01*
X160334Y450774D01*
X160178Y450893D01*
X160025Y451016D01*
X159875Y451142D01*
X159728Y451272D01*
X159584Y451406D01*
X159443Y451543D01*
X159306Y451684D01*
X159172Y451828D01*
X159042Y451975D01*
X158916Y452125D01*
X158793Y452278D01*
X158674Y452434D01*
X158559Y452594D01*
X158448Y452755D01*
X158341Y452920D01*
X158238Y453087D01*
X158139Y453257D01*
X158045Y453429D01*
X157954Y453603D01*
X157868Y453780D01*
X157786Y453958D01*
X157709Y454139D01*
X157636Y454321D01*
X157568Y454505D01*
X157504Y454691D01*
X157444Y454878D01*
X157390Y455066D01*
X157340Y455256D01*
X157294Y455447D01*
X157254Y455639D01*
X157218Y455832D01*
X157187Y456026D01*
X157160Y456221D01*
X157139Y456416D01*
X157122Y456611D01*
X157110Y456807D01*
X157102Y457004D01*
X157100Y457200D01*
X131700Y482600D02*
X131702Y482796D01*
X131710Y482993D01*
X131722Y483189D01*
X131739Y483384D01*
X131760Y483579D01*
X131787Y483774D01*
X131818Y483968D01*
X131854Y484161D01*
X131894Y484353D01*
X131940Y484544D01*
X131990Y484734D01*
X132044Y484922D01*
X132104Y485109D01*
X132168Y485295D01*
X132236Y485479D01*
X132309Y485661D01*
X132386Y485842D01*
X132468Y486020D01*
X132554Y486197D01*
X132645Y486371D01*
X132739Y486543D01*
X132838Y486713D01*
X132941Y486880D01*
X133048Y487045D01*
X133159Y487206D01*
X133274Y487366D01*
X133393Y487522D01*
X133516Y487675D01*
X133642Y487825D01*
X133772Y487972D01*
X133906Y488116D01*
X134043Y488257D01*
X134184Y488394D01*
X134328Y488528D01*
X134475Y488658D01*
X134625Y488784D01*
X134778Y488907D01*
X134934Y489026D01*
X135094Y489141D01*
X135255Y489252D01*
X135420Y489359D01*
X135587Y489462D01*
X135757Y489561D01*
X135929Y489655D01*
X136103Y489746D01*
X136280Y489832D01*
X136458Y489914D01*
X136639Y489991D01*
X136821Y490064D01*
X137005Y490132D01*
X137191Y490196D01*
X137378Y490256D01*
X137566Y490310D01*
X137756Y490360D01*
X137947Y490406D01*
X138139Y490446D01*
X138332Y490482D01*
X138526Y490513D01*
X138721Y490540D01*
X138916Y490561D01*
X139111Y490578D01*
X139307Y490590D01*
X139504Y490598D01*
X139700Y490600D01*
X139896Y490598D01*
X140093Y490590D01*
X140289Y490578D01*
X140484Y490561D01*
X140679Y490540D01*
X140874Y490513D01*
X141068Y490482D01*
X141261Y490446D01*
X141453Y490406D01*
X141644Y490360D01*
X141834Y490310D01*
X142022Y490256D01*
X142209Y490196D01*
X142395Y490132D01*
X142579Y490064D01*
X142761Y489991D01*
X142942Y489914D01*
X143120Y489832D01*
X143297Y489746D01*
X143471Y489655D01*
X143643Y489561D01*
X143813Y489462D01*
X143980Y489359D01*
X144145Y489252D01*
X144306Y489141D01*
X144466Y489026D01*
X144622Y488907D01*
X144775Y488784D01*
X144925Y488658D01*
X145072Y488528D01*
X145216Y488394D01*
X145357Y488257D01*
X145494Y488116D01*
X145628Y487972D01*
X145758Y487825D01*
X145884Y487675D01*
X146007Y487522D01*
X146126Y487366D01*
X146241Y487206D01*
X146352Y487045D01*
X146459Y486880D01*
X146562Y486713D01*
X146661Y486543D01*
X146755Y486371D01*
X146846Y486197D01*
X146932Y486020D01*
X147014Y485842D01*
X147091Y485661D01*
X147164Y485479D01*
X147232Y485295D01*
X147296Y485109D01*
X147356Y484922D01*
X147410Y484734D01*
X147460Y484544D01*
X147506Y484353D01*
X147546Y484161D01*
X147582Y483968D01*
X147613Y483774D01*
X147640Y483579D01*
X147661Y483384D01*
X147678Y483189D01*
X147690Y482993D01*
X147698Y482796D01*
X147700Y482600D01*
X147698Y482404D01*
X147690Y482207D01*
X147678Y482011D01*
X147661Y481816D01*
X147640Y481621D01*
X147613Y481426D01*
X147582Y481232D01*
X147546Y481039D01*
X147506Y480847D01*
X147460Y480656D01*
X147410Y480466D01*
X147356Y480278D01*
X147296Y480091D01*
X147232Y479905D01*
X147164Y479721D01*
X147091Y479539D01*
X147014Y479358D01*
X146932Y479180D01*
X146846Y479003D01*
X146755Y478829D01*
X146661Y478657D01*
X146562Y478487D01*
X146459Y478320D01*
X146352Y478155D01*
X146241Y477994D01*
X146126Y477834D01*
X146007Y477678D01*
X145884Y477525D01*
X145758Y477375D01*
X145628Y477228D01*
X145494Y477084D01*
X145357Y476943D01*
X145216Y476806D01*
X145072Y476672D01*
X144925Y476542D01*
X144775Y476416D01*
X144622Y476293D01*
X144466Y476174D01*
X144306Y476059D01*
X144145Y475948D01*
X143980Y475841D01*
X143813Y475738D01*
X143643Y475639D01*
X143471Y475545D01*
X143297Y475454D01*
X143120Y475368D01*
X142942Y475286D01*
X142761Y475209D01*
X142579Y475136D01*
X142395Y475068D01*
X142209Y475004D01*
X142022Y474944D01*
X141834Y474890D01*
X141644Y474840D01*
X141453Y474794D01*
X141261Y474754D01*
X141068Y474718D01*
X140874Y474687D01*
X140679Y474660D01*
X140484Y474639D01*
X140289Y474622D01*
X140093Y474610D01*
X139896Y474602D01*
X139700Y474600D01*
X139504Y474602D01*
X139307Y474610D01*
X139111Y474622D01*
X138916Y474639D01*
X138721Y474660D01*
X138526Y474687D01*
X138332Y474718D01*
X138139Y474754D01*
X137947Y474794D01*
X137756Y474840D01*
X137566Y474890D01*
X137378Y474944D01*
X137191Y475004D01*
X137005Y475068D01*
X136821Y475136D01*
X136639Y475209D01*
X136458Y475286D01*
X136280Y475368D01*
X136103Y475454D01*
X135929Y475545D01*
X135757Y475639D01*
X135587Y475738D01*
X135420Y475841D01*
X135255Y475948D01*
X135094Y476059D01*
X134934Y476174D01*
X134778Y476293D01*
X134625Y476416D01*
X134475Y476542D01*
X134328Y476672D01*
X134184Y476806D01*
X134043Y476943D01*
X133906Y477084D01*
X133772Y477228D01*
X133642Y477375D01*
X133516Y477525D01*
X133393Y477678D01*
X133274Y477834D01*
X133159Y477994D01*
X133048Y478155D01*
X132941Y478320D01*
X132838Y478487D01*
X132739Y478657D01*
X132645Y478829D01*
X132554Y479003D01*
X132468Y479180D01*
X132386Y479358D01*
X132309Y479539D01*
X132236Y479721D01*
X132168Y479905D01*
X132104Y480091D01*
X132044Y480278D01*
X131990Y480466D01*
X131940Y480656D01*
X131894Y480847D01*
X131854Y481039D01*
X131818Y481232D01*
X131787Y481426D01*
X131760Y481621D01*
X131739Y481816D01*
X131722Y482011D01*
X131710Y482207D01*
X131702Y482404D01*
X131700Y482600D01*
X157100Y482600D02*
X157102Y482796D01*
X157110Y482993D01*
X157122Y483189D01*
X157139Y483384D01*
X157160Y483579D01*
X157187Y483774D01*
X157218Y483968D01*
X157254Y484161D01*
X157294Y484353D01*
X157340Y484544D01*
X157390Y484734D01*
X157444Y484922D01*
X157504Y485109D01*
X157568Y485295D01*
X157636Y485479D01*
X157709Y485661D01*
X157786Y485842D01*
X157868Y486020D01*
X157954Y486197D01*
X158045Y486371D01*
X158139Y486543D01*
X158238Y486713D01*
X158341Y486880D01*
X158448Y487045D01*
X158559Y487206D01*
X158674Y487366D01*
X158793Y487522D01*
X158916Y487675D01*
X159042Y487825D01*
X159172Y487972D01*
X159306Y488116D01*
X159443Y488257D01*
X159584Y488394D01*
X159728Y488528D01*
X159875Y488658D01*
X160025Y488784D01*
X160178Y488907D01*
X160334Y489026D01*
X160494Y489141D01*
X160655Y489252D01*
X160820Y489359D01*
X160987Y489462D01*
X161157Y489561D01*
X161329Y489655D01*
X161503Y489746D01*
X161680Y489832D01*
X161858Y489914D01*
X162039Y489991D01*
X162221Y490064D01*
X162405Y490132D01*
X162591Y490196D01*
X162778Y490256D01*
X162966Y490310D01*
X163156Y490360D01*
X163347Y490406D01*
X163539Y490446D01*
X163732Y490482D01*
X163926Y490513D01*
X164121Y490540D01*
X164316Y490561D01*
X164511Y490578D01*
X164707Y490590D01*
X164904Y490598D01*
X165100Y490600D01*
X165296Y490598D01*
X165493Y490590D01*
X165689Y490578D01*
X165884Y490561D01*
X166079Y490540D01*
X166274Y490513D01*
X166468Y490482D01*
X166661Y490446D01*
X166853Y490406D01*
X167044Y490360D01*
X167234Y490310D01*
X167422Y490256D01*
X167609Y490196D01*
X167795Y490132D01*
X167979Y490064D01*
X168161Y489991D01*
X168342Y489914D01*
X168520Y489832D01*
X168697Y489746D01*
X168871Y489655D01*
X169043Y489561D01*
X169213Y489462D01*
X169380Y489359D01*
X169545Y489252D01*
X169706Y489141D01*
X169866Y489026D01*
X170022Y488907D01*
X170175Y488784D01*
X170325Y488658D01*
X170472Y488528D01*
X170616Y488394D01*
X170757Y488257D01*
X170894Y488116D01*
X171028Y487972D01*
X171158Y487825D01*
X171284Y487675D01*
X171407Y487522D01*
X171526Y487366D01*
X171641Y487206D01*
X171752Y487045D01*
X171859Y486880D01*
X171962Y486713D01*
X172061Y486543D01*
X172155Y486371D01*
X172246Y486197D01*
X172332Y486020D01*
X172414Y485842D01*
X172491Y485661D01*
X172564Y485479D01*
X172632Y485295D01*
X172696Y485109D01*
X172756Y484922D01*
X172810Y484734D01*
X172860Y484544D01*
X172906Y484353D01*
X172946Y484161D01*
X172982Y483968D01*
X173013Y483774D01*
X173040Y483579D01*
X173061Y483384D01*
X173078Y483189D01*
X173090Y482993D01*
X173098Y482796D01*
X173100Y482600D01*
X173098Y482404D01*
X173090Y482207D01*
X173078Y482011D01*
X173061Y481816D01*
X173040Y481621D01*
X173013Y481426D01*
X172982Y481232D01*
X172946Y481039D01*
X172906Y480847D01*
X172860Y480656D01*
X172810Y480466D01*
X172756Y480278D01*
X172696Y480091D01*
X172632Y479905D01*
X172564Y479721D01*
X172491Y479539D01*
X172414Y479358D01*
X172332Y479180D01*
X172246Y479003D01*
X172155Y478829D01*
X172061Y478657D01*
X171962Y478487D01*
X171859Y478320D01*
X171752Y478155D01*
X171641Y477994D01*
X171526Y477834D01*
X171407Y477678D01*
X171284Y477525D01*
X171158Y477375D01*
X171028Y477228D01*
X170894Y477084D01*
X170757Y476943D01*
X170616Y476806D01*
X170472Y476672D01*
X170325Y476542D01*
X170175Y476416D01*
X170022Y476293D01*
X169866Y476174D01*
X169706Y476059D01*
X169545Y475948D01*
X169380Y475841D01*
X169213Y475738D01*
X169043Y475639D01*
X168871Y475545D01*
X168697Y475454D01*
X168520Y475368D01*
X168342Y475286D01*
X168161Y475209D01*
X167979Y475136D01*
X167795Y475068D01*
X167609Y475004D01*
X167422Y474944D01*
X167234Y474890D01*
X167044Y474840D01*
X166853Y474794D01*
X166661Y474754D01*
X166468Y474718D01*
X166274Y474687D01*
X166079Y474660D01*
X165884Y474639D01*
X165689Y474622D01*
X165493Y474610D01*
X165296Y474602D01*
X165100Y474600D01*
X164904Y474602D01*
X164707Y474610D01*
X164511Y474622D01*
X164316Y474639D01*
X164121Y474660D01*
X163926Y474687D01*
X163732Y474718D01*
X163539Y474754D01*
X163347Y474794D01*
X163156Y474840D01*
X162966Y474890D01*
X162778Y474944D01*
X162591Y475004D01*
X162405Y475068D01*
X162221Y475136D01*
X162039Y475209D01*
X161858Y475286D01*
X161680Y475368D01*
X161503Y475454D01*
X161329Y475545D01*
X161157Y475639D01*
X160987Y475738D01*
X160820Y475841D01*
X160655Y475948D01*
X160494Y476059D01*
X160334Y476174D01*
X160178Y476293D01*
X160025Y476416D01*
X159875Y476542D01*
X159728Y476672D01*
X159584Y476806D01*
X159443Y476943D01*
X159306Y477084D01*
X159172Y477228D01*
X159042Y477375D01*
X158916Y477525D01*
X158793Y477678D01*
X158674Y477834D01*
X158559Y477994D01*
X158448Y478155D01*
X158341Y478320D01*
X158238Y478487D01*
X158139Y478657D01*
X158045Y478829D01*
X157954Y479003D01*
X157868Y479180D01*
X157786Y479358D01*
X157709Y479539D01*
X157636Y479721D01*
X157568Y479905D01*
X157504Y480091D01*
X157444Y480278D01*
X157390Y480466D01*
X157340Y480656D01*
X157294Y480847D01*
X157254Y481039D01*
X157218Y481232D01*
X157187Y481426D01*
X157160Y481621D01*
X157139Y481816D01*
X157122Y482011D01*
X157110Y482207D01*
X157102Y482404D01*
X157100Y482600D01*
X157100Y508000D02*
X157102Y508196D01*
X157110Y508393D01*
X157122Y508589D01*
X157139Y508784D01*
X157160Y508979D01*
X157187Y509174D01*
X157218Y509368D01*
X157254Y509561D01*
X157294Y509753D01*
X157340Y509944D01*
X157390Y510134D01*
X157444Y510322D01*
X157504Y510509D01*
X157568Y510695D01*
X157636Y510879D01*
X157709Y511061D01*
X157786Y511242D01*
X157868Y511420D01*
X157954Y511597D01*
X158045Y511771D01*
X158139Y511943D01*
X158238Y512113D01*
X158341Y512280D01*
X158448Y512445D01*
X158559Y512606D01*
X158674Y512766D01*
X158793Y512922D01*
X158916Y513075D01*
X159042Y513225D01*
X159172Y513372D01*
X159306Y513516D01*
X159443Y513657D01*
X159584Y513794D01*
X159728Y513928D01*
X159875Y514058D01*
X160025Y514184D01*
X160178Y514307D01*
X160334Y514426D01*
X160494Y514541D01*
X160655Y514652D01*
X160820Y514759D01*
X160987Y514862D01*
X161157Y514961D01*
X161329Y515055D01*
X161503Y515146D01*
X161680Y515232D01*
X161858Y515314D01*
X162039Y515391D01*
X162221Y515464D01*
X162405Y515532D01*
X162591Y515596D01*
X162778Y515656D01*
X162966Y515710D01*
X163156Y515760D01*
X163347Y515806D01*
X163539Y515846D01*
X163732Y515882D01*
X163926Y515913D01*
X164121Y515940D01*
X164316Y515961D01*
X164511Y515978D01*
X164707Y515990D01*
X164904Y515998D01*
X165100Y516000D01*
X165296Y515998D01*
X165493Y515990D01*
X165689Y515978D01*
X165884Y515961D01*
X166079Y515940D01*
X166274Y515913D01*
X166468Y515882D01*
X166661Y515846D01*
X166853Y515806D01*
X167044Y515760D01*
X167234Y515710D01*
X167422Y515656D01*
X167609Y515596D01*
X167795Y515532D01*
X167979Y515464D01*
X168161Y515391D01*
X168342Y515314D01*
X168520Y515232D01*
X168697Y515146D01*
X168871Y515055D01*
X169043Y514961D01*
X169213Y514862D01*
X169380Y514759D01*
X169545Y514652D01*
X169706Y514541D01*
X169866Y514426D01*
X170022Y514307D01*
X170175Y514184D01*
X170325Y514058D01*
X170472Y513928D01*
X170616Y513794D01*
X170757Y513657D01*
X170894Y513516D01*
X171028Y513372D01*
X171158Y513225D01*
X171284Y513075D01*
X171407Y512922D01*
X171526Y512766D01*
X171641Y512606D01*
X171752Y512445D01*
X171859Y512280D01*
X171962Y512113D01*
X172061Y511943D01*
X172155Y511771D01*
X172246Y511597D01*
X172332Y511420D01*
X172414Y511242D01*
X172491Y511061D01*
X172564Y510879D01*
X172632Y510695D01*
X172696Y510509D01*
X172756Y510322D01*
X172810Y510134D01*
X172860Y509944D01*
X172906Y509753D01*
X172946Y509561D01*
X172982Y509368D01*
X173013Y509174D01*
X173040Y508979D01*
X173061Y508784D01*
X173078Y508589D01*
X173090Y508393D01*
X173098Y508196D01*
X173100Y508000D01*
X173098Y507804D01*
X173090Y507607D01*
X173078Y507411D01*
X173061Y507216D01*
X173040Y507021D01*
X173013Y506826D01*
X172982Y506632D01*
X172946Y506439D01*
X172906Y506247D01*
X172860Y506056D01*
X172810Y505866D01*
X172756Y505678D01*
X172696Y505491D01*
X172632Y505305D01*
X172564Y505121D01*
X172491Y504939D01*
X172414Y504758D01*
X172332Y504580D01*
X172246Y504403D01*
X172155Y504229D01*
X172061Y504057D01*
X171962Y503887D01*
X171859Y503720D01*
X171752Y503555D01*
X171641Y503394D01*
X171526Y503234D01*
X171407Y503078D01*
X171284Y502925D01*
X171158Y502775D01*
X171028Y502628D01*
X170894Y502484D01*
X170757Y502343D01*
X170616Y502206D01*
X170472Y502072D01*
X170325Y501942D01*
X170175Y501816D01*
X170022Y501693D01*
X169866Y501574D01*
X169706Y501459D01*
X169545Y501348D01*
X169380Y501241D01*
X169213Y501138D01*
X169043Y501039D01*
X168871Y500945D01*
X168697Y500854D01*
X168520Y500768D01*
X168342Y500686D01*
X168161Y500609D01*
X167979Y500536D01*
X167795Y500468D01*
X167609Y500404D01*
X167422Y500344D01*
X167234Y500290D01*
X167044Y500240D01*
X166853Y500194D01*
X166661Y500154D01*
X166468Y500118D01*
X166274Y500087D01*
X166079Y500060D01*
X165884Y500039D01*
X165689Y500022D01*
X165493Y500010D01*
X165296Y500002D01*
X165100Y500000D01*
X164904Y500002D01*
X164707Y500010D01*
X164511Y500022D01*
X164316Y500039D01*
X164121Y500060D01*
X163926Y500087D01*
X163732Y500118D01*
X163539Y500154D01*
X163347Y500194D01*
X163156Y500240D01*
X162966Y500290D01*
X162778Y500344D01*
X162591Y500404D01*
X162405Y500468D01*
X162221Y500536D01*
X162039Y500609D01*
X161858Y500686D01*
X161680Y500768D01*
X161503Y500854D01*
X161329Y500945D01*
X161157Y501039D01*
X160987Y501138D01*
X160820Y501241D01*
X160655Y501348D01*
X160494Y501459D01*
X160334Y501574D01*
X160178Y501693D01*
X160025Y501816D01*
X159875Y501942D01*
X159728Y502072D01*
X159584Y502206D01*
X159443Y502343D01*
X159306Y502484D01*
X159172Y502628D01*
X159042Y502775D01*
X158916Y502925D01*
X158793Y503078D01*
X158674Y503234D01*
X158559Y503394D01*
X158448Y503555D01*
X158341Y503720D01*
X158238Y503887D01*
X158139Y504057D01*
X158045Y504229D01*
X157954Y504403D01*
X157868Y504580D01*
X157786Y504758D01*
X157709Y504939D01*
X157636Y505121D01*
X157568Y505305D01*
X157504Y505491D01*
X157444Y505678D01*
X157390Y505866D01*
X157340Y506056D01*
X157294Y506247D01*
X157254Y506439D01*
X157218Y506632D01*
X157187Y506826D01*
X157160Y507021D01*
X157139Y507216D01*
X157122Y507411D01*
X157110Y507607D01*
X157102Y507804D01*
X157100Y508000D01*
D11*
X182753Y471099D02*
X190119Y471099D01*
X190119Y470281D02*
X190119Y471918D01*
X182753Y471918D02*
X182753Y470281D01*
X190119Y476519D02*
X190119Y478156D01*
X190119Y476519D02*
X190117Y476441D01*
X190112Y476363D01*
X190102Y476286D01*
X190089Y476209D01*
X190073Y476133D01*
X190053Y476058D01*
X190029Y475984D01*
X190002Y475911D01*
X189971Y475839D01*
X189937Y475769D01*
X189900Y475701D01*
X189859Y475634D01*
X189815Y475569D01*
X189769Y475507D01*
X189719Y475447D01*
X189667Y475389D01*
X189612Y475334D01*
X189554Y475282D01*
X189494Y475232D01*
X189432Y475186D01*
X189367Y475142D01*
X189301Y475101D01*
X189232Y475064D01*
X189162Y475030D01*
X189090Y474999D01*
X189017Y474972D01*
X188943Y474948D01*
X188868Y474928D01*
X188792Y474912D01*
X188715Y474899D01*
X188638Y474889D01*
X188560Y474884D01*
X188482Y474882D01*
X184390Y474882D01*
X184310Y474884D01*
X184230Y474890D01*
X184150Y474900D01*
X184071Y474913D01*
X183992Y474931D01*
X183915Y474952D01*
X183839Y474978D01*
X183764Y475007D01*
X183690Y475039D01*
X183618Y475075D01*
X183548Y475115D01*
X183481Y475158D01*
X183415Y475204D01*
X183352Y475254D01*
X183291Y475306D01*
X183232Y475361D01*
X183177Y475420D01*
X183125Y475480D01*
X183075Y475544D01*
X183029Y475609D01*
X182986Y475677D01*
X182946Y475747D01*
X182910Y475819D01*
X182878Y475893D01*
X182849Y475967D01*
X182824Y476044D01*
X182802Y476121D01*
X182784Y476200D01*
X182771Y476279D01*
X182761Y476358D01*
X182755Y476439D01*
X182753Y476519D01*
X182753Y478156D01*
X188482Y484850D02*
X188560Y484848D01*
X188638Y484843D01*
X188715Y484833D01*
X188792Y484820D01*
X188868Y484804D01*
X188943Y484784D01*
X189017Y484760D01*
X189090Y484733D01*
X189162Y484702D01*
X189232Y484668D01*
X189301Y484631D01*
X189367Y484590D01*
X189432Y484546D01*
X189494Y484500D01*
X189554Y484450D01*
X189612Y484398D01*
X189667Y484343D01*
X189719Y484285D01*
X189769Y484225D01*
X189815Y484163D01*
X189859Y484098D01*
X189900Y484032D01*
X189937Y483963D01*
X189971Y483893D01*
X190002Y483821D01*
X190029Y483748D01*
X190053Y483674D01*
X190073Y483599D01*
X190089Y483523D01*
X190102Y483446D01*
X190112Y483369D01*
X190117Y483291D01*
X190119Y483213D01*
X190117Y483099D01*
X190112Y482986D01*
X190102Y482872D01*
X190089Y482759D01*
X190072Y482647D01*
X190052Y482535D01*
X190028Y482424D01*
X190000Y482313D01*
X189969Y482204D01*
X189934Y482096D01*
X189895Y481989D01*
X189853Y481883D01*
X189808Y481779D01*
X189759Y481676D01*
X189706Y481575D01*
X189651Y481476D01*
X189592Y481378D01*
X189530Y481283D01*
X189465Y481190D01*
X189397Y481098D01*
X189326Y481010D01*
X189252Y480923D01*
X189175Y480839D01*
X189096Y480758D01*
X184390Y480962D02*
X184312Y480964D01*
X184234Y480969D01*
X184157Y480979D01*
X184080Y480992D01*
X184004Y481008D01*
X183929Y481028D01*
X183855Y481052D01*
X183782Y481079D01*
X183710Y481110D01*
X183640Y481144D01*
X183572Y481181D01*
X183505Y481222D01*
X183440Y481266D01*
X183378Y481312D01*
X183318Y481362D01*
X183260Y481414D01*
X183205Y481469D01*
X183153Y481527D01*
X183103Y481587D01*
X183057Y481649D01*
X183013Y481714D01*
X182972Y481781D01*
X182935Y481849D01*
X182901Y481919D01*
X182870Y481991D01*
X182843Y482064D01*
X182819Y482138D01*
X182799Y482213D01*
X182783Y482289D01*
X182770Y482366D01*
X182760Y482443D01*
X182755Y482521D01*
X182753Y482599D01*
X182755Y482709D01*
X182761Y482818D01*
X182771Y482928D01*
X182784Y483036D01*
X182802Y483145D01*
X182823Y483252D01*
X182849Y483359D01*
X182878Y483465D01*
X182910Y483570D01*
X182947Y483673D01*
X182987Y483775D01*
X183031Y483876D01*
X183079Y483975D01*
X183129Y484072D01*
X183184Y484167D01*
X183242Y484260D01*
X183303Y484351D01*
X183367Y484440D01*
X185822Y481781D02*
X185780Y481715D01*
X185736Y481650D01*
X185688Y481588D01*
X185638Y481528D01*
X185585Y481470D01*
X185529Y481415D01*
X185471Y481362D01*
X185410Y481313D01*
X185347Y481266D01*
X185282Y481222D01*
X185215Y481182D01*
X185146Y481145D01*
X185075Y481111D01*
X185003Y481080D01*
X184929Y481053D01*
X184854Y481029D01*
X184779Y481009D01*
X184702Y480993D01*
X184625Y480980D01*
X184547Y480970D01*
X184468Y480965D01*
X184390Y480963D01*
X187049Y484031D02*
X187091Y484098D01*
X187135Y484163D01*
X187183Y484225D01*
X187233Y484285D01*
X187286Y484343D01*
X187342Y484398D01*
X187401Y484450D01*
X187461Y484500D01*
X187525Y484547D01*
X187590Y484590D01*
X187657Y484631D01*
X187726Y484668D01*
X187797Y484702D01*
X187869Y484733D01*
X187943Y484760D01*
X188017Y484784D01*
X188093Y484804D01*
X188170Y484820D01*
X188247Y484833D01*
X188325Y484843D01*
X188404Y484848D01*
X188482Y484850D01*
X187050Y484031D02*
X185822Y481781D01*
X182753Y488191D02*
X190119Y488191D01*
X182753Y488191D02*
X182753Y490237D01*
X182755Y490326D01*
X182761Y490415D01*
X182771Y490504D01*
X182784Y490592D01*
X182801Y490680D01*
X182823Y490767D01*
X182848Y490852D01*
X182876Y490937D01*
X182909Y491020D01*
X182945Y491102D01*
X182984Y491182D01*
X183027Y491260D01*
X183073Y491336D01*
X183123Y491411D01*
X183176Y491483D01*
X183232Y491552D01*
X183291Y491619D01*
X183352Y491684D01*
X183417Y491745D01*
X183484Y491804D01*
X183553Y491860D01*
X183625Y491913D01*
X183700Y491963D01*
X183776Y492009D01*
X183854Y492052D01*
X183934Y492091D01*
X184016Y492127D01*
X184099Y492160D01*
X184184Y492188D01*
X184269Y492213D01*
X184356Y492235D01*
X184444Y492252D01*
X184532Y492265D01*
X184621Y492275D01*
X184710Y492281D01*
X184799Y492283D01*
X184888Y492281D01*
X184977Y492275D01*
X185066Y492265D01*
X185154Y492252D01*
X185242Y492235D01*
X185329Y492213D01*
X185414Y492188D01*
X185499Y492160D01*
X185582Y492127D01*
X185664Y492091D01*
X185744Y492052D01*
X185822Y492009D01*
X185898Y491963D01*
X185973Y491913D01*
X186045Y491860D01*
X186114Y491804D01*
X186181Y491745D01*
X186246Y491684D01*
X186307Y491619D01*
X186366Y491552D01*
X186422Y491483D01*
X186475Y491411D01*
X186525Y491336D01*
X186571Y491260D01*
X186614Y491182D01*
X186653Y491102D01*
X186689Y491020D01*
X186722Y490937D01*
X186750Y490852D01*
X186775Y490767D01*
X186797Y490680D01*
X186814Y490592D01*
X186827Y490504D01*
X186837Y490415D01*
X186843Y490326D01*
X186845Y490237D01*
X186845Y488191D01*
D13*
X353159Y470408D02*
X357054Y482092D01*
X360948Y470408D01*
X359975Y473329D02*
X354133Y473329D01*
X365693Y470408D02*
X365693Y482092D01*
X368938Y482092D01*
X369051Y482090D01*
X369164Y482084D01*
X369277Y482074D01*
X369390Y482060D01*
X369502Y482043D01*
X369613Y482021D01*
X369723Y481996D01*
X369833Y481966D01*
X369941Y481933D01*
X370048Y481896D01*
X370154Y481856D01*
X370258Y481811D01*
X370361Y481763D01*
X370462Y481712D01*
X370561Y481657D01*
X370658Y481599D01*
X370753Y481537D01*
X370846Y481472D01*
X370936Y481404D01*
X371024Y481333D01*
X371110Y481258D01*
X371193Y481181D01*
X371273Y481101D01*
X371350Y481018D01*
X371425Y480932D01*
X371496Y480844D01*
X371564Y480754D01*
X371629Y480661D01*
X371691Y480566D01*
X371749Y480469D01*
X371804Y480370D01*
X371855Y480269D01*
X371903Y480166D01*
X371948Y480062D01*
X371988Y479956D01*
X372025Y479849D01*
X372058Y479741D01*
X372088Y479631D01*
X372113Y479521D01*
X372135Y479410D01*
X372152Y479298D01*
X372166Y479185D01*
X372176Y479072D01*
X372182Y478959D01*
X372184Y478846D01*
X372182Y478733D01*
X372176Y478620D01*
X372166Y478507D01*
X372152Y478394D01*
X372135Y478282D01*
X372113Y478171D01*
X372088Y478061D01*
X372058Y477951D01*
X372025Y477843D01*
X371988Y477736D01*
X371948Y477630D01*
X371903Y477526D01*
X371855Y477423D01*
X371804Y477322D01*
X371749Y477223D01*
X371691Y477126D01*
X371629Y477031D01*
X371564Y476938D01*
X371496Y476848D01*
X371425Y476760D01*
X371350Y476674D01*
X371273Y476591D01*
X371193Y476511D01*
X371110Y476434D01*
X371024Y476359D01*
X370936Y476288D01*
X370846Y476220D01*
X370753Y476155D01*
X370658Y476093D01*
X370561Y476035D01*
X370462Y475980D01*
X370361Y475929D01*
X370258Y475881D01*
X370154Y475836D01*
X370048Y475796D01*
X369941Y475759D01*
X369833Y475726D01*
X369723Y475696D01*
X369613Y475671D01*
X369502Y475649D01*
X369390Y475632D01*
X369277Y475618D01*
X369164Y475608D01*
X369051Y475602D01*
X368938Y475600D01*
X368938Y475601D02*
X365693Y475601D01*
X369587Y475601D02*
X372184Y470408D01*
X377430Y470408D02*
X377430Y482092D01*
X380676Y482092D01*
X380789Y482090D01*
X380902Y482084D01*
X381015Y482074D01*
X381128Y482060D01*
X381240Y482043D01*
X381351Y482021D01*
X381461Y481996D01*
X381571Y481966D01*
X381679Y481933D01*
X381786Y481896D01*
X381892Y481856D01*
X381996Y481811D01*
X382099Y481763D01*
X382200Y481712D01*
X382299Y481657D01*
X382396Y481599D01*
X382491Y481537D01*
X382584Y481472D01*
X382674Y481404D01*
X382762Y481333D01*
X382848Y481258D01*
X382931Y481181D01*
X383011Y481101D01*
X383088Y481018D01*
X383163Y480932D01*
X383234Y480844D01*
X383302Y480754D01*
X383367Y480661D01*
X383429Y480566D01*
X383487Y480469D01*
X383542Y480370D01*
X383593Y480269D01*
X383641Y480166D01*
X383686Y480062D01*
X383726Y479956D01*
X383763Y479849D01*
X383796Y479741D01*
X383826Y479631D01*
X383851Y479521D01*
X383873Y479410D01*
X383890Y479298D01*
X383904Y479185D01*
X383914Y479072D01*
X383920Y478959D01*
X383922Y478846D01*
X383921Y478846D02*
X383921Y473654D01*
X383922Y473654D02*
X383920Y473541D01*
X383914Y473428D01*
X383904Y473315D01*
X383890Y473202D01*
X383873Y473090D01*
X383851Y472979D01*
X383826Y472869D01*
X383796Y472759D01*
X383763Y472651D01*
X383726Y472544D01*
X383686Y472438D01*
X383641Y472334D01*
X383593Y472231D01*
X383542Y472130D01*
X383487Y472031D01*
X383429Y471934D01*
X383367Y471839D01*
X383302Y471746D01*
X383234Y471656D01*
X383163Y471568D01*
X383088Y471482D01*
X383011Y471399D01*
X382931Y471319D01*
X382848Y471242D01*
X382762Y471167D01*
X382674Y471096D01*
X382584Y471028D01*
X382491Y470963D01*
X382396Y470901D01*
X382299Y470843D01*
X382200Y470788D01*
X382099Y470737D01*
X381996Y470689D01*
X381892Y470644D01*
X381786Y470604D01*
X381679Y470567D01*
X381571Y470534D01*
X381461Y470504D01*
X381351Y470479D01*
X381240Y470457D01*
X381128Y470440D01*
X381015Y470426D01*
X380902Y470416D01*
X380789Y470410D01*
X380676Y470408D01*
X377430Y470408D01*
X389622Y473654D02*
X389622Y482092D01*
X389622Y473654D02*
X389624Y473541D01*
X389630Y473428D01*
X389640Y473315D01*
X389654Y473202D01*
X389671Y473090D01*
X389693Y472979D01*
X389718Y472869D01*
X389748Y472759D01*
X389781Y472651D01*
X389818Y472544D01*
X389858Y472438D01*
X389903Y472334D01*
X389951Y472231D01*
X390002Y472130D01*
X390057Y472031D01*
X390115Y471934D01*
X390177Y471839D01*
X390242Y471746D01*
X390310Y471656D01*
X390381Y471568D01*
X390456Y471482D01*
X390533Y471399D01*
X390613Y471319D01*
X390696Y471242D01*
X390782Y471167D01*
X390870Y471096D01*
X390960Y471028D01*
X391053Y470963D01*
X391148Y470901D01*
X391245Y470843D01*
X391344Y470788D01*
X391445Y470737D01*
X391548Y470689D01*
X391652Y470644D01*
X391758Y470604D01*
X391865Y470567D01*
X391973Y470534D01*
X392083Y470504D01*
X392193Y470479D01*
X392304Y470457D01*
X392416Y470440D01*
X392529Y470426D01*
X392642Y470416D01*
X392755Y470410D01*
X392868Y470408D01*
X392981Y470410D01*
X393094Y470416D01*
X393207Y470426D01*
X393320Y470440D01*
X393432Y470457D01*
X393543Y470479D01*
X393653Y470504D01*
X393763Y470534D01*
X393871Y470567D01*
X393978Y470604D01*
X394084Y470644D01*
X394188Y470689D01*
X394291Y470737D01*
X394392Y470788D01*
X394491Y470843D01*
X394588Y470901D01*
X394683Y470963D01*
X394776Y471028D01*
X394866Y471096D01*
X394954Y471167D01*
X395040Y471242D01*
X395123Y471319D01*
X395203Y471399D01*
X395280Y471482D01*
X395355Y471568D01*
X395426Y471656D01*
X395494Y471746D01*
X395559Y471839D01*
X395621Y471934D01*
X395679Y472031D01*
X395734Y472130D01*
X395785Y472231D01*
X395833Y472334D01*
X395878Y472438D01*
X395918Y472544D01*
X395955Y472651D01*
X395988Y472759D01*
X396018Y472869D01*
X396043Y472979D01*
X396065Y473090D01*
X396082Y473202D01*
X396096Y473315D01*
X396106Y473428D01*
X396112Y473541D01*
X396114Y473654D01*
X396113Y473654D02*
X396113Y482092D01*
X402393Y482092D02*
X402393Y470408D01*
X403691Y470408D02*
X401094Y470408D01*
X401094Y482092D02*
X403691Y482092D01*
X408672Y482092D02*
X408672Y470408D01*
X415163Y470408D02*
X408672Y482092D01*
X415163Y482092D02*
X415163Y470408D01*
X420483Y473654D02*
X420483Y478846D01*
X420485Y478959D01*
X420491Y479072D01*
X420501Y479185D01*
X420515Y479298D01*
X420532Y479410D01*
X420554Y479521D01*
X420579Y479631D01*
X420609Y479741D01*
X420642Y479849D01*
X420679Y479956D01*
X420719Y480062D01*
X420764Y480166D01*
X420812Y480269D01*
X420863Y480370D01*
X420918Y480469D01*
X420976Y480566D01*
X421038Y480661D01*
X421103Y480754D01*
X421171Y480844D01*
X421242Y480932D01*
X421317Y481018D01*
X421394Y481101D01*
X421474Y481181D01*
X421557Y481258D01*
X421643Y481333D01*
X421731Y481404D01*
X421821Y481472D01*
X421914Y481537D01*
X422009Y481599D01*
X422106Y481657D01*
X422205Y481712D01*
X422306Y481763D01*
X422409Y481811D01*
X422513Y481856D01*
X422619Y481896D01*
X422726Y481933D01*
X422834Y481966D01*
X422944Y481996D01*
X423054Y482021D01*
X423165Y482043D01*
X423277Y482060D01*
X423390Y482074D01*
X423503Y482084D01*
X423616Y482090D01*
X423729Y482092D01*
X423842Y482090D01*
X423955Y482084D01*
X424068Y482074D01*
X424181Y482060D01*
X424293Y482043D01*
X424404Y482021D01*
X424514Y481996D01*
X424624Y481966D01*
X424732Y481933D01*
X424839Y481896D01*
X424945Y481856D01*
X425049Y481811D01*
X425152Y481763D01*
X425253Y481712D01*
X425352Y481657D01*
X425449Y481599D01*
X425544Y481537D01*
X425637Y481472D01*
X425727Y481404D01*
X425815Y481333D01*
X425901Y481258D01*
X425984Y481181D01*
X426064Y481101D01*
X426141Y481018D01*
X426216Y480932D01*
X426287Y480844D01*
X426355Y480754D01*
X426420Y480661D01*
X426482Y480566D01*
X426540Y480469D01*
X426595Y480370D01*
X426646Y480269D01*
X426694Y480166D01*
X426739Y480062D01*
X426779Y479956D01*
X426816Y479849D01*
X426849Y479741D01*
X426879Y479631D01*
X426904Y479521D01*
X426926Y479410D01*
X426943Y479298D01*
X426957Y479185D01*
X426967Y479072D01*
X426973Y478959D01*
X426975Y478846D01*
X426974Y478846D02*
X426974Y473654D01*
X426975Y473654D02*
X426973Y473541D01*
X426967Y473428D01*
X426957Y473315D01*
X426943Y473202D01*
X426926Y473090D01*
X426904Y472979D01*
X426879Y472869D01*
X426849Y472759D01*
X426816Y472651D01*
X426779Y472544D01*
X426739Y472438D01*
X426694Y472334D01*
X426646Y472231D01*
X426595Y472130D01*
X426540Y472031D01*
X426482Y471934D01*
X426420Y471839D01*
X426355Y471746D01*
X426287Y471656D01*
X426216Y471568D01*
X426141Y471482D01*
X426064Y471399D01*
X425984Y471319D01*
X425901Y471242D01*
X425815Y471167D01*
X425727Y471096D01*
X425637Y471028D01*
X425544Y470963D01*
X425449Y470901D01*
X425352Y470843D01*
X425253Y470788D01*
X425152Y470737D01*
X425049Y470689D01*
X424945Y470644D01*
X424839Y470604D01*
X424732Y470567D01*
X424624Y470534D01*
X424514Y470504D01*
X424404Y470479D01*
X424293Y470457D01*
X424181Y470440D01*
X424068Y470426D01*
X423955Y470416D01*
X423842Y470410D01*
X423729Y470408D01*
X423616Y470410D01*
X423503Y470416D01*
X423390Y470426D01*
X423277Y470440D01*
X423165Y470457D01*
X423054Y470479D01*
X422944Y470504D01*
X422834Y470534D01*
X422726Y470567D01*
X422619Y470604D01*
X422513Y470644D01*
X422409Y470689D01*
X422306Y470737D01*
X422205Y470788D01*
X422106Y470843D01*
X422009Y470901D01*
X421914Y470963D01*
X421821Y471028D01*
X421731Y471096D01*
X421643Y471167D01*
X421557Y471242D01*
X421474Y471319D01*
X421394Y471399D01*
X421317Y471482D01*
X421242Y471568D01*
X421171Y471656D01*
X421103Y471746D01*
X421038Y471839D01*
X420976Y471934D01*
X420918Y472031D01*
X420863Y472130D01*
X420812Y472231D01*
X420764Y472334D01*
X420719Y472438D01*
X420679Y472544D01*
X420642Y472651D01*
X420609Y472759D01*
X420579Y472869D01*
X420554Y472979D01*
X420532Y473090D01*
X420515Y473202D01*
X420501Y473315D01*
X420491Y473428D01*
X420485Y473541D01*
X420483Y473654D01*
X431419Y469110D02*
X436612Y469110D01*
X441438Y470408D02*
X441438Y482092D01*
X447929Y470408D01*
X447929Y482092D01*
X456495Y482092D02*
X452600Y470408D01*
X460389Y470408D02*
X456495Y482092D01*
X459416Y473329D02*
X453574Y473329D01*
X465060Y470408D02*
X465060Y482092D01*
X471551Y470408D01*
X471551Y482092D01*
X476871Y478846D02*
X476871Y473654D01*
X476870Y478846D02*
X476872Y478959D01*
X476878Y479072D01*
X476888Y479185D01*
X476902Y479298D01*
X476919Y479410D01*
X476941Y479521D01*
X476966Y479631D01*
X476996Y479741D01*
X477029Y479849D01*
X477066Y479956D01*
X477106Y480062D01*
X477151Y480166D01*
X477199Y480269D01*
X477250Y480370D01*
X477305Y480469D01*
X477363Y480566D01*
X477425Y480661D01*
X477490Y480754D01*
X477558Y480844D01*
X477629Y480932D01*
X477704Y481018D01*
X477781Y481101D01*
X477861Y481181D01*
X477944Y481258D01*
X478030Y481333D01*
X478118Y481404D01*
X478208Y481472D01*
X478301Y481537D01*
X478396Y481599D01*
X478493Y481657D01*
X478592Y481712D01*
X478693Y481763D01*
X478796Y481811D01*
X478900Y481856D01*
X479006Y481896D01*
X479113Y481933D01*
X479221Y481966D01*
X479331Y481996D01*
X479441Y482021D01*
X479552Y482043D01*
X479664Y482060D01*
X479777Y482074D01*
X479890Y482084D01*
X480003Y482090D01*
X480116Y482092D01*
X480229Y482090D01*
X480342Y482084D01*
X480455Y482074D01*
X480568Y482060D01*
X480680Y482043D01*
X480791Y482021D01*
X480901Y481996D01*
X481011Y481966D01*
X481119Y481933D01*
X481226Y481896D01*
X481332Y481856D01*
X481436Y481811D01*
X481539Y481763D01*
X481640Y481712D01*
X481739Y481657D01*
X481836Y481599D01*
X481931Y481537D01*
X482024Y481472D01*
X482114Y481404D01*
X482202Y481333D01*
X482288Y481258D01*
X482371Y481181D01*
X482451Y481101D01*
X482528Y481018D01*
X482603Y480932D01*
X482674Y480844D01*
X482742Y480754D01*
X482807Y480661D01*
X482869Y480566D01*
X482927Y480469D01*
X482982Y480370D01*
X483033Y480269D01*
X483081Y480166D01*
X483126Y480062D01*
X483166Y479956D01*
X483203Y479849D01*
X483236Y479741D01*
X483266Y479631D01*
X483291Y479521D01*
X483313Y479410D01*
X483330Y479298D01*
X483344Y479185D01*
X483354Y479072D01*
X483360Y478959D01*
X483362Y478846D01*
X483362Y473654D01*
X483360Y473541D01*
X483354Y473428D01*
X483344Y473315D01*
X483330Y473202D01*
X483313Y473090D01*
X483291Y472979D01*
X483266Y472869D01*
X483236Y472759D01*
X483203Y472651D01*
X483166Y472544D01*
X483126Y472438D01*
X483081Y472334D01*
X483033Y472231D01*
X482982Y472130D01*
X482927Y472031D01*
X482869Y471934D01*
X482807Y471839D01*
X482742Y471746D01*
X482674Y471656D01*
X482603Y471568D01*
X482528Y471482D01*
X482451Y471399D01*
X482371Y471319D01*
X482288Y471242D01*
X482202Y471167D01*
X482114Y471096D01*
X482024Y471028D01*
X481931Y470963D01*
X481836Y470901D01*
X481739Y470843D01*
X481640Y470788D01*
X481539Y470737D01*
X481436Y470689D01*
X481332Y470644D01*
X481226Y470604D01*
X481119Y470567D01*
X481011Y470534D01*
X480901Y470504D01*
X480791Y470479D01*
X480680Y470457D01*
X480568Y470440D01*
X480455Y470426D01*
X480342Y470416D01*
X480229Y470410D01*
X480116Y470408D01*
X480003Y470410D01*
X479890Y470416D01*
X479777Y470426D01*
X479664Y470440D01*
X479552Y470457D01*
X479441Y470479D01*
X479331Y470504D01*
X479221Y470534D01*
X479113Y470567D01*
X479006Y470604D01*
X478900Y470644D01*
X478796Y470689D01*
X478693Y470737D01*
X478592Y470788D01*
X478493Y470843D01*
X478396Y470901D01*
X478301Y470963D01*
X478208Y471028D01*
X478118Y471096D01*
X478030Y471167D01*
X477944Y471242D01*
X477861Y471319D01*
X477781Y471399D01*
X477704Y471482D01*
X477629Y471568D01*
X477558Y471656D01*
X477490Y471746D01*
X477425Y471839D01*
X477363Y471934D01*
X477305Y472031D01*
X477250Y472130D01*
X477199Y472231D01*
X477151Y472334D01*
X477106Y472438D01*
X477066Y472544D01*
X477029Y472651D01*
X476996Y472759D01*
X476966Y472869D01*
X476941Y472979D01*
X476919Y473090D01*
X476902Y473202D01*
X476888Y473315D01*
X476878Y473428D01*
X476872Y473541D01*
X476870Y473654D01*
X488301Y479496D02*
X491546Y482092D01*
X491546Y470408D01*
X488301Y470408D02*
X494792Y470408D01*
D14*
X349250Y330200D02*
X336550Y330200D01*
X330200Y336550D01*
X330200Y349250D02*
X336550Y355600D01*
X374650Y330200D02*
X381000Y336550D01*
X374650Y330200D02*
X361950Y330200D01*
X355600Y336550D01*
X355600Y349250D02*
X361950Y355600D01*
X374650Y355600D01*
X381000Y349250D01*
X355600Y336550D02*
X349250Y330200D01*
X355600Y349250D02*
X349250Y355600D01*
X336550Y355600D01*
X412750Y330200D02*
X425450Y330200D01*
X412750Y330200D02*
X406400Y336550D01*
X406400Y349250D02*
X412750Y355600D01*
X406400Y336550D02*
X400050Y330200D01*
X387350Y330200D01*
X381000Y336550D01*
X381000Y349250D02*
X387350Y355600D01*
X400050Y355600D01*
X406400Y349250D01*
X450850Y330200D02*
X457200Y336550D01*
X450850Y330200D02*
X438150Y330200D01*
X431800Y336550D01*
X431800Y349250D02*
X438150Y355600D01*
X450850Y355600D01*
X457200Y349250D01*
X431800Y336550D02*
X425450Y330200D01*
X431800Y349250D02*
X425450Y355600D01*
X412750Y355600D01*
X488950Y330200D02*
X501650Y330200D01*
X488950Y330200D02*
X482600Y336550D01*
X482600Y349250D02*
X488950Y355600D01*
X482600Y336550D02*
X476250Y330200D01*
X463550Y330200D01*
X457200Y336550D01*
X457200Y349250D02*
X463550Y355600D01*
X476250Y355600D01*
X482600Y349250D01*
X508000Y349250D02*
X508000Y336550D01*
X501650Y330200D01*
X508000Y349250D02*
X501650Y355600D01*
X488950Y355600D01*
X323850Y330200D02*
X311150Y330200D01*
X304800Y336550D01*
X304800Y349250D01*
X311150Y355600D01*
X330200Y336550D02*
X323850Y330200D01*
X330200Y349250D02*
X323850Y355600D01*
X311150Y355600D01*
D10*
X478130Y328295D02*
X478130Y323469D01*
X478130Y325346D02*
X480811Y328295D01*
X479203Y326418D02*
X480811Y323469D01*
X483489Y323469D02*
X485634Y323469D01*
X483489Y323469D02*
X483489Y328295D01*
X485634Y328295D01*
X485098Y326150D02*
X483489Y326150D01*
X487774Y328295D02*
X489382Y326016D01*
X490991Y328295D01*
X489382Y326016D02*
X489382Y323469D01*
X493858Y323469D02*
X493858Y328295D01*
X495198Y328295D01*
X495269Y328293D01*
X495341Y328287D01*
X495411Y328278D01*
X495481Y328265D01*
X495551Y328248D01*
X495619Y328227D01*
X495686Y328203D01*
X495752Y328175D01*
X495816Y328144D01*
X495879Y328109D01*
X495939Y328071D01*
X495998Y328030D01*
X496054Y327986D01*
X496108Y327939D01*
X496159Y327890D01*
X496207Y327837D01*
X496253Y327782D01*
X496295Y327725D01*
X496335Y327665D01*
X496371Y327604D01*
X496404Y327540D01*
X496433Y327475D01*
X496459Y327409D01*
X496482Y327341D01*
X496501Y327272D01*
X496516Y327202D01*
X496527Y327132D01*
X496535Y327061D01*
X496539Y326990D01*
X496539Y326918D01*
X496535Y326847D01*
X496527Y326776D01*
X496516Y326706D01*
X496501Y326636D01*
X496482Y326567D01*
X496459Y326499D01*
X496433Y326433D01*
X496404Y326368D01*
X496371Y326304D01*
X496335Y326243D01*
X496295Y326183D01*
X496253Y326126D01*
X496207Y326071D01*
X496159Y326018D01*
X496108Y325969D01*
X496054Y325922D01*
X495998Y325878D01*
X495939Y325837D01*
X495879Y325799D01*
X495816Y325764D01*
X495752Y325733D01*
X495686Y325705D01*
X495619Y325681D01*
X495551Y325660D01*
X495481Y325643D01*
X495411Y325630D01*
X495341Y325621D01*
X495269Y325615D01*
X495198Y325613D01*
X495198Y325614D02*
X493858Y325614D01*
X498747Y323469D02*
X500355Y328295D01*
X501964Y323469D01*
X501562Y324676D02*
X499149Y324676D01*
X504684Y323469D02*
X504684Y328295D01*
X506024Y328295D01*
X506094Y328293D01*
X506164Y328288D01*
X506234Y328278D01*
X506303Y328266D01*
X506371Y328249D01*
X506438Y328229D01*
X506505Y328206D01*
X506569Y328179D01*
X506633Y328149D01*
X506695Y328115D01*
X506754Y328079D01*
X506812Y328039D01*
X506868Y327996D01*
X506921Y327951D01*
X506972Y327902D01*
X507021Y327851D01*
X507066Y327798D01*
X507109Y327742D01*
X507149Y327684D01*
X507185Y327625D01*
X507219Y327563D01*
X507249Y327499D01*
X507276Y327435D01*
X507299Y327368D01*
X507319Y327301D01*
X507336Y327233D01*
X507348Y327164D01*
X507358Y327094D01*
X507363Y327024D01*
X507365Y326954D01*
X507365Y324810D01*
X507363Y324740D01*
X507358Y324670D01*
X507348Y324600D01*
X507336Y324531D01*
X507319Y324463D01*
X507299Y324396D01*
X507276Y324329D01*
X507249Y324265D01*
X507219Y324201D01*
X507185Y324139D01*
X507149Y324080D01*
X507109Y324022D01*
X507066Y323966D01*
X507021Y323913D01*
X506972Y323862D01*
X506921Y323813D01*
X506868Y323768D01*
X506812Y323725D01*
X506754Y323685D01*
X506694Y323649D01*
X506633Y323615D01*
X506569Y323585D01*
X506505Y323558D01*
X506438Y323535D01*
X506371Y323515D01*
X506303Y323498D01*
X506234Y323486D01*
X506164Y323476D01*
X506094Y323471D01*
X506024Y323469D01*
X504684Y323469D01*
D14*
X806400Y980100D02*
X6400Y980100D01*
X806400Y980100D02*
X806400Y620100D01*
X6400Y620100D01*
X6400Y980100D01*
X49900Y931600D02*
X762900Y931600D01*
X762900Y668600D01*
X49900Y668600D01*
X49900Y931600D01*
D10*
X89535Y991235D02*
X89535Y996061D01*
X89535Y991235D02*
X91680Y991235D01*
X95131Y991235D02*
X96204Y991235D01*
X95131Y991235D02*
X95066Y991237D01*
X95002Y991243D01*
X94938Y991253D01*
X94874Y991266D01*
X94812Y991284D01*
X94751Y991305D01*
X94691Y991329D01*
X94633Y991358D01*
X94576Y991390D01*
X94522Y991425D01*
X94470Y991463D01*
X94420Y991505D01*
X94373Y991549D01*
X94329Y991596D01*
X94287Y991646D01*
X94249Y991698D01*
X94214Y991752D01*
X94182Y991809D01*
X94153Y991867D01*
X94129Y991927D01*
X94108Y991988D01*
X94090Y992050D01*
X94077Y992114D01*
X94067Y992178D01*
X94061Y992242D01*
X94059Y992307D01*
X94059Y994989D01*
X94061Y995054D01*
X94067Y995118D01*
X94077Y995182D01*
X94090Y995246D01*
X94108Y995308D01*
X94129Y995369D01*
X94153Y995429D01*
X94182Y995487D01*
X94214Y995544D01*
X94249Y995598D01*
X94287Y995650D01*
X94329Y995700D01*
X94373Y995747D01*
X94420Y995791D01*
X94470Y995833D01*
X94522Y995871D01*
X94576Y995906D01*
X94633Y995938D01*
X94691Y995967D01*
X94751Y995991D01*
X94812Y996012D01*
X94874Y996030D01*
X94938Y996043D01*
X95002Y996053D01*
X95066Y996059D01*
X95131Y996061D01*
X96204Y996061D01*
X98842Y996061D02*
X98842Y991235D01*
X98842Y996061D02*
X100183Y996061D01*
X100253Y996059D01*
X100323Y996054D01*
X100393Y996044D01*
X100462Y996032D01*
X100530Y996015D01*
X100597Y995995D01*
X100664Y995972D01*
X100728Y995945D01*
X100792Y995915D01*
X100854Y995881D01*
X100913Y995845D01*
X100971Y995805D01*
X101027Y995762D01*
X101080Y995717D01*
X101131Y995668D01*
X101180Y995617D01*
X101225Y995564D01*
X101268Y995508D01*
X101308Y995450D01*
X101344Y995391D01*
X101378Y995329D01*
X101408Y995265D01*
X101435Y995201D01*
X101458Y995134D01*
X101478Y995067D01*
X101495Y994999D01*
X101507Y994930D01*
X101517Y994860D01*
X101522Y994790D01*
X101524Y994720D01*
X101523Y994720D02*
X101523Y992576D01*
X101524Y992576D02*
X101522Y992506D01*
X101517Y992436D01*
X101507Y992366D01*
X101495Y992297D01*
X101478Y992229D01*
X101458Y992162D01*
X101435Y992095D01*
X101408Y992031D01*
X101378Y991967D01*
X101344Y991905D01*
X101308Y991846D01*
X101268Y991788D01*
X101225Y991732D01*
X101180Y991679D01*
X101131Y991628D01*
X101080Y991579D01*
X101027Y991534D01*
X100971Y991491D01*
X100913Y991451D01*
X100853Y991415D01*
X100792Y991381D01*
X100728Y991351D01*
X100664Y991324D01*
X100597Y991301D01*
X100530Y991281D01*
X100462Y991264D01*
X100393Y991252D01*
X100323Y991242D01*
X100253Y991237D01*
X100183Y991235D01*
X98842Y991235D01*
X104512Y994989D02*
X105852Y996061D01*
X105852Y991235D01*
X104512Y991235D02*
X107193Y991235D01*
D14*
X558800Y919480D02*
X609600Y919480D01*
X558800Y919480D02*
X558800Y927100D01*
X558800Y934720D01*
X609600Y934720D01*
X609600Y927100D01*
X609600Y919480D01*
X558800Y927100D02*
X556260Y927100D01*
X609600Y927100D02*
X612140Y927100D01*
D10*
X580148Y916305D02*
X580148Y911479D01*
X580148Y916305D02*
X581489Y916305D01*
X581560Y916303D01*
X581632Y916297D01*
X581702Y916288D01*
X581772Y916275D01*
X581842Y916258D01*
X581910Y916237D01*
X581977Y916213D01*
X582043Y916185D01*
X582107Y916154D01*
X582170Y916119D01*
X582230Y916081D01*
X582289Y916040D01*
X582345Y915996D01*
X582399Y915949D01*
X582450Y915900D01*
X582498Y915847D01*
X582544Y915792D01*
X582586Y915735D01*
X582626Y915675D01*
X582662Y915614D01*
X582695Y915550D01*
X582724Y915485D01*
X582750Y915419D01*
X582773Y915351D01*
X582792Y915282D01*
X582807Y915212D01*
X582818Y915142D01*
X582826Y915071D01*
X582830Y915000D01*
X582830Y914928D01*
X582826Y914857D01*
X582818Y914786D01*
X582807Y914716D01*
X582792Y914646D01*
X582773Y914577D01*
X582750Y914509D01*
X582724Y914443D01*
X582695Y914378D01*
X582662Y914314D01*
X582626Y914253D01*
X582586Y914193D01*
X582544Y914136D01*
X582498Y914081D01*
X582450Y914028D01*
X582399Y913979D01*
X582345Y913932D01*
X582289Y913888D01*
X582230Y913847D01*
X582170Y913809D01*
X582107Y913774D01*
X582043Y913743D01*
X581977Y913715D01*
X581910Y913691D01*
X581842Y913670D01*
X581772Y913653D01*
X581702Y913640D01*
X581632Y913631D01*
X581560Y913625D01*
X581489Y913623D01*
X581489Y913624D02*
X580148Y913624D01*
X581757Y913624D02*
X582829Y911479D01*
X585571Y915233D02*
X586911Y916305D01*
X586911Y911479D01*
X585571Y911479D02*
X588252Y911479D01*
D14*
X615950Y368300D02*
X622300Y361950D01*
X622300Y349250D01*
X615950Y342900D01*
X603250Y342900D02*
X596900Y349250D01*
X596900Y361950D01*
X603250Y368300D01*
X622300Y400050D02*
X622300Y412750D01*
X622300Y400050D02*
X615950Y393700D01*
X603250Y393700D02*
X596900Y400050D01*
X615950Y393700D02*
X622300Y387350D01*
X622300Y374650D01*
X615950Y368300D01*
X603250Y368300D02*
X596900Y374650D01*
X596900Y387350D01*
X603250Y393700D01*
X603250Y419100D02*
X615950Y419100D01*
X622300Y412750D01*
X603250Y419100D02*
X596900Y412750D01*
X596900Y400050D01*
X603250Y342900D02*
X615950Y342900D01*
D10*
X629031Y396179D02*
X629029Y396244D01*
X629023Y396308D01*
X629013Y396372D01*
X629000Y396436D01*
X628982Y396498D01*
X628961Y396559D01*
X628937Y396619D01*
X628908Y396677D01*
X628876Y396734D01*
X628841Y396788D01*
X628803Y396840D01*
X628761Y396890D01*
X628717Y396937D01*
X628670Y396981D01*
X628620Y397023D01*
X628568Y397061D01*
X628514Y397096D01*
X628457Y397128D01*
X628399Y397157D01*
X628339Y397181D01*
X628278Y397202D01*
X628216Y397220D01*
X628152Y397233D01*
X628088Y397243D01*
X628024Y397249D01*
X627959Y397251D01*
X629031Y396179D02*
X629029Y396085D01*
X629023Y395991D01*
X629013Y395897D01*
X629000Y395804D01*
X628982Y395712D01*
X628961Y395620D01*
X628936Y395529D01*
X628907Y395439D01*
X628874Y395351D01*
X628838Y395264D01*
X628798Y395179D01*
X628755Y395095D01*
X628708Y395014D01*
X628658Y394934D01*
X628605Y394856D01*
X628548Y394781D01*
X628489Y394708D01*
X628426Y394638D01*
X628361Y394570D01*
X625277Y394705D02*
X625212Y394707D01*
X625148Y394713D01*
X625084Y394723D01*
X625020Y394736D01*
X624958Y394754D01*
X624897Y394775D01*
X624837Y394799D01*
X624779Y394828D01*
X624722Y394860D01*
X624668Y394895D01*
X624616Y394933D01*
X624566Y394975D01*
X624519Y395019D01*
X624475Y395066D01*
X624433Y395116D01*
X624395Y395168D01*
X624360Y395222D01*
X624328Y395279D01*
X624299Y395337D01*
X624275Y395397D01*
X624254Y395458D01*
X624236Y395520D01*
X624223Y395584D01*
X624213Y395648D01*
X624207Y395712D01*
X624205Y395777D01*
X624207Y395863D01*
X624212Y395949D01*
X624222Y396035D01*
X624235Y396120D01*
X624251Y396205D01*
X624271Y396289D01*
X624295Y396372D01*
X624322Y396454D01*
X624353Y396534D01*
X624387Y396614D01*
X624425Y396691D01*
X624466Y396767D01*
X624510Y396841D01*
X624557Y396914D01*
X624607Y396984D01*
X626215Y395240D02*
X626182Y395187D01*
X626145Y395136D01*
X626106Y395087D01*
X626064Y395040D01*
X626019Y394996D01*
X625972Y394955D01*
X625923Y394916D01*
X625871Y394880D01*
X625817Y394847D01*
X625762Y394818D01*
X625705Y394792D01*
X625646Y394769D01*
X625587Y394749D01*
X625526Y394733D01*
X625465Y394720D01*
X625402Y394711D01*
X625340Y394706D01*
X625277Y394704D01*
X627021Y396715D02*
X627054Y396768D01*
X627091Y396819D01*
X627130Y396868D01*
X627172Y396915D01*
X627217Y396959D01*
X627264Y397000D01*
X627313Y397039D01*
X627365Y397075D01*
X627419Y397108D01*
X627474Y397137D01*
X627531Y397163D01*
X627590Y397186D01*
X627649Y397206D01*
X627710Y397222D01*
X627771Y397235D01*
X627834Y397244D01*
X627896Y397249D01*
X627959Y397251D01*
X627020Y396715D02*
X626216Y395240D01*
X629031Y400076D02*
X629031Y402221D01*
X629031Y400076D02*
X624205Y400076D01*
X624205Y402221D01*
X626350Y401685D02*
X626350Y400076D01*
X624205Y404875D02*
X629031Y404875D01*
X624205Y404875D02*
X624205Y406215D01*
X624207Y406286D01*
X624213Y406358D01*
X624222Y406428D01*
X624235Y406498D01*
X624252Y406568D01*
X624273Y406636D01*
X624297Y406703D01*
X624325Y406769D01*
X624356Y406833D01*
X624391Y406896D01*
X624429Y406956D01*
X624470Y407015D01*
X624514Y407071D01*
X624561Y407125D01*
X624610Y407176D01*
X624663Y407224D01*
X624718Y407270D01*
X624775Y407312D01*
X624835Y407352D01*
X624896Y407388D01*
X624960Y407421D01*
X625025Y407450D01*
X625091Y407476D01*
X625159Y407499D01*
X625228Y407518D01*
X625298Y407533D01*
X625368Y407544D01*
X625439Y407552D01*
X625510Y407556D01*
X625582Y407556D01*
X625653Y407552D01*
X625724Y407544D01*
X625794Y407533D01*
X625864Y407518D01*
X625933Y407499D01*
X626001Y407476D01*
X626067Y407450D01*
X626132Y407421D01*
X626196Y407388D01*
X626257Y407352D01*
X626317Y407312D01*
X626374Y407270D01*
X626429Y407224D01*
X626482Y407176D01*
X626531Y407125D01*
X626578Y407071D01*
X626622Y407015D01*
X626663Y406956D01*
X626701Y406896D01*
X626736Y406833D01*
X626767Y406769D01*
X626795Y406703D01*
X626819Y406636D01*
X626840Y406568D01*
X626857Y406498D01*
X626870Y406428D01*
X626879Y406358D01*
X626885Y406286D01*
X626887Y406215D01*
X626886Y406215D02*
X626886Y404875D01*
X626886Y406484D02*
X629031Y407556D01*
X629031Y411638D02*
X624205Y410029D01*
X624205Y413247D02*
X629031Y411638D01*
X627690Y415784D02*
X625546Y415784D01*
X625546Y415783D02*
X625475Y415785D01*
X625403Y415791D01*
X625333Y415800D01*
X625263Y415813D01*
X625193Y415830D01*
X625125Y415851D01*
X625058Y415875D01*
X624992Y415903D01*
X624928Y415934D01*
X624865Y415969D01*
X624805Y416007D01*
X624746Y416048D01*
X624690Y416092D01*
X624636Y416139D01*
X624585Y416188D01*
X624537Y416241D01*
X624491Y416296D01*
X624449Y416353D01*
X624409Y416413D01*
X624373Y416474D01*
X624340Y416538D01*
X624311Y416603D01*
X624285Y416669D01*
X624262Y416737D01*
X624243Y416806D01*
X624228Y416876D01*
X624217Y416946D01*
X624209Y417017D01*
X624205Y417088D01*
X624205Y417160D01*
X624209Y417231D01*
X624217Y417302D01*
X624228Y417372D01*
X624243Y417442D01*
X624262Y417511D01*
X624285Y417579D01*
X624311Y417645D01*
X624340Y417710D01*
X624373Y417774D01*
X624409Y417835D01*
X624449Y417895D01*
X624491Y417952D01*
X624537Y418007D01*
X624585Y418060D01*
X624636Y418109D01*
X624690Y418156D01*
X624746Y418200D01*
X624805Y418241D01*
X624865Y418279D01*
X624928Y418314D01*
X624992Y418345D01*
X625058Y418373D01*
X625125Y418397D01*
X625193Y418418D01*
X625263Y418435D01*
X625333Y418448D01*
X625403Y418457D01*
X625475Y418463D01*
X625546Y418465D01*
X627690Y418465D01*
X627761Y418463D01*
X627833Y418457D01*
X627903Y418448D01*
X627973Y418435D01*
X628043Y418418D01*
X628111Y418397D01*
X628178Y418373D01*
X628244Y418345D01*
X628308Y418314D01*
X628371Y418279D01*
X628431Y418241D01*
X628490Y418200D01*
X628546Y418156D01*
X628600Y418109D01*
X628651Y418060D01*
X628699Y418007D01*
X628745Y417952D01*
X628787Y417895D01*
X628827Y417835D01*
X628863Y417774D01*
X628896Y417710D01*
X628925Y417645D01*
X628951Y417579D01*
X628974Y417511D01*
X628993Y417442D01*
X629008Y417372D01*
X629019Y417302D01*
X629027Y417231D01*
X629031Y417160D01*
X629031Y417088D01*
X629027Y417017D01*
X629019Y416946D01*
X629008Y416876D01*
X628993Y416806D01*
X628974Y416737D01*
X628951Y416669D01*
X628925Y416603D01*
X628896Y416538D01*
X628863Y416474D01*
X628827Y416413D01*
X628787Y416353D01*
X628745Y416296D01*
X628699Y416241D01*
X628651Y416188D01*
X628600Y416139D01*
X628546Y416092D01*
X628490Y416048D01*
X628431Y416007D01*
X628371Y415969D01*
X628308Y415934D01*
X628244Y415903D01*
X628178Y415875D01*
X628111Y415851D01*
X628043Y415830D01*
X627973Y415813D01*
X627903Y415800D01*
X627833Y415791D01*
X627761Y415785D01*
X627690Y415783D01*
D14*
X596900Y539750D02*
X596900Y552450D01*
X603250Y558800D01*
X615950Y558800D02*
X622300Y552450D01*
X603250Y558800D02*
X596900Y565150D01*
X596900Y577850D01*
X603250Y584200D01*
X615950Y584200D02*
X622300Y577850D01*
X622300Y565150D01*
X615950Y558800D01*
X615950Y533400D02*
X603250Y533400D01*
X596900Y539750D01*
X615950Y533400D02*
X622300Y539750D01*
X622300Y552450D01*
X615950Y584200D02*
X603250Y584200D01*
D10*
X593923Y536716D02*
X593988Y536714D01*
X594052Y536708D01*
X594116Y536698D01*
X594180Y536685D01*
X594242Y536667D01*
X594303Y536646D01*
X594363Y536622D01*
X594421Y536593D01*
X594478Y536561D01*
X594532Y536526D01*
X594584Y536488D01*
X594634Y536446D01*
X594681Y536402D01*
X594725Y536355D01*
X594767Y536305D01*
X594805Y536253D01*
X594840Y536199D01*
X594872Y536142D01*
X594901Y536084D01*
X594925Y536024D01*
X594946Y535963D01*
X594964Y535901D01*
X594977Y535837D01*
X594987Y535773D01*
X594993Y535709D01*
X594995Y535644D01*
X594993Y535550D01*
X594987Y535456D01*
X594977Y535362D01*
X594964Y535269D01*
X594946Y535177D01*
X594925Y535085D01*
X594900Y534994D01*
X594871Y534904D01*
X594838Y534816D01*
X594802Y534729D01*
X594762Y534644D01*
X594719Y534560D01*
X594672Y534479D01*
X594622Y534399D01*
X594569Y534321D01*
X594512Y534246D01*
X594453Y534173D01*
X594390Y534103D01*
X594325Y534035D01*
X591241Y534170D02*
X591176Y534172D01*
X591112Y534178D01*
X591048Y534188D01*
X590984Y534201D01*
X590922Y534219D01*
X590861Y534240D01*
X590801Y534264D01*
X590743Y534293D01*
X590686Y534325D01*
X590632Y534360D01*
X590580Y534398D01*
X590530Y534440D01*
X590483Y534484D01*
X590439Y534531D01*
X590397Y534581D01*
X590359Y534633D01*
X590324Y534687D01*
X590292Y534744D01*
X590263Y534802D01*
X590239Y534862D01*
X590218Y534923D01*
X590200Y534985D01*
X590187Y535049D01*
X590177Y535113D01*
X590171Y535177D01*
X590169Y535242D01*
X590171Y535328D01*
X590176Y535414D01*
X590186Y535500D01*
X590199Y535585D01*
X590215Y535670D01*
X590235Y535754D01*
X590259Y535837D01*
X590286Y535919D01*
X590317Y535999D01*
X590351Y536079D01*
X590389Y536156D01*
X590430Y536232D01*
X590474Y536306D01*
X590521Y536379D01*
X590571Y536449D01*
X592179Y534705D02*
X592146Y534652D01*
X592109Y534601D01*
X592070Y534552D01*
X592028Y534505D01*
X591983Y534461D01*
X591936Y534420D01*
X591887Y534381D01*
X591835Y534345D01*
X591781Y534312D01*
X591726Y534283D01*
X591669Y534257D01*
X591610Y534234D01*
X591551Y534214D01*
X591490Y534198D01*
X591429Y534185D01*
X591366Y534176D01*
X591304Y534171D01*
X591241Y534169D01*
X592985Y536180D02*
X593018Y536233D01*
X593055Y536284D01*
X593094Y536333D01*
X593136Y536380D01*
X593181Y536424D01*
X593228Y536465D01*
X593277Y536504D01*
X593329Y536540D01*
X593383Y536573D01*
X593438Y536602D01*
X593495Y536628D01*
X593554Y536651D01*
X593613Y536671D01*
X593674Y536687D01*
X593735Y536700D01*
X593798Y536709D01*
X593860Y536714D01*
X593923Y536716D01*
X592984Y536180D02*
X592180Y534705D01*
X594995Y539541D02*
X594995Y541686D01*
X594995Y539541D02*
X590169Y539541D01*
X590169Y541686D01*
X592314Y541150D02*
X592314Y539541D01*
X590169Y544340D02*
X594995Y544340D01*
X590169Y544340D02*
X590169Y545680D01*
X590171Y545751D01*
X590177Y545823D01*
X590186Y545893D01*
X590199Y545963D01*
X590216Y546033D01*
X590237Y546101D01*
X590261Y546168D01*
X590289Y546234D01*
X590320Y546298D01*
X590355Y546361D01*
X590393Y546421D01*
X590434Y546480D01*
X590478Y546536D01*
X590525Y546590D01*
X590574Y546641D01*
X590627Y546689D01*
X590682Y546735D01*
X590739Y546777D01*
X590799Y546817D01*
X590860Y546853D01*
X590924Y546886D01*
X590989Y546915D01*
X591055Y546941D01*
X591123Y546964D01*
X591192Y546983D01*
X591262Y546998D01*
X591332Y547009D01*
X591403Y547017D01*
X591474Y547021D01*
X591546Y547021D01*
X591617Y547017D01*
X591688Y547009D01*
X591758Y546998D01*
X591828Y546983D01*
X591897Y546964D01*
X591965Y546941D01*
X592031Y546915D01*
X592096Y546886D01*
X592160Y546853D01*
X592221Y546817D01*
X592281Y546777D01*
X592338Y546735D01*
X592393Y546689D01*
X592446Y546641D01*
X592495Y546590D01*
X592542Y546536D01*
X592586Y546480D01*
X592627Y546421D01*
X592665Y546361D01*
X592700Y546298D01*
X592731Y546234D01*
X592759Y546168D01*
X592783Y546101D01*
X592804Y546033D01*
X592821Y545963D01*
X592834Y545893D01*
X592843Y545823D01*
X592849Y545751D01*
X592851Y545680D01*
X592850Y545680D02*
X592850Y544340D01*
X592850Y545949D02*
X594995Y547021D01*
X594995Y551103D02*
X590169Y549494D01*
X590169Y552712D02*
X594995Y551103D01*
X593654Y555249D02*
X591510Y555249D01*
X591510Y555248D02*
X591439Y555250D01*
X591367Y555256D01*
X591297Y555265D01*
X591227Y555278D01*
X591157Y555295D01*
X591089Y555316D01*
X591022Y555340D01*
X590956Y555368D01*
X590892Y555399D01*
X590829Y555434D01*
X590769Y555472D01*
X590710Y555513D01*
X590654Y555557D01*
X590600Y555604D01*
X590549Y555653D01*
X590501Y555706D01*
X590455Y555761D01*
X590413Y555818D01*
X590373Y555878D01*
X590337Y555939D01*
X590304Y556003D01*
X590275Y556068D01*
X590249Y556134D01*
X590226Y556202D01*
X590207Y556271D01*
X590192Y556341D01*
X590181Y556411D01*
X590173Y556482D01*
X590169Y556553D01*
X590169Y556625D01*
X590173Y556696D01*
X590181Y556767D01*
X590192Y556837D01*
X590207Y556907D01*
X590226Y556976D01*
X590249Y557044D01*
X590275Y557110D01*
X590304Y557175D01*
X590337Y557239D01*
X590373Y557300D01*
X590413Y557360D01*
X590455Y557417D01*
X590501Y557472D01*
X590549Y557525D01*
X590600Y557574D01*
X590654Y557621D01*
X590710Y557665D01*
X590769Y557706D01*
X590829Y557744D01*
X590892Y557779D01*
X590956Y557810D01*
X591022Y557838D01*
X591089Y557862D01*
X591157Y557883D01*
X591227Y557900D01*
X591297Y557913D01*
X591367Y557922D01*
X591439Y557928D01*
X591510Y557930D01*
X593654Y557930D01*
X593725Y557928D01*
X593797Y557922D01*
X593867Y557913D01*
X593937Y557900D01*
X594007Y557883D01*
X594075Y557862D01*
X594142Y557838D01*
X594208Y557810D01*
X594272Y557779D01*
X594335Y557744D01*
X594395Y557706D01*
X594454Y557665D01*
X594510Y557621D01*
X594564Y557574D01*
X594615Y557525D01*
X594663Y557472D01*
X594709Y557417D01*
X594751Y557360D01*
X594791Y557300D01*
X594827Y557239D01*
X594860Y557175D01*
X594889Y557110D01*
X594915Y557044D01*
X594938Y556976D01*
X594957Y556907D01*
X594972Y556837D01*
X594983Y556767D01*
X594991Y556696D01*
X594995Y556625D01*
X594995Y556553D01*
X594991Y556482D01*
X594983Y556411D01*
X594972Y556341D01*
X594957Y556271D01*
X594938Y556202D01*
X594915Y556134D01*
X594889Y556068D01*
X594860Y556003D01*
X594827Y555939D01*
X594791Y555878D01*
X594751Y555818D01*
X594709Y555761D01*
X594663Y555706D01*
X594615Y555653D01*
X594564Y555604D01*
X594510Y555557D01*
X594454Y555513D01*
X594395Y555472D01*
X594335Y555434D01*
X594272Y555399D01*
X594208Y555368D01*
X594142Y555340D01*
X594075Y555316D01*
X594007Y555295D01*
X593937Y555278D01*
X593867Y555265D01*
X593797Y555256D01*
X593725Y555250D01*
X593654Y555248D01*
X595531Y560455D02*
X595531Y562600D01*
X594995Y565327D02*
X594995Y567472D01*
X594995Y565327D02*
X590169Y565327D01*
X590169Y567472D01*
X592314Y566935D02*
X592314Y565327D01*
X590169Y570062D02*
X594995Y570062D01*
X594995Y572743D02*
X590169Y570062D01*
X590169Y572743D02*
X594995Y572743D01*
X594995Y575914D02*
X590169Y575914D01*
X590169Y577255D01*
X590171Y577325D01*
X590176Y577395D01*
X590186Y577465D01*
X590198Y577534D01*
X590215Y577602D01*
X590235Y577669D01*
X590258Y577736D01*
X590285Y577800D01*
X590315Y577864D01*
X590349Y577926D01*
X590385Y577985D01*
X590425Y578043D01*
X590468Y578099D01*
X590513Y578152D01*
X590562Y578203D01*
X590613Y578252D01*
X590666Y578297D01*
X590722Y578340D01*
X590780Y578380D01*
X590840Y578416D01*
X590901Y578450D01*
X590965Y578480D01*
X591029Y578507D01*
X591096Y578530D01*
X591163Y578550D01*
X591231Y578567D01*
X591300Y578579D01*
X591370Y578589D01*
X591440Y578594D01*
X591510Y578596D01*
X591510Y578595D02*
X593654Y578595D01*
X593654Y578596D02*
X593724Y578594D01*
X593794Y578589D01*
X593864Y578579D01*
X593933Y578567D01*
X594001Y578550D01*
X594068Y578530D01*
X594135Y578507D01*
X594199Y578480D01*
X594263Y578450D01*
X594325Y578416D01*
X594384Y578380D01*
X594442Y578340D01*
X594498Y578297D01*
X594551Y578252D01*
X594602Y578203D01*
X594651Y578152D01*
X594696Y578099D01*
X594739Y578043D01*
X594779Y577985D01*
X594815Y577925D01*
X594849Y577864D01*
X594879Y577800D01*
X594906Y577736D01*
X594929Y577669D01*
X594949Y577602D01*
X594966Y577534D01*
X594978Y577465D01*
X594988Y577395D01*
X594993Y577325D01*
X594995Y577255D01*
X594995Y575914D01*
D15*
X63500Y364490D02*
X63500Y199390D01*
X63500Y364490D02*
X266700Y364490D01*
X266700Y199390D01*
X63500Y199390D01*
D10*
X98425Y238125D02*
X107315Y238125D01*
X103364Y241088D02*
X98425Y238125D01*
X103364Y241088D02*
X98425Y244052D01*
X107315Y244052D01*
X107315Y251336D02*
X107313Y251422D01*
X107307Y251508D01*
X107298Y251594D01*
X107285Y251679D01*
X107268Y251764D01*
X107248Y251847D01*
X107224Y251930D01*
X107196Y252012D01*
X107165Y252092D01*
X107130Y252171D01*
X107092Y252248D01*
X107050Y252324D01*
X107006Y252398D01*
X106958Y252469D01*
X106907Y252539D01*
X106853Y252606D01*
X106796Y252671D01*
X106736Y252733D01*
X106674Y252793D01*
X106609Y252850D01*
X106542Y252904D01*
X106472Y252955D01*
X106401Y253003D01*
X106327Y253047D01*
X106251Y253089D01*
X106174Y253127D01*
X106095Y253162D01*
X106015Y253193D01*
X105933Y253221D01*
X105850Y253245D01*
X105767Y253265D01*
X105682Y253282D01*
X105597Y253295D01*
X105511Y253304D01*
X105425Y253310D01*
X105339Y253312D01*
X107316Y251336D02*
X107314Y251209D01*
X107308Y251083D01*
X107299Y250956D01*
X107285Y250830D01*
X107268Y250705D01*
X107247Y250580D01*
X107222Y250455D01*
X107193Y250332D01*
X107161Y250209D01*
X107125Y250088D01*
X107085Y249967D01*
X107042Y249848D01*
X106995Y249731D01*
X106944Y249614D01*
X106890Y249500D01*
X106833Y249387D01*
X106772Y249276D01*
X106708Y249166D01*
X106640Y249059D01*
X106570Y248954D01*
X106496Y248851D01*
X106419Y248750D01*
X106339Y248652D01*
X106256Y248556D01*
X106170Y248463D01*
X106081Y248372D01*
X100401Y248619D02*
X100315Y248621D01*
X100229Y248627D01*
X100143Y248636D01*
X100058Y248649D01*
X99973Y248666D01*
X99890Y248686D01*
X99807Y248710D01*
X99725Y248738D01*
X99645Y248769D01*
X99566Y248804D01*
X99489Y248842D01*
X99413Y248884D01*
X99339Y248928D01*
X99268Y248976D01*
X99198Y249027D01*
X99131Y249081D01*
X99066Y249138D01*
X99004Y249198D01*
X98944Y249260D01*
X98887Y249325D01*
X98833Y249392D01*
X98782Y249462D01*
X98734Y249533D01*
X98690Y249607D01*
X98648Y249683D01*
X98610Y249760D01*
X98575Y249839D01*
X98544Y249919D01*
X98516Y250001D01*
X98492Y250084D01*
X98472Y250167D01*
X98455Y250252D01*
X98442Y250337D01*
X98433Y250423D01*
X98427Y250509D01*
X98425Y250595D01*
X98427Y250714D01*
X98433Y250833D01*
X98442Y250952D01*
X98456Y251070D01*
X98473Y251188D01*
X98494Y251306D01*
X98519Y251422D01*
X98547Y251538D01*
X98579Y251653D01*
X98615Y251766D01*
X98655Y251879D01*
X98698Y251990D01*
X98744Y252100D01*
X98794Y252208D01*
X98848Y252314D01*
X98905Y252419D01*
X98965Y252521D01*
X99029Y252622D01*
X99096Y252721D01*
X99166Y252817D01*
X102129Y249608D02*
X102084Y249534D01*
X102035Y249462D01*
X101983Y249392D01*
X101928Y249325D01*
X101870Y249260D01*
X101810Y249198D01*
X101747Y249139D01*
X101681Y249082D01*
X101613Y249028D01*
X101543Y248977D01*
X101471Y248929D01*
X101396Y248884D01*
X101320Y248843D01*
X101242Y248805D01*
X101162Y248770D01*
X101081Y248739D01*
X100999Y248711D01*
X100916Y248687D01*
X100832Y248667D01*
X100746Y248650D01*
X100661Y248637D01*
X100574Y248628D01*
X100488Y248622D01*
X100401Y248620D01*
X103611Y252323D02*
X103656Y252397D01*
X103705Y252469D01*
X103757Y252539D01*
X103812Y252606D01*
X103870Y252671D01*
X103930Y252733D01*
X103993Y252793D01*
X104059Y252849D01*
X104127Y252903D01*
X104197Y252954D01*
X104269Y253002D01*
X104344Y253047D01*
X104420Y253088D01*
X104498Y253126D01*
X104578Y253161D01*
X104659Y253192D01*
X104741Y253220D01*
X104824Y253244D01*
X104908Y253264D01*
X104994Y253281D01*
X105079Y253294D01*
X105166Y253303D01*
X105252Y253309D01*
X105339Y253311D01*
X103611Y252324D02*
X102129Y249607D01*
X100401Y257212D02*
X98425Y259681D01*
X107315Y259681D01*
X107315Y257212D02*
X107315Y262151D01*
X123825Y238125D02*
X132715Y238125D01*
X128764Y241088D02*
X123825Y238125D01*
X128764Y241088D02*
X123825Y244052D01*
X132715Y244052D01*
X132715Y251336D02*
X132713Y251422D01*
X132707Y251508D01*
X132698Y251594D01*
X132685Y251679D01*
X132668Y251764D01*
X132648Y251847D01*
X132624Y251930D01*
X132596Y252012D01*
X132565Y252092D01*
X132530Y252171D01*
X132492Y252248D01*
X132450Y252324D01*
X132406Y252398D01*
X132358Y252469D01*
X132307Y252539D01*
X132253Y252606D01*
X132196Y252671D01*
X132136Y252733D01*
X132074Y252793D01*
X132009Y252850D01*
X131942Y252904D01*
X131872Y252955D01*
X131801Y253003D01*
X131727Y253047D01*
X131651Y253089D01*
X131574Y253127D01*
X131495Y253162D01*
X131415Y253193D01*
X131333Y253221D01*
X131250Y253245D01*
X131167Y253265D01*
X131082Y253282D01*
X130997Y253295D01*
X130911Y253304D01*
X130825Y253310D01*
X130739Y253312D01*
X132716Y251336D02*
X132714Y251209D01*
X132708Y251083D01*
X132699Y250956D01*
X132685Y250830D01*
X132668Y250705D01*
X132647Y250580D01*
X132622Y250455D01*
X132593Y250332D01*
X132561Y250209D01*
X132525Y250088D01*
X132485Y249967D01*
X132442Y249848D01*
X132395Y249731D01*
X132344Y249614D01*
X132290Y249500D01*
X132233Y249387D01*
X132172Y249276D01*
X132108Y249166D01*
X132040Y249059D01*
X131970Y248954D01*
X131896Y248851D01*
X131819Y248750D01*
X131739Y248652D01*
X131656Y248556D01*
X131570Y248463D01*
X131481Y248372D01*
X125801Y248619D02*
X125715Y248621D01*
X125629Y248627D01*
X125543Y248636D01*
X125458Y248649D01*
X125373Y248666D01*
X125290Y248686D01*
X125207Y248710D01*
X125125Y248738D01*
X125045Y248769D01*
X124966Y248804D01*
X124889Y248842D01*
X124813Y248884D01*
X124739Y248928D01*
X124668Y248976D01*
X124598Y249027D01*
X124531Y249081D01*
X124466Y249138D01*
X124404Y249198D01*
X124344Y249260D01*
X124287Y249325D01*
X124233Y249392D01*
X124182Y249462D01*
X124134Y249533D01*
X124090Y249607D01*
X124048Y249683D01*
X124010Y249760D01*
X123975Y249839D01*
X123944Y249919D01*
X123916Y250001D01*
X123892Y250084D01*
X123872Y250167D01*
X123855Y250252D01*
X123842Y250337D01*
X123833Y250423D01*
X123827Y250509D01*
X123825Y250595D01*
X123827Y250714D01*
X123833Y250833D01*
X123842Y250952D01*
X123856Y251070D01*
X123873Y251188D01*
X123894Y251306D01*
X123919Y251422D01*
X123947Y251538D01*
X123979Y251653D01*
X124015Y251766D01*
X124055Y251879D01*
X124098Y251990D01*
X124144Y252100D01*
X124194Y252208D01*
X124248Y252314D01*
X124305Y252419D01*
X124365Y252521D01*
X124429Y252622D01*
X124496Y252721D01*
X124566Y252817D01*
X127529Y249608D02*
X127484Y249534D01*
X127435Y249462D01*
X127383Y249392D01*
X127328Y249325D01*
X127270Y249260D01*
X127210Y249198D01*
X127147Y249139D01*
X127081Y249082D01*
X127013Y249028D01*
X126943Y248977D01*
X126871Y248929D01*
X126796Y248884D01*
X126720Y248843D01*
X126642Y248805D01*
X126562Y248770D01*
X126481Y248739D01*
X126399Y248711D01*
X126316Y248687D01*
X126232Y248667D01*
X126146Y248650D01*
X126061Y248637D01*
X125974Y248628D01*
X125888Y248622D01*
X125801Y248620D01*
X129011Y252323D02*
X129056Y252397D01*
X129105Y252469D01*
X129157Y252539D01*
X129212Y252606D01*
X129270Y252671D01*
X129330Y252733D01*
X129393Y252793D01*
X129459Y252849D01*
X129527Y252903D01*
X129597Y252954D01*
X129669Y253002D01*
X129744Y253047D01*
X129820Y253088D01*
X129898Y253126D01*
X129978Y253161D01*
X130059Y253192D01*
X130141Y253220D01*
X130224Y253244D01*
X130308Y253264D01*
X130394Y253281D01*
X130479Y253294D01*
X130566Y253303D01*
X130652Y253309D01*
X130739Y253311D01*
X129011Y252324D02*
X127529Y249607D01*
X123825Y259928D02*
X123827Y260020D01*
X123833Y260112D01*
X123842Y260203D01*
X123855Y260294D01*
X123872Y260384D01*
X123893Y260474D01*
X123917Y260562D01*
X123945Y260650D01*
X123977Y260736D01*
X124012Y260821D01*
X124051Y260904D01*
X124093Y260986D01*
X124138Y261066D01*
X124187Y261144D01*
X124239Y261220D01*
X124294Y261293D01*
X124352Y261365D01*
X124412Y261434D01*
X124476Y261500D01*
X124542Y261564D01*
X124611Y261624D01*
X124683Y261682D01*
X124756Y261737D01*
X124832Y261789D01*
X124910Y261838D01*
X124990Y261883D01*
X125072Y261925D01*
X125155Y261964D01*
X125240Y261999D01*
X125326Y262031D01*
X125414Y262059D01*
X125502Y262083D01*
X125592Y262104D01*
X125682Y262121D01*
X125773Y262134D01*
X125864Y262143D01*
X125956Y262149D01*
X126048Y262151D01*
X123825Y259928D02*
X123827Y259822D01*
X123833Y259717D01*
X123843Y259612D01*
X123856Y259507D01*
X123874Y259403D01*
X123895Y259300D01*
X123920Y259197D01*
X123949Y259095D01*
X123982Y258995D01*
X124018Y258896D01*
X124058Y258798D01*
X124102Y258702D01*
X124149Y258607D01*
X124199Y258515D01*
X124253Y258424D01*
X124311Y258335D01*
X124371Y258249D01*
X124435Y258165D01*
X124501Y258083D01*
X124571Y258003D01*
X124644Y257927D01*
X124719Y257853D01*
X124797Y257782D01*
X124878Y257714D01*
X124961Y257648D01*
X125047Y257586D01*
X125134Y257528D01*
X125224Y257472D01*
X125316Y257420D01*
X125410Y257371D01*
X125505Y257326D01*
X125602Y257284D01*
X125701Y257246D01*
X125800Y257212D01*
X127777Y261409D02*
X127708Y261478D01*
X127638Y261544D01*
X127564Y261607D01*
X127488Y261666D01*
X127410Y261723D01*
X127330Y261777D01*
X127247Y261827D01*
X127163Y261874D01*
X127076Y261917D01*
X126988Y261957D01*
X126899Y261993D01*
X126808Y262026D01*
X126716Y262055D01*
X126622Y262080D01*
X126528Y262101D01*
X126433Y262119D01*
X126337Y262132D01*
X126241Y262142D01*
X126145Y262148D01*
X126048Y262150D01*
X127776Y261410D02*
X132715Y257212D01*
X132715Y262151D01*
X149225Y238125D02*
X158115Y238125D01*
X154164Y241088D02*
X149225Y238125D01*
X154164Y241088D02*
X149225Y244052D01*
X158115Y244052D01*
X158115Y251336D02*
X158113Y251422D01*
X158107Y251508D01*
X158098Y251594D01*
X158085Y251679D01*
X158068Y251764D01*
X158048Y251847D01*
X158024Y251930D01*
X157996Y252012D01*
X157965Y252092D01*
X157930Y252171D01*
X157892Y252248D01*
X157850Y252324D01*
X157806Y252398D01*
X157758Y252469D01*
X157707Y252539D01*
X157653Y252606D01*
X157596Y252671D01*
X157536Y252733D01*
X157474Y252793D01*
X157409Y252850D01*
X157342Y252904D01*
X157272Y252955D01*
X157201Y253003D01*
X157127Y253047D01*
X157051Y253089D01*
X156974Y253127D01*
X156895Y253162D01*
X156815Y253193D01*
X156733Y253221D01*
X156650Y253245D01*
X156567Y253265D01*
X156482Y253282D01*
X156397Y253295D01*
X156311Y253304D01*
X156225Y253310D01*
X156139Y253312D01*
X158116Y251336D02*
X158114Y251209D01*
X158108Y251083D01*
X158099Y250956D01*
X158085Y250830D01*
X158068Y250705D01*
X158047Y250580D01*
X158022Y250455D01*
X157993Y250332D01*
X157961Y250209D01*
X157925Y250088D01*
X157885Y249967D01*
X157842Y249848D01*
X157795Y249731D01*
X157744Y249614D01*
X157690Y249500D01*
X157633Y249387D01*
X157572Y249276D01*
X157508Y249166D01*
X157440Y249059D01*
X157370Y248954D01*
X157296Y248851D01*
X157219Y248750D01*
X157139Y248652D01*
X157056Y248556D01*
X156970Y248463D01*
X156881Y248372D01*
X151201Y248619D02*
X151115Y248621D01*
X151029Y248627D01*
X150943Y248636D01*
X150858Y248649D01*
X150773Y248666D01*
X150690Y248686D01*
X150607Y248710D01*
X150525Y248738D01*
X150445Y248769D01*
X150366Y248804D01*
X150289Y248842D01*
X150213Y248884D01*
X150139Y248928D01*
X150068Y248976D01*
X149998Y249027D01*
X149931Y249081D01*
X149866Y249138D01*
X149804Y249198D01*
X149744Y249260D01*
X149687Y249325D01*
X149633Y249392D01*
X149582Y249462D01*
X149534Y249533D01*
X149490Y249607D01*
X149448Y249683D01*
X149410Y249760D01*
X149375Y249839D01*
X149344Y249919D01*
X149316Y250001D01*
X149292Y250084D01*
X149272Y250167D01*
X149255Y250252D01*
X149242Y250337D01*
X149233Y250423D01*
X149227Y250509D01*
X149225Y250595D01*
X149227Y250714D01*
X149233Y250833D01*
X149242Y250952D01*
X149256Y251070D01*
X149273Y251188D01*
X149294Y251306D01*
X149319Y251422D01*
X149347Y251538D01*
X149379Y251653D01*
X149415Y251766D01*
X149455Y251879D01*
X149498Y251990D01*
X149544Y252100D01*
X149594Y252208D01*
X149648Y252314D01*
X149705Y252419D01*
X149765Y252521D01*
X149829Y252622D01*
X149896Y252721D01*
X149966Y252817D01*
X152929Y249608D02*
X152884Y249534D01*
X152835Y249462D01*
X152783Y249392D01*
X152728Y249325D01*
X152670Y249260D01*
X152610Y249198D01*
X152547Y249139D01*
X152481Y249082D01*
X152413Y249028D01*
X152343Y248977D01*
X152271Y248929D01*
X152196Y248884D01*
X152120Y248843D01*
X152042Y248805D01*
X151962Y248770D01*
X151881Y248739D01*
X151799Y248711D01*
X151716Y248687D01*
X151632Y248667D01*
X151546Y248650D01*
X151461Y248637D01*
X151374Y248628D01*
X151288Y248622D01*
X151201Y248620D01*
X154411Y252323D02*
X154456Y252397D01*
X154505Y252469D01*
X154557Y252539D01*
X154612Y252606D01*
X154670Y252671D01*
X154730Y252733D01*
X154793Y252793D01*
X154859Y252849D01*
X154927Y252903D01*
X154997Y252954D01*
X155069Y253002D01*
X155144Y253047D01*
X155220Y253088D01*
X155298Y253126D01*
X155378Y253161D01*
X155459Y253192D01*
X155541Y253220D01*
X155624Y253244D01*
X155708Y253264D01*
X155794Y253281D01*
X155879Y253294D01*
X155966Y253303D01*
X156052Y253309D01*
X156139Y253311D01*
X154411Y252324D02*
X152929Y249607D01*
X158115Y257212D02*
X158115Y259681D01*
X158113Y259779D01*
X158107Y259877D01*
X158097Y259975D01*
X158084Y260072D01*
X158066Y260169D01*
X158045Y260265D01*
X158020Y260359D01*
X157991Y260453D01*
X157959Y260546D01*
X157922Y260637D01*
X157883Y260727D01*
X157839Y260815D01*
X157792Y260901D01*
X157742Y260986D01*
X157689Y261068D01*
X157632Y261148D01*
X157572Y261226D01*
X157509Y261301D01*
X157443Y261374D01*
X157374Y261444D01*
X157303Y261511D01*
X157229Y261576D01*
X157152Y261637D01*
X157073Y261696D01*
X156992Y261751D01*
X156909Y261803D01*
X156823Y261851D01*
X156736Y261896D01*
X156647Y261938D01*
X156557Y261976D01*
X156465Y262010D01*
X156372Y262041D01*
X156277Y262068D01*
X156182Y262091D01*
X156085Y262111D01*
X155989Y262126D01*
X155891Y262138D01*
X155793Y262146D01*
X155695Y262150D01*
X155597Y262150D01*
X155499Y262146D01*
X155401Y262138D01*
X155303Y262126D01*
X155207Y262111D01*
X155110Y262091D01*
X155015Y262068D01*
X154920Y262041D01*
X154827Y262010D01*
X154735Y261976D01*
X154645Y261938D01*
X154556Y261896D01*
X154469Y261851D01*
X154383Y261803D01*
X154300Y261751D01*
X154219Y261696D01*
X154140Y261637D01*
X154063Y261576D01*
X153989Y261511D01*
X153918Y261444D01*
X153849Y261374D01*
X153783Y261301D01*
X153720Y261226D01*
X153660Y261148D01*
X153603Y261068D01*
X153550Y260986D01*
X153500Y260901D01*
X153453Y260815D01*
X153409Y260727D01*
X153370Y260637D01*
X153333Y260546D01*
X153301Y260453D01*
X153272Y260359D01*
X153247Y260265D01*
X153226Y260169D01*
X153208Y260072D01*
X153195Y259975D01*
X153185Y259877D01*
X153179Y259779D01*
X153177Y259681D01*
X149225Y260175D02*
X149225Y257212D01*
X149225Y260175D02*
X149227Y260262D01*
X149233Y260350D01*
X149242Y260437D01*
X149256Y260523D01*
X149273Y260609D01*
X149294Y260693D01*
X149319Y260777D01*
X149348Y260860D01*
X149380Y260941D01*
X149415Y261021D01*
X149454Y261099D01*
X149497Y261176D01*
X149543Y261250D01*
X149592Y261322D01*
X149644Y261392D01*
X149700Y261460D01*
X149758Y261525D01*
X149819Y261588D01*
X149883Y261647D01*
X149950Y261704D01*
X150018Y261758D01*
X150090Y261809D01*
X150163Y261856D01*
X150238Y261901D01*
X150316Y261942D01*
X150395Y261979D01*
X150475Y262013D01*
X150557Y262043D01*
X150640Y262070D01*
X150725Y262093D01*
X150810Y262112D01*
X150896Y262127D01*
X150983Y262139D01*
X151070Y262147D01*
X151157Y262151D01*
X151245Y262151D01*
X151332Y262147D01*
X151419Y262139D01*
X151506Y262127D01*
X151592Y262112D01*
X151677Y262093D01*
X151762Y262070D01*
X151845Y262043D01*
X151927Y262013D01*
X152007Y261979D01*
X152086Y261942D01*
X152164Y261901D01*
X152239Y261856D01*
X152312Y261809D01*
X152384Y261758D01*
X152452Y261704D01*
X152519Y261647D01*
X152583Y261588D01*
X152644Y261525D01*
X152702Y261460D01*
X152758Y261392D01*
X152810Y261322D01*
X152859Y261250D01*
X152905Y261176D01*
X152948Y261099D01*
X152987Y261021D01*
X153022Y260941D01*
X153054Y260860D01*
X153083Y260777D01*
X153108Y260693D01*
X153129Y260609D01*
X153146Y260523D01*
X153160Y260437D01*
X153169Y260350D01*
X153175Y260262D01*
X153177Y260175D01*
X153176Y260175D02*
X153176Y258199D01*
X172085Y276542D02*
X172085Y237490D01*
X174625Y238125D02*
X183515Y238125D01*
X174625Y238125D02*
X174625Y240594D01*
X174627Y240692D01*
X174633Y240790D01*
X174643Y240888D01*
X174656Y240985D01*
X174674Y241082D01*
X174695Y241178D01*
X174720Y241272D01*
X174749Y241366D01*
X174781Y241459D01*
X174818Y241550D01*
X174857Y241640D01*
X174901Y241728D01*
X174948Y241814D01*
X174998Y241899D01*
X175051Y241981D01*
X175108Y242061D01*
X175168Y242139D01*
X175231Y242214D01*
X175297Y242287D01*
X175366Y242357D01*
X175437Y242424D01*
X175511Y242489D01*
X175588Y242550D01*
X175667Y242609D01*
X175748Y242664D01*
X175831Y242716D01*
X175917Y242764D01*
X176004Y242809D01*
X176093Y242851D01*
X176183Y242889D01*
X176275Y242923D01*
X176368Y242954D01*
X176463Y242981D01*
X176558Y243004D01*
X176655Y243024D01*
X176751Y243039D01*
X176849Y243051D01*
X176947Y243059D01*
X177045Y243063D01*
X177143Y243063D01*
X177241Y243059D01*
X177339Y243051D01*
X177437Y243039D01*
X177533Y243024D01*
X177630Y243004D01*
X177725Y242981D01*
X177820Y242954D01*
X177913Y242923D01*
X178005Y242889D01*
X178095Y242851D01*
X178184Y242809D01*
X178271Y242764D01*
X178357Y242716D01*
X178440Y242664D01*
X178521Y242609D01*
X178600Y242550D01*
X178677Y242489D01*
X178751Y242424D01*
X178822Y242357D01*
X178891Y242287D01*
X178957Y242214D01*
X179020Y242139D01*
X179080Y242061D01*
X179137Y241981D01*
X179190Y241899D01*
X179240Y241814D01*
X179287Y241728D01*
X179331Y241640D01*
X179370Y241550D01*
X179407Y241459D01*
X179439Y241366D01*
X179468Y241272D01*
X179493Y241178D01*
X179514Y241082D01*
X179532Y240985D01*
X179545Y240888D01*
X179555Y240790D01*
X179561Y240692D01*
X179563Y240594D01*
X179564Y240594D02*
X179564Y238125D01*
X179564Y241088D02*
X183515Y243064D01*
X183515Y247521D02*
X183515Y251473D01*
X183515Y247521D02*
X174625Y247521D01*
X174625Y251473D01*
X178576Y250485D02*
X178576Y247521D01*
X183515Y257777D02*
X183513Y257863D01*
X183507Y257949D01*
X183498Y258035D01*
X183485Y258120D01*
X183468Y258205D01*
X183448Y258288D01*
X183424Y258371D01*
X183396Y258453D01*
X183365Y258533D01*
X183330Y258612D01*
X183292Y258689D01*
X183250Y258765D01*
X183206Y258839D01*
X183158Y258910D01*
X183107Y258980D01*
X183053Y259047D01*
X182996Y259112D01*
X182936Y259174D01*
X182874Y259234D01*
X182809Y259291D01*
X182742Y259345D01*
X182672Y259396D01*
X182601Y259444D01*
X182527Y259488D01*
X182451Y259530D01*
X182374Y259568D01*
X182295Y259603D01*
X182215Y259634D01*
X182133Y259662D01*
X182050Y259686D01*
X181967Y259706D01*
X181882Y259723D01*
X181797Y259736D01*
X181711Y259745D01*
X181625Y259751D01*
X181539Y259753D01*
X183516Y257777D02*
X183514Y257650D01*
X183508Y257524D01*
X183499Y257397D01*
X183485Y257271D01*
X183468Y257146D01*
X183447Y257021D01*
X183422Y256896D01*
X183393Y256773D01*
X183361Y256650D01*
X183325Y256529D01*
X183285Y256408D01*
X183242Y256289D01*
X183195Y256172D01*
X183144Y256055D01*
X183090Y255941D01*
X183033Y255828D01*
X182972Y255717D01*
X182908Y255607D01*
X182840Y255500D01*
X182770Y255395D01*
X182696Y255292D01*
X182619Y255191D01*
X182539Y255093D01*
X182456Y254997D01*
X182370Y254904D01*
X182281Y254813D01*
X176601Y255060D02*
X176515Y255062D01*
X176429Y255068D01*
X176343Y255077D01*
X176258Y255090D01*
X176173Y255107D01*
X176090Y255127D01*
X176007Y255151D01*
X175925Y255179D01*
X175845Y255210D01*
X175766Y255245D01*
X175689Y255283D01*
X175613Y255325D01*
X175539Y255369D01*
X175468Y255417D01*
X175398Y255468D01*
X175331Y255522D01*
X175266Y255579D01*
X175204Y255639D01*
X175144Y255701D01*
X175087Y255766D01*
X175033Y255833D01*
X174982Y255903D01*
X174934Y255974D01*
X174890Y256048D01*
X174848Y256124D01*
X174810Y256201D01*
X174775Y256280D01*
X174744Y256360D01*
X174716Y256442D01*
X174692Y256525D01*
X174672Y256608D01*
X174655Y256693D01*
X174642Y256778D01*
X174633Y256864D01*
X174627Y256950D01*
X174625Y257036D01*
X174627Y257155D01*
X174633Y257274D01*
X174642Y257393D01*
X174656Y257511D01*
X174673Y257629D01*
X174694Y257747D01*
X174719Y257863D01*
X174747Y257979D01*
X174779Y258094D01*
X174815Y258207D01*
X174855Y258320D01*
X174898Y258431D01*
X174944Y258541D01*
X174994Y258649D01*
X175048Y258755D01*
X175105Y258860D01*
X175165Y258962D01*
X175229Y259063D01*
X175296Y259162D01*
X175366Y259258D01*
X178329Y256049D02*
X178284Y255975D01*
X178235Y255903D01*
X178183Y255833D01*
X178128Y255766D01*
X178070Y255701D01*
X178010Y255639D01*
X177947Y255580D01*
X177881Y255523D01*
X177813Y255469D01*
X177743Y255418D01*
X177671Y255370D01*
X177596Y255325D01*
X177520Y255284D01*
X177442Y255246D01*
X177362Y255211D01*
X177281Y255180D01*
X177199Y255152D01*
X177116Y255128D01*
X177032Y255108D01*
X176946Y255091D01*
X176861Y255078D01*
X176774Y255069D01*
X176688Y255063D01*
X176601Y255061D01*
X179811Y258764D02*
X179856Y258838D01*
X179905Y258910D01*
X179957Y258980D01*
X180012Y259047D01*
X180070Y259112D01*
X180130Y259174D01*
X180193Y259234D01*
X180259Y259290D01*
X180327Y259344D01*
X180397Y259395D01*
X180469Y259443D01*
X180544Y259488D01*
X180620Y259529D01*
X180698Y259567D01*
X180778Y259602D01*
X180859Y259633D01*
X180941Y259661D01*
X181024Y259685D01*
X181108Y259705D01*
X181194Y259722D01*
X181279Y259735D01*
X181366Y259744D01*
X181452Y259750D01*
X181539Y259752D01*
X179811Y258765D02*
X178329Y256048D01*
X183515Y263981D02*
X183515Y267932D01*
X183515Y263981D02*
X174625Y263981D01*
X174625Y267932D01*
X178576Y266944D02*
X178576Y263981D01*
X174625Y273437D02*
X183515Y273437D01*
X174625Y270968D02*
X174625Y275907D01*
X197485Y276791D02*
X197485Y237490D01*
X206939Y243064D02*
X207025Y243062D01*
X207111Y243056D01*
X207197Y243047D01*
X207282Y243034D01*
X207367Y243017D01*
X207450Y242997D01*
X207533Y242973D01*
X207615Y242945D01*
X207695Y242914D01*
X207774Y242879D01*
X207851Y242841D01*
X207927Y242799D01*
X208001Y242755D01*
X208072Y242707D01*
X208142Y242656D01*
X208209Y242602D01*
X208274Y242545D01*
X208336Y242485D01*
X208396Y242423D01*
X208453Y242358D01*
X208507Y242291D01*
X208558Y242221D01*
X208606Y242150D01*
X208650Y242076D01*
X208692Y242000D01*
X208730Y241923D01*
X208765Y241844D01*
X208796Y241764D01*
X208824Y241682D01*
X208848Y241599D01*
X208868Y241516D01*
X208885Y241431D01*
X208898Y241346D01*
X208907Y241260D01*
X208913Y241174D01*
X208915Y241088D01*
X208916Y241088D02*
X208914Y240961D01*
X208908Y240835D01*
X208899Y240708D01*
X208885Y240582D01*
X208868Y240457D01*
X208847Y240332D01*
X208822Y240207D01*
X208793Y240084D01*
X208761Y239961D01*
X208725Y239840D01*
X208685Y239719D01*
X208642Y239600D01*
X208595Y239483D01*
X208544Y239366D01*
X208490Y239252D01*
X208433Y239139D01*
X208372Y239028D01*
X208308Y238918D01*
X208240Y238811D01*
X208170Y238706D01*
X208096Y238603D01*
X208019Y238502D01*
X207939Y238404D01*
X207856Y238308D01*
X207770Y238215D01*
X207681Y238124D01*
X202001Y238372D02*
X201915Y238374D01*
X201829Y238380D01*
X201743Y238389D01*
X201658Y238402D01*
X201573Y238419D01*
X201490Y238439D01*
X201407Y238463D01*
X201325Y238491D01*
X201245Y238522D01*
X201166Y238557D01*
X201089Y238595D01*
X201013Y238637D01*
X200939Y238681D01*
X200868Y238729D01*
X200798Y238780D01*
X200731Y238834D01*
X200666Y238891D01*
X200604Y238951D01*
X200544Y239013D01*
X200487Y239078D01*
X200433Y239145D01*
X200382Y239215D01*
X200334Y239286D01*
X200290Y239360D01*
X200248Y239436D01*
X200210Y239513D01*
X200175Y239592D01*
X200144Y239672D01*
X200116Y239754D01*
X200092Y239837D01*
X200072Y239920D01*
X200055Y240005D01*
X200042Y240090D01*
X200033Y240176D01*
X200027Y240262D01*
X200025Y240348D01*
X200027Y240467D01*
X200033Y240586D01*
X200042Y240705D01*
X200056Y240823D01*
X200073Y240941D01*
X200094Y241059D01*
X200119Y241175D01*
X200147Y241291D01*
X200179Y241406D01*
X200215Y241519D01*
X200255Y241632D01*
X200298Y241743D01*
X200344Y241853D01*
X200394Y241961D01*
X200448Y242067D01*
X200505Y242172D01*
X200565Y242274D01*
X200629Y242375D01*
X200696Y242474D01*
X200766Y242570D01*
X203729Y239360D02*
X203684Y239286D01*
X203635Y239214D01*
X203583Y239144D01*
X203528Y239077D01*
X203470Y239012D01*
X203410Y238950D01*
X203347Y238891D01*
X203281Y238834D01*
X203213Y238780D01*
X203143Y238729D01*
X203071Y238681D01*
X202996Y238636D01*
X202920Y238595D01*
X202842Y238557D01*
X202762Y238522D01*
X202681Y238491D01*
X202599Y238463D01*
X202516Y238439D01*
X202432Y238419D01*
X202346Y238402D01*
X202261Y238389D01*
X202174Y238380D01*
X202088Y238374D01*
X202001Y238372D01*
X205211Y242075D02*
X205256Y242149D01*
X205305Y242221D01*
X205357Y242291D01*
X205412Y242358D01*
X205470Y242423D01*
X205530Y242485D01*
X205593Y242545D01*
X205659Y242601D01*
X205727Y242655D01*
X205797Y242706D01*
X205869Y242754D01*
X205944Y242799D01*
X206020Y242840D01*
X206098Y242878D01*
X206178Y242913D01*
X206259Y242944D01*
X206341Y242972D01*
X206424Y242996D01*
X206508Y243016D01*
X206594Y243033D01*
X206679Y243046D01*
X206766Y243055D01*
X206852Y243061D01*
X206939Y243063D01*
X205211Y242076D02*
X203729Y239360D01*
X200025Y247292D02*
X208915Y247292D01*
X208915Y251243D01*
X208915Y255217D02*
X208915Y259168D01*
X208915Y255217D02*
X200025Y255217D01*
X200025Y259168D01*
X203976Y258180D02*
X203976Y255217D01*
X208915Y263142D02*
X208915Y267093D01*
X208915Y263142D02*
X200025Y263142D01*
X200025Y267093D01*
X203976Y266105D02*
X203976Y263142D01*
X200025Y271217D02*
X208915Y271217D01*
X200025Y271217D02*
X200025Y273686D01*
X200027Y273784D01*
X200033Y273882D01*
X200043Y273980D01*
X200056Y274077D01*
X200074Y274174D01*
X200095Y274270D01*
X200120Y274364D01*
X200149Y274458D01*
X200181Y274551D01*
X200218Y274642D01*
X200257Y274732D01*
X200301Y274820D01*
X200348Y274906D01*
X200398Y274991D01*
X200451Y275073D01*
X200508Y275153D01*
X200568Y275231D01*
X200631Y275306D01*
X200697Y275379D01*
X200766Y275449D01*
X200837Y275516D01*
X200911Y275581D01*
X200988Y275642D01*
X201067Y275701D01*
X201148Y275756D01*
X201231Y275808D01*
X201317Y275856D01*
X201404Y275901D01*
X201493Y275943D01*
X201583Y275981D01*
X201675Y276015D01*
X201768Y276046D01*
X201863Y276073D01*
X201958Y276096D01*
X202055Y276116D01*
X202151Y276131D01*
X202249Y276143D01*
X202347Y276151D01*
X202445Y276155D01*
X202543Y276155D01*
X202641Y276151D01*
X202739Y276143D01*
X202837Y276131D01*
X202933Y276116D01*
X203030Y276096D01*
X203125Y276073D01*
X203220Y276046D01*
X203313Y276015D01*
X203405Y275981D01*
X203495Y275943D01*
X203584Y275901D01*
X203671Y275856D01*
X203757Y275808D01*
X203840Y275756D01*
X203921Y275701D01*
X204000Y275642D01*
X204077Y275581D01*
X204151Y275516D01*
X204222Y275449D01*
X204291Y275379D01*
X204357Y275306D01*
X204420Y275231D01*
X204480Y275153D01*
X204537Y275073D01*
X204590Y274991D01*
X204640Y274906D01*
X204687Y274820D01*
X204731Y274732D01*
X204770Y274642D01*
X204807Y274551D01*
X204839Y274458D01*
X204868Y274364D01*
X204893Y274270D01*
X204914Y274174D01*
X204932Y274077D01*
X204945Y273980D01*
X204955Y273882D01*
X204961Y273784D01*
X204963Y273686D01*
X204964Y273686D02*
X204964Y271217D01*
X232339Y243064D02*
X232425Y243062D01*
X232511Y243056D01*
X232597Y243047D01*
X232682Y243034D01*
X232767Y243017D01*
X232850Y242997D01*
X232933Y242973D01*
X233015Y242945D01*
X233095Y242914D01*
X233174Y242879D01*
X233251Y242841D01*
X233327Y242799D01*
X233401Y242755D01*
X233472Y242707D01*
X233542Y242656D01*
X233609Y242602D01*
X233674Y242545D01*
X233736Y242485D01*
X233796Y242423D01*
X233853Y242358D01*
X233907Y242291D01*
X233958Y242221D01*
X234006Y242150D01*
X234050Y242076D01*
X234092Y242000D01*
X234130Y241923D01*
X234165Y241844D01*
X234196Y241764D01*
X234224Y241682D01*
X234248Y241599D01*
X234268Y241516D01*
X234285Y241431D01*
X234298Y241346D01*
X234307Y241260D01*
X234313Y241174D01*
X234315Y241088D01*
X234316Y241088D02*
X234314Y240961D01*
X234308Y240835D01*
X234299Y240708D01*
X234285Y240582D01*
X234268Y240457D01*
X234247Y240332D01*
X234222Y240207D01*
X234193Y240084D01*
X234161Y239961D01*
X234125Y239840D01*
X234085Y239719D01*
X234042Y239600D01*
X233995Y239483D01*
X233944Y239366D01*
X233890Y239252D01*
X233833Y239139D01*
X233772Y239028D01*
X233708Y238918D01*
X233640Y238811D01*
X233570Y238706D01*
X233496Y238603D01*
X233419Y238502D01*
X233339Y238404D01*
X233256Y238308D01*
X233170Y238215D01*
X233081Y238124D01*
X227401Y238372D02*
X227315Y238374D01*
X227229Y238380D01*
X227143Y238389D01*
X227058Y238402D01*
X226973Y238419D01*
X226890Y238439D01*
X226807Y238463D01*
X226725Y238491D01*
X226645Y238522D01*
X226566Y238557D01*
X226489Y238595D01*
X226413Y238637D01*
X226339Y238681D01*
X226268Y238729D01*
X226198Y238780D01*
X226131Y238834D01*
X226066Y238891D01*
X226004Y238951D01*
X225944Y239013D01*
X225887Y239078D01*
X225833Y239145D01*
X225782Y239215D01*
X225734Y239286D01*
X225690Y239360D01*
X225648Y239436D01*
X225610Y239513D01*
X225575Y239592D01*
X225544Y239672D01*
X225516Y239754D01*
X225492Y239837D01*
X225472Y239920D01*
X225455Y240005D01*
X225442Y240090D01*
X225433Y240176D01*
X225427Y240262D01*
X225425Y240348D01*
X225427Y240467D01*
X225433Y240586D01*
X225442Y240705D01*
X225456Y240823D01*
X225473Y240941D01*
X225494Y241059D01*
X225519Y241175D01*
X225547Y241291D01*
X225579Y241406D01*
X225615Y241519D01*
X225655Y241632D01*
X225698Y241743D01*
X225744Y241853D01*
X225794Y241961D01*
X225848Y242067D01*
X225905Y242172D01*
X225965Y242274D01*
X226029Y242375D01*
X226096Y242474D01*
X226166Y242570D01*
X229129Y239360D02*
X229084Y239286D01*
X229035Y239214D01*
X228983Y239144D01*
X228928Y239077D01*
X228870Y239012D01*
X228810Y238950D01*
X228747Y238891D01*
X228681Y238834D01*
X228613Y238780D01*
X228543Y238729D01*
X228471Y238681D01*
X228396Y238636D01*
X228320Y238595D01*
X228242Y238557D01*
X228162Y238522D01*
X228081Y238491D01*
X227999Y238463D01*
X227916Y238439D01*
X227832Y238419D01*
X227746Y238402D01*
X227661Y238389D01*
X227574Y238380D01*
X227488Y238374D01*
X227401Y238372D01*
X230611Y242075D02*
X230656Y242149D01*
X230705Y242221D01*
X230757Y242291D01*
X230812Y242358D01*
X230870Y242423D01*
X230930Y242485D01*
X230993Y242545D01*
X231059Y242601D01*
X231127Y242655D01*
X231197Y242706D01*
X231269Y242754D01*
X231344Y242799D01*
X231420Y242840D01*
X231498Y242878D01*
X231578Y242913D01*
X231659Y242944D01*
X231741Y242972D01*
X231824Y242996D01*
X231908Y243016D01*
X231994Y243033D01*
X232079Y243046D01*
X232166Y243055D01*
X232252Y243061D01*
X232339Y243063D01*
X230611Y242076D02*
X229129Y239360D01*
X225425Y248824D02*
X234315Y248824D01*
X225425Y246355D02*
X225425Y251293D01*
X234315Y255217D02*
X234315Y259168D01*
X234315Y255217D02*
X225425Y255217D01*
X225425Y259168D01*
X229376Y258180D02*
X229376Y255217D01*
X225425Y263292D02*
X234315Y263292D01*
X225425Y263292D02*
X225425Y265761D01*
X225427Y265859D01*
X225433Y265957D01*
X225443Y266055D01*
X225456Y266152D01*
X225474Y266249D01*
X225495Y266345D01*
X225520Y266439D01*
X225549Y266533D01*
X225581Y266626D01*
X225618Y266717D01*
X225657Y266807D01*
X225701Y266895D01*
X225748Y266981D01*
X225798Y267066D01*
X225851Y267148D01*
X225908Y267228D01*
X225968Y267306D01*
X226031Y267381D01*
X226097Y267454D01*
X226166Y267524D01*
X226237Y267591D01*
X226311Y267656D01*
X226388Y267717D01*
X226467Y267776D01*
X226548Y267831D01*
X226631Y267883D01*
X226717Y267931D01*
X226804Y267976D01*
X226893Y268018D01*
X226983Y268056D01*
X227075Y268090D01*
X227168Y268121D01*
X227263Y268148D01*
X227358Y268171D01*
X227455Y268191D01*
X227551Y268206D01*
X227649Y268218D01*
X227747Y268226D01*
X227845Y268230D01*
X227943Y268230D01*
X228041Y268226D01*
X228139Y268218D01*
X228237Y268206D01*
X228333Y268191D01*
X228430Y268171D01*
X228525Y268148D01*
X228620Y268121D01*
X228713Y268090D01*
X228805Y268056D01*
X228895Y268018D01*
X228984Y267976D01*
X229071Y267931D01*
X229157Y267883D01*
X229240Y267831D01*
X229321Y267776D01*
X229400Y267717D01*
X229477Y267656D01*
X229551Y267591D01*
X229622Y267524D01*
X229691Y267454D01*
X229757Y267381D01*
X229820Y267306D01*
X229880Y267228D01*
X229937Y267148D01*
X229990Y267066D01*
X230040Y266981D01*
X230087Y266895D01*
X230131Y266807D01*
X230170Y266717D01*
X230207Y266626D01*
X230239Y266533D01*
X230268Y266439D01*
X230293Y266345D01*
X230314Y266249D01*
X230332Y266152D01*
X230345Y266055D01*
X230355Y265957D01*
X230361Y265859D01*
X230363Y265761D01*
X230364Y265761D02*
X230364Y263292D01*
X250825Y238125D02*
X259715Y238125D01*
X250825Y238125D02*
X250825Y240594D01*
X250827Y240691D01*
X250833Y240788D01*
X250842Y240884D01*
X250855Y240980D01*
X250872Y241076D01*
X250893Y241170D01*
X250918Y241264D01*
X250946Y241357D01*
X250978Y241449D01*
X251013Y241539D01*
X251052Y241628D01*
X251094Y241715D01*
X251140Y241800D01*
X251189Y241884D01*
X251241Y241966D01*
X251297Y242045D01*
X251355Y242123D01*
X251417Y242197D01*
X251481Y242270D01*
X251548Y242340D01*
X251618Y242407D01*
X251691Y242471D01*
X251765Y242533D01*
X251843Y242591D01*
X251922Y242647D01*
X252004Y242699D01*
X252088Y242748D01*
X252173Y242794D01*
X252260Y242836D01*
X252349Y242875D01*
X252439Y242910D01*
X252531Y242942D01*
X252624Y242970D01*
X252718Y242995D01*
X252812Y243016D01*
X252908Y243033D01*
X253004Y243046D01*
X253100Y243055D01*
X253197Y243061D01*
X253294Y243063D01*
X253294Y243064D02*
X257246Y243064D01*
X257246Y243063D02*
X257343Y243061D01*
X257440Y243055D01*
X257536Y243046D01*
X257632Y243033D01*
X257728Y243016D01*
X257822Y242995D01*
X257916Y242970D01*
X258009Y242942D01*
X258101Y242910D01*
X258191Y242875D01*
X258280Y242836D01*
X258367Y242794D01*
X258452Y242748D01*
X258536Y242699D01*
X258618Y242647D01*
X258697Y242591D01*
X258775Y242533D01*
X258849Y242471D01*
X258922Y242407D01*
X258992Y242340D01*
X259059Y242270D01*
X259123Y242197D01*
X259185Y242123D01*
X259243Y242045D01*
X259299Y241966D01*
X259351Y241884D01*
X259400Y241800D01*
X259446Y241715D01*
X259488Y241628D01*
X259527Y241539D01*
X259562Y241449D01*
X259594Y241357D01*
X259622Y241264D01*
X259647Y241170D01*
X259668Y241076D01*
X259685Y240980D01*
X259698Y240884D01*
X259707Y240788D01*
X259713Y240691D01*
X259715Y240594D01*
X259715Y238125D01*
X259715Y248214D02*
X250825Y248214D01*
X259715Y247227D02*
X259715Y249202D01*
X250825Y249202D02*
X250825Y247227D01*
X250825Y253440D02*
X259715Y253440D01*
X250825Y253440D02*
X250825Y255910D01*
X250827Y256008D01*
X250833Y256106D01*
X250843Y256204D01*
X250856Y256301D01*
X250874Y256398D01*
X250895Y256494D01*
X250920Y256588D01*
X250949Y256682D01*
X250981Y256775D01*
X251018Y256866D01*
X251057Y256956D01*
X251101Y257044D01*
X251148Y257130D01*
X251198Y257215D01*
X251251Y257297D01*
X251308Y257377D01*
X251368Y257455D01*
X251431Y257530D01*
X251497Y257603D01*
X251566Y257673D01*
X251637Y257740D01*
X251711Y257805D01*
X251788Y257866D01*
X251867Y257925D01*
X251948Y257980D01*
X252031Y258032D01*
X252117Y258080D01*
X252204Y258125D01*
X252293Y258167D01*
X252383Y258205D01*
X252475Y258239D01*
X252568Y258270D01*
X252663Y258297D01*
X252758Y258320D01*
X252855Y258340D01*
X252951Y258355D01*
X253049Y258367D01*
X253147Y258375D01*
X253245Y258379D01*
X253343Y258379D01*
X253441Y258375D01*
X253539Y258367D01*
X253637Y258355D01*
X253733Y258340D01*
X253830Y258320D01*
X253925Y258297D01*
X254020Y258270D01*
X254113Y258239D01*
X254205Y258205D01*
X254295Y258167D01*
X254384Y258125D01*
X254471Y258080D01*
X254557Y258032D01*
X254640Y257980D01*
X254721Y257925D01*
X254800Y257866D01*
X254877Y257805D01*
X254951Y257740D01*
X255022Y257673D01*
X255091Y257603D01*
X255157Y257530D01*
X255220Y257455D01*
X255280Y257377D01*
X255337Y257297D01*
X255390Y257215D01*
X255440Y257130D01*
X255487Y257044D01*
X255531Y256956D01*
X255570Y256866D01*
X255607Y256775D01*
X255639Y256682D01*
X255668Y256588D01*
X255693Y256494D01*
X255714Y256398D01*
X255732Y256301D01*
X255745Y256204D01*
X255755Y256106D01*
X255761Y256008D01*
X255763Y255910D01*
X255764Y255910D02*
X255764Y253440D01*
X255764Y256404D02*
X259715Y258379D01*
X70485Y261543D02*
X70485Y237490D01*
X81915Y238125D02*
X81915Y242076D01*
X81915Y238125D02*
X73025Y238125D01*
X73025Y242076D01*
X76976Y241088D02*
X76976Y238125D01*
X73025Y246027D02*
X81915Y246027D01*
X81915Y250966D02*
X73025Y246027D01*
X73025Y250966D02*
X81915Y250966D01*
X81915Y254982D02*
X73025Y257945D01*
X81915Y260908D01*
X79693Y260167D02*
X79693Y255722D01*
X73025Y288925D02*
X81915Y291888D01*
X73025Y294852D01*
X73025Y298983D02*
X81915Y298983D01*
X77964Y301947D02*
X73025Y298983D01*
X77964Y301947D02*
X73025Y304910D01*
X81915Y304910D01*
X79446Y309536D02*
X75494Y309536D01*
X75396Y309538D01*
X75298Y309544D01*
X75200Y309554D01*
X75103Y309567D01*
X75006Y309585D01*
X74910Y309606D01*
X74816Y309631D01*
X74722Y309660D01*
X74629Y309692D01*
X74538Y309729D01*
X74448Y309768D01*
X74360Y309812D01*
X74274Y309859D01*
X74189Y309909D01*
X74107Y309962D01*
X74027Y310019D01*
X73949Y310079D01*
X73874Y310142D01*
X73801Y310208D01*
X73731Y310277D01*
X73664Y310348D01*
X73599Y310422D01*
X73538Y310499D01*
X73479Y310578D01*
X73424Y310659D01*
X73372Y310742D01*
X73324Y310828D01*
X73279Y310915D01*
X73237Y311004D01*
X73199Y311094D01*
X73165Y311186D01*
X73134Y311279D01*
X73107Y311374D01*
X73084Y311469D01*
X73064Y311566D01*
X73049Y311662D01*
X73037Y311760D01*
X73029Y311858D01*
X73025Y311956D01*
X73025Y312054D01*
X73029Y312152D01*
X73037Y312250D01*
X73049Y312348D01*
X73064Y312444D01*
X73084Y312541D01*
X73107Y312636D01*
X73134Y312731D01*
X73165Y312824D01*
X73199Y312916D01*
X73237Y313006D01*
X73279Y313095D01*
X73324Y313182D01*
X73372Y313268D01*
X73424Y313351D01*
X73479Y313432D01*
X73538Y313511D01*
X73599Y313588D01*
X73664Y313662D01*
X73731Y313733D01*
X73801Y313802D01*
X73874Y313868D01*
X73949Y313931D01*
X74027Y313991D01*
X74107Y314048D01*
X74189Y314101D01*
X74274Y314151D01*
X74360Y314198D01*
X74448Y314242D01*
X74538Y314281D01*
X74629Y314318D01*
X74722Y314350D01*
X74816Y314379D01*
X74910Y314404D01*
X75006Y314425D01*
X75103Y314443D01*
X75200Y314456D01*
X75298Y314466D01*
X75396Y314472D01*
X75494Y314474D01*
X75494Y314475D02*
X79446Y314475D01*
X79446Y314474D02*
X79544Y314472D01*
X79642Y314466D01*
X79740Y314456D01*
X79837Y314443D01*
X79934Y314425D01*
X80030Y314404D01*
X80124Y314379D01*
X80218Y314350D01*
X80311Y314318D01*
X80402Y314281D01*
X80492Y314242D01*
X80580Y314198D01*
X80666Y314151D01*
X80751Y314101D01*
X80833Y314048D01*
X80913Y313991D01*
X80991Y313931D01*
X81066Y313868D01*
X81139Y313802D01*
X81209Y313733D01*
X81276Y313662D01*
X81341Y313588D01*
X81402Y313511D01*
X81461Y313432D01*
X81516Y313351D01*
X81568Y313268D01*
X81616Y313182D01*
X81661Y313095D01*
X81703Y313006D01*
X81741Y312916D01*
X81775Y312824D01*
X81806Y312731D01*
X81833Y312636D01*
X81856Y312541D01*
X81876Y312444D01*
X81891Y312348D01*
X81903Y312250D01*
X81911Y312152D01*
X81915Y312054D01*
X81915Y311956D01*
X81911Y311858D01*
X81903Y311760D01*
X81891Y311662D01*
X81876Y311566D01*
X81856Y311469D01*
X81833Y311374D01*
X81806Y311279D01*
X81775Y311186D01*
X81741Y311094D01*
X81703Y311004D01*
X81661Y310915D01*
X81616Y310828D01*
X81568Y310742D01*
X81516Y310659D01*
X81461Y310578D01*
X81402Y310499D01*
X81341Y310422D01*
X81276Y310348D01*
X81209Y310277D01*
X81139Y310208D01*
X81066Y310142D01*
X80991Y310079D01*
X80913Y310019D01*
X80833Y309962D01*
X80751Y309909D01*
X80666Y309859D01*
X80580Y309812D01*
X80492Y309768D01*
X80402Y309729D01*
X80311Y309692D01*
X80218Y309660D01*
X80124Y309631D01*
X80030Y309606D01*
X79934Y309585D01*
X79837Y309567D01*
X79740Y309554D01*
X79642Y309544D01*
X79544Y309538D01*
X79446Y309536D01*
X81915Y320539D02*
X73025Y320539D01*
X73025Y318070D02*
X73025Y323009D01*
X102376Y300214D02*
X102376Y298732D01*
X102376Y300214D02*
X107315Y300214D01*
X107315Y297251D01*
X107313Y297162D01*
X107307Y297074D01*
X107297Y296986D01*
X107283Y296898D01*
X107265Y296811D01*
X107244Y296725D01*
X107218Y296640D01*
X107189Y296557D01*
X107156Y296474D01*
X107119Y296394D01*
X107079Y296315D01*
X107035Y296238D01*
X106988Y296162D01*
X106938Y296090D01*
X106884Y296019D01*
X106827Y295951D01*
X106767Y295885D01*
X106705Y295823D01*
X106639Y295763D01*
X106571Y295706D01*
X106500Y295652D01*
X106428Y295602D01*
X106353Y295555D01*
X106275Y295511D01*
X106196Y295471D01*
X106116Y295434D01*
X106033Y295401D01*
X105950Y295372D01*
X105865Y295346D01*
X105779Y295325D01*
X105692Y295307D01*
X105604Y295293D01*
X105516Y295283D01*
X105428Y295277D01*
X105339Y295275D01*
X100401Y295275D01*
X100312Y295277D01*
X100224Y295283D01*
X100136Y295293D01*
X100048Y295307D01*
X99961Y295325D01*
X99875Y295346D01*
X99790Y295372D01*
X99707Y295401D01*
X99624Y295434D01*
X99544Y295471D01*
X99465Y295511D01*
X99388Y295555D01*
X99312Y295602D01*
X99240Y295652D01*
X99169Y295706D01*
X99101Y295763D01*
X99035Y295823D01*
X98973Y295885D01*
X98913Y295951D01*
X98856Y296019D01*
X98802Y296090D01*
X98752Y296162D01*
X98705Y296237D01*
X98661Y296315D01*
X98621Y296394D01*
X98584Y296474D01*
X98551Y296557D01*
X98522Y296640D01*
X98496Y296725D01*
X98475Y296811D01*
X98457Y296898D01*
X98443Y296986D01*
X98433Y297074D01*
X98427Y297162D01*
X98425Y297251D01*
X98425Y300214D01*
X98425Y305029D02*
X107315Y305029D01*
X107315Y309967D02*
X98425Y305029D01*
X98425Y309967D02*
X107315Y309967D01*
X107315Y314782D02*
X98425Y314782D01*
X98425Y317252D01*
X98427Y317349D01*
X98433Y317446D01*
X98442Y317542D01*
X98455Y317638D01*
X98472Y317734D01*
X98493Y317828D01*
X98518Y317922D01*
X98546Y318015D01*
X98578Y318107D01*
X98613Y318197D01*
X98652Y318286D01*
X98694Y318373D01*
X98740Y318458D01*
X98789Y318542D01*
X98841Y318624D01*
X98897Y318703D01*
X98955Y318781D01*
X99017Y318855D01*
X99081Y318928D01*
X99148Y318998D01*
X99218Y319065D01*
X99291Y319129D01*
X99365Y319191D01*
X99443Y319249D01*
X99522Y319305D01*
X99604Y319357D01*
X99688Y319406D01*
X99773Y319452D01*
X99860Y319494D01*
X99949Y319533D01*
X100039Y319568D01*
X100131Y319600D01*
X100224Y319628D01*
X100318Y319653D01*
X100412Y319674D01*
X100508Y319691D01*
X100604Y319704D01*
X100700Y319713D01*
X100797Y319719D01*
X100894Y319721D01*
X104846Y319721D01*
X104943Y319719D01*
X105040Y319713D01*
X105136Y319704D01*
X105232Y319691D01*
X105328Y319674D01*
X105422Y319653D01*
X105516Y319628D01*
X105609Y319600D01*
X105701Y319568D01*
X105791Y319533D01*
X105880Y319494D01*
X105967Y319452D01*
X106052Y319406D01*
X106136Y319357D01*
X106218Y319305D01*
X106297Y319249D01*
X106375Y319191D01*
X106449Y319129D01*
X106522Y319065D01*
X106592Y318998D01*
X106659Y318928D01*
X106723Y318855D01*
X106785Y318781D01*
X106843Y318703D01*
X106899Y318624D01*
X106951Y318542D01*
X107000Y318458D01*
X107046Y318373D01*
X107088Y318286D01*
X107127Y318197D01*
X107162Y318107D01*
X107194Y318015D01*
X107222Y317922D01*
X107247Y317828D01*
X107268Y317734D01*
X107285Y317638D01*
X107298Y317542D01*
X107307Y317446D01*
X107313Y317349D01*
X107315Y317252D01*
X107315Y314782D01*
X254776Y300214D02*
X254776Y298732D01*
X254776Y300214D02*
X259715Y300214D01*
X259715Y297251D01*
X259713Y297162D01*
X259707Y297074D01*
X259697Y296986D01*
X259683Y296898D01*
X259665Y296811D01*
X259644Y296725D01*
X259618Y296640D01*
X259589Y296557D01*
X259556Y296474D01*
X259519Y296394D01*
X259479Y296315D01*
X259435Y296238D01*
X259388Y296162D01*
X259338Y296090D01*
X259284Y296019D01*
X259227Y295951D01*
X259167Y295885D01*
X259105Y295823D01*
X259039Y295763D01*
X258971Y295706D01*
X258900Y295652D01*
X258828Y295602D01*
X258753Y295555D01*
X258675Y295511D01*
X258596Y295471D01*
X258516Y295434D01*
X258433Y295401D01*
X258350Y295372D01*
X258265Y295346D01*
X258179Y295325D01*
X258092Y295307D01*
X258004Y295293D01*
X257916Y295283D01*
X257828Y295277D01*
X257739Y295275D01*
X252801Y295275D01*
X252712Y295277D01*
X252624Y295283D01*
X252536Y295293D01*
X252448Y295307D01*
X252361Y295325D01*
X252275Y295346D01*
X252190Y295372D01*
X252107Y295401D01*
X252024Y295434D01*
X251944Y295471D01*
X251865Y295511D01*
X251788Y295555D01*
X251712Y295602D01*
X251640Y295652D01*
X251569Y295706D01*
X251501Y295763D01*
X251435Y295823D01*
X251373Y295885D01*
X251313Y295951D01*
X251256Y296019D01*
X251202Y296090D01*
X251152Y296162D01*
X251105Y296237D01*
X251061Y296315D01*
X251021Y296394D01*
X250984Y296474D01*
X250951Y296557D01*
X250922Y296640D01*
X250896Y296725D01*
X250875Y296811D01*
X250857Y296898D01*
X250843Y296986D01*
X250833Y297074D01*
X250827Y297162D01*
X250825Y297251D01*
X250825Y300214D01*
X250825Y305029D02*
X259715Y305029D01*
X259715Y309967D02*
X250825Y305029D01*
X250825Y309967D02*
X259715Y309967D01*
X259715Y314782D02*
X250825Y314782D01*
X250825Y317252D01*
X250827Y317349D01*
X250833Y317446D01*
X250842Y317542D01*
X250855Y317638D01*
X250872Y317734D01*
X250893Y317828D01*
X250918Y317922D01*
X250946Y318015D01*
X250978Y318107D01*
X251013Y318197D01*
X251052Y318286D01*
X251094Y318373D01*
X251140Y318458D01*
X251189Y318542D01*
X251241Y318624D01*
X251297Y318703D01*
X251355Y318781D01*
X251417Y318855D01*
X251481Y318928D01*
X251548Y318998D01*
X251618Y319065D01*
X251691Y319129D01*
X251765Y319191D01*
X251843Y319249D01*
X251922Y319305D01*
X252004Y319357D01*
X252088Y319406D01*
X252173Y319452D01*
X252260Y319494D01*
X252349Y319533D01*
X252439Y319568D01*
X252531Y319600D01*
X252624Y319628D01*
X252718Y319653D01*
X252812Y319674D01*
X252908Y319691D01*
X253004Y319704D01*
X253100Y319713D01*
X253197Y319719D01*
X253294Y319721D01*
X257246Y319721D01*
X257343Y319719D01*
X257440Y319713D01*
X257536Y319704D01*
X257632Y319691D01*
X257728Y319674D01*
X257822Y319653D01*
X257916Y319628D01*
X258009Y319600D01*
X258101Y319568D01*
X258191Y319533D01*
X258280Y319494D01*
X258367Y319452D01*
X258452Y319406D01*
X258536Y319357D01*
X258618Y319305D01*
X258697Y319249D01*
X258775Y319191D01*
X258849Y319129D01*
X258922Y319065D01*
X258992Y318998D01*
X259059Y318928D01*
X259123Y318855D01*
X259185Y318781D01*
X259243Y318703D01*
X259299Y318624D01*
X259351Y318542D01*
X259400Y318458D01*
X259446Y318373D01*
X259488Y318286D01*
X259527Y318197D01*
X259562Y318107D01*
X259594Y318015D01*
X259622Y317922D01*
X259647Y317828D01*
X259668Y317734D01*
X259685Y317638D01*
X259698Y317542D01*
X259707Y317446D01*
X259713Y317349D01*
X259715Y317252D01*
X259715Y314782D01*
X234315Y298238D02*
X225425Y295275D01*
X225425Y301202D02*
X234315Y298238D01*
X234315Y305218D02*
X225425Y305218D01*
X225425Y307687D01*
X225427Y307784D01*
X225433Y307881D01*
X225442Y307977D01*
X225455Y308073D01*
X225472Y308169D01*
X225493Y308263D01*
X225518Y308357D01*
X225546Y308450D01*
X225578Y308542D01*
X225613Y308632D01*
X225652Y308721D01*
X225694Y308808D01*
X225740Y308893D01*
X225789Y308977D01*
X225841Y309059D01*
X225897Y309138D01*
X225955Y309216D01*
X226017Y309290D01*
X226081Y309363D01*
X226148Y309433D01*
X226218Y309500D01*
X226291Y309564D01*
X226365Y309626D01*
X226443Y309684D01*
X226522Y309740D01*
X226604Y309792D01*
X226688Y309841D01*
X226773Y309887D01*
X226860Y309929D01*
X226949Y309968D01*
X227039Y310003D01*
X227131Y310035D01*
X227224Y310063D01*
X227318Y310088D01*
X227412Y310109D01*
X227508Y310126D01*
X227604Y310139D01*
X227700Y310148D01*
X227797Y310154D01*
X227894Y310156D01*
X227894Y310157D02*
X231846Y310157D01*
X231846Y310156D02*
X231943Y310154D01*
X232040Y310148D01*
X232136Y310139D01*
X232232Y310126D01*
X232328Y310109D01*
X232422Y310088D01*
X232516Y310063D01*
X232609Y310035D01*
X232701Y310003D01*
X232791Y309968D01*
X232880Y309929D01*
X232967Y309887D01*
X233052Y309841D01*
X233136Y309792D01*
X233218Y309740D01*
X233297Y309684D01*
X233375Y309626D01*
X233449Y309564D01*
X233522Y309500D01*
X233592Y309433D01*
X233659Y309363D01*
X233723Y309290D01*
X233785Y309216D01*
X233843Y309138D01*
X233899Y309059D01*
X233951Y308977D01*
X234000Y308893D01*
X234046Y308808D01*
X234088Y308721D01*
X234127Y308632D01*
X234162Y308542D01*
X234194Y308450D01*
X234222Y308357D01*
X234247Y308263D01*
X234268Y308169D01*
X234285Y308073D01*
X234298Y307977D01*
X234307Y307881D01*
X234313Y307784D01*
X234315Y307687D01*
X234315Y305218D01*
X234315Y314971D02*
X225425Y314971D01*
X225425Y317441D01*
X225427Y317538D01*
X225433Y317635D01*
X225442Y317731D01*
X225455Y317827D01*
X225472Y317923D01*
X225493Y318017D01*
X225518Y318111D01*
X225546Y318204D01*
X225578Y318296D01*
X225613Y318386D01*
X225652Y318475D01*
X225694Y318562D01*
X225740Y318647D01*
X225789Y318731D01*
X225841Y318813D01*
X225897Y318892D01*
X225955Y318970D01*
X226017Y319044D01*
X226081Y319117D01*
X226148Y319187D01*
X226218Y319254D01*
X226291Y319318D01*
X226365Y319380D01*
X226443Y319438D01*
X226522Y319494D01*
X226604Y319546D01*
X226688Y319595D01*
X226773Y319641D01*
X226860Y319683D01*
X226949Y319722D01*
X227039Y319757D01*
X227131Y319789D01*
X227224Y319817D01*
X227318Y319842D01*
X227412Y319863D01*
X227508Y319880D01*
X227604Y319893D01*
X227700Y319902D01*
X227797Y319908D01*
X227894Y319910D01*
X231846Y319910D01*
X231943Y319908D01*
X232040Y319902D01*
X232136Y319893D01*
X232232Y319880D01*
X232328Y319863D01*
X232422Y319842D01*
X232516Y319817D01*
X232609Y319789D01*
X232701Y319757D01*
X232791Y319722D01*
X232880Y319683D01*
X232967Y319641D01*
X233052Y319595D01*
X233136Y319546D01*
X233218Y319494D01*
X233297Y319438D01*
X233375Y319380D01*
X233449Y319318D01*
X233522Y319254D01*
X233592Y319187D01*
X233659Y319117D01*
X233723Y319044D01*
X233785Y318970D01*
X233843Y318892D01*
X233899Y318813D01*
X233951Y318731D01*
X234000Y318647D01*
X234046Y318562D01*
X234088Y318475D01*
X234127Y318386D01*
X234162Y318296D01*
X234194Y318204D01*
X234222Y318111D01*
X234247Y318017D01*
X234268Y317923D01*
X234285Y317827D01*
X234298Y317731D01*
X234307Y317635D01*
X234313Y317538D01*
X234315Y317441D01*
X234315Y314971D01*
X151448Y312914D02*
X151356Y312912D01*
X151264Y312906D01*
X151173Y312897D01*
X151082Y312884D01*
X150992Y312867D01*
X150902Y312846D01*
X150814Y312822D01*
X150726Y312794D01*
X150640Y312762D01*
X150555Y312727D01*
X150472Y312688D01*
X150390Y312646D01*
X150310Y312601D01*
X150232Y312552D01*
X150156Y312500D01*
X150083Y312445D01*
X150011Y312387D01*
X149942Y312327D01*
X149876Y312263D01*
X149812Y312197D01*
X149752Y312128D01*
X149694Y312056D01*
X149639Y311983D01*
X149587Y311907D01*
X149538Y311829D01*
X149493Y311749D01*
X149451Y311667D01*
X149412Y311584D01*
X149377Y311499D01*
X149345Y311413D01*
X149317Y311325D01*
X149293Y311237D01*
X149272Y311147D01*
X149255Y311057D01*
X149242Y310966D01*
X149233Y310875D01*
X149227Y310783D01*
X149225Y310691D01*
X149227Y310585D01*
X149233Y310480D01*
X149243Y310375D01*
X149256Y310270D01*
X149274Y310166D01*
X149295Y310063D01*
X149320Y309960D01*
X149349Y309858D01*
X149382Y309758D01*
X149418Y309659D01*
X149458Y309561D01*
X149502Y309465D01*
X149549Y309370D01*
X149599Y309278D01*
X149653Y309187D01*
X149711Y309098D01*
X149771Y309012D01*
X149835Y308928D01*
X149901Y308846D01*
X149971Y308766D01*
X150044Y308690D01*
X150119Y308616D01*
X150197Y308545D01*
X150278Y308477D01*
X150361Y308411D01*
X150447Y308349D01*
X150534Y308291D01*
X150624Y308235D01*
X150716Y308183D01*
X150810Y308134D01*
X150905Y308089D01*
X151002Y308047D01*
X151101Y308009D01*
X151200Y307975D01*
X153177Y312173D02*
X153108Y312242D01*
X153038Y312308D01*
X152964Y312371D01*
X152888Y312430D01*
X152810Y312487D01*
X152730Y312541D01*
X152647Y312591D01*
X152563Y312638D01*
X152476Y312681D01*
X152388Y312721D01*
X152299Y312757D01*
X152208Y312790D01*
X152116Y312819D01*
X152022Y312844D01*
X151928Y312865D01*
X151833Y312883D01*
X151737Y312896D01*
X151641Y312906D01*
X151545Y312912D01*
X151448Y312914D01*
X153176Y312173D02*
X158115Y307975D01*
X158115Y312914D01*
X158115Y316625D02*
X149225Y319588D01*
X158115Y322552D01*
X155893Y321811D02*
X155893Y317366D01*
X174625Y310444D02*
X176601Y307975D01*
X174625Y310444D02*
X183515Y310444D01*
X183515Y307975D02*
X183515Y312914D01*
X183515Y316625D02*
X174625Y319588D01*
X183515Y322552D01*
X181293Y321811D02*
X181293Y317366D01*
X200025Y310444D02*
X202001Y307975D01*
X200025Y310444D02*
X208915Y310444D01*
X208915Y307975D02*
X208915Y312914D01*
X203976Y317597D02*
X203976Y320067D01*
X203977Y320067D02*
X203979Y320165D01*
X203985Y320263D01*
X203995Y320361D01*
X204008Y320458D01*
X204026Y320555D01*
X204047Y320651D01*
X204072Y320745D01*
X204101Y320839D01*
X204133Y320932D01*
X204170Y321023D01*
X204209Y321113D01*
X204253Y321201D01*
X204300Y321287D01*
X204350Y321372D01*
X204403Y321454D01*
X204460Y321534D01*
X204520Y321612D01*
X204583Y321687D01*
X204649Y321760D01*
X204718Y321830D01*
X204789Y321897D01*
X204863Y321962D01*
X204940Y322023D01*
X205019Y322082D01*
X205100Y322137D01*
X205183Y322189D01*
X205269Y322237D01*
X205356Y322282D01*
X205445Y322324D01*
X205535Y322362D01*
X205627Y322396D01*
X205720Y322427D01*
X205815Y322454D01*
X205910Y322477D01*
X206007Y322497D01*
X206103Y322512D01*
X206201Y322524D01*
X206299Y322532D01*
X206397Y322536D01*
X206495Y322536D01*
X206593Y322532D01*
X206691Y322524D01*
X206789Y322512D01*
X206885Y322497D01*
X206982Y322477D01*
X207077Y322454D01*
X207172Y322427D01*
X207265Y322396D01*
X207357Y322362D01*
X207447Y322324D01*
X207536Y322282D01*
X207623Y322237D01*
X207709Y322189D01*
X207792Y322137D01*
X207873Y322082D01*
X207952Y322023D01*
X208029Y321962D01*
X208103Y321897D01*
X208174Y321830D01*
X208243Y321760D01*
X208309Y321687D01*
X208372Y321612D01*
X208432Y321534D01*
X208489Y321454D01*
X208542Y321372D01*
X208592Y321287D01*
X208639Y321201D01*
X208683Y321113D01*
X208722Y321023D01*
X208759Y320932D01*
X208791Y320839D01*
X208820Y320745D01*
X208845Y320651D01*
X208866Y320555D01*
X208884Y320458D01*
X208897Y320361D01*
X208907Y320263D01*
X208913Y320165D01*
X208915Y320067D01*
X208915Y317597D01*
X200025Y317597D01*
X200025Y320067D01*
X200027Y320154D01*
X200033Y320242D01*
X200042Y320329D01*
X200056Y320415D01*
X200073Y320501D01*
X200094Y320585D01*
X200119Y320669D01*
X200148Y320752D01*
X200180Y320833D01*
X200215Y320913D01*
X200254Y320991D01*
X200297Y321068D01*
X200343Y321142D01*
X200392Y321214D01*
X200444Y321284D01*
X200500Y321352D01*
X200558Y321417D01*
X200619Y321480D01*
X200683Y321539D01*
X200750Y321596D01*
X200818Y321650D01*
X200890Y321701D01*
X200963Y321748D01*
X201038Y321793D01*
X201116Y321834D01*
X201195Y321871D01*
X201275Y321905D01*
X201357Y321935D01*
X201440Y321962D01*
X201525Y321985D01*
X201610Y322004D01*
X201696Y322019D01*
X201783Y322031D01*
X201870Y322039D01*
X201957Y322043D01*
X202045Y322043D01*
X202132Y322039D01*
X202219Y322031D01*
X202306Y322019D01*
X202392Y322004D01*
X202477Y321985D01*
X202562Y321962D01*
X202645Y321935D01*
X202727Y321905D01*
X202807Y321871D01*
X202886Y321834D01*
X202964Y321793D01*
X203039Y321748D01*
X203112Y321701D01*
X203184Y321650D01*
X203252Y321596D01*
X203319Y321539D01*
X203383Y321480D01*
X203444Y321417D01*
X203502Y321352D01*
X203558Y321284D01*
X203610Y321214D01*
X203659Y321142D01*
X203705Y321068D01*
X203748Y320991D01*
X203787Y320913D01*
X203822Y320833D01*
X203854Y320752D01*
X203883Y320669D01*
X203908Y320585D01*
X203929Y320501D01*
X203946Y320415D01*
X203960Y320329D01*
X203969Y320242D01*
X203975Y320154D01*
X203977Y320067D01*
X126048Y312914D02*
X125956Y312912D01*
X125864Y312906D01*
X125773Y312897D01*
X125682Y312884D01*
X125592Y312867D01*
X125502Y312846D01*
X125414Y312822D01*
X125326Y312794D01*
X125240Y312762D01*
X125155Y312727D01*
X125072Y312688D01*
X124990Y312646D01*
X124910Y312601D01*
X124832Y312552D01*
X124756Y312500D01*
X124683Y312445D01*
X124611Y312387D01*
X124542Y312327D01*
X124476Y312263D01*
X124412Y312197D01*
X124352Y312128D01*
X124294Y312056D01*
X124239Y311983D01*
X124187Y311907D01*
X124138Y311829D01*
X124093Y311749D01*
X124051Y311667D01*
X124012Y311584D01*
X123977Y311499D01*
X123945Y311413D01*
X123917Y311325D01*
X123893Y311237D01*
X123872Y311147D01*
X123855Y311057D01*
X123842Y310966D01*
X123833Y310875D01*
X123827Y310783D01*
X123825Y310691D01*
X123827Y310585D01*
X123833Y310480D01*
X123843Y310375D01*
X123856Y310270D01*
X123874Y310166D01*
X123895Y310063D01*
X123920Y309960D01*
X123949Y309858D01*
X123982Y309758D01*
X124018Y309659D01*
X124058Y309561D01*
X124102Y309465D01*
X124149Y309370D01*
X124199Y309278D01*
X124253Y309187D01*
X124311Y309098D01*
X124371Y309012D01*
X124435Y308928D01*
X124501Y308846D01*
X124571Y308766D01*
X124644Y308690D01*
X124719Y308616D01*
X124797Y308545D01*
X124878Y308477D01*
X124961Y308411D01*
X125047Y308349D01*
X125134Y308291D01*
X125224Y308235D01*
X125316Y308183D01*
X125410Y308134D01*
X125505Y308089D01*
X125602Y308047D01*
X125701Y308009D01*
X125800Y307975D01*
X127777Y312173D02*
X127708Y312242D01*
X127638Y312308D01*
X127564Y312371D01*
X127488Y312430D01*
X127410Y312487D01*
X127330Y312541D01*
X127247Y312591D01*
X127163Y312638D01*
X127076Y312681D01*
X126988Y312721D01*
X126899Y312757D01*
X126808Y312790D01*
X126716Y312819D01*
X126622Y312844D01*
X126528Y312865D01*
X126433Y312883D01*
X126337Y312896D01*
X126241Y312906D01*
X126145Y312912D01*
X126048Y312914D01*
X127776Y312173D02*
X132715Y307975D01*
X132715Y312914D01*
X127776Y317597D02*
X127776Y320067D01*
X127777Y320067D02*
X127779Y320165D01*
X127785Y320263D01*
X127795Y320361D01*
X127808Y320458D01*
X127826Y320555D01*
X127847Y320651D01*
X127872Y320745D01*
X127901Y320839D01*
X127933Y320932D01*
X127970Y321023D01*
X128009Y321113D01*
X128053Y321201D01*
X128100Y321287D01*
X128150Y321372D01*
X128203Y321454D01*
X128260Y321534D01*
X128320Y321612D01*
X128383Y321687D01*
X128449Y321760D01*
X128518Y321830D01*
X128589Y321897D01*
X128663Y321962D01*
X128740Y322023D01*
X128819Y322082D01*
X128900Y322137D01*
X128983Y322189D01*
X129069Y322237D01*
X129156Y322282D01*
X129245Y322324D01*
X129335Y322362D01*
X129427Y322396D01*
X129520Y322427D01*
X129615Y322454D01*
X129710Y322477D01*
X129807Y322497D01*
X129903Y322512D01*
X130001Y322524D01*
X130099Y322532D01*
X130197Y322536D01*
X130295Y322536D01*
X130393Y322532D01*
X130491Y322524D01*
X130589Y322512D01*
X130685Y322497D01*
X130782Y322477D01*
X130877Y322454D01*
X130972Y322427D01*
X131065Y322396D01*
X131157Y322362D01*
X131247Y322324D01*
X131336Y322282D01*
X131423Y322237D01*
X131509Y322189D01*
X131592Y322137D01*
X131673Y322082D01*
X131752Y322023D01*
X131829Y321962D01*
X131903Y321897D01*
X131974Y321830D01*
X132043Y321760D01*
X132109Y321687D01*
X132172Y321612D01*
X132232Y321534D01*
X132289Y321454D01*
X132342Y321372D01*
X132392Y321287D01*
X132439Y321201D01*
X132483Y321113D01*
X132522Y321023D01*
X132559Y320932D01*
X132591Y320839D01*
X132620Y320745D01*
X132645Y320651D01*
X132666Y320555D01*
X132684Y320458D01*
X132697Y320361D01*
X132707Y320263D01*
X132713Y320165D01*
X132715Y320067D01*
X132715Y317597D01*
X123825Y317597D01*
X123825Y320067D01*
X123827Y320154D01*
X123833Y320242D01*
X123842Y320329D01*
X123856Y320415D01*
X123873Y320501D01*
X123894Y320585D01*
X123919Y320669D01*
X123948Y320752D01*
X123980Y320833D01*
X124015Y320913D01*
X124054Y320991D01*
X124097Y321068D01*
X124143Y321142D01*
X124192Y321214D01*
X124244Y321284D01*
X124300Y321352D01*
X124358Y321417D01*
X124419Y321480D01*
X124483Y321539D01*
X124550Y321596D01*
X124618Y321650D01*
X124690Y321701D01*
X124763Y321748D01*
X124838Y321793D01*
X124916Y321834D01*
X124995Y321871D01*
X125075Y321905D01*
X125157Y321935D01*
X125240Y321962D01*
X125325Y321985D01*
X125410Y322004D01*
X125496Y322019D01*
X125583Y322031D01*
X125670Y322039D01*
X125757Y322043D01*
X125845Y322043D01*
X125932Y322039D01*
X126019Y322031D01*
X126106Y322019D01*
X126192Y322004D01*
X126277Y321985D01*
X126362Y321962D01*
X126445Y321935D01*
X126527Y321905D01*
X126607Y321871D01*
X126686Y321834D01*
X126764Y321793D01*
X126839Y321748D01*
X126912Y321701D01*
X126984Y321650D01*
X127052Y321596D01*
X127119Y321539D01*
X127183Y321480D01*
X127244Y321417D01*
X127302Y321352D01*
X127358Y321284D01*
X127410Y321214D01*
X127459Y321142D01*
X127505Y321068D01*
X127548Y320991D01*
X127587Y320913D01*
X127622Y320833D01*
X127654Y320752D01*
X127683Y320669D01*
X127708Y320585D01*
X127729Y320501D01*
X127746Y320415D01*
X127760Y320329D01*
X127769Y320242D01*
X127775Y320154D01*
X127777Y320067D01*
X55245Y212725D02*
X55345Y212723D01*
X55444Y212717D01*
X55544Y212707D01*
X55642Y212694D01*
X55741Y212676D01*
X55838Y212655D01*
X55934Y212630D01*
X56030Y212601D01*
X56124Y212568D01*
X56217Y212532D01*
X56308Y212492D01*
X56398Y212448D01*
X56486Y212401D01*
X56572Y212351D01*
X56656Y212297D01*
X56738Y212240D01*
X56817Y212180D01*
X56895Y212116D01*
X56969Y212050D01*
X57041Y211981D01*
X57110Y211909D01*
X57176Y211835D01*
X57240Y211757D01*
X57300Y211678D01*
X57357Y211596D01*
X57411Y211512D01*
X57461Y211426D01*
X57508Y211338D01*
X57552Y211248D01*
X57592Y211157D01*
X57628Y211064D01*
X57661Y210970D01*
X57690Y210874D01*
X57715Y210778D01*
X57736Y210681D01*
X57754Y210582D01*
X57767Y210484D01*
X57777Y210384D01*
X57783Y210285D01*
X57785Y210185D01*
X57783Y210044D01*
X57778Y209903D01*
X57768Y209762D01*
X57755Y209621D01*
X57739Y209481D01*
X57718Y209341D01*
X57694Y209202D01*
X57666Y209063D01*
X57635Y208926D01*
X57600Y208789D01*
X57562Y208653D01*
X57520Y208518D01*
X57474Y208385D01*
X57425Y208252D01*
X57372Y208121D01*
X57316Y207992D01*
X57257Y207863D01*
X57194Y207737D01*
X57128Y207612D01*
X57059Y207489D01*
X56986Y207368D01*
X56910Y207249D01*
X56831Y207131D01*
X56750Y207016D01*
X56665Y206904D01*
X56577Y206793D01*
X56486Y206685D01*
X56393Y206579D01*
X56296Y206476D01*
X56197Y206375D01*
X48895Y206693D02*
X48795Y206695D01*
X48696Y206701D01*
X48596Y206711D01*
X48498Y206724D01*
X48399Y206742D01*
X48302Y206763D01*
X48206Y206788D01*
X48110Y206817D01*
X48016Y206850D01*
X47923Y206886D01*
X47832Y206926D01*
X47742Y206970D01*
X47654Y207017D01*
X47568Y207067D01*
X47484Y207121D01*
X47402Y207178D01*
X47323Y207238D01*
X47245Y207302D01*
X47171Y207368D01*
X47099Y207437D01*
X47030Y207509D01*
X46964Y207583D01*
X46900Y207661D01*
X46840Y207740D01*
X46783Y207822D01*
X46729Y207906D01*
X46679Y207992D01*
X46632Y208080D01*
X46588Y208170D01*
X46548Y208261D01*
X46512Y208354D01*
X46479Y208448D01*
X46450Y208544D01*
X46425Y208640D01*
X46404Y208737D01*
X46386Y208836D01*
X46373Y208934D01*
X46363Y209034D01*
X46357Y209133D01*
X46355Y209233D01*
X46357Y209366D01*
X46362Y209499D01*
X46372Y209632D01*
X46385Y209765D01*
X46402Y209897D01*
X46422Y210029D01*
X46446Y210160D01*
X46474Y210290D01*
X46505Y210420D01*
X46540Y210548D01*
X46579Y210676D01*
X46621Y210802D01*
X46667Y210927D01*
X46716Y211051D01*
X46768Y211174D01*
X46824Y211295D01*
X46884Y211414D01*
X46946Y211532D01*
X47012Y211647D01*
X47081Y211761D01*
X47154Y211873D01*
X47229Y211983D01*
X47308Y212091D01*
X51118Y207962D02*
X51066Y207878D01*
X51011Y207795D01*
X50952Y207715D01*
X50891Y207637D01*
X50827Y207562D01*
X50759Y207489D01*
X50689Y207418D01*
X50617Y207351D01*
X50542Y207286D01*
X50464Y207224D01*
X50384Y207165D01*
X50302Y207109D01*
X50218Y207057D01*
X50132Y207008D01*
X50044Y206962D01*
X49954Y206919D01*
X49863Y206880D01*
X49770Y206845D01*
X49676Y206813D01*
X49581Y206785D01*
X49485Y206760D01*
X49388Y206740D01*
X49290Y206722D01*
X49192Y206709D01*
X49093Y206700D01*
X48994Y206694D01*
X48895Y206692D01*
X53022Y211455D02*
X53074Y211539D01*
X53129Y211622D01*
X53188Y211702D01*
X53249Y211780D01*
X53313Y211855D01*
X53381Y211928D01*
X53451Y211999D01*
X53523Y212066D01*
X53598Y212131D01*
X53676Y212193D01*
X53756Y212252D01*
X53838Y212308D01*
X53922Y212360D01*
X54008Y212409D01*
X54096Y212455D01*
X54186Y212498D01*
X54277Y212537D01*
X54370Y212572D01*
X54464Y212604D01*
X54559Y212632D01*
X54655Y212657D01*
X54752Y212677D01*
X54850Y212695D01*
X54948Y212708D01*
X55047Y212717D01*
X55146Y212723D01*
X55245Y212725D01*
X53023Y211455D02*
X51118Y207963D01*
X46355Y219837D02*
X57785Y219837D01*
X46355Y216662D02*
X46355Y223012D01*
X57785Y227736D02*
X57785Y232816D01*
X57785Y227736D02*
X46355Y227736D01*
X46355Y232816D01*
X51435Y231546D02*
X51435Y227736D01*
X46355Y237807D02*
X57785Y237807D01*
X46355Y237807D02*
X46355Y240982D01*
X46357Y241093D01*
X46363Y241203D01*
X46372Y241314D01*
X46386Y241424D01*
X46403Y241533D01*
X46424Y241642D01*
X46449Y241750D01*
X46478Y241857D01*
X46510Y241963D01*
X46546Y242068D01*
X46586Y242171D01*
X46629Y242273D01*
X46676Y242374D01*
X46727Y242473D01*
X46780Y242570D01*
X46837Y242664D01*
X46898Y242757D01*
X46961Y242848D01*
X47028Y242937D01*
X47098Y243023D01*
X47171Y243106D01*
X47246Y243188D01*
X47324Y243266D01*
X47406Y243341D01*
X47489Y243414D01*
X47575Y243484D01*
X47664Y243551D01*
X47755Y243614D01*
X47848Y243675D01*
X47942Y243732D01*
X48039Y243785D01*
X48138Y243836D01*
X48239Y243883D01*
X48341Y243926D01*
X48444Y243966D01*
X48549Y244002D01*
X48655Y244034D01*
X48762Y244063D01*
X48870Y244088D01*
X48979Y244109D01*
X49088Y244126D01*
X49198Y244140D01*
X49309Y244149D01*
X49419Y244155D01*
X49530Y244157D01*
X49641Y244155D01*
X49751Y244149D01*
X49862Y244140D01*
X49972Y244126D01*
X50081Y244109D01*
X50190Y244088D01*
X50298Y244063D01*
X50405Y244034D01*
X50511Y244002D01*
X50616Y243966D01*
X50719Y243926D01*
X50821Y243883D01*
X50922Y243836D01*
X51021Y243785D01*
X51118Y243732D01*
X51212Y243675D01*
X51305Y243614D01*
X51396Y243551D01*
X51485Y243484D01*
X51571Y243414D01*
X51654Y243341D01*
X51736Y243266D01*
X51814Y243188D01*
X51889Y243106D01*
X51962Y243023D01*
X52032Y242937D01*
X52099Y242848D01*
X52162Y242757D01*
X52223Y242664D01*
X52280Y242570D01*
X52333Y242473D01*
X52384Y242374D01*
X52431Y242273D01*
X52474Y242171D01*
X52514Y242068D01*
X52550Y241963D01*
X52582Y241857D01*
X52611Y241750D01*
X52636Y241642D01*
X52657Y241533D01*
X52674Y241424D01*
X52688Y241314D01*
X52697Y241203D01*
X52703Y241093D01*
X52705Y240982D01*
X52705Y237807D01*
X57785Y249047D02*
X46355Y249047D01*
X46355Y252222D01*
X46357Y252333D01*
X46363Y252443D01*
X46372Y252554D01*
X46386Y252664D01*
X46403Y252773D01*
X46424Y252882D01*
X46449Y252990D01*
X46478Y253097D01*
X46510Y253203D01*
X46546Y253308D01*
X46586Y253411D01*
X46629Y253513D01*
X46676Y253614D01*
X46727Y253713D01*
X46780Y253810D01*
X46837Y253904D01*
X46898Y253997D01*
X46961Y254088D01*
X47028Y254177D01*
X47098Y254263D01*
X47171Y254346D01*
X47246Y254428D01*
X47324Y254506D01*
X47406Y254581D01*
X47489Y254654D01*
X47575Y254724D01*
X47664Y254791D01*
X47755Y254854D01*
X47848Y254915D01*
X47943Y254972D01*
X48039Y255025D01*
X48138Y255076D01*
X48239Y255123D01*
X48341Y255166D01*
X48444Y255206D01*
X48549Y255242D01*
X48655Y255274D01*
X48762Y255303D01*
X48870Y255328D01*
X48979Y255349D01*
X49088Y255366D01*
X49198Y255380D01*
X49309Y255389D01*
X49419Y255395D01*
X49530Y255397D01*
X54610Y255397D01*
X54721Y255395D01*
X54831Y255389D01*
X54942Y255380D01*
X55052Y255366D01*
X55161Y255349D01*
X55270Y255328D01*
X55378Y255303D01*
X55485Y255274D01*
X55591Y255242D01*
X55696Y255206D01*
X55799Y255166D01*
X55901Y255123D01*
X56002Y255076D01*
X56101Y255025D01*
X56198Y254972D01*
X56292Y254915D01*
X56385Y254854D01*
X56476Y254791D01*
X56565Y254724D01*
X56651Y254654D01*
X56734Y254581D01*
X56816Y254506D01*
X56894Y254428D01*
X56969Y254346D01*
X57042Y254263D01*
X57112Y254177D01*
X57179Y254088D01*
X57242Y253997D01*
X57303Y253904D01*
X57360Y253810D01*
X57413Y253713D01*
X57464Y253614D01*
X57511Y253513D01*
X57554Y253411D01*
X57594Y253308D01*
X57630Y253203D01*
X57662Y253097D01*
X57691Y252990D01*
X57716Y252882D01*
X57737Y252773D01*
X57754Y252664D01*
X57768Y252554D01*
X57777Y252443D01*
X57783Y252333D01*
X57785Y252222D01*
X57785Y249047D01*
X57785Y261322D02*
X46355Y261322D01*
X46355Y264497D01*
X46357Y264608D01*
X46363Y264718D01*
X46372Y264829D01*
X46386Y264939D01*
X46403Y265048D01*
X46424Y265157D01*
X46449Y265265D01*
X46478Y265372D01*
X46510Y265478D01*
X46546Y265583D01*
X46586Y265686D01*
X46629Y265788D01*
X46676Y265889D01*
X46727Y265988D01*
X46780Y266085D01*
X46837Y266179D01*
X46898Y266272D01*
X46961Y266363D01*
X47028Y266452D01*
X47098Y266538D01*
X47171Y266621D01*
X47246Y266703D01*
X47324Y266781D01*
X47406Y266856D01*
X47489Y266929D01*
X47575Y266999D01*
X47664Y267066D01*
X47755Y267129D01*
X47848Y267190D01*
X47942Y267247D01*
X48039Y267300D01*
X48138Y267351D01*
X48239Y267398D01*
X48341Y267441D01*
X48444Y267481D01*
X48549Y267517D01*
X48655Y267549D01*
X48762Y267578D01*
X48870Y267603D01*
X48979Y267624D01*
X49088Y267641D01*
X49198Y267655D01*
X49309Y267664D01*
X49419Y267670D01*
X49530Y267672D01*
X49641Y267670D01*
X49751Y267664D01*
X49862Y267655D01*
X49972Y267641D01*
X50081Y267624D01*
X50190Y267603D01*
X50298Y267578D01*
X50405Y267549D01*
X50511Y267517D01*
X50616Y267481D01*
X50719Y267441D01*
X50821Y267398D01*
X50922Y267351D01*
X51021Y267300D01*
X51118Y267247D01*
X51212Y267190D01*
X51305Y267129D01*
X51396Y267066D01*
X51485Y266999D01*
X51571Y266929D01*
X51654Y266856D01*
X51736Y266781D01*
X51814Y266703D01*
X51889Y266621D01*
X51962Y266538D01*
X52032Y266452D01*
X52099Y266363D01*
X52162Y266272D01*
X52223Y266179D01*
X52280Y266085D01*
X52333Y265988D01*
X52384Y265889D01*
X52431Y265788D01*
X52474Y265686D01*
X52514Y265583D01*
X52550Y265478D01*
X52582Y265372D01*
X52611Y265265D01*
X52636Y265157D01*
X52657Y265048D01*
X52674Y264939D01*
X52688Y264829D01*
X52697Y264718D01*
X52703Y264608D01*
X52705Y264497D01*
X52705Y261322D01*
X52705Y265132D02*
X57785Y267672D01*
X57785Y275844D02*
X46355Y272034D01*
X46355Y279654D02*
X57785Y275844D01*
X48895Y284099D02*
X46355Y287274D01*
X57785Y287274D01*
X57785Y284099D02*
X57785Y290449D01*
D14*
X184150Y139700D02*
X196850Y139700D01*
X203200Y133350D01*
X203200Y120650D02*
X196850Y114300D01*
X158750Y139700D02*
X152400Y133350D01*
X158750Y139700D02*
X171450Y139700D01*
X177800Y133350D01*
X177800Y120650D02*
X171450Y114300D01*
X158750Y114300D01*
X152400Y120650D01*
X177800Y133350D02*
X184150Y139700D01*
X177800Y120650D02*
X184150Y114300D01*
X196850Y114300D01*
X120650Y139700D02*
X107950Y139700D01*
X120650Y139700D02*
X127000Y133350D01*
X127000Y120650D02*
X120650Y114300D01*
X127000Y133350D02*
X133350Y139700D01*
X146050Y139700D01*
X152400Y133350D01*
X152400Y120650D02*
X146050Y114300D01*
X133350Y114300D01*
X127000Y120650D01*
X101600Y120650D02*
X101600Y133350D01*
X107950Y139700D01*
X101600Y120650D02*
X107950Y114300D01*
X120650Y114300D01*
X203200Y120650D02*
X203200Y133350D01*
D10*
X104916Y142677D02*
X104914Y142612D01*
X104908Y142548D01*
X104898Y142484D01*
X104885Y142420D01*
X104867Y142358D01*
X104846Y142297D01*
X104822Y142237D01*
X104793Y142179D01*
X104761Y142122D01*
X104726Y142068D01*
X104688Y142016D01*
X104646Y141966D01*
X104602Y141919D01*
X104555Y141875D01*
X104505Y141833D01*
X104453Y141795D01*
X104399Y141760D01*
X104342Y141728D01*
X104284Y141699D01*
X104224Y141675D01*
X104163Y141654D01*
X104101Y141636D01*
X104037Y141623D01*
X103973Y141613D01*
X103909Y141607D01*
X103844Y141605D01*
X103750Y141607D01*
X103656Y141613D01*
X103562Y141623D01*
X103469Y141636D01*
X103377Y141654D01*
X103285Y141675D01*
X103194Y141700D01*
X103104Y141729D01*
X103016Y141762D01*
X102929Y141798D01*
X102844Y141838D01*
X102760Y141881D01*
X102679Y141928D01*
X102599Y141978D01*
X102521Y142031D01*
X102446Y142088D01*
X102373Y142147D01*
X102303Y142210D01*
X102235Y142275D01*
X102369Y145359D02*
X102371Y145424D01*
X102377Y145488D01*
X102387Y145552D01*
X102400Y145616D01*
X102418Y145678D01*
X102439Y145739D01*
X102463Y145799D01*
X102492Y145857D01*
X102524Y145914D01*
X102559Y145968D01*
X102597Y146020D01*
X102639Y146070D01*
X102683Y146117D01*
X102730Y146161D01*
X102780Y146203D01*
X102832Y146241D01*
X102886Y146276D01*
X102943Y146308D01*
X103001Y146337D01*
X103061Y146361D01*
X103122Y146382D01*
X103184Y146400D01*
X103248Y146413D01*
X103312Y146423D01*
X103376Y146429D01*
X103441Y146431D01*
X103527Y146429D01*
X103613Y146424D01*
X103699Y146414D01*
X103784Y146401D01*
X103869Y146385D01*
X103953Y146365D01*
X104036Y146341D01*
X104118Y146314D01*
X104198Y146283D01*
X104278Y146249D01*
X104355Y146211D01*
X104431Y146170D01*
X104505Y146126D01*
X104577Y146079D01*
X104648Y146029D01*
X102905Y144421D02*
X102852Y144454D01*
X102801Y144491D01*
X102752Y144530D01*
X102705Y144572D01*
X102661Y144617D01*
X102620Y144664D01*
X102581Y144713D01*
X102545Y144765D01*
X102512Y144819D01*
X102483Y144874D01*
X102457Y144931D01*
X102434Y144990D01*
X102414Y145049D01*
X102398Y145110D01*
X102385Y145171D01*
X102376Y145234D01*
X102371Y145296D01*
X102369Y145359D01*
X104380Y143615D02*
X104433Y143582D01*
X104484Y143545D01*
X104533Y143506D01*
X104580Y143464D01*
X104624Y143419D01*
X104665Y143372D01*
X104704Y143323D01*
X104740Y143271D01*
X104773Y143217D01*
X104802Y143162D01*
X104828Y143105D01*
X104851Y143046D01*
X104871Y142987D01*
X104887Y142926D01*
X104900Y142865D01*
X104909Y142802D01*
X104914Y142740D01*
X104916Y142677D01*
X104380Y143616D02*
X102905Y144420D01*
X108513Y146431D02*
X108513Y141605D01*
X107173Y146431D02*
X109854Y146431D01*
X112496Y141605D02*
X114641Y141605D01*
X112496Y141605D02*
X112496Y146431D01*
X114641Y146431D01*
X114104Y144286D02*
X112496Y144286D01*
X117378Y146431D02*
X117378Y141605D01*
X117378Y146431D02*
X118718Y146431D01*
X118789Y146429D01*
X118861Y146423D01*
X118931Y146414D01*
X119001Y146401D01*
X119071Y146384D01*
X119139Y146363D01*
X119206Y146339D01*
X119272Y146311D01*
X119336Y146280D01*
X119399Y146245D01*
X119459Y146207D01*
X119518Y146166D01*
X119574Y146122D01*
X119628Y146075D01*
X119679Y146026D01*
X119727Y145973D01*
X119773Y145918D01*
X119815Y145861D01*
X119855Y145801D01*
X119891Y145740D01*
X119924Y145676D01*
X119953Y145611D01*
X119979Y145545D01*
X120002Y145477D01*
X120021Y145408D01*
X120036Y145338D01*
X120047Y145268D01*
X120055Y145197D01*
X120059Y145126D01*
X120059Y145054D01*
X120055Y144983D01*
X120047Y144912D01*
X120036Y144842D01*
X120021Y144772D01*
X120002Y144703D01*
X119979Y144635D01*
X119953Y144569D01*
X119924Y144504D01*
X119891Y144440D01*
X119855Y144379D01*
X119815Y144319D01*
X119773Y144262D01*
X119727Y144207D01*
X119679Y144154D01*
X119628Y144105D01*
X119574Y144058D01*
X119518Y144014D01*
X119459Y143973D01*
X119399Y143935D01*
X119336Y143900D01*
X119272Y143869D01*
X119206Y143841D01*
X119139Y143817D01*
X119071Y143796D01*
X119001Y143779D01*
X118931Y143766D01*
X118861Y143757D01*
X118789Y143751D01*
X118718Y143749D01*
X118718Y143750D02*
X117378Y143750D01*
X122864Y141605D02*
X122864Y146431D01*
X124204Y146431D01*
X124275Y146429D01*
X124347Y146423D01*
X124417Y146414D01*
X124487Y146401D01*
X124557Y146384D01*
X124625Y146363D01*
X124692Y146339D01*
X124758Y146311D01*
X124822Y146280D01*
X124885Y146245D01*
X124945Y146207D01*
X125004Y146166D01*
X125060Y146122D01*
X125114Y146075D01*
X125165Y146026D01*
X125213Y145973D01*
X125259Y145918D01*
X125301Y145861D01*
X125341Y145801D01*
X125377Y145740D01*
X125410Y145676D01*
X125439Y145611D01*
X125465Y145545D01*
X125488Y145477D01*
X125507Y145408D01*
X125522Y145338D01*
X125533Y145268D01*
X125541Y145197D01*
X125545Y145126D01*
X125545Y145054D01*
X125541Y144983D01*
X125533Y144912D01*
X125522Y144842D01*
X125507Y144772D01*
X125488Y144703D01*
X125465Y144635D01*
X125439Y144569D01*
X125410Y144504D01*
X125377Y144440D01*
X125341Y144379D01*
X125301Y144319D01*
X125259Y144262D01*
X125213Y144207D01*
X125165Y144154D01*
X125114Y144105D01*
X125060Y144058D01*
X125004Y144014D01*
X124945Y143973D01*
X124885Y143935D01*
X124822Y143900D01*
X124758Y143869D01*
X124692Y143841D01*
X124625Y143817D01*
X124557Y143796D01*
X124487Y143779D01*
X124417Y143766D01*
X124347Y143757D01*
X124275Y143751D01*
X124204Y143749D01*
X124204Y143750D02*
X122864Y143750D01*
X128223Y141605D02*
X130368Y141605D01*
X128223Y141605D02*
X128223Y146431D01*
X130368Y146431D01*
X129832Y144286D02*
X128223Y144286D01*
X133022Y146431D02*
X133022Y141605D01*
X133022Y146431D02*
X134363Y146431D01*
X134434Y146429D01*
X134506Y146423D01*
X134576Y146414D01*
X134646Y146401D01*
X134716Y146384D01*
X134784Y146363D01*
X134851Y146339D01*
X134917Y146311D01*
X134981Y146280D01*
X135044Y146245D01*
X135104Y146207D01*
X135163Y146166D01*
X135219Y146122D01*
X135273Y146075D01*
X135324Y146026D01*
X135372Y145973D01*
X135418Y145918D01*
X135460Y145861D01*
X135500Y145801D01*
X135536Y145740D01*
X135569Y145676D01*
X135598Y145611D01*
X135624Y145545D01*
X135647Y145477D01*
X135666Y145408D01*
X135681Y145338D01*
X135692Y145268D01*
X135700Y145197D01*
X135704Y145126D01*
X135704Y145054D01*
X135700Y144983D01*
X135692Y144912D01*
X135681Y144842D01*
X135666Y144772D01*
X135647Y144703D01*
X135624Y144635D01*
X135598Y144569D01*
X135569Y144504D01*
X135536Y144440D01*
X135500Y144379D01*
X135460Y144319D01*
X135418Y144262D01*
X135372Y144207D01*
X135324Y144154D01*
X135273Y144105D01*
X135219Y144058D01*
X135163Y144014D01*
X135104Y143973D01*
X135044Y143935D01*
X134981Y143900D01*
X134917Y143869D01*
X134851Y143841D01*
X134784Y143817D01*
X134716Y143796D01*
X134646Y143779D01*
X134576Y143766D01*
X134506Y143757D01*
X134434Y143751D01*
X134363Y143749D01*
X134363Y143750D02*
X133022Y143750D01*
X134631Y143750D02*
X135703Y141605D01*
D14*
X738500Y530250D02*
X746150Y530250D01*
X658500Y530250D02*
X650850Y530250D01*
X650850Y434950D01*
X746150Y434950D01*
X746150Y530250D01*
X738500Y530250D02*
X738500Y526250D01*
X658500Y526250D01*
X658500Y530250D01*
D10*
X691448Y432435D02*
X693056Y427609D01*
X694665Y432435D01*
X697449Y432435D02*
X697449Y427609D01*
X697449Y432435D02*
X698789Y432435D01*
X698860Y432433D01*
X698932Y432427D01*
X699002Y432418D01*
X699072Y432405D01*
X699142Y432388D01*
X699210Y432367D01*
X699277Y432343D01*
X699343Y432315D01*
X699407Y432284D01*
X699470Y432249D01*
X699530Y432211D01*
X699589Y432170D01*
X699645Y432126D01*
X699699Y432079D01*
X699750Y432030D01*
X699798Y431977D01*
X699844Y431922D01*
X699886Y431865D01*
X699926Y431805D01*
X699962Y431744D01*
X699995Y431680D01*
X700024Y431615D01*
X700050Y431549D01*
X700073Y431481D01*
X700092Y431412D01*
X700107Y431342D01*
X700118Y431272D01*
X700126Y431201D01*
X700130Y431130D01*
X700130Y431058D01*
X700126Y430987D01*
X700118Y430916D01*
X700107Y430846D01*
X700092Y430776D01*
X700073Y430707D01*
X700050Y430639D01*
X700024Y430573D01*
X699995Y430508D01*
X699962Y430444D01*
X699926Y430383D01*
X699886Y430323D01*
X699844Y430266D01*
X699798Y430211D01*
X699750Y430158D01*
X699699Y430109D01*
X699645Y430062D01*
X699589Y430018D01*
X699530Y429977D01*
X699470Y429939D01*
X699407Y429904D01*
X699343Y429873D01*
X699277Y429845D01*
X699210Y429821D01*
X699142Y429800D01*
X699072Y429783D01*
X699002Y429770D01*
X698932Y429761D01*
X698860Y429755D01*
X698789Y429753D01*
X698789Y429754D02*
X697449Y429754D01*
X699057Y429754D02*
X700130Y427609D01*
X702871Y431363D02*
X704212Y432435D01*
X704212Y427609D01*
X705552Y427609D02*
X702871Y427609D01*
D14*
X44450Y538480D02*
X31750Y538480D01*
X18300Y520700D02*
X18310Y521498D01*
X18339Y522295D01*
X18388Y523091D01*
X18456Y523886D01*
X18544Y524678D01*
X18652Y525469D01*
X18778Y526256D01*
X18924Y527040D01*
X19090Y527821D01*
X19274Y528597D01*
X19477Y529368D01*
X19699Y530134D01*
X19940Y530895D01*
X20200Y531649D01*
X20478Y532397D01*
X20774Y533137D01*
X21088Y533870D01*
X21420Y534596D01*
X21770Y535312D01*
X22138Y536020D01*
X22522Y536719D01*
X22924Y537408D01*
X23342Y538087D01*
X23777Y538756D01*
X24228Y539414D01*
X24696Y540060D01*
X25179Y540695D01*
X25677Y541318D01*
X26191Y541928D01*
X26719Y542526D01*
X27262Y543110D01*
X27819Y543681D01*
X28390Y544238D01*
X28974Y544781D01*
X29572Y545309D01*
X30182Y545823D01*
X30805Y546321D01*
X31440Y546804D01*
X32086Y547272D01*
X32744Y547723D01*
X33413Y548158D01*
X34092Y548576D01*
X34781Y548978D01*
X35480Y549362D01*
X36188Y549730D01*
X36904Y550080D01*
X37630Y550412D01*
X38363Y550726D01*
X39103Y551022D01*
X39851Y551300D01*
X40605Y551560D01*
X41366Y551801D01*
X42132Y552023D01*
X42903Y552226D01*
X43679Y552410D01*
X44460Y552576D01*
X45244Y552722D01*
X46031Y552848D01*
X46822Y552956D01*
X47614Y553044D01*
X48409Y553112D01*
X49205Y553161D01*
X50002Y553190D01*
X50800Y553200D01*
X51598Y553190D01*
X52395Y553161D01*
X53191Y553112D01*
X53986Y553044D01*
X54778Y552956D01*
X55569Y552848D01*
X56356Y552722D01*
X57140Y552576D01*
X57921Y552410D01*
X58697Y552226D01*
X59468Y552023D01*
X60234Y551801D01*
X60995Y551560D01*
X61749Y551300D01*
X62497Y551022D01*
X63237Y550726D01*
X63970Y550412D01*
X64696Y550080D01*
X65412Y549730D01*
X66120Y549362D01*
X66819Y548978D01*
X67508Y548576D01*
X68187Y548158D01*
X68856Y547723D01*
X69514Y547272D01*
X70160Y546804D01*
X70795Y546321D01*
X71418Y545823D01*
X72028Y545309D01*
X72626Y544781D01*
X73210Y544238D01*
X73781Y543681D01*
X74338Y543110D01*
X74881Y542526D01*
X75409Y541928D01*
X75923Y541318D01*
X76421Y540695D01*
X76904Y540060D01*
X77372Y539414D01*
X77823Y538756D01*
X78258Y538087D01*
X78676Y537408D01*
X79078Y536719D01*
X79462Y536020D01*
X79830Y535312D01*
X80180Y534596D01*
X80512Y533870D01*
X80826Y533137D01*
X81122Y532397D01*
X81400Y531649D01*
X81660Y530895D01*
X81901Y530134D01*
X82123Y529368D01*
X82326Y528597D01*
X82510Y527821D01*
X82676Y527040D01*
X82822Y526256D01*
X82948Y525469D01*
X83056Y524678D01*
X83144Y523886D01*
X83212Y523091D01*
X83261Y522295D01*
X83290Y521498D01*
X83300Y520700D01*
X83290Y519902D01*
X83261Y519105D01*
X83212Y518309D01*
X83144Y517514D01*
X83056Y516722D01*
X82948Y515931D01*
X82822Y515144D01*
X82676Y514360D01*
X82510Y513579D01*
X82326Y512803D01*
X82123Y512032D01*
X81901Y511266D01*
X81660Y510505D01*
X81400Y509751D01*
X81122Y509003D01*
X80826Y508263D01*
X80512Y507530D01*
X80180Y506804D01*
X79830Y506088D01*
X79462Y505380D01*
X79078Y504681D01*
X78676Y503992D01*
X78258Y503313D01*
X77823Y502644D01*
X77372Y501986D01*
X76904Y501340D01*
X76421Y500705D01*
X75923Y500082D01*
X75409Y499472D01*
X74881Y498874D01*
X74338Y498290D01*
X73781Y497719D01*
X73210Y497162D01*
X72626Y496619D01*
X72028Y496091D01*
X71418Y495577D01*
X70795Y495079D01*
X70160Y494596D01*
X69514Y494128D01*
X68856Y493677D01*
X68187Y493242D01*
X67508Y492824D01*
X66819Y492422D01*
X66120Y492038D01*
X65412Y491670D01*
X64696Y491320D01*
X63970Y490988D01*
X63237Y490674D01*
X62497Y490378D01*
X61749Y490100D01*
X60995Y489840D01*
X60234Y489599D01*
X59468Y489377D01*
X58697Y489174D01*
X57921Y488990D01*
X57140Y488824D01*
X56356Y488678D01*
X55569Y488552D01*
X54778Y488444D01*
X53986Y488356D01*
X53191Y488288D01*
X52395Y488239D01*
X51598Y488210D01*
X50800Y488200D01*
X50002Y488210D01*
X49205Y488239D01*
X48409Y488288D01*
X47614Y488356D01*
X46822Y488444D01*
X46031Y488552D01*
X45244Y488678D01*
X44460Y488824D01*
X43679Y488990D01*
X42903Y489174D01*
X42132Y489377D01*
X41366Y489599D01*
X40605Y489840D01*
X39851Y490100D01*
X39103Y490378D01*
X38363Y490674D01*
X37630Y490988D01*
X36904Y491320D01*
X36188Y491670D01*
X35480Y492038D01*
X34781Y492422D01*
X34092Y492824D01*
X33413Y493242D01*
X32744Y493677D01*
X32086Y494128D01*
X31440Y494596D01*
X30805Y495079D01*
X30182Y495577D01*
X29572Y496091D01*
X28974Y496619D01*
X28390Y497162D01*
X27819Y497719D01*
X27262Y498290D01*
X26719Y498874D01*
X26191Y499472D01*
X25677Y500082D01*
X25179Y500705D01*
X24696Y501340D01*
X24228Y501986D01*
X23777Y502644D01*
X23342Y503313D01*
X22924Y503992D01*
X22522Y504681D01*
X22138Y505380D01*
X21770Y506088D01*
X21420Y506804D01*
X21088Y507530D01*
X20774Y508263D01*
X20478Y509003D01*
X20200Y509751D01*
X19940Y510505D01*
X19699Y511266D01*
X19477Y512032D01*
X19274Y512803D01*
X19090Y513579D01*
X18924Y514360D01*
X18778Y515144D01*
X18652Y515931D01*
X18544Y516722D01*
X18456Y517514D01*
X18388Y518309D01*
X18339Y519105D01*
X18310Y519902D01*
X18300Y520700D01*
X57150Y538480D02*
X69850Y538480D01*
X63500Y544830D02*
X63500Y532130D01*
D10*
X49304Y555625D02*
X48232Y555625D01*
X48167Y555627D01*
X48103Y555633D01*
X48039Y555643D01*
X47975Y555656D01*
X47913Y555674D01*
X47852Y555695D01*
X47792Y555719D01*
X47734Y555748D01*
X47677Y555780D01*
X47623Y555815D01*
X47571Y555853D01*
X47521Y555895D01*
X47474Y555939D01*
X47430Y555986D01*
X47388Y556036D01*
X47350Y556088D01*
X47315Y556142D01*
X47283Y556199D01*
X47254Y556257D01*
X47230Y556317D01*
X47209Y556378D01*
X47191Y556440D01*
X47178Y556504D01*
X47168Y556568D01*
X47162Y556632D01*
X47160Y556697D01*
X47159Y556697D02*
X47159Y559379D01*
X47160Y559379D02*
X47162Y559444D01*
X47168Y559508D01*
X47178Y559572D01*
X47191Y559636D01*
X47209Y559698D01*
X47230Y559759D01*
X47254Y559819D01*
X47283Y559877D01*
X47315Y559934D01*
X47350Y559988D01*
X47388Y560040D01*
X47430Y560090D01*
X47474Y560137D01*
X47521Y560181D01*
X47571Y560223D01*
X47623Y560261D01*
X47677Y560296D01*
X47734Y560328D01*
X47792Y560357D01*
X47852Y560381D01*
X47913Y560402D01*
X47975Y560420D01*
X48039Y560433D01*
X48103Y560443D01*
X48167Y560449D01*
X48232Y560451D01*
X49304Y560451D01*
X51760Y559379D02*
X53100Y560451D01*
X53100Y555625D01*
X51760Y555625D02*
X54441Y555625D01*
D14*
X84800Y462000D02*
X84800Y392000D01*
X22800Y392000D01*
X14800Y392000D01*
X14800Y462000D01*
X22800Y462000D01*
X84800Y462000D01*
X22800Y462000D02*
X22800Y392000D01*
D10*
X76835Y420478D02*
X81661Y420478D01*
X76835Y420478D02*
X76835Y421819D01*
X76837Y421890D01*
X76843Y421962D01*
X76852Y422032D01*
X76865Y422102D01*
X76882Y422172D01*
X76903Y422240D01*
X76927Y422307D01*
X76955Y422373D01*
X76986Y422437D01*
X77021Y422500D01*
X77059Y422560D01*
X77100Y422619D01*
X77144Y422675D01*
X77191Y422729D01*
X77240Y422780D01*
X77293Y422828D01*
X77348Y422874D01*
X77405Y422916D01*
X77465Y422956D01*
X77526Y422992D01*
X77590Y423025D01*
X77655Y423054D01*
X77721Y423080D01*
X77789Y423103D01*
X77858Y423122D01*
X77928Y423137D01*
X77998Y423148D01*
X78069Y423156D01*
X78140Y423160D01*
X78212Y423160D01*
X78283Y423156D01*
X78354Y423148D01*
X78424Y423137D01*
X78494Y423122D01*
X78563Y423103D01*
X78631Y423080D01*
X78697Y423054D01*
X78762Y423025D01*
X78826Y422992D01*
X78887Y422956D01*
X78947Y422916D01*
X79004Y422874D01*
X79059Y422828D01*
X79112Y422780D01*
X79161Y422729D01*
X79208Y422675D01*
X79252Y422619D01*
X79293Y422560D01*
X79331Y422500D01*
X79366Y422437D01*
X79397Y422373D01*
X79425Y422307D01*
X79449Y422240D01*
X79470Y422172D01*
X79487Y422102D01*
X79500Y422032D01*
X79509Y421962D01*
X79515Y421890D01*
X79517Y421819D01*
X79516Y421819D02*
X79516Y420478D01*
X76835Y425563D02*
X81661Y426635D01*
X78444Y427707D01*
X81661Y428780D01*
X76835Y429852D01*
X76835Y432831D02*
X81661Y432831D01*
X76835Y432831D02*
X76835Y434172D01*
X76837Y434243D01*
X76843Y434315D01*
X76852Y434385D01*
X76865Y434455D01*
X76882Y434525D01*
X76903Y434593D01*
X76927Y434660D01*
X76955Y434726D01*
X76986Y434790D01*
X77021Y434853D01*
X77059Y434913D01*
X77100Y434972D01*
X77144Y435028D01*
X77191Y435082D01*
X77240Y435133D01*
X77293Y435181D01*
X77348Y435227D01*
X77405Y435269D01*
X77465Y435309D01*
X77526Y435345D01*
X77590Y435378D01*
X77655Y435407D01*
X77721Y435433D01*
X77789Y435456D01*
X77858Y435475D01*
X77928Y435490D01*
X77998Y435501D01*
X78069Y435509D01*
X78140Y435513D01*
X78212Y435513D01*
X78283Y435509D01*
X78354Y435501D01*
X78424Y435490D01*
X78494Y435475D01*
X78563Y435456D01*
X78631Y435433D01*
X78697Y435407D01*
X78762Y435378D01*
X78826Y435345D01*
X78887Y435309D01*
X78947Y435269D01*
X79004Y435227D01*
X79059Y435181D01*
X79112Y435133D01*
X79161Y435082D01*
X79208Y435028D01*
X79252Y434972D01*
X79293Y434913D01*
X79331Y434853D01*
X79366Y434790D01*
X79397Y434726D01*
X79425Y434660D01*
X79449Y434593D01*
X79470Y434525D01*
X79487Y434455D01*
X79500Y434385D01*
X79509Y434315D01*
X79515Y434243D01*
X79517Y434172D01*
X79516Y434172D02*
X79516Y432831D01*
X79516Y434440D02*
X81661Y435512D01*
X82197Y437974D02*
X82197Y440118D01*
X77907Y442643D02*
X76835Y443984D01*
X81661Y443984D01*
X81661Y445324D02*
X81661Y442643D01*
X76835Y449604D02*
X76837Y449672D01*
X76843Y449739D01*
X76852Y449806D01*
X76865Y449873D01*
X76882Y449938D01*
X76903Y450003D01*
X76927Y450066D01*
X76955Y450128D01*
X76986Y450188D01*
X77020Y450246D01*
X77058Y450302D01*
X77098Y450357D01*
X77142Y450408D01*
X77189Y450457D01*
X77238Y450504D01*
X77289Y450548D01*
X77344Y450588D01*
X77400Y450626D01*
X77458Y450660D01*
X77518Y450691D01*
X77580Y450719D01*
X77643Y450743D01*
X77708Y450764D01*
X77773Y450781D01*
X77840Y450794D01*
X77907Y450803D01*
X77974Y450809D01*
X78042Y450811D01*
X76835Y449604D02*
X76837Y449526D01*
X76843Y449448D01*
X76853Y449371D01*
X76866Y449294D01*
X76884Y449218D01*
X76905Y449143D01*
X76930Y449069D01*
X76959Y448997D01*
X76991Y448926D01*
X77027Y448857D01*
X77066Y448789D01*
X77109Y448724D01*
X77155Y448661D01*
X77204Y448600D01*
X77256Y448542D01*
X77311Y448487D01*
X77368Y448434D01*
X77428Y448385D01*
X77491Y448338D01*
X77556Y448295D01*
X77622Y448255D01*
X77691Y448218D01*
X77762Y448185D01*
X77834Y448155D01*
X77908Y448129D01*
X78980Y450409D02*
X78931Y450458D01*
X78879Y450505D01*
X78824Y450548D01*
X78767Y450589D01*
X78708Y450627D01*
X78647Y450661D01*
X78584Y450692D01*
X78520Y450720D01*
X78454Y450744D01*
X78388Y450764D01*
X78320Y450781D01*
X78251Y450794D01*
X78182Y450803D01*
X78112Y450809D01*
X78042Y450811D01*
X78980Y450408D02*
X81661Y448129D01*
X81661Y450811D01*
X81661Y454956D02*
X76835Y453348D01*
X76835Y456565D02*
X81661Y454956D01*
M02*
