M48
;GenerationSoftware,Autodesk,EAGLE,9.6.2*%
;CreationDate,2020-11-26T18:11:37Z*%
FMAT,2
ICI,OFF
METRIC,TZ,000.000
T8C0.700
T7C0.800
T6C0.900
T5C1.000
T4C1.016
T3C1.200
T2C1.778
T1C2.800
%
G90
M71
T1
X78140Y95510
X78140Y64510
X3140Y95510
X3140Y64510
T2
X13970Y40640
X54610Y55880
X54610Y40640
X13970Y55880
T3
X5080Y40950
X5080Y44450
T4
X67310Y48275
X13970Y12700
X39120Y95510
X34290Y34290
X31750Y34290
X49530Y34290
X46990Y34290
X44450Y34290
X41910Y34290
X39370Y34290
X8640Y95510
X36830Y34290
X11180Y95510
X13720Y95510
X16260Y95510
X18800Y95510
X21340Y95510
X23880Y95510
X26420Y95510
X28960Y95510
X31500Y95510
X34040Y95510
X36580Y95510
X41660Y95510
X44200Y95510
X46740Y95510
X60960Y40640
X60960Y35560
X60960Y54610
X60960Y57150
X11430Y12700
X60960Y38100
X16510Y12700
X19050Y12700
X72390Y48275
X69850Y48275
T5
X34290Y29210
X63500Y86360
X22860Y29210
X16510Y86360
T6
X54610Y92710
X62230Y92710
T7
X46990Y55880
X44450Y55880
X41910Y55880
X39370Y55880
X36830Y55880
X34290Y55880
X31750Y55880
X29210Y55880
X26670Y55880
X24130Y55880
X44450Y40640
X21590Y55880
X19050Y55880
X16510Y55880
X16510Y40640
X19050Y40640
X21590Y40640
X24130Y40640
X26670Y40640
X29210Y40640
X31750Y40640
X7620Y21844
X10160Y21844
X34290Y40640
X15240Y21844
X17780Y21844
X20320Y21844
X22860Y21844
X25400Y21844
X25400Y34544
X22860Y34544
X20320Y34544
X17780Y34544
X15240Y34544
X12700Y34544
X12700Y21844
X7620Y34544
X36830Y40640
X39370Y40640
X41910Y40640
X46990Y40640
X49530Y40640
X52070Y40640
X52070Y55880
X49530Y55880
X10160Y34544
T8
X3830Y52070
X6330Y52070
M30